<svg width="174" height="22" viewBox="0 0 174 22" fill="none" xmlns="http://www.w3.org/2000/svg">
<path d="M8.75976 0.560425L16.0894 20.9708H13.3283L10.7262 13.7517H5.38299L2.80075 20.9708H0L7.34945 0.560425H8.75976ZM9.77279 11.1175L8.04468 6.31155L6.33643 11.1175H9.77279Z" fill="white"/>
<path d="M71.325 18.1755C70.3816 19.1367 69.2598 19.8995 68.024 20.4201C66.7883 20.9407 65.463 21.2087 64.1245 21.2087C62.7861 21.2087 61.4608 20.9407 60.225 20.4201C58.9893 19.8995 57.8674 19.1367 56.924 18.1755C55.4834 16.7171 54.5019 14.8593 54.1034 12.8367C53.705 10.814 53.9074 8.71719 54.6853 6.81094C55.4631 4.9047 56.7815 3.27448 58.4738 2.12619C60.1662 0.977903 62.1567 0.363009 64.1941 0.359131C67.0467 0.436173 69.7619 1.61629 71.7819 3.65699L69.7955 5.46676C68.2807 3.97189 66.2687 3.1041 64.1543 3.03362C62.1857 3.13503 60.3309 3.99807 58.9729 5.44449C57.615 6.89091 56.8578 8.81015 56.8578 10.8056C56.8578 12.8011 57.615 14.7203 58.9729 16.1668C60.3309 17.6132 62.1857 18.4762 64.1543 18.5776C65.7843 18.643 67.3859 18.131 68.6832 17.1298V10.9565H71.2853L71.325 18.1755Z" fill="white"/>
<path d="M116.569 12.7866L109.597 0.560425H112.596L117.86 9.79033L123.144 0.560425H126.163L119.171 12.7866V20.9708H116.569V12.7866Z" fill="white"/>
<path d="M163.978 20.9708V0.560425H166.58V18.3165H173.79V20.9708H163.978Z" fill="white"/>
</svg>
