<svg width="36" height="36" viewBox="0 0 36 36" fill="none" xmlns="http://www.w3.org/2000/svg">
<path d="M15.55 21.15L11.7438 17.3438C11.4229 17.0229 11.0222 16.8701 10.5415 16.8853C10.0597 16.8993 9.65833 17.0667 9.3375 17.3875C9.01667 17.7083 8.85625 18.1167 8.85625 18.6125C8.85625 19.1083 9.01667 19.5167 9.3375 19.8375L14.325 24.825C14.6458 25.1458 15.0542 25.3062 15.55 25.3062C16.0458 25.3062 16.4542 25.1458 16.775 24.825L26.7063 14.8938C27.0271 14.5729 27.1805 14.1716 27.1665 13.6897C27.1513 13.2091 26.9833 12.8083 26.6625 12.4875C26.3417 12.1667 25.9333 12.0062 25.4375 12.0062C24.9417 12.0062 24.5333 12.1667 24.2125 12.4875L15.55 21.15ZM18 35.5C15.5792 35.5 13.3042 35.0403 11.175 34.121C9.04583 33.2028 7.19375 31.9563 5.61875 30.3813C4.04375 28.8063 2.79717 26.9542 1.879 24.825C0.959667 22.6958 0.5 20.4208 0.5 18C0.5 15.5792 0.959667 13.3042 1.879 11.175C2.79717 9.04583 4.04375 7.19375 5.61875 5.61875C7.19375 4.04375 9.04583 2.79658 11.175 1.87725C13.3042 0.959083 15.5792 0.5 18 0.5C20.4208 0.5 22.6958 0.959083 24.825 1.87725C26.9542 2.79658 28.8063 4.04375 30.3813 5.61875C31.9563 7.19375 33.2028 9.04583 34.121 11.175C35.0403 13.3042 35.5 15.5792 35.5 18C35.5 20.4208 35.0403 22.6958 34.121 24.825C33.2028 26.9542 31.9563 28.8063 30.3813 30.3813C28.8063 31.9563 26.9542 33.2028 24.825 34.121C22.6958 35.0403 20.4208 35.5 18 35.5ZM18 32C21.8792 32 25.1826 30.6367 27.9102 27.9102C30.6367 25.1826 32 21.8792 32 18C32 14.1208 30.6367 10.8174 27.9102 8.08975C25.1826 5.36325 21.8792 4 18 4C14.1208 4 10.818 5.36325 8.0915 8.08975C5.36383 10.8174 4 14.1208 4 18C4 21.8792 5.36383 25.1826 8.0915 27.9102C10.818 30.6367 14.1208 32 18 32Z" fill="#8E88C1"/>
</svg>
