<svg width="70" height="71" viewBox="0 0 70 71" fill="none" xmlns="http://www.w3.org/2000/svg">
<g clip-path="url(#clip0_74_1710)">
<path d="M26.8354 70.1441C25.8087 69.5883 24.6858 69.2631 23.6062 68.8354C21.7817 68.1098 19.9444 67.4178 18.1119 66.7146C16.8849 66.2453 16.6702 65.9489 16.6943 64.6322C16.7183 63.4228 16.7647 62.2151 16.824 61.0073C16.846 60.8048 16.811 60.6002 16.7229 60.4166C16.6349 60.2329 16.4974 60.0774 16.3258 59.9677C14.3702 58.5371 12.6075 56.86 11.0814 54.978C10.9699 54.8214 10.8187 54.6973 10.6433 54.6184C10.4679 54.5396 10.2747 54.5089 10.0835 54.5295C8.74117 54.6304 7.39883 54.7089 6.0581 54.8162C5.24757 54.8803 4.71737 54.5615 4.39059 53.8055C3.13369 50.8923 1.86184 47.9849 0.575033 45.0835C0.243454 44.3322 0.381212 43.7251 0.977093 43.1725C1.91256 42.3027 2.81599 41.3977 3.75947 40.5359C3.94101 40.3816 4.07726 40.1809 4.15371 39.9552C4.23015 39.7295 4.24393 39.4873 4.19357 39.2544C3.82034 36.8517 3.85718 34.4345 4.05101 32.019C4.06606 31.8477 4.03597 31.6755 3.96374 31.5195C3.89151 31.3636 3.77966 31.2292 3.63934 31.1299C2.80799 30.4155 1.98785 29.6883 1.14208 28.9931C-0.157003 27.9231 -0.243502 27.6139 0.355582 26.0778C1.41439 23.3546 2.46199 20.6315 3.5192 17.9084C3.89883 16.9313 4.22721 16.691 5.26199 16.7087C6.56107 16.7327 7.86016 16.7823 9.15924 16.84C9.35143 16.8573 9.54467 16.8216 9.71804 16.7369C9.89141 16.6522 10.0383 16.5217 10.1428 16.3595C11.6098 14.3751 13.3195 12.582 15.2318 11.0222C15.3602 10.9276 15.4618 10.8012 15.5264 10.6554C15.591 10.5096 15.6165 10.3495 15.6002 10.1908C15.5297 9.12292 15.4608 8.05503 15.3936 6.98714C15.3695 6.62353 15.3343 6.25991 15.3231 5.89469C15.3007 5.20591 15.5986 4.72856 16.2473 4.45304C18.6965 3.37661 21.1393 2.29698 23.5853 1.22055C24.1075 0.990954 24.6308 0.764028 25.1551 0.539772C25.4329 0.397646 25.7506 0.353691 26.0566 0.415057C26.3626 0.476422 26.6387 0.639497 26.8403 0.877758C27.7533 1.83886 28.6824 2.77913 29.5778 3.76105C29.7309 3.9446 29.931 4.08312 30.1567 4.16183C30.3824 4.24054 30.6252 4.25648 30.8592 4.20797C33.2876 3.82513 35.7256 3.8876 38.1652 4.04778C38.54 4.07341 38.7707 3.90522 38.9853 3.65693C39.7478 2.77913 40.5215 1.90934 41.2631 1.01391C42.1874 -0.0993586 42.5222 -0.219496 43.8437 0.283479C46.6202 1.33962 49.3898 2.40751 52.1524 3.48714C53.248 3.91163 53.4419 4.19515 53.4194 5.38851C53.397 6.64275 53.349 7.89698 53.2881 9.14961C53.2697 9.35273 53.3082 9.55695 53.3993 9.73942C53.4904 9.92189 53.6305 10.0754 53.8039 10.1828C55.7411 11.5993 57.4876 13.2596 59.0002 15.1228C59.1258 15.2978 59.2962 15.4356 59.4936 15.5219C59.6909 15.6081 59.9078 15.6396 60.1215 15.613C61.4398 15.5089 62.7597 15.4352 64.078 15.3263C64.9302 15.2574 65.4476 15.6338 65.7792 16.4011C66.9998 19.2235 68.2492 22.0444 69.4746 24.8636C69.9135 25.8663 69.8318 26.2732 69.0261 27.0565C68.1435 27.9151 67.2561 28.772 66.3462 29.6018C65.9426 29.9702 65.8464 30.3723 65.9329 30.8833C66.3286 33.2139 66.2741 35.5638 66.1204 37.9073C66.0867 38.4263 66.1908 38.7675 66.5769 39.0926C67.727 40.0649 68.8563 41.0597 69.9936 42.0464V43.6915C69.7917 43.8933 69.7277 44.172 69.63 44.4203C68.6336 46.9929 67.6485 49.5718 66.6458 52.1428C66.2101 53.264 65.9361 53.445 64.7524 53.4242C63.6311 53.4034 62.5178 53.3778 61.4062 53.2897C60.6453 53.2288 60.1471 53.4755 59.6986 54.1146C58.496 55.8109 57.0593 57.3285 55.4313 58.6222C54.6432 59.2533 54.4302 59.9148 54.5487 60.8647C54.6929 62.0148 54.7297 63.1794 54.7954 64.3391C54.8306 64.9798 54.5183 65.4331 53.9368 65.6878C50.9927 66.98 48.0469 68.27 45.0995 69.5579C44.3659 69.8782 43.738 69.7725 43.1773 69.1702C42.3252 68.2508 41.4281 67.3698 40.592 66.4359C40.4196 66.2246 40.1908 66.0666 39.9323 65.9801C39.6737 65.8937 39.3959 65.8823 39.1311 65.9473C36.9126 66.3446 34.67 66.2469 32.4435 66.1267C31.6586 66.0851 31.2437 66.3318 30.7776 66.87C29.8165 67.9913 28.9675 69.2231 27.7853 70.1441H26.8354ZM50.7988 7.10888C50.8133 5.76655 50.8165 5.76014 49.7625 5.34687C47.7618 4.56838 45.7579 3.80911 43.7604 3.01941C43.3343 2.85922 43.0556 2.90087 42.7561 3.26929C42.0641 4.11666 41.2679 4.88554 40.6224 5.76494C40.0089 6.5995 39.248 6.79332 38.2949 6.69561C35.5917 6.40021 32.8604 6.48324 30.1801 6.94229C29.8779 7.01071 29.5629 6.99574 29.2686 6.89896C28.9743 6.80219 28.7119 6.62725 28.5094 6.39286C27.6604 5.46861 26.7826 4.56998 25.916 3.66975C25.7094 3.4535 25.5043 3.22444 25.1503 3.37982C22.8768 4.37936 20.5985 5.3773 18.3153 6.37364C18.207 6.41311 18.1158 6.48905 18.0573 6.58842C17.9989 6.68779 17.9768 6.80441 17.9949 6.91826C18.0846 8.07799 18.083 9.25053 18.2737 10.3926C18.4338 11.3842 18.1439 12.0698 17.3846 12.6544C15.1734 14.3561 13.246 16.3976 11.6741 18.7029C11.5152 18.954 11.291 19.157 11.0254 19.2902C10.7599 19.4234 10.463 19.4818 10.1668 19.459C8.91256 19.4334 7.65673 19.459 6.4057 19.3212C5.95238 19.2748 5.68808 19.4638 5.52629 19.8931C4.70295 22.0748 3.86786 24.2485 3.02103 26.4141C2.87847 26.781 2.9073 27.0421 3.22927 27.3112C4.06863 28.0144 4.8311 28.8201 5.71691 29.4528C6.63957 30.108 6.80135 30.9409 6.69403 31.9581C6.4061 34.6158 6.49021 37.3007 6.94391 39.9352C7.01292 40.2482 6.99525 40.5741 6.89279 40.8778C6.79033 41.1815 6.60697 41.4515 6.36245 41.6588C5.45261 42.4885 4.5732 43.3535 3.68098 44.2041C3.44391 44.4299 3.23087 44.643 3.40226 45.029C4.39059 47.2636 5.36611 49.5029 6.34643 51.7391C6.45375 51.9858 6.60432 52.154 6.91508 52.1283C8.19654 52.0226 9.46359 51.9569 10.7338 51.824C11.429 51.7519 11.9865 51.8897 12.427 52.4647C14.2032 54.7912 16.3365 56.8219 18.7478 58.4812C18.9822 58.6258 19.1725 58.8319 19.2982 59.077C19.4238 59.322 19.48 59.5968 19.4606 59.8716C19.4158 61.1018 19.5199 62.3384 19.3437 63.5638C19.27 64.0764 19.3981 64.4192 19.9428 64.621C22.1036 65.4219 24.2549 66.2565 26.4014 67.099C26.8338 67.2688 27.1014 67.1855 27.3961 66.8235C28.056 66.0082 28.8377 65.2858 29.4336 64.4208C30.0984 63.4597 30.9634 63.3219 31.9965 63.4277C34.6318 63.7135 37.2941 63.6305 39.9064 63.181C40.5872 63.0608 41.1526 63.213 41.638 63.7416C42.4853 64.6675 43.3647 65.5629 44.2313 66.4647C44.4428 66.6858 44.6478 66.8828 45.0018 66.7274C47.2572 65.7332 49.5152 64.7433 51.776 63.7576C51.8948 63.7158 51.995 63.6331 52.0584 63.5242C52.1218 63.4153 52.1443 63.2874 52.122 63.1634C52.029 62.0036 52.0451 60.8295 51.8528 59.6874C51.6798 58.6526 52.0531 57.9782 52.8139 57.3904C54.9904 55.721 56.8835 53.7116 58.4203 51.4396C58.5738 51.185 58.7941 50.9776 59.0574 50.8397C59.3206 50.7019 59.6167 50.639 59.9133 50.6579C61.1451 50.6915 62.3801 50.637 63.6055 50.7924C64.1453 50.8613 64.4352 50.6402 64.6291 50.126C65.43 47.9903 66.2522 45.8609 67.0959 43.7379C67.2689 43.3022 67.1856 43.0347 66.8268 42.7384C65.9634 42.0288 65.1753 41.2231 64.2814 40.5567C63.4933 39.9672 63.3204 39.2416 63.4165 38.3398C63.7118 35.6133 63.6321 32.8592 63.1794 30.1544C63.1107 29.8532 63.126 29.539 63.2234 29.2459C63.3208 28.9527 63.4967 28.6919 63.732 28.4917C64.6531 27.6395 65.5501 26.7617 66.4551 25.8984C66.7018 25.6645 66.8684 25.4354 66.7034 25.0622C65.7263 22.8367 64.7519 20.6027 63.7801 18.3601C63.6679 18.1038 63.5158 17.9677 63.2066 17.9949C61.9796 18.0974 60.7446 18.1279 59.5224 18.2881C58.6991 18.397 58.0936 18.1695 57.6002 17.5336C55.8617 15.2656 53.778 13.2846 51.4252 11.6629C51.176 11.5 50.9741 11.2743 50.84 11.0086C50.7058 10.7428 50.6441 10.4464 50.6611 10.1492C50.6487 9.13393 50.6947 8.11883 50.7988 7.10888Z" fill="#141C5B"/>
<path d="M57.9414 35.0753C57.7443 47.8339 47.7473 57.9254 35.0464 57.8966C22.086 57.8614 12.1931 47.5824 12.2411 35.0289C12.2908 22.1133 22.48 12.2428 35.0544 12.2396C47.8578 12.238 57.7555 22.4 57.9414 35.0753ZM49.1729 49.4085C49.8172 48.9161 50.3856 48.3316 50.8597 47.6737C54.2876 43.2959 55.7453 38.3206 55.1494 32.8087C54.6176 27.8799 52.4935 23.6783 48.851 20.2984C44.3194 16.0904 38.9196 14.3717 32.8054 14.9756C29.1148 15.3196 25.6078 16.745 22.7235 19.073C17.3221 23.398 14.6759 29.0172 14.9002 35.9643C14.9988 38.9425 15.7792 41.8583 17.1812 44.4877C18.0298 46.1351 19.1193 47.6467 20.4137 48.9728C20.5322 49.0929 20.6347 49.3332 20.8398 49.2387C21.0448 49.1442 20.9471 48.9183 20.9487 48.7389C20.9487 47.3229 20.9295 45.9069 20.9615 44.4909C20.9648 43.7382 21.0377 42.9875 21.1794 42.2483C21.8553 39.0591 24.2837 36.8934 27.678 36.3488C28.5542 36.2078 29.2141 36.4369 29.7828 37.1417C32.4723 40.4655 37.7279 40.4655 40.3789 37.1209C40.8514 36.525 41.3977 36.2318 42.1409 36.3071C44.667 36.5554 46.626 37.7488 48.01 39.8712C48.8574 41.1767 49.1521 42.6456 49.1601 44.1785C49.1761 45.8652 49.1681 47.552 49.1681 49.4085H49.1729ZM23.6798 47.2076H23.6718C23.6718 48.4618 23.691 49.7177 23.6622 50.9719C23.6376 51.2188 23.6881 51.4673 23.807 51.6851C23.9258 51.9028 24.1076 52.0796 24.3286 52.1925C27.9375 54.3838 31.8187 55.425 36.0588 55.236C39.6661 55.0758 42.937 53.9545 45.9901 52.082C46.3457 51.8625 46.562 51.6158 46.5588 51.1593C46.5427 48.7854 46.5908 46.4115 46.5379 44.0392C46.4851 41.6204 45.2421 39.884 43.2061 39.184C42.6583 38.995 42.213 39.0238 41.7853 39.4868C41.4183 39.8618 41.0129 40.1974 40.5759 40.4879C36.7075 43.1918 31.8107 42.7945 28.3395 39.49C27.9967 39.1696 27.6796 38.9934 27.1878 39.1264C26.2075 39.3779 25.3356 39.9415 24.7036 40.7321C24.0717 41.5226 23.714 42.4973 23.6846 43.509C23.6622 44.7424 23.6798 45.9742 23.6798 47.2076Z" fill="#141C5B"/>
<path d="M43.1597 28.0961C43.158 29.1601 42.9464 30.2133 42.5368 31.1952C42.1273 32.1772 41.5279 33.0687 40.7731 33.8186C40.0184 34.5685 39.123 35.162 38.1383 35.5651C37.1537 35.9682 36.0992 36.173 35.0352 36.1678C30.5084 36.1678 26.954 32.514 26.954 27.9055C26.954 23.6607 30.478 19.8964 35.0897 19.8964C39.6309 19.8964 43.1725 23.5597 43.1597 28.0961ZM40.5407 28.0433C40.5369 26.9596 40.212 25.9014 39.607 25.0024C39.0021 24.1033 38.1442 23.4037 37.1418 22.992C36.1394 22.5803 35.0374 22.475 33.9752 22.6893C32.9129 22.9036 31.938 23.428 31.1737 24.1961C30.4093 24.9643 29.8898 25.9418 29.6808 27.0051C29.4717 28.0684 29.5825 29.1698 29.9992 30.1701C30.4159 31.1705 31.1197 32.0249 32.0217 32.6254C32.9238 33.2259 33.9836 33.5455 35.0673 33.544C35.7894 33.5476 36.505 33.4076 37.1725 33.1321C37.84 32.8566 38.446 32.4512 38.9554 31.9393C39.4647 31.4274 39.8672 30.8194 40.1393 30.1505C40.4115 29.4816 40.5479 28.7653 40.5407 28.0433Z" fill="#141C5B"/>
</g>
<defs>
<clipPath id="clip0_74_1710">
<rect width="70" height="70.1458" fill="white"/>
</clipPath>
</defs>
</svg>
