<svg width="75" height="58" viewBox="0 0 75 58" fill="none" xmlns="http://www.w3.org/2000/svg">
<g clip-path="url(#clip0_74_1714)">
<path d="M0 41.6751C0.342466 41.0019 0.90998 40.8219 1.63601 40.8239C8.83627 40.8382 16.0365 40.8382 23.2368 40.8239H24.2153V37.8747C24.2153 37.1428 24.2153 36.4109 24.2153 35.679C24.225 34.5323 24.6066 34.1448 25.7632 34.1428C29.3027 34.135 32.8421 34.135 36.3816 34.1428H49.0411C50.4755 34.1428 50.7906 34.4657 50.7925 35.9178C50.7925 36.6438 50.7925 37.3698 50.7925 38.1878H73.2426C74.6692 38.1878 75.0039 38.5244 75.0039 39.9628V55.6321C75.0039 56.9237 74.6595 57.2661 73.3464 57.2661C49.452 57.2661 25.5571 57.27 1.66145 57.2779C0.945205 57.2779 0.369863 57.1272 0.00391398 56.4716L0 41.6751ZM37.4266 54.9217C40.8434 54.9217 44.2622 54.908 47.679 54.9334C48.2779 54.9334 48.4618 54.7808 48.4618 54.1624C48.4383 48.5225 48.4383 42.8832 48.4618 37.2446C48.4618 36.6282 48.2779 36.4618 47.679 36.4716C40.895 36.4912 34.1109 36.4912 27.3268 36.4716C26.728 36.4716 26.544 36.6242 26.544 37.2426C26.5675 42.8826 26.5675 48.5218 26.544 54.1604C26.544 54.7769 26.726 54.9432 27.3268 54.9334C30.6888 54.908 34.0509 54.9217 37.4266 54.9217ZM72.6262 40.5773H50.8473V54.8728H72.6262V40.5773ZM2.37182 43.2192V54.8591H24.1644V43.2192H2.37182Z" fill="#141C5B" stroke="#141C5B" stroke-width="0.5"/>
<path d="M37.4971 18.546C38.2975 17.8435 39.0137 17.1409 39.8121 16.548C40.1724 16.2783 40.6207 16.1533 41.0685 16.1977C43.1487 16.6008 45.2231 17.045 47.2759 17.5675C48.9315 17.9922 50.6399 20.3366 50.681 22.135C50.7254 24.062 50.7371 25.9902 50.7163 27.9198C50.6986 29.6458 49.5225 30.8102 47.7985 30.8121C40.9387 30.8239 34.0809 30.8239 27.2251 30.8121C25.4638 30.8121 24.2896 29.638 24.2896 27.8767C24.274 25.9746 24.2896 24.0705 24.3249 22.1664C24.3738 20.1194 26.1937 17.9335 28.2074 17.4599C30.0098 17.0372 31.82 16.6439 33.6204 16.2153C33.936 16.1204 34.2718 16.115 34.5904 16.1996C34.9089 16.2843 35.1978 16.4557 35.4247 16.6947C36.0607 17.3229 36.7613 17.8963 37.4971 18.546ZM37.4873 28.4795C40.8141 28.4795 44.1253 28.4658 47.4442 28.4912C48.1311 28.4912 48.4129 28.2955 48.3953 27.5714C48.3484 25.865 48.3777 24.1546 48.3444 22.4482C48.3074 21.8132 48.072 21.2059 47.6714 20.7119C47.2708 20.2179 46.7252 19.8621 46.1116 19.6947C44.591 19.3425 43.0724 18.9844 41.544 18.681C41.2284 18.6422 40.91 18.7271 40.6556 18.9178C39.9296 19.4912 39.2564 20.1331 38.5597 20.7437C37.7319 21.4677 37.274 21.4716 36.4599 20.7593C35.7437 20.1331 35.0509 19.4775 34.3073 18.8826C34.0691 18.7078 33.7719 18.6334 33.4795 18.6752C31.9765 18.9805 30.4834 19.3405 28.9785 19.681C28.3357 19.8309 27.7596 20.1872 27.3384 20.6954C26.9171 21.2035 26.6739 21.8357 26.6458 22.4951C26.6184 24.1292 26.6125 25.7652 26.6086 27.4012C26.6086 28.4716 26.6341 28.4795 27.7417 28.4795C30.9915 28.4756 34.2401 28.4756 37.4873 28.4795Z" fill="#141C5B" stroke="#141C5B" stroke-width="0.5"/>
<path d="M62.4462 24.2329C62.9335 23.8043 63.4032 23.4188 63.8415 23.002C64.041 22.7883 64.2962 22.6347 64.5784 22.5586C64.8607 22.4825 65.1586 22.487 65.4384 22.5714C66.7613 22.908 68.0998 23.1742 69.4286 23.4834C71.1898 23.8943 72.6125 25.5147 72.7065 27.3268C72.7828 28.7867 72.7887 30.2622 72.7574 31.7162C72.7241 33.229 71.6928 34.1918 70.1624 34.1957C65.0157 34.2035 59.8682 34.2035 54.7202 34.1957C53.1546 34.1957 52.1546 33.1957 52.1429 31.638C52.1331 30.3209 52.1429 29.002 52.1566 27.6849C52.1646 26.7042 52.5029 25.7549 53.1168 24.9901C53.7307 24.2252 54.5844 23.6896 55.5401 23.4697C56.8435 23.1605 58.1585 22.9021 59.454 22.5734C59.7226 22.4913 60.0085 22.4843 60.2807 22.5533C60.553 22.6223 60.8011 22.7646 60.9981 22.9648C61.4638 23.3836 61.9472 23.7926 62.4462 24.2329ZM54.503 31.8043H70.364C70.364 30.2975 70.4403 28.8337 70.3327 27.3816C70.272 26.5401 69.7026 25.9237 68.8024 25.726C67.7789 25.501 66.7632 25.2329 65.7319 25.0509C65.4133 25.0169 65.0932 25.1004 64.8317 25.2857C64.3014 25.6771 63.8395 26.1507 63.3366 26.5753C62.7104 27.1037 62.1918 27.1057 61.5754 26.5753C61.0705 26.1507 60.6086 25.6712 60.0783 25.2857C59.8181 25.097 59.4981 25.0094 59.1781 25.0391C58.1233 25.2348 57.0803 25.4853 56.0372 25.7339C55.2446 25.9295 54.546 26.681 54.5186 27.4951C54.4716 28.9198 54.503 30.3346 54.503 31.8043Z" fill="#141C5B" stroke="#141C5B" stroke-width="0.5"/>
<path d="M12.5245 27.9765C12.9746 27.5851 13.411 27.2407 13.8122 26.8552C14.0028 26.6651 14.2414 26.5301 14.5026 26.4647C14.7637 26.3992 15.0377 26.4057 15.2955 26.4834C16.5069 26.7632 17.7202 27.0333 18.9315 27.3112C19.8005 27.5237 20.5777 28.011 21.1475 28.7007C21.7173 29.3903 22.0492 30.2455 22.094 31.139C22.1292 32.3836 22.1253 33.6282 22.1155 34.8728C22.1018 36.4384 21.1077 37.3738 19.4971 37.3679C16.7163 37.3562 13.9335 37.3347 11.1527 37.3307C9.32293 37.3307 7.49123 37.3503 5.66148 37.366C3.89044 37.3797 2.95111 36.4579 2.94524 34.6791C2.94524 33.5812 2.98046 32.4814 2.94524 31.3836C2.89631 29.4384 4.6106 27.4521 6.24074 27.274C7.32832 27.1198 8.40208 26.8804 9.45209 26.5578C10.272 26.3268 10.9237 26.4619 11.5069 27.0822C11.8043 27.3934 12.1585 27.6595 12.5245 27.9765ZM19.7652 34.9726C19.7652 34.1409 19.7652 33.3425 19.7652 32.5441C19.7652 32.0568 19.8122 31.5558 19.7182 31.0861C19.5676 30.3288 19.1566 29.7437 18.3308 29.5695C17.945 29.5142 17.5651 29.4238 17.1957 29.2994C15.7495 28.7123 14.5206 28.908 13.5558 30.2055C13.5231 30.2421 13.4863 30.275 13.4462 30.3034C12.7769 30.8552 12.272 30.865 11.6204 30.317C11.1899 29.9589 10.8043 29.5343 10.3464 29.2231C10.0852 29.036 9.7666 28.9466 9.44622 28.9707C8.53624 29.1214 7.638 29.3621 6.7378 29.5578C6.35224 29.6347 6.00314 29.8375 5.7453 30.1343C5.48745 30.4311 5.33545 30.8051 5.31314 31.1977C5.26618 32.4364 5.29945 33.6771 5.29945 34.9648L19.7652 34.9726Z" fill="#141C5B" stroke="#141C5B" stroke-width="0.5"/>
<path d="M37.5069 0C37.9315 0.0254403 38.3699 0.0371825 38.8063 0.0861062C41.4168 0.37182 42.9315 1.84736 43.1879 4.46184C43.4583 7.0595 42.8087 9.6697 41.3523 11.8376C41.2319 12.021 41.1013 12.1974 40.9609 12.3659C38.8748 14.8826 36.1135 14.9276 34.0783 12.3659C33.1391 11.2182 32.4582 9.88158 32.082 8.44705C31.7058 7.01252 31.6431 5.51377 31.8983 4.05284C32.2896 1.57534 33.683 0.375734 36.1761 0.0861062C36.6125 0.0391394 37.0529 0.0293542 37.5069 0ZM37.4208 2.34834C37.1683 2.36595 36.728 2.37573 36.2936 2.4364C34.9452 2.63209 34.3366 3.18395 34.1722 4.53229C33.9022 6.85127 34.4403 8.99217 35.8669 10.8571C36.9413 12.2564 38.0626 12.2505 39.1448 10.8571C40.2672 9.39778 40.8791 7.61013 40.8865 5.76908C40.9413 3.1683 40.1879 2.39922 37.4208 2.35225V2.34834Z" fill="#141C5B" stroke="#141C5B" stroke-width="0.5"/>
<path d="M57.7965 14.5695C57.8382 14.1013 57.9081 13.636 58.0059 13.1762C58.3856 11.6674 59.3092 10.6674 60.8944 10.4638C61.7832 10.3268 62.6854 10.2979 63.5813 10.3777C65.7085 10.6243 66.8631 11.8533 67.0529 14.047C67.2663 16.1602 66.6689 18.2755 65.3817 19.9648C63.6791 22.2192 61.231 22.2094 59.5108 19.9648C58.3562 18.4541 57.863 16.7163 57.7965 14.5695ZM62.4482 12.6439C60.91 12.6439 60.3601 12.9472 60.2231 13.9766C60.1019 14.8003 60.1499 15.64 60.3642 16.4445C60.5786 17.2491 60.9547 18.0014 61.4697 18.6556C62.1214 19.5069 62.773 19.4991 63.4404 18.6556C64.2559 17.6062 64.7097 16.321 64.7339 14.9922C64.8122 13.1507 64.2995 12.6419 62.4482 12.6439Z" fill="#141C5B" stroke="#141C5B" stroke-width="0.5"/>
<path d="M16.8747 19.9041C16.8107 21.5515 16.2086 23.1325 15.1604 24.4051C13.5949 26.2936 11.4696 26.3249 9.92561 24.4266C9.17291 23.5379 8.63916 22.485 8.36727 21.3526C8.09537 20.2201 8.0929 19.0397 8.36006 17.9061C8.681 16.4286 9.6536 15.5382 11.1722 15.3092C11.6759 15.2237 12.1858 15.1798 12.6967 15.1781C15.5186 15.2212 16.9002 16.6458 16.8747 19.9041ZM10.5225 19.7417C10.5674 20.8444 10.9401 21.9086 11.5929 22.7984C12.2505 23.7026 12.8219 23.6928 13.4814 22.773C14.125 21.8739 14.4867 20.8038 14.5205 19.6986C14.5968 17.9159 14.1409 17.4638 12.3679 17.5264C10.8884 17.5754 10.5107 17.9667 10.5225 19.7378V19.7417Z" fill="#141C5B" stroke="#141C5B" stroke-width="0.5"/>
<path d="M36.8846 42.867C35.8102 43.3993 35.2466 43.3562 34.8415 42.7398C34.4365 42.1233 34.6459 41.5128 35.5793 40.8102C36.1253 40.3993 36.6732 39.9883 37.2134 39.5734C37.6459 39.2427 38.094 39.0431 38.6322 39.319C39.1703 39.595 39.2877 40.049 39.2858 40.6008C39.276 43.458 39.2858 46.3132 39.2858 49.1684C39.2858 49.3817 39.3093 49.595 39.3249 49.8807C39.7006 49.8807 40.0372 49.8611 40.3699 49.8807C40.5231 49.8818 40.6745 49.914 40.815 49.9752C40.9554 50.0365 41.0819 50.1257 41.1869 50.2372C41.2919 50.3488 41.3732 50.4806 41.4259 50.6245C41.4785 50.7683 41.5014 50.9214 41.4932 51.0744C41.4964 51.222 41.4699 51.3687 41.4153 51.5058C41.3608 51.643 41.2793 51.7678 41.1756 51.8729C41.072 51.978 40.9483 52.0612 40.8119 52.1177C40.6756 52.1742 40.5293 52.2027 40.3817 52.2016C38.8696 52.2316 37.3562 52.2316 35.8415 52.2016C35.5439 52.1934 35.2613 52.069 35.0543 51.8551C34.8473 51.6411 34.7323 51.3545 34.7339 51.0568C34.7331 50.7601 34.8446 50.474 35.0461 50.2562C35.2476 50.0384 35.5241 49.9049 35.82 49.8826C36.1566 49.8513 36.4971 49.8826 36.8885 49.8826L36.8846 42.867Z" fill="#141C5B" stroke="#141C5B" stroke-width="0.5"/>
</g>
<defs>
<clipPath id="clip0_74_1714">
<rect width="75" height="57.2759" fill="white"/>
</clipPath>
</defs>
</svg>
