<svg width="119" height="100" viewBox="0 0 119 100" fill="none" xmlns="http://www.w3.org/2000/svg">
<g clip-path="url(#clip0_83_5230)">
<path d="M92.2038 14.9562C88.682 14.8795 85.6844 16.16 83.0347 18.4622C81.5489 19.7274 80.3328 21.2822 79.4598 23.0329C78.5867 24.7836 78.0747 26.694 77.9546 28.6491C77.6734 31.9297 77.254 35.1958 76.9061 38.4716C76.6488 40.908 76.4296 43.3492 76.1532 45.7857C75.872 48.4907 75.5813 51.1957 75.3049 53.9007C75.0475 56.3755 74.8045 58.8551 74.5472 61.3299C74.2279 64.4138 73.9181 67.5025 73.594 70.5864C73.0555 75.3825 68.39 78.6199 63.4099 77.301C60.5172 76.524 58.7014 73.5264 59.0732 70.3178C59.4687 66.8598 59.8071 63.3874 60.1788 59.9246C60.5267 56.6489 60.8984 53.3779 61.2415 50.1022C61.5846 46.8264 61.8944 43.4691 62.2375 40.155C62.5807 36.8409 62.9619 33.6083 63.2955 30.3326C63.4337 28.9561 63.5528 27.5844 63.7721 26.2223C64.5884 20.6451 66.9822 15.4221 70.6679 11.1769C74.3284 6.7744 79.1382 3.48867 84.555 1.69014C87.8613 0.61008 91.3329 0.134162 94.8058 0.284879C97.9766 0.364762 101.108 1.01446 104.051 2.20333C108.626 4.12269 112.481 7.44594 115.069 11.6996C117.199 15.1774 118.378 19.16 118.486 23.2439C118.701 27.4992 118.044 31.7535 116.556 35.7426C115.311 39.0485 113.49 42.1049 111.181 44.7689C108.77 47.5445 105.928 49.9077 102.764 51.7664C99.7519 53.5109 96.4498 54.6906 93.0187 55.2484C91.5501 55.4703 90.0706 55.6111 88.5867 55.6705C86.547 55.8143 84.6598 55.3299 83.1729 53.752C82.2121 52.7485 81.6537 51.423 81.605 50.0302C81.5097 48.0734 81.7337 46.1933 82.8489 44.5243C84.4454 42.1262 86.7567 41.0423 89.5446 41.0231C92.4004 41.056 95.1897 40.1557 97.4936 38.4572C101.054 35.8433 103.37 32.4525 103.884 27.9057C104.257 25.0206 103.53 22.1004 101.851 19.7326C100.171 17.3648 97.6622 15.7251 94.8297 15.1433C93.9612 15.0066 93.0828 14.944 92.2038 14.9562Z" fill="#C9C9C9"/>
<path d="M0.455935 53.1765C0.327263 36.6107 12.6893 26.0592 22.902 23.4405C25.871 22.6828 28.8829 22.1936 31.9567 22.5293C35.5357 22.9226 37.7613 25.8866 37.3991 29.4837C37.1608 31.8433 36.3078 33.8529 34.4158 35.3445C32.9856 36.455 31.2277 37.0526 29.4214 37.0423C23.7551 37.1191 19.6471 39.8672 16.7925 44.625C15.2124 47.2914 14.6279 50.437 15.1436 53.4978C15.8918 58.5769 20.3048 62.4666 25.4135 62.8934C33.3292 63.5457 39.4531 57.3827 40.6254 51.7328C41.0353 49.7377 41.1449 47.7089 41.3641 45.6897C41.9074 40.7737 42.4078 35.8577 42.9177 30.9417C43.4133 26.1743 43.9026 21.4086 44.3855 16.6444C44.7 13.6325 44.9812 10.6205 45.3386 7.61334C45.9248 2.56782 50.2329 -0.540063 55.1272 0.462326C56.4703 0.711066 57.6836 1.42728 58.5549 2.48559C59.4261 3.54391 59.8997 4.8769 59.8928 6.25124C59.931 8.32796 59.5545 10.3759 59.3496 12.4334C58.873 17.2727 58.344 22.112 57.8389 26.9513L56.3234 41.3397C55.9993 44.4284 55.7086 47.5171 55.3417 50.601C54.4838 57.7952 51.3576 63.8047 46.1821 68.7831C42.627 72.2027 38.5953 74.831 33.8582 76.241C27.7344 78.0588 21.5534 78.2554 15.5725 75.8669C7.1993 72.5097 2.22874 66.2219 0.660853 57.2676C0.56026 56.7402 0.494981 56.2066 0.465461 55.6705C0.436867 54.8599 0.455935 54.0158 0.455935 53.1765Z" fill="#7E7E7E"/>
<path d="M31.8042 92.7541C31.8415 93.9859 31.6139 95.2113 31.137 96.3464C30.7948 97.2072 30.2177 97.9531 29.4722 98.4979C28.7268 99.0427 27.8435 99.3643 26.9242 99.4255C25.9775 99.5642 25.0122 99.4972 24.0934 99.2288C23.4631 99.0588 22.8901 98.7202 22.4354 98.2491C21.9806 97.7779 21.6611 97.1917 21.5105 96.5526C21.2158 95.4569 21.1577 94.3104 21.3402 93.1902C21.5227 92.0701 21.9415 91.0022 22.5684 90.0586C23.9981 87.886 27.2864 87.0994 29.6073 88.2841C30.0495 88.5112 30.443 88.8237 30.7652 89.2039C31.0874 89.5841 31.3319 90.0245 31.4849 90.4999C31.7347 91.2235 31.8432 91.989 31.8042 92.7541Z" fill="#7E7E7E"/>
<path d="M3.8205 99.1473C3.2105 99.1473 2.6005 99.1713 1.9905 99.1473C1.22323 99.1137 1.12316 99.013 1.17558 98.2552C1.228 97.4974 1.32808 96.6533 1.41386 95.8572C1.63308 93.7229 1.86182 91.5886 2.0858 89.4543C2.21447 88.2169 2.26213 88.169 3.4583 88.1594C4.5258 88.1594 5.59331 88.1594 6.66081 88.1594C9.2676 88.2217 10.9118 89.9004 10.988 92.5143C11.0489 93.902 10.7185 95.2787 10.0349 96.4854C9.60346 97.2826 8.9682 97.9493 8.19484 98.4164C7.42149 98.8836 6.53813 99.1343 5.6362 99.1425C5.03096 99.1713 4.42097 99.1425 3.81097 99.1425L3.8205 99.1473Z" fill="#7E7E7E"/>
<path d="M95.1108 88.1546C96.7264 88.1546 96.8026 88.2073 97.1029 89.4064C97.8145 92.2297 98.5151 95.0546 99.2045 97.8811C99.271 98.1395 99.3188 98.4024 99.3475 98.6677C99.3541 98.7638 99.3292 98.8594 99.2767 98.9399C99.2242 99.0204 99.147 99.0815 99.0568 99.1137C98.8415 99.2261 98.6034 99.2871 98.3609 99.2918C98.1184 99.2965 97.8781 99.2449 97.6586 99.141C97.4392 99.0371 97.2465 98.8836 97.0956 98.6925C96.9446 98.5015 96.8395 98.278 96.7883 98.0394C96.5119 96.9747 96.469 96.9315 95.4254 96.9027C95.0822 96.9027 94.7344 96.9315 94.4008 96.9027C93.176 96.7492 92.2896 97.0514 91.8559 98.3799C91.6033 99.1569 90.3786 99.483 89.6208 99.1329C89.5286 99.1061 89.4507 99.0436 89.4042 98.9591C89.3577 98.8746 89.3465 98.7749 89.373 98.6821C89.4473 98.3859 89.5478 98.0969 89.6733 97.8188C91.0315 94.8644 92.423 91.9291 93.7526 88.9603C93.8517 88.6888 94.0411 88.4601 94.2887 88.3132C94.5363 88.1663 94.8268 88.1103 95.1108 88.1546Z" fill="#C9C9C9"/>
<path d="M76.9633 88.169C77.6496 88.169 78.3358 88.1354 79.0173 88.169C79.6528 88.1812 80.2654 88.4098 80.7553 88.8174C81.2451 89.225 81.5833 89.7877 81.7146 90.4135C81.8446 90.9348 81.8615 91.478 81.7641 92.0064C81.6667 92.5347 81.4574 93.0358 81.1503 93.4754C80.8433 93.915 80.4457 94.2829 79.9847 94.5541C79.5237 94.8252 79.0101 94.9932 78.4788 95.0466C77.8783 95.0993 77.2635 95.0466 76.6535 95.0754C75.5527 95.1041 75.343 95.2912 75.2524 96.4135C75.2365 97.0578 75.1664 97.6996 75.0428 98.3319C74.8426 99.1137 73.4987 99.5118 72.9364 98.9554C72.8501 98.8527 72.7892 98.731 72.7586 98.6002C72.7279 98.4693 72.7284 98.3331 72.76 98.2024C73.0078 95.8491 73.2588 93.4926 73.513 91.133C73.5749 90.5239 73.6083 89.91 73.6989 89.3056C73.8514 88.2985 74.0182 88.169 75.0237 88.1354H76.9633V88.169Z" fill="#C9C9C9"/>
<path d="M110.876 98.0538C110.865 97.7646 110.885 97.4751 110.937 97.1905C111.414 95.5982 110.895 94.1881 110.218 92.7876C109.651 91.6174 109.117 90.4327 108.593 89.2481C108.197 88.3416 108.302 88.1882 109.279 88.1546C110.752 88.1066 110.833 88.1546 111.385 89.5263C111.657 90.2025 111.929 90.874 112.205 91.5454C112.291 91.7517 112.348 92.0251 112.605 92.0586C112.863 92.0922 113.049 91.8092 113.182 91.579C113.659 90.7589 114.135 89.9196 114.612 89.1042C114.89 88.6784 115.303 88.3587 115.783 88.1962C116.263 88.0336 116.784 88.0376 117.261 88.2073C117.312 88.2171 117.359 88.2393 117.398 88.2721C117.437 88.3048 117.468 88.347 117.487 88.3948C117.506 88.4425 117.513 88.4943 117.507 88.5453C117.5 88.5964 117.482 88.6451 117.452 88.687C117.35 88.891 117.237 89.0895 117.114 89.2817C116.094 90.8932 115.084 92.5143 114.045 94.1114C113.644 94.6729 113.414 95.3393 113.382 96.0298C113.382 96.7924 113.23 97.5502 113.153 98.308C113.115 98.7156 112.996 99.0897 112.539 99.1521C112.081 99.2144 111.457 99.3679 111.004 98.9986C110.704 98.7252 110.923 98.3224 110.876 98.0538Z" fill="#C9C9C9"/>
<path d="M45.6531 99.1521C44.7429 99.1521 43.8279 99.1521 42.9177 99.1521C41.8311 99.1521 41.7501 99.061 41.8501 97.9339C42.0026 96.1833 42.198 94.4375 42.3791 92.6869C42.503 91.5119 42.6269 90.332 42.7604 89.1522C42.8033 88.7876 42.7604 88.3032 43.2369 88.1929C43.7869 88.0207 44.3807 88.0583 44.9049 88.2984C45.167 88.4519 45.1003 88.7781 45.0765 89.0371C44.9716 90.2553 44.8477 91.4735 44.7238 92.6917C44.6094 93.8284 44.4617 94.9699 44.3807 96.1113C44.3235 96.9554 44.4236 97.0706 45.2433 97.0706C46.3822 97.0993 47.526 97.0706 48.665 97.0706C49.1416 97.0706 49.6181 97.037 49.6181 97.7468C49.6181 98.706 49.3941 99.0801 48.665 99.0993C47.6785 99.1329 46.6873 99.0993 45.7008 99.0993L45.6531 99.1521Z" fill="#7E7E7E"/>
<path d="M63.1049 89.4207C62.8047 92.2984 62.4949 95.3104 62.1518 98.3176C62.066 99.0705 61.9087 99.1569 60.9604 99.1521C59.9262 99.1521 59.7928 99.0562 59.8881 98.049C60.1788 95.0034 60.5124 91.9579 60.8174 88.9363C60.8698 88.4327 61.0795 88.1498 61.6037 88.1738C61.7181 88.1738 61.8325 88.1738 61.9468 88.1738C63.0668 88.1402 63.1525 88.2265 63.1049 89.4207Z" fill="#7E7E7E"/>
<path d="M29.5453 93.1234C29.5493 94.0859 29.3134 95.0341 28.8591 95.8811C28.6163 96.3403 28.2606 96.7291 27.8259 97.0104C27.3911 97.2917 26.892 97.4561 26.3762 97.4878C24.9465 97.6173 23.8552 96.8499 23.6264 95.4782C23.3788 94.0679 23.6211 92.6148 24.3127 91.3632C24.5467 90.924 24.8886 90.5525 25.3057 90.2838C25.7228 90.0152 26.2012 89.8584 26.6955 89.8284C27.0074 89.7803 27.3257 89.795 27.632 89.8716C27.9383 89.9483 28.2263 90.0854 28.4795 90.2751C28.7326 90.4647 28.9459 90.7031 29.1067 90.9763C29.2676 91.2495 29.3729 91.5522 29.4166 91.8668C29.4833 92.2828 29.5263 92.7024 29.5453 93.1234Z" fill="white"/>
<path d="M5.04045 97.1809C4.80693 97.1809 4.56388 97.1809 4.34943 97.1809C3.81091 97.1809 3.60599 96.8883 3.65365 96.3751C3.75373 95.2768 3.8538 94.1737 3.96341 93.0706C4.0349 92.3128 4.12068 91.555 4.20169 90.7924C4.1981 90.6869 4.21733 90.5819 4.25804 90.4846C4.29874 90.3873 4.35995 90.3001 4.43744 90.2289C4.51494 90.1578 4.60686 90.1044 4.70686 90.0725C4.80686 90.0406 4.91256 90.031 5.01663 90.0443C5.6232 90.0106 6.2316 90.0396 6.83233 90.1306C7.33073 90.1849 7.79165 90.4225 8.12672 90.7978C8.46179 91.1731 8.64743 91.6596 8.64803 92.1641C8.75626 93.3116 8.56916 94.4678 8.10474 95.5214C7.50904 96.8691 6.39865 97.2864 5.04045 97.1809Z" fill="white"/>
<path d="M95.1632 91.0179C95.4949 92.0793 95.7451 93.1648 95.9114 94.2648C95.9257 94.3409 95.9247 94.419 95.9083 94.4947C95.8919 94.5703 95.8605 94.6418 95.816 94.7049C95.7715 94.7681 95.7148 94.8215 95.6493 94.8621C95.5839 94.9027 95.5109 94.9295 95.4349 94.9411C94.9938 95.0623 94.5316 95.0836 94.0814 95.0034C93.6525 94.9315 93.4762 94.6389 93.643 94.2552C94.0331 93.1244 94.5427 92.0391 95.1632 91.0179Z" fill="#FEFEFE"/>
<path d="M77.2063 93.2241C77.0157 93.2241 76.8251 93.2241 76.6392 93.2241C75.8577 93.1665 75.7147 93.0178 75.6861 92.2649C75.648 90.2841 76.1055 89.8668 78.0689 90.0394C79.1984 90.145 79.756 90.6246 79.756 91.4783C79.748 91.9204 79.5731 92.3429 79.2669 92.66C78.9606 92.9771 78.546 93.1651 78.1071 93.1857C77.8071 93.2049 77.5063 93.2049 77.2063 93.1857V93.2241Z" fill="#FEFEFE"/>
</g>
<defs>
<clipPath id="clip0_83_5230">
<rect width="118.073" height="99.2317" fill="white" transform="translate(0.451172 0.256096)"/>
</clipPath>
</defs>
</svg>
