<svg width="500" height="373" viewBox="0 0 500 373" fill="none" xmlns="http://www.w3.org/2000/svg">
<g clip-path="url(#clip0_179_2250)">
<path d="M500 327.45H0V327.7H500V327.45Z" fill="#EBEBEB"/>
<path d="M449.899 343.54H416.779V343.79H449.899V343.54Z" fill="#EBEBEB"/>
<path d="M331.219 346.26H322.529V346.51H331.219V346.26Z" fill="#EBEBEB"/>
<path d="M415.78 334.26H396.59V334.51H415.78V334.26Z" fill="#EBEBEB"/>
<path d="M95.6509 335.94H52.4609V336.19H95.6509V335.94Z" fill="#EBEBEB"/>
<path d="M110.891 335.94H104.561V336.19H110.891V335.94Z" fill="#EBEBEB"/>
<path d="M225.151 340.16H131.471V340.41H225.151V340.16Z" fill="#EBEBEB"/>
<path d="M237.001 282.85H43.9109C42.3983 282.847 40.9485 282.245 39.8798 281.174C38.8112 280.103 38.2109 278.653 38.2109 277.14V5.71C38.2241 4.20602 38.8301 2.76798 39.8974 1.70822C40.9646 0.648457 42.4069 0.0525756 43.9109 0.0499992H237.001C238.515 0.0499992 239.968 0.651587 241.039 1.72242C242.109 2.79325 242.711 4.24561 242.711 5.76V277.14C242.711 278.654 242.109 280.107 241.039 281.178C239.968 282.248 238.515 282.85 237.001 282.85ZM43.9109 0.25C42.4646 0.252649 41.0784 0.829064 40.0566 1.85273C39.0348 2.87639 38.4609 4.26365 38.4609 5.71V277.14C38.4609 278.586 39.0348 279.974 40.0566 280.997C41.0784 282.021 42.4646 282.597 43.9109 282.6H237.001C238.448 282.597 239.835 282.021 240.859 280.998C241.882 279.974 242.458 278.587 242.461 277.14V5.71C242.458 4.26273 241.882 2.87549 240.859 1.85212C239.835 0.82874 238.448 0.252643 237.001 0.25H43.9109Z" fill="#EBEBEB" fill-opacity="0.4"/>
<path d="M453.31 282.85H260.21C258.696 282.847 257.246 282.245 256.175 281.175C255.105 280.104 254.503 278.654 254.5 277.14V5.71C254.516 4.20511 255.124 2.76708 256.193 1.70759C257.262 0.648108 258.705 0.0525475 260.21 0.0499992H453.31C454.812 0.0552037 456.252 0.652248 457.317 1.71173C458.382 2.77121 458.987 4.20775 459 5.71V277.14C459 278.651 458.401 280.1 457.335 281.171C456.268 282.241 454.821 282.845 453.31 282.85ZM260.21 0.25C258.763 0.252643 257.375 0.82874 256.352 1.85212C255.329 2.87549 254.753 4.26273 254.75 5.71V277.14C254.753 278.587 255.329 279.974 256.352 280.998C257.375 282.021 258.763 282.597 260.21 282.6H453.31C454.757 282.597 456.145 282.021 457.168 280.998C458.191 279.974 458.767 278.587 458.77 277.14V5.71C458.767 4.26273 458.191 2.87549 457.168 1.85212C456.145 0.82874 454.757 0.252643 453.31 0.25H260.21Z" fill="#EBEBEB" fill-opacity="0.4"/>
<path d="M103.649 316.46H53.9993C51.6687 316.46 49.7793 318.349 49.7793 320.68V347.84C49.7793 350.171 51.6687 352.06 53.9993 352.06H103.649C105.98 352.06 107.869 350.171 107.869 347.84V320.68C107.869 318.349 105.98 316.46 103.649 316.46Z" fill="#EBEBEB"/>
<path d="M67.6998 330.61H54.9098C54.6924 330.61 54.4838 330.524 54.33 330.37C54.1762 330.216 54.0898 330.007 54.0898 329.79C54.0898 329.572 54.1759 329.362 54.3294 329.207C54.4829 329.051 54.6915 328.963 54.9098 328.96H67.6998C67.92 328.96 68.1311 329.047 68.2867 329.203C68.4424 329.359 68.5298 329.57 68.5298 329.79C68.5272 330.008 68.4386 330.217 68.2832 330.37C68.1279 330.524 67.9182 330.61 67.6998 330.61Z" fill="#FAFAFA"/>
<path d="M103.911 321.88H91.1208C90.9024 321.877 90.6938 321.789 90.5403 321.633C90.3868 321.478 90.3008 321.268 90.3008 321.05C90.3008 320.832 90.3868 320.622 90.5403 320.467C90.6938 320.311 90.9024 320.223 91.1208 320.22H103.911C104.131 320.22 104.342 320.307 104.498 320.463C104.653 320.619 104.741 320.83 104.741 321.05C104.741 321.27 104.653 321.481 104.498 321.637C104.342 321.793 104.131 321.88 103.911 321.88Z" fill="#FAFAFA"/>
<path d="M67.6998 348.05H54.9098C54.6915 348.047 54.4829 347.959 54.3294 347.803C54.1759 347.648 54.0898 347.438 54.0898 347.22C54.0898 347.002 54.1759 346.792 54.3294 346.637C54.4829 346.481 54.6915 346.393 54.9098 346.39H67.6998C67.92 346.39 68.1311 346.477 68.2867 346.633C68.4424 346.789 68.5298 347 68.5298 347.22C68.5298 347.44 68.4424 347.651 68.2867 347.807C68.1311 347.963 67.92 348.05 67.6998 348.05Z" fill="#FAFAFA"/>
<path d="M58.2798 334.7H54.9098C54.6915 334.697 54.4829 334.609 54.3294 334.453C54.1759 334.298 54.0898 334.088 54.0898 333.87C54.0898 333.653 54.1762 333.444 54.33 333.29C54.4838 333.136 54.6924 333.05 54.9098 333.05H58.2798C58.4973 333.05 58.7059 333.136 58.8597 333.29C59.0135 333.444 59.0998 333.653 59.0998 333.87C59.0999 334.088 59.0138 334.298 58.8603 334.453C58.7068 334.609 58.4982 334.697 58.2798 334.7Z" fill="#FAFAFA"/>
<path d="M102.82 339.52H92.21C91.2656 339.52 90.5 340.286 90.5 341.23V347.85C90.5 348.794 91.2656 349.56 92.21 349.56H102.82C103.764 349.56 104.53 348.794 104.53 347.85V341.23C104.53 340.286 103.764 339.52 102.82 339.52Z" fill="#E0E0E0"/>
<path d="M153.371 31.63H85.6106C83.28 31.63 81.3906 33.5194 81.3906 35.85V74.11C81.3906 76.4406 83.28 78.33 85.6106 78.33H153.371C155.701 78.33 157.591 76.4406 157.591 74.11V35.85C157.591 33.5194 155.701 31.63 153.371 31.63Z" fill="#EBEBEB" fill-opacity="0.5"/>
<path d="M104.9 50.2H88.13C87.9844 50.2054 87.8391 50.1814 87.7029 50.1297C87.5667 50.0779 87.4422 49.9994 87.3368 49.8987C87.2315 49.798 87.1474 49.6772 87.0895 49.5435C87.0317 49.4097 87.0012 49.2657 87 49.12C87.0026 48.9751 87.034 48.8322 87.0924 48.6996C87.1509 48.567 87.2352 48.4474 87.3404 48.3478C87.4456 48.2482 87.5696 48.1705 87.7052 48.1194C87.8408 48.0682 87.9852 48.0447 88.13 48.05H104.9C105.189 48.05 105.466 48.1648 105.671 48.3692C105.875 48.5737 105.99 48.8509 105.99 49.14C105.982 49.4238 105.864 49.6934 105.66 49.8914C105.457 50.0894 105.184 50.2001 104.9 50.2Z" fill="#FAFAFA" fill-opacity="0.4"/>
<path d="M152.411 38.74H135.631C135.488 38.74 135.347 38.7117 135.215 38.6568C135.084 38.6019 134.964 38.5215 134.864 38.4201C134.763 38.3188 134.684 38.1986 134.63 38.0664C134.576 37.9342 134.55 37.7927 134.551 37.65C134.551 37.3636 134.665 37.0889 134.867 36.8863C135.07 36.6838 135.344 36.57 135.631 36.57H152.411C152.697 36.57 152.972 36.6838 153.174 36.8863C153.377 37.0889 153.491 37.3636 153.491 37.65C153.492 37.7927 153.465 37.9342 153.411 38.0664C153.358 38.1986 153.278 38.3188 153.178 38.4201C153.078 38.5215 152.958 38.6019 152.826 38.6568C152.695 38.7117 152.554 38.74 152.411 38.74Z" fill="#FAFAFA" fill-opacity="0.4"/>
<path d="M105.199 70.88H87.8291C87.3928 70.88 87.0391 71.2337 87.0391 71.67V72.26C87.0391 72.6963 87.3928 73.05 87.8291 73.05H105.199C105.635 73.05 105.989 72.6963 105.989 72.26V71.67C105.989 71.2337 105.635 70.88 105.199 70.88Z" fill="#FAFAFA" fill-opacity="0.4"/>
<path d="M92.54 55.56H88.13C87.9835 55.5654 87.8375 55.5412 87.7006 55.4888C87.5637 55.4364 87.4388 55.357 87.3333 55.2552C87.2278 55.1535 87.1439 55.0315 87.0866 54.8966C87.0294 54.7617 86.9999 54.6166 87 54.47C87.0026 54.1827 87.1186 53.908 87.3228 53.7057C87.5269 53.5035 87.8026 53.39 88.09 53.39H92.5C92.7864 53.39 93.0611 53.5038 93.2637 53.7063C93.4662 53.9089 93.58 54.1836 93.58 54.47C93.5828 54.7514 93.4757 55.0227 93.2814 55.2263C93.0872 55.4299 92.8212 55.5496 92.54 55.56Z" fill="#FAFAFA" fill-opacity="0.4"/>
<path d="M151.51 61.89H136.53C135.586 61.89 134.82 62.6556 134.82 63.6V73.35C134.82 74.2944 135.586 75.06 136.53 75.06H151.51C152.455 75.06 153.22 74.2944 153.22 73.35V63.6C153.22 62.6556 152.455 61.89 151.51 61.89Z" fill="#E0E0E0" fill-opacity="0.4"/>
<path d="M304.881 60.24V65.65H300.881V60.29C296.151 60 291.571 58.46 289.061 56.29L291.231 51.42C294.035 53.5328 297.381 54.8056 300.881 55.09V45.44C295.521 44.13 289.781 42.44 289.781 35.69C289.781 30.77 293.351 26.47 300.881 25.75V20.28H304.881V25.64C308.338 25.7866 311.704 26.7974 314.671 28.58L312.671 33.46C310.278 32.0547 307.617 31.1657 304.861 30.85V40.6C310.211 41.9 316.051 43.6 316.051 50.3C316.071 55.22 312.451 59.47 304.881 60.24ZM300.881 39.59V31.05C297.451 31.58 296.011 33.31 296.011 35.44C296.051 37.7 298.121 38.77 300.921 39.59H300.881ZM309.881 50.73C309.881 48.37 307.751 47.26 304.881 46.44V54.98C308.401 54.45 309.901 52.81 309.901 50.73H309.881Z" fill="#E0E0E0" fill-opacity="0.5"/>
<path d="M430.119 293.34V297.46H427.119V293.37C423.519 293.15 420.019 291.97 418.119 290.32L419.769 286.6C421.908 288.211 424.46 289.182 427.129 289.4V282.05C423.049 281.05 418.669 279.73 418.669 274.62C418.669 270.87 421.389 267.62 427.129 267.04V262.89H430.129V266.97C432.766 267.085 435.334 267.855 437.599 269.21L436.089 272.93C434.251 271.851 432.207 271.169 430.089 270.93V278.36C434.169 279.36 438.619 280.64 438.619 285.76C438.649 289.51 435.889 292.75 430.119 293.34ZM427.119 277.59V271.05C424.509 271.46 423.409 272.78 423.409 274.4C423.389 276.16 424.999 276.97 427.099 277.59H427.119ZM433.959 286.09C433.959 284.29 432.349 283.44 430.139 282.81V289.33C432.799 288.92 433.939 287.67 433.939 286.05L433.959 286.09Z" fill="#E0E0E0" fill-opacity="0.5"/>
<path d="M53.64 252.68C52.9533 251.953 52.4218 251.095 52.078 250.156C51.7341 249.217 51.5851 248.218 51.64 247.22C51.6044 245.83 51.9209 244.454 52.56 243.22C53.1336 242.137 54.0136 241.246 55.09 240.66C56.2199 240.088 57.4686 239.79 58.735 239.79C60.0015 239.79 61.2501 240.088 62.38 240.66C63.4574 241.249 64.34 242.138 64.92 243.22C65.5513 244.457 65.864 245.832 65.83 247.22C65.8832 248.218 65.7334 249.216 65.3896 250.155C65.0458 251.093 64.5153 251.952 63.83 252.68C62.4334 253.955 60.6109 254.661 58.72 254.661C56.8292 254.661 55.0066 253.955 53.61 252.68H53.64ZM74.42 240.17H80.87L62.64 266.86H56.19L74.42 240.17ZM60 249.76C60.6268 248.128 60.6268 246.322 60 244.69C59.896 244.457 59.7269 244.26 59.513 244.121C59.2992 243.983 59.0498 243.909 58.795 243.909C58.5402 243.909 58.2908 243.983 58.077 244.121C57.8632 244.26 57.6941 244.457 57.59 244.69C56.9632 246.322 56.9632 248.128 57.59 249.76C57.6941 249.993 57.8632 250.19 58.077 250.329C58.2908 250.467 58.5402 250.541 58.795 250.541C59.0498 250.541 59.2992 250.467 59.513 250.329C59.7269 250.19 59.896 249.993 60 249.76ZM73.25 265.26C72.5651 264.534 72.0346 263.677 71.6908 262.74C71.347 261.803 71.1971 260.807 71.25 259.81C71.213 258.421 71.526 257.046 72.16 255.81C72.7349 254.727 73.6191 253.839 74.7 253.26C75.827 252.684 77.0745 252.384 78.34 252.384C79.6056 252.384 80.8531 252.684 81.98 253.26C83.0609 253.839 83.9451 254.727 84.52 255.81C85.1575 257.045 85.4739 258.421 85.44 259.81C85.4924 260.806 85.3422 261.803 84.9984 262.74C84.6547 263.677 84.1245 264.534 83.44 265.26C82.0456 266.539 80.2222 267.249 78.33 267.249C76.4379 267.249 74.6145 266.539 73.22 265.26H73.25ZM79.56 262.34C80.2004 260.711 80.2004 258.899 79.56 257.27C79.4579 257.037 79.29 256.838 79.0769 256.699C78.8638 256.56 78.6147 256.485 78.36 256.485C78.1054 256.485 77.8563 256.56 77.6432 256.699C77.4301 256.838 77.2622 257.037 77.16 257.27C76.5196 258.899 76.5196 260.711 77.16 262.34C77.2622 262.573 77.4301 262.772 77.6432 262.911C77.8563 263.05 78.1054 263.125 78.36 263.125C78.6147 263.125 78.8638 263.05 79.0769 262.911C79.29 262.772 79.4579 262.573 79.56 262.34Z" fill="#E0E0E0" fill-opacity="0.5"/>
<path d="M380.48 103.15C379.514 102.116 378.767 100.897 378.284 99.5672C377.801 98.2371 377.592 96.823 377.67 95.41C377.615 93.4339 378.063 91.4762 378.97 89.72C379.785 88.1834 381.038 86.9234 382.57 86.1C384.172 85.2851 385.943 84.8603 387.74 84.8603C389.537 84.8603 391.309 85.2851 392.91 86.1C394.438 86.9292 395.689 88.1877 396.51 89.72C397.409 91.4789 397.853 93.4353 397.8 95.41C397.882 96.8225 397.676 98.2368 397.194 99.5673C396.713 100.898 395.967 102.117 395 103.15C393.017 104.958 390.429 105.96 387.745 105.96C385.061 105.96 382.474 104.958 380.49 103.15H380.48ZM410 85.39H419.15L393.28 123.28H384.13L410 85.39ZM389.44 99.05C390.347 96.7356 390.347 94.1644 389.44 91.85C389.296 91.5181 389.057 91.2357 388.754 91.0374C388.451 90.839 388.097 90.7334 387.735 90.7334C387.373 90.7334 387.019 90.839 386.716 91.0374C386.413 91.2357 386.175 91.5181 386.03 91.85C385.136 94.1668 385.136 96.7333 386.03 99.05C386.175 99.3819 386.413 99.6643 386.716 99.8626C387.019 100.061 387.373 100.167 387.735 100.167C388.097 100.167 388.451 100.061 388.754 99.8626C389.057 99.6643 389.296 99.3819 389.44 99.05ZM408.25 121.05C407.284 120.016 406.537 118.797 406.054 117.467C405.571 116.137 405.362 114.723 405.44 113.31C405.385 111.337 405.833 109.383 406.74 107.63C407.552 106.089 408.806 104.825 410.34 104C411.94 103.185 413.71 102.76 415.505 102.76C417.301 102.76 419.07 103.185 420.67 104C422.205 104.825 423.458 106.089 424.27 107.63C425.178 109.383 425.625 111.337 425.57 113.31C425.65 114.723 425.443 116.138 424.96 117.468C424.477 118.799 423.728 120.017 422.76 121.05C420.78 122.864 418.191 123.871 415.505 123.871C412.819 123.871 410.231 122.864 408.25 121.05ZM417.25 116.91C418.157 114.596 418.157 112.024 417.25 109.71C417.106 109.378 416.867 109.096 416.564 108.897C416.261 108.699 415.907 108.593 415.545 108.593C415.183 108.593 414.829 108.699 414.526 108.897C414.223 109.096 413.985 109.378 413.84 109.71C412.934 112.024 412.934 114.596 413.84 116.91C413.985 117.242 414.223 117.524 414.526 117.723C414.829 117.921 415.183 118.027 415.545 118.027C415.907 118.027 416.261 117.921 416.564 117.723C416.867 117.524 417.106 117.242 417.25 116.91Z" fill="#E0E0E0" fill-opacity="0.5"/>
<path d="M249.999 372.61C357.082 372.61 443.889 367.542 443.889 361.29C443.889 355.038 357.082 349.97 249.999 349.97C142.917 349.97 56.1094 355.038 56.1094 361.29C56.1094 367.542 142.917 372.61 249.999 372.61Z" fill="#EAEAEA" fill-opacity="0.7"/>
<path d="M410.501 118.99H93.2608C89.7573 118.99 86.3973 120.382 83.9199 122.859C81.4425 125.336 80.0508 128.696 80.0508 132.2V333.2C80.0508 336.704 81.4422 340.065 83.9193 342.544C86.3964 345.023 89.7564 346.417 93.2608 346.42H135.371V339.98C135.371 339.07 135.732 338.198 136.375 337.555C137.019 336.911 137.891 336.55 138.801 336.55H365.001C365.452 336.549 365.898 336.636 366.315 336.808C366.732 336.98 367.11 337.233 367.429 337.552C367.748 337.87 368 338.249 368.172 338.666C368.344 339.083 368.432 339.529 368.431 339.98V346.42H410.501C412.236 346.42 413.955 346.078 415.558 345.413C417.162 344.749 418.618 343.775 419.845 342.547C421.072 341.32 422.045 339.862 422.708 338.258C423.371 336.654 423.712 334.936 423.711 333.2V132.2C423.712 130.465 423.371 128.747 422.708 127.143C422.045 125.54 421.072 124.083 419.845 122.856C418.618 121.629 417.161 120.656 415.558 119.993C413.954 119.329 412.236 118.989 410.501 118.99Z" fill="#263238"/>
<path opacity="0.2" d="M410.501 118.99H93.2608C89.7573 118.99 86.3973 120.382 83.9199 122.859C81.4425 125.336 80.0508 128.696 80.0508 132.2V333.2C80.0508 336.704 81.4422 340.065 83.9193 342.544C86.3964 345.023 89.7564 346.417 93.2608 346.42H135.371V339.98C135.371 339.07 135.732 338.198 136.375 337.555C137.019 336.911 137.891 336.55 138.801 336.55H365.001C365.452 336.549 365.898 336.636 366.315 336.808C366.732 336.98 367.11 337.233 367.429 337.552C367.748 337.87 368 338.249 368.172 338.666C368.344 339.083 368.432 339.529 368.431 339.98V346.42H410.501C412.236 346.42 413.955 346.078 415.558 345.413C417.162 344.749 418.618 343.775 419.845 342.547C421.072 341.32 422.045 339.862 422.708 338.258C423.371 336.654 423.712 334.936 423.711 333.2V132.2C423.712 130.465 423.371 128.747 422.708 127.143C422.045 125.54 421.072 124.083 419.845 122.856C418.618 121.629 417.161 120.656 415.558 119.993C413.954 119.329 412.236 118.989 410.501 118.99Z" fill="white"/>
<path d="M254.66 127.64C254.66 128.19 254.497 128.727 254.191 129.184C253.886 129.642 253.451 129.998 252.943 130.208C252.435 130.419 251.877 130.474 251.337 130.367C250.798 130.259 250.303 129.995 249.914 129.606C249.525 129.217 249.26 128.722 249.153 128.182C249.046 127.643 249.101 127.084 249.311 126.576C249.522 126.068 249.878 125.634 250.335 125.329C250.792 125.023 251.33 124.86 251.88 124.86C252.245 124.859 252.607 124.93 252.945 125.069C253.283 125.208 253.59 125.413 253.848 125.671C254.107 125.93 254.311 126.237 254.451 126.575C254.59 126.912 254.661 127.275 254.66 127.64Z" fill="#8E88C1"/>
<path d="M449.68 341.47H54.0898V351.37H449.68V341.47Z" fill="#263238"/>
<path opacity="0.5" d="M449.68 341.47H54.0898V351.37H449.68V341.47Z" fill="white"/>
<path d="M54.0898 351.38L60.2098 356.28C64.2462 359.517 69.2658 361.281 74.4398 361.28H429.32C434.494 361.281 439.513 359.517 443.55 356.28L449.68 351.38H54.0898Z" fill="#263238"/>
<path opacity="0.3" d="M54.0898 351.38L60.2098 356.28C64.2462 359.517 69.2658 361.281 74.4398 361.28H429.32C434.494 361.281 439.513 359.517 443.55 356.28L449.68 351.38H54.0898Z" fill="white"/>
<path opacity="0.4" d="M213.869 341.8C213.868 342.408 213.986 343.009 214.218 343.571C214.45 344.133 214.79 344.643 215.219 345.073C215.648 345.503 216.158 345.845 216.719 346.077C217.28 346.31 217.882 346.43 218.489 346.43H285.269C285.877 346.43 286.478 346.31 287.039 346.077C287.601 345.845 288.11 345.503 288.54 345.073C288.969 344.643 289.309 344.133 289.54 343.571C289.772 343.009 289.89 342.408 289.889 341.8C289.889 341.69 289.889 341.59 289.889 341.48H213.889C213.889 341.59 213.869 341.69 213.869 341.8Z" fill="white"/>
<path d="M408.26 139.22H94.5898V317.74H408.26V139.22Z" fill="#8E88C1"/>
<g opacity="0.9">
<path opacity="0.9" d="M408.26 139.22H94.5898V317.74H408.26V139.22Z" fill="white"/>
</g>
<path d="M362.971 167.77H136.311V175.27H362.971V167.77Z" fill="#8E88C1"/>
<g opacity="0.8">
<path opacity="0.8" d="M362.971 167.77H136.311V175.27H362.971V167.77Z" fill="white"/>
</g>
<path d="M371.079 167.77H362.959V175.27H371.079V167.77Z" fill="#8E88C1"/>
<g opacity="0.5">
<path opacity="0.5" d="M371.079 167.77H362.959V175.27H371.079V167.77Z" fill="white"/>
</g>
<path d="M408.26 139.22H94.5898V147.7H408.26V139.22Z" fill="#8E88C1"/>
<path d="M385.71 143.46C385.712 143.943 385.57 144.417 385.303 144.819C385.036 145.222 384.655 145.536 384.208 145.722C383.762 145.908 383.271 145.957 382.797 145.864C382.322 145.77 381.887 145.537 381.545 145.195C381.203 144.853 380.97 144.418 380.876 143.944C380.783 143.469 380.832 142.978 381.018 142.532C381.204 142.085 381.518 141.704 381.921 141.437C382.324 141.17 382.797 141.028 383.28 141.03C383.925 141.03 384.543 141.286 384.998 141.742C385.454 142.197 385.71 142.816 385.71 143.46Z" fill="white"/>
<path d="M395.05 143.46C395.052 143.943 394.91 144.416 394.644 144.818C394.377 145.221 393.996 145.535 393.551 145.721C393.105 145.908 392.614 145.957 392.14 145.864C391.666 145.771 391.23 145.54 390.888 145.199C390.546 144.858 390.313 144.423 390.218 143.95C390.123 143.476 390.17 142.985 390.355 142.539C390.539 142.092 390.852 141.71 391.253 141.442C391.655 141.173 392.127 141.03 392.61 141.03C392.93 141.029 393.247 141.091 393.543 141.212C393.839 141.334 394.108 141.512 394.335 141.738C394.561 141.964 394.741 142.232 394.864 142.528C394.987 142.823 395.05 143.14 395.05 143.46Z" fill="white"/>
<path d="M404.379 143.46C404.383 143.944 404.243 144.417 403.976 144.821C403.709 145.224 403.328 145.538 402.881 145.724C402.435 145.909 401.943 145.957 401.469 145.862C400.995 145.766 400.56 145.531 400.221 145.187C399.881 144.843 399.651 144.405 399.562 143.93C399.472 143.455 399.526 142.964 399.717 142.52C399.908 142.075 400.227 141.698 400.634 141.436C401.041 141.175 401.516 141.04 401.999 141.05C402.632 141.063 403.234 141.322 403.679 141.772C404.123 142.222 404.374 142.828 404.379 143.46Z" fill="white"/>
<path d="M101.611 174.65C101.181 174.557 100.769 174.395 100.391 174.17L101.071 172.62C101.385 172.801 101.721 172.942 102.071 173.04C102.418 173.145 102.778 173.199 103.141 173.2C103.358 173.213 103.575 173.182 103.781 173.11C103.834 173.093 103.882 173.06 103.916 173.015C103.95 172.971 103.969 172.916 103.971 172.86C103.968 172.789 103.942 172.722 103.897 172.667C103.851 172.613 103.79 172.575 103.721 172.56C103.454 172.464 103.18 172.391 102.901 172.34C102.486 172.26 102.079 172.15 101.681 172.01C101.357 171.893 101.069 171.697 100.841 171.44C100.588 171.135 100.46 170.746 100.481 170.35C100.476 169.965 100.591 169.587 100.811 169.27C101.059 168.919 101.408 168.651 101.811 168.5C102.322 168.297 102.87 168.202 103.421 168.22C103.848 168.221 104.273 168.268 104.691 168.36C105.079 168.44 105.453 168.578 105.801 168.77L105.161 170.31C104.618 170.02 104.016 169.859 103.401 169.84C102.851 169.84 102.581 169.98 102.581 170.24C102.581 170.5 102.661 170.46 102.821 170.52C103.08 170.617 103.348 170.687 103.621 170.73C104.035 170.801 104.443 170.905 104.841 171.04C105.169 171.158 105.464 171.353 105.701 171.61C105.955 171.911 106.087 172.296 106.071 172.69C106.076 173.077 105.957 173.456 105.731 173.77C105.478 174.117 105.131 174.385 104.731 174.54C104.218 174.74 103.671 174.835 103.121 174.82C102.613 174.818 102.106 174.761 101.611 174.65Z" fill="#263238"/>
<path d="M108 170.05H106.15V168.39H112V170.05H110.16V174.71H108V170.05Z" fill="#263238"/>
<path d="M113.9 174.4C113.379 174.127 112.94 173.72 112.63 173.22C112.329 172.704 112.17 172.117 112.17 171.52C112.17 170.923 112.329 170.336 112.63 169.82C112.94 169.32 113.379 168.913 113.9 168.64C114.471 168.364 115.096 168.22 115.73 168.22C116.364 168.22 116.99 168.364 117.56 168.64C118.092 168.91 118.539 169.322 118.851 169.83C119.163 170.339 119.328 170.924 119.328 171.52C119.328 172.116 119.163 172.701 118.851 173.21C118.539 173.718 118.092 174.13 117.56 174.4C116.99 174.676 116.364 174.82 115.73 174.82C115.096 174.82 114.471 174.676 113.9 174.4ZM116.45 172.9C116.666 172.769 116.842 172.583 116.96 172.36C117.093 172.1 117.158 171.812 117.15 171.52C117.16 171.232 117.094 170.946 116.96 170.69C116.842 170.465 116.666 170.275 116.45 170.14C116.235 170.009 115.987 169.94 115.735 169.94C115.483 169.94 115.236 170.009 115.02 170.14C114.799 170.269 114.622 170.46 114.51 170.69C114.376 170.946 114.311 171.232 114.32 171.52C114.312 171.812 114.377 172.1 114.51 172.36C114.623 172.587 114.8 172.775 115.02 172.9C115.236 173.031 115.483 173.1 115.735 173.1C115.987 173.1 116.235 173.031 116.45 172.9Z" fill="#263238"/>
<path d="M122.78 173.05H122.2V174.64H120.07V168.32H123.07C123.592 168.31 124.109 168.409 124.59 168.61C125.003 168.782 125.353 169.074 125.596 169.449C125.839 169.824 125.962 170.264 125.95 170.71C125.969 171.123 125.866 171.533 125.654 171.888C125.443 172.243 125.132 172.529 124.76 172.71L126.08 174.66H123.81L122.78 173.05ZM123.62 170.16C123.432 170.053 123.213 170.014 123 170.05H122.23V171.53H123C123.234 171.547 123.466 171.475 123.65 171.33C123.725 171.262 123.784 171.179 123.822 171.085C123.86 170.992 123.877 170.891 123.87 170.79C123.88 170.679 123.863 170.567 123.819 170.464C123.776 170.361 123.707 170.27 123.62 170.2V170.16Z" fill="#263238"/>
<path d="M132 173.05V174.66H126.75V168.34H131.88V169.95H128.88V170.69H131.55V172.22H128.88V173.05H132Z" fill="#263238"/>
<path d="M379 175.26C379 175.474 378.937 175.682 378.818 175.86C378.699 176.038 378.531 176.176 378.333 176.258C378.136 176.34 377.919 176.361 377.709 176.319C377.5 176.278 377.307 176.175 377.156 176.024C377.005 175.873 376.902 175.68 376.861 175.471C376.819 175.261 376.84 175.044 376.922 174.847C377.004 174.649 377.142 174.481 377.32 174.362C377.497 174.243 377.706 174.18 377.92 174.18C378.206 174.18 378.481 174.294 378.684 174.496C378.886 174.699 379 174.974 379 175.26Z" fill="#263238"/>
<path d="M385.709 175.26C385.711 175.476 385.649 175.689 385.53 175.869C385.411 176.05 385.241 176.191 385.041 176.275C384.841 176.359 384.621 176.381 384.409 176.339C384.197 176.298 384.002 176.194 383.849 176.041C383.696 175.888 383.591 175.693 383.55 175.48C383.508 175.268 383.53 175.048 383.614 174.848C383.698 174.649 383.839 174.479 384.02 174.36C384.201 174.241 384.413 174.178 384.629 174.18C384.915 174.183 385.188 174.297 385.39 174.499C385.592 174.701 385.707 174.974 385.709 175.26Z" fill="#263238"/>
<path d="M376.999 167.6L376.269 165.26H373.529V166.05H375.719L377.779 172.73H384.969L385.609 168.31L376.999 167.6ZM384.409 172.15L378.279 172.08L377.119 168.19L384.909 168.76L384.409 172.15Z" fill="#263238"/>
<path d="M408.26 147.69H94.5898V163.81H408.26V147.69Z" fill="#8E88C1"/>
<g opacity="0.7">
<path opacity="0.7" d="M408.26 147.69H94.5898V163.81H408.26V147.69Z" fill="white"/>
</g>
<path d="M300.56 151.34H118.38C116.513 151.34 115 152.853 115 154.72V156.79C115 158.657 116.513 160.17 118.38 160.17H300.56C302.427 160.17 303.94 158.657 303.94 156.79V154.72C303.94 152.853 302.427 151.34 300.56 151.34Z" fill="#263238"/>
<path opacity="0.7" d="M300.56 151.34H118.38C116.513 151.34 115 152.853 115 154.72V156.79C115 158.657 116.513 160.17 118.38 160.17H300.56C302.427 160.17 303.94 158.657 303.94 156.79V154.72C303.94 152.853 302.427 151.34 300.56 151.34Z" fill="white"/>
<path d="M298.121 152.37L299.221 154.6L301.681 154.96L299.901 156.69L300.321 159.14L298.121 157.98L295.921 159.14L296.341 156.69L294.561 154.96L297.021 154.6L298.121 152.37Z" fill="#8E88C1"/>
<path d="M106.09 151.13L101.23 155.99H102.65V160.38H109.53V155.99H110.95L106.09 151.13Z" fill="#8E88C1"/>
<path d="M283.869 210.05H286.559C287.117 210.039 287.67 210.152 288.179 210.38C288.631 210.597 289.008 210.946 289.259 211.38C289.527 211.815 289.662 212.319 289.649 212.83C289.661 213.344 289.525 213.85 289.259 214.29C288.999 214.703 288.624 215.03 288.179 215.23C287.672 215.466 287.118 215.583 286.559 215.57H283.869V210.05ZM286.489 214.05C286.748 214.043 286.999 213.962 287.213 213.816C287.427 213.669 287.593 213.464 287.693 213.225C287.792 212.986 287.82 212.723 287.773 212.468C287.727 212.214 287.607 211.978 287.429 211.79C287.171 211.56 286.834 211.442 286.489 211.46H285.709V214.05H286.489Z" fill="#8E88C1"/>
<path d="M294.79 213.74H291.79C291.846 213.896 291.956 214.027 292.1 214.11C292.267 214.205 292.457 214.25 292.65 214.24C292.809 214.247 292.969 214.223 293.12 214.17C293.269 214.109 293.411 214.028 293.54 213.93L294.46 214.86C294.217 215.101 293.925 215.286 293.604 215.404C293.283 215.521 292.94 215.568 292.6 215.54C292.131 215.552 291.665 215.456 291.24 215.26C290.869 215.087 290.553 214.813 290.329 214.47C290.12 214.125 290.01 213.729 290.01 213.325C290.01 212.921 290.12 212.525 290.329 212.18C290.54 211.846 290.837 211.577 291.19 211.4C291.573 211.205 291.999 211.105 292.43 211.11C292.841 211.107 293.247 211.196 293.62 211.37C293.968 211.539 294.263 211.802 294.47 212.13C294.686 212.492 294.794 212.909 294.78 213.33C294.78 213.33 294.81 213.49 294.79 213.74ZM292 212.47C291.881 212.582 291.8 212.729 291.77 212.89H293.15C293.12 212.727 293.035 212.579 292.91 212.47C292.782 212.368 292.623 212.314 292.46 212.32C292.293 212.315 292.131 212.368 292 212.47Z" fill="#8E88C1"/>
<path d="M295.369 209.67H297.129V215.47H295.369V209.67Z" fill="#8E88C1"/>
<path d="M297.999 210.6C297.905 210.521 297.83 210.421 297.779 210.309C297.729 210.196 297.705 210.073 297.709 209.95C297.705 209.828 297.729 209.707 297.779 209.596C297.83 209.485 297.905 209.387 297.999 209.31C298.215 209.13 298.489 209.037 298.769 209.05C299.047 209.035 299.32 209.12 299.54 209.29C299.632 209.367 299.706 209.463 299.756 209.572C299.807 209.681 299.832 209.8 299.829 209.92C299.832 210.046 299.807 210.171 299.757 210.287C299.707 210.402 299.633 210.506 299.54 210.59C299.324 210.77 299.05 210.863 298.769 210.85C298.491 210.861 298.218 210.772 297.999 210.6ZM297.89 211.19H299.649V215.47H297.89V211.19Z" fill="#8E88C1"/>
<path d="M305.22 211.19L303.5 215.47H301.67L300 211.19H301.81L302.67 213.48L303.59 211.19H305.22Z" fill="#8E88C1"/>
<path d="M309.901 213.74H306.901C306.958 213.896 307.067 214.027 307.211 214.11C307.378 214.205 307.569 214.25 307.761 214.24C307.921 214.247 308.08 214.223 308.231 214.17C308.381 214.109 308.522 214.028 308.651 213.93L309.571 214.86C309.329 215.101 309.037 215.287 308.716 215.405C308.394 215.522 308.052 215.568 307.711 215.54C307.242 215.552 306.777 215.456 306.351 215.26C305.98 215.087 305.665 214.813 305.441 214.47C305.232 214.125 305.121 213.729 305.121 213.325C305.121 212.921 305.232 212.525 305.441 212.18C305.651 211.846 305.948 211.577 306.301 211.4C306.685 211.205 307.11 211.105 307.541 211.11C307.952 211.106 308.359 211.195 308.731 211.37C309.079 211.539 309.374 211.802 309.581 212.13C309.798 212.492 309.905 212.909 309.891 213.33C309.891 213.33 309.921 213.49 309.901 213.74ZM307.141 212.47C307.015 212.579 306.931 212.727 306.901 212.89H308.281C308.251 212.727 308.166 212.579 308.041 212.47C307.911 212.373 307.753 212.32 307.591 212.32C307.429 212.32 307.271 212.373 307.141 212.47Z" fill="#8E88C1"/>
<path d="M313.54 211.11V212.68H313.15C313.026 212.663 312.9 212.675 312.781 212.716C312.662 212.756 312.554 212.824 312.466 212.913C312.378 213.002 312.311 213.111 312.272 213.23C312.233 213.349 312.222 213.476 312.24 213.6V215.5H310.48V211.22H312.16V211.68C312.333 211.487 312.546 211.336 312.785 211.237C313.024 211.139 313.282 211.095 313.54 211.11Z" fill="#8E88C1"/>
<path d="M318.92 211.19L317.16 215.55C317.009 216.018 316.715 216.427 316.32 216.72C315.959 216.957 315.532 217.076 315.1 217.06C314.853 217.062 314.606 217.025 314.37 216.95C314.165 216.897 313.972 216.805 313.8 216.68L314.39 215.47C314.481 215.539 314.582 215.593 314.69 215.63C314.793 215.667 314.901 215.688 315.01 215.69C315.092 215.697 315.174 215.685 315.25 215.656C315.326 215.626 315.395 215.58 315.45 215.52L313.65 211.19H315.46L316.35 213.48L317.24 211.19H318.92Z" fill="#8E88C1"/>
<path d="M325.32 214.51H323.24L322.87 215.51H321L323.39 210.04H325.2L327.59 215.51H325.68L325.32 214.51ZM324.81 213.19L324.28 211.81L323.75 213.19H324.81Z" fill="#8E88C1"/>
<path d="M332.519 209.67V215.47H330.839V215.11C330.687 215.262 330.503 215.379 330.301 215.453C330.099 215.527 329.884 215.557 329.669 215.54C329.32 215.535 328.977 215.446 328.669 215.28C328.352 215.094 328.093 214.824 327.919 214.5C327.731 214.139 327.635 213.737 327.639 213.33C327.632 212.923 327.728 212.52 327.919 212.16C328.093 211.836 328.352 211.566 328.669 211.38C328.974 211.207 329.318 211.114 329.669 211.11C330.064 211.086 330.452 211.219 330.749 211.48V209.67H332.519ZM330.589 213.95C330.729 213.775 330.8 213.554 330.789 213.33C330.803 213.105 330.732 212.884 330.589 212.71C330.525 212.641 330.448 212.586 330.362 212.548C330.276 212.51 330.183 212.491 330.089 212.491C329.995 212.491 329.902 212.51 329.816 212.548C329.73 212.586 329.653 212.641 329.589 212.71C329.446 212.884 329.375 213.105 329.389 213.33C329.378 213.554 329.449 213.775 329.589 213.95C329.653 214.019 329.73 214.074 329.816 214.112C329.902 214.15 329.995 214.169 330.089 214.169C330.183 214.169 330.276 214.15 330.362 214.112C330.448 214.074 330.525 214.019 330.589 213.95Z" fill="#8E88C1"/>
<path d="M338 209.67V215.47H336.32V215.11C336.167 215.262 335.984 215.379 335.782 215.453C335.58 215.527 335.364 215.557 335.15 215.54C334.8 215.535 334.457 215.446 334.15 215.28C333.833 215.094 333.573 214.824 333.4 214.5C333.211 214.139 333.115 213.737 333.12 213.33C333.112 212.923 333.209 212.52 333.4 212.16C333.573 211.836 333.833 211.566 334.15 211.38C334.455 211.207 334.799 211.114 335.15 211.11C335.544 211.086 335.932 211.219 336.23 211.48V209.67H338ZM336.07 213.95C336.206 213.773 336.274 213.553 336.26 213.33C336.276 213.107 336.209 212.885 336.07 212.71C336.008 212.638 335.931 212.581 335.845 212.543C335.758 212.505 335.664 212.487 335.57 212.49C335.475 212.486 335.381 212.504 335.294 212.542C335.207 212.58 335.131 212.638 335.07 212.71C334.927 212.884 334.855 213.105 334.87 213.33C334.858 213.554 334.929 213.775 335.07 213.95C335.131 214.022 335.207 214.08 335.294 214.118C335.381 214.156 335.475 214.174 335.57 214.17C335.669 214.178 335.769 214.162 335.861 214.124C335.953 214.086 336.035 214.026 336.1 213.95H336.07Z" fill="#8E88C1"/>
<path d="M341.871 211.11V212.68H341.481C341.356 212.663 341.23 212.675 341.111 212.716C340.992 212.756 340.884 212.824 340.796 212.913C340.708 213.002 340.642 213.111 340.602 213.23C340.563 213.349 340.552 213.476 340.571 213.6V215.5H338.811V211.22H340.491V211.68C340.663 211.487 340.877 211.336 341.115 211.237C341.354 211.139 341.612 211.095 341.871 211.11Z" fill="#8E88C1"/>
<path d="M346.859 213.74H343.859C343.913 213.898 344.023 214.029 344.169 214.11C344.336 214.205 344.527 214.25 344.719 214.24C344.879 214.245 345.038 214.221 345.189 214.17C345.339 214.109 345.48 214.028 345.609 213.93L346.529 214.86C346.284 215.101 345.99 215.286 345.668 215.403C345.345 215.52 345.001 215.567 344.659 215.54C344.19 215.551 343.725 215.455 343.299 215.26C342.931 215.086 342.619 214.813 342.399 214.47C342.18 214.131 342.068 213.734 342.079 213.33C342.067 212.929 342.173 212.532 342.382 212.19C342.592 211.847 342.896 211.573 343.259 211.4C343.643 211.205 344.068 211.105 344.499 211.11C344.907 211.107 345.31 211.196 345.679 211.37C346.03 211.536 346.325 211.8 346.529 212.13C346.749 212.491 346.86 212.908 346.849 213.33C346.849 213.33 346.869 213.49 346.859 213.74ZM344.089 212.47C343.963 212.577 343.881 212.726 343.859 212.89H345.229C345.203 212.728 345.121 212.58 344.999 212.47C344.869 212.366 344.705 212.313 344.539 212.32C344.376 212.314 344.216 212.368 344.089 212.47Z" fill="#8E88C1"/>
<path d="M348.001 215.43C347.7 215.372 347.409 215.268 347.141 215.12L347.621 213.96C347.842 214.088 348.081 214.183 348.331 214.24C348.585 214.306 348.847 214.34 349.111 214.34C349.256 214.347 349.401 214.33 349.541 214.29C349.574 214.281 349.604 214.262 349.626 214.235C349.647 214.208 349.66 214.175 349.661 214.14C349.661 214.07 349.611 214.02 349.511 214C349.346 213.963 349.179 213.936 349.011 213.92C348.711 213.885 348.414 213.832 348.121 213.76C347.877 213.693 347.656 213.562 347.481 213.38C347.382 213.272 347.307 213.146 347.259 213.009C347.211 212.871 347.191 212.725 347.201 212.58C347.196 212.309 347.284 212.044 347.451 211.83C347.649 211.592 347.908 211.412 348.201 211.31C348.581 211.169 348.985 211.101 349.391 211.11C349.709 211.11 350.028 211.14 350.341 211.2C350.616 211.249 350.883 211.34 351.131 211.47L350.651 212.63C350.271 212.421 349.844 212.315 349.411 212.32C349.031 212.32 348.831 212.39 348.831 212.52C348.831 212.65 348.891 212.64 348.991 212.67L349.481 212.75C349.781 212.779 350.079 212.832 350.371 212.91C350.611 212.983 350.831 213.114 351.011 213.29C351.206 213.513 351.306 213.804 351.291 214.1C351.287 214.364 351.199 214.619 351.041 214.83C350.84 215.065 350.581 215.244 350.291 215.35C349.902 215.487 349.492 215.551 349.081 215.54C348.718 215.544 348.355 215.507 348.001 215.43Z" fill="#8E88C1"/>
<path d="M352.44 215.43C352.139 215.37 351.85 215.266 351.58 215.12L352.07 213.96C352.289 214.087 352.524 214.181 352.77 214.24C353.028 214.307 353.294 214.341 353.56 214.34C353.705 214.345 353.85 214.328 353.99 214.29C354.024 214.281 354.053 214.262 354.075 214.235C354.097 214.208 354.109 214.175 354.11 214.14C354.11 214.07 354.06 214.02 353.95 214C353.789 213.963 353.625 213.936 353.46 213.92C353.16 213.886 352.863 213.833 352.57 213.76C352.324 213.693 352.099 213.562 351.92 213.38C351.729 213.159 351.632 212.872 351.65 212.58C351.646 212.309 351.734 212.044 351.9 211.83C352.092 211.59 352.349 211.41 352.64 211.31C353.021 211.17 353.424 211.102 353.83 211.11C354.149 211.109 354.467 211.139 354.78 211.2C355.059 211.249 355.329 211.34 355.58 211.47L355.09 212.63C354.714 212.421 354.29 212.314 353.86 212.32C353.47 212.32 353.28 212.39 353.28 212.52C353.28 212.65 353.33 212.64 353.43 212.67L353.93 212.75C354.227 212.779 354.522 212.832 354.81 212.91C355.053 212.978 355.274 213.109 355.45 213.29C355.549 213.399 355.625 213.527 355.673 213.666C355.721 213.806 355.741 213.953 355.73 214.1C355.732 214.365 355.644 214.622 355.48 214.83C355.281 215.067 355.022 215.247 354.73 215.35C354.342 215.487 353.932 215.552 353.52 215.54C353.157 215.543 352.795 215.506 352.44 215.43Z" fill="#8E88C1"/>
<path d="M340.98 229.91H283.49V233.34H340.98V229.91Z" fill="#8E88C1"/>
<path d="M329.21 235.42H283.49V238.85H329.21V235.42Z" fill="#8E88C1"/>
<path d="M346.64 240.93H283.49V244.36H346.64V240.93Z" fill="#8E88C1"/>
<path d="M336.51 246.44H283.49V249.87H336.51V246.44Z" fill="#8E88C1"/>
<path d="M357.919 265.49H289.559C286.555 265.49 284.119 267.926 284.119 270.93V273.16C284.119 276.164 286.555 278.6 289.559 278.6H357.919C360.924 278.6 363.359 276.164 363.359 273.16V270.93C363.359 267.926 360.924 265.49 357.919 265.49Z" fill="#8E88C1"/>
<path d="M296.2 269.72C296.409 269.818 296.594 269.959 296.744 270.134C296.895 270.309 297.006 270.513 297.073 270.734C297.139 270.954 297.157 271.187 297.128 271.415C297.098 271.644 297.02 271.863 296.9 272.06C296.725 272.314 296.482 272.515 296.2 272.64C295.864 272.778 295.503 272.846 295.14 272.84H294.5V273.92H293V269.52H295.12C295.49 269.511 295.858 269.579 296.2 269.72ZM295.5 271.56C295.551 271.511 295.591 271.452 295.616 271.386C295.642 271.321 295.654 271.25 295.65 271.18C295.654 271.11 295.643 271.039 295.617 270.973C295.592 270.908 295.551 270.848 295.5 270.8C295.369 270.699 295.205 270.649 295.04 270.66H294.5V271.66H295C295.173 271.693 295.353 271.657 295.5 271.56Z" fill="white"/>
<path d="M300.47 270.82C300.644 270.972 300.783 271.162 300.874 271.375C300.966 271.588 301.009 271.818 301 272.05V273.9H299.68V273.45C299.583 273.625 299.436 273.768 299.258 273.859C299.08 273.949 298.878 273.985 298.68 273.96C298.439 273.966 298.2 273.918 297.98 273.82C297.803 273.738 297.654 273.607 297.551 273.442C297.448 273.276 297.395 273.085 297.4 272.89C297.392 272.739 297.424 272.588 297.492 272.453C297.561 272.318 297.663 272.203 297.79 272.12C298.149 271.919 298.559 271.829 298.97 271.86H299.54C299.54 271.59 299.28 271.45 298.9 271.45C298.74 271.452 298.581 271.479 298.43 271.53C298.282 271.567 298.143 271.631 298.02 271.72L297.56 270.79C297.784 270.658 298.027 270.561 298.28 270.5C298.551 270.432 298.83 270.399 299.11 270.4C299.598 270.376 300.08 270.524 300.47 270.82ZM299.35 273.05C299.435 272.993 299.499 272.908 299.53 272.81V272.57H299.18C298.89 272.57 298.75 272.67 298.75 272.86C298.748 272.898 298.756 272.936 298.771 272.97C298.787 273.005 298.81 273.036 298.84 273.06C298.907 273.115 298.992 273.143 299.08 273.14C299.178 273.144 299.274 273.112 299.35 273.05Z" fill="white"/>
<path d="M305.33 270.48L303.92 273.99C303.791 274.364 303.555 274.691 303.24 274.93C302.943 275.122 302.593 275.217 302.24 275.2C302.044 275.198 301.849 275.171 301.66 275.12C301.493 275.074 301.337 274.996 301.2 274.89L301.67 273.89C301.743 273.945 301.824 273.989 301.91 274.02C301.994 274.05 302.081 274.067 302.17 274.07C302.235 274.073 302.3 274.063 302.36 274.038C302.421 274.014 302.475 273.977 302.52 273.93L301.08 270.45H302.53L303.24 272.29L303.97 270.45L305.33 270.48Z" fill="white"/>
<path d="M311.101 270.8C311.372 271.123 311.505 271.54 311.471 271.96V273.96H310.051V272.24C310.051 271.85 309.921 271.65 309.671 271.65C309.608 271.648 309.546 271.661 309.488 271.687C309.431 271.713 309.381 271.751 309.341 271.8C309.249 271.942 309.207 272.111 309.221 272.28V273.96H307.801V272.24C307.801 271.85 307.671 271.65 307.421 271.65C307.358 271.648 307.296 271.661 307.238 271.687C307.181 271.713 307.131 271.751 307.091 271.8C306.999 271.942 306.957 272.111 306.971 272.28V273.96H305.551V270.52H306.901V270.84C307.033 270.712 307.19 270.612 307.362 270.547C307.534 270.481 307.717 270.452 307.901 270.46C308.115 270.456 308.327 270.5 308.521 270.59C308.707 270.671 308.864 270.807 308.971 270.98C309.107 270.815 309.277 270.682 309.471 270.59C309.676 270.501 309.897 270.457 310.121 270.46C310.298 270.449 310.477 270.474 310.645 270.532C310.813 270.59 310.968 270.681 311.101 270.8Z" fill="white"/>
<path d="M315.789 272.53H313.399C313.445 272.656 313.533 272.763 313.649 272.83C313.785 272.901 313.936 272.936 314.089 272.93C314.219 272.935 314.348 272.914 314.469 272.87C314.592 272.826 314.707 272.762 314.809 272.68L315.549 273.43C315.353 273.623 315.118 273.773 314.859 273.868C314.6 273.962 314.324 274.001 314.049 273.98C313.67 273.986 313.294 273.908 312.949 273.75C312.651 273.613 312.401 273.39 312.229 273.11C312.052 272.84 311.961 272.523 311.969 272.2C311.964 271.877 312.05 271.559 312.218 271.283C312.387 271.006 312.63 270.784 312.919 270.64C313.23 270.488 313.573 270.412 313.919 270.42C314.246 270.419 314.57 270.487 314.869 270.62C315.146 270.759 315.381 270.97 315.549 271.23C315.733 271.53 315.823 271.878 315.809 272.23C315.809 272.23 315.799 272.33 315.789 272.53ZM313.559 271.53C313.461 271.619 313.397 271.739 313.379 271.87H314.479C314.457 271.741 314.39 271.624 314.289 271.54C314.188 271.458 314.06 271.415 313.929 271.42C313.801 271.407 313.671 271.435 313.559 271.5V271.53Z" fill="white"/>
<path d="M319.66 270.8C319.8 270.957 319.906 271.141 319.974 271.34C320.041 271.54 320.067 271.75 320.05 271.96V273.96H318.63V272.24C318.63 271.85 318.49 271.65 318.21 271.65C318.137 271.649 318.064 271.663 317.996 271.692C317.929 271.722 317.869 271.765 317.82 271.82C317.707 271.969 317.654 272.154 317.67 272.34V273.96H316.25V270.52H317.6V270.86C317.736 270.731 317.895 270.629 318.07 270.56C318.252 270.491 318.445 270.457 318.64 270.46C319.012 270.434 319.378 270.556 319.66 270.8Z" fill="white"/>
<path d="M323.2 273.8C322.926 273.932 322.623 273.994 322.32 273.98C321.919 274.005 321.523 273.88 321.21 273.63C321.078 273.5 320.976 273.344 320.908 273.171C320.841 272.999 320.811 272.815 320.82 272.63V271.75H320.35V270.75H320.82V269.75H322.24V270.75H323V271.75H322.29V272.61C322.285 272.7 322.313 272.789 322.37 272.86C322.398 272.89 322.432 272.913 322.47 272.929C322.508 272.944 322.549 272.951 322.59 272.95C322.704 272.949 322.815 272.914 322.91 272.85L323.2 273.8Z" fill="white"/>
<path d="M329.41 273.92V271.92L328.41 273.53H327.76L326.76 271.99V273.93H325.41V269.53H326.62L328.06 271.87L329.45 269.53H330.67V273.93L329.41 273.92Z" fill="white"/>
<path d="M335.07 272.53H332.69C332.735 272.656 332.824 272.763 332.94 272.83C333.075 272.903 333.227 272.937 333.38 272.93C333.509 272.935 333.638 272.914 333.76 272.87C333.88 272.825 333.991 272.761 334.09 272.68L334.84 273.43C334.642 273.624 334.405 273.774 334.144 273.869C333.884 273.964 333.606 274.002 333.33 273.98C332.954 273.986 332.581 273.908 332.24 273.75C331.939 273.613 331.685 273.39 331.51 273.11C331.383 272.905 331.3 272.675 331.267 272.436C331.233 272.197 331.25 271.953 331.316 271.721C331.382 271.489 331.495 271.272 331.649 271.086C331.803 270.9 331.994 270.748 332.21 270.64C332.52 270.486 332.864 270.411 333.21 270.42C333.537 270.416 333.862 270.485 334.16 270.62C334.442 270.756 334.68 270.967 334.85 271.23C335.031 271.531 335.118 271.879 335.1 272.23C335.1 272.23 335.09 272.33 335.07 272.53ZM332.85 271.53C332.749 271.618 332.682 271.738 332.66 271.87H333.77C333.748 271.741 333.68 271.624 333.58 271.54C333.474 271.458 333.343 271.415 333.21 271.42C333.084 271.409 332.959 271.437 332.85 271.5V271.53Z" fill="white"/>
<path d="M338.07 273.8C337.801 273.933 337.501 273.995 337.2 273.98C336.8 274.005 336.404 273.88 336.09 273.63C335.959 273.5 335.856 273.344 335.789 273.171C335.722 272.999 335.692 272.815 335.7 272.63V271.75H335.23V270.75H335.7V269.75H337.12V270.75H337.82V271.75H337.12V272.61C337.116 272.655 337.121 272.7 337.135 272.743C337.148 272.786 337.171 272.826 337.2 272.86C337.226 272.89 337.259 272.914 337.295 272.929C337.331 272.945 337.371 272.952 337.41 272.95C337.525 272.949 337.636 272.914 337.73 272.85L338.07 273.8Z" fill="white"/>
<path d="M341.84 270.8C341.98 270.957 342.086 271.141 342.153 271.34C342.22 271.539 342.246 271.75 342.23 271.96V273.96H340.81V272.24C340.81 271.85 340.67 271.65 340.39 271.65C340.316 271.649 340.243 271.663 340.176 271.692C340.109 271.722 340.049 271.765 340 271.82C339.887 271.969 339.833 272.154 339.85 272.34V273.96H338.43V269.25H339.85V270.76C340.13 270.526 340.484 270.397 340.85 270.397C341.215 270.397 341.569 270.526 341.85 270.76L341.84 270.8Z" fill="white"/>
<path d="M343.691 273.75C343.4 273.61 343.154 273.392 342.981 273.12C342.808 272.845 342.718 272.525 342.721 272.2C342.721 271.872 342.816 271.55 342.993 271.274C343.17 270.997 343.423 270.777 343.721 270.64C344.046 270.495 344.399 270.42 344.756 270.42C345.112 270.42 345.465 270.495 345.791 270.64C346.084 270.781 346.331 271.003 346.501 271.28C346.672 271.556 346.759 271.876 346.751 272.2C346.757 272.524 346.671 272.844 346.501 273.12C346.327 273.392 346.081 273.61 345.791 273.75C345.467 273.902 345.114 273.98 344.756 273.98C344.398 273.98 344.045 273.902 343.721 273.75H343.691ZM345.121 272.7C345.235 272.559 345.292 272.381 345.281 272.2C345.294 272.019 345.237 271.84 345.121 271.7C345.071 271.643 345.01 271.597 344.941 271.565C344.872 271.534 344.797 271.518 344.721 271.518C344.645 271.518 344.57 271.534 344.501 271.565C344.432 271.597 344.371 271.643 344.321 271.7C344.205 271.84 344.147 272.019 344.161 272.2C344.149 272.381 344.206 272.559 344.321 272.7C344.373 272.753 344.435 272.795 344.504 272.824C344.573 272.853 344.646 272.868 344.721 272.868C344.795 272.868 344.869 272.853 344.938 272.824C345.006 272.795 345.069 272.753 345.121 272.7Z" fill="white"/>
<path d="M350.999 269.25V273.92H349.649V273.63C349.527 273.755 349.378 273.852 349.214 273.912C349.049 273.973 348.874 273.996 348.699 273.98C348.408 273.984 348.121 273.908 347.869 273.76C347.615 273.614 347.407 273.399 347.269 273.14C347.114 272.851 347.035 272.528 347.039 272.2C347.034 271.872 347.113 271.548 347.269 271.26C347.409 271 347.617 270.783 347.869 270.63C348.123 270.489 348.409 270.417 348.699 270.42C349.019 270.398 349.335 270.502 349.579 270.71V269.25H350.999ZM349.449 272.7C349.557 272.556 349.61 272.379 349.599 272.2C349.611 272.021 349.558 271.843 349.449 271.7C349.399 271.641 349.336 271.595 349.265 271.564C349.194 271.532 349.117 271.518 349.039 271.52C348.964 271.519 348.889 271.535 348.819 271.566C348.75 271.597 348.689 271.643 348.639 271.7C348.528 271.842 348.471 272.019 348.479 272.2C348.472 272.38 348.529 272.557 348.639 272.7C348.691 272.754 348.753 272.798 348.821 272.827C348.89 272.856 348.965 272.871 349.039 272.87C349.183 272.865 349.32 272.804 349.419 272.7H349.449Z" fill="white"/>
<path d="M277.13 190.08H178.66V195.1H277.13V190.08Z" fill="#8E88C1"/>
<path d="M200.27 197.07H178.66V202.09H200.27V197.07Z" fill="#8E88C1"/>
<path d="M208.35 204.06H178.66V209.08H208.35V204.06Z" fill="#8E88C1"/>
<path d="M203.181 211.05H178.971V216.07H203.181V211.05Z" fill="#8E88C1"/>
<path d="M169.559 190.08H151.349C149.201 190.08 147.459 191.822 147.459 193.97V212.18C147.459 214.328 149.201 216.07 151.349 216.07H169.559C171.707 216.07 173.449 214.328 173.449 212.18V193.97C173.449 191.822 171.707 190.08 169.559 190.08Z" fill="#8E88C1"/>
<path opacity="0.2" d="M165.06 197.46H155.84C155.282 197.46 154.83 197.912 154.83 198.47V207.69C154.83 208.248 155.282 208.7 155.84 208.7H165.06C165.618 208.7 166.07 208.248 166.07 207.69V198.47C166.07 197.912 165.618 197.46 165.06 197.46Z" fill="white"/>
<path opacity="0.2" d="M163.82 198.53H160.03C159.55 198.53 159.16 198.92 159.16 199.4V203.19C159.16 203.67 159.55 204.06 160.03 204.06H163.82C164.301 204.06 164.69 203.67 164.69 203.19V199.4C164.69 198.92 164.301 198.53 163.82 198.53Z" fill="white"/>
<path d="M134.09 197.07H124.59V206.57H134.09V197.07Z" fill="#8E88C1"/>
<path d="M125.58 202.52L128.26 205.55L133.62 198.08L127.89 203.63L125.58 202.52Z" fill="white"/>
<path d="M277.13 229.42H178.66V234.44H277.13V229.42Z" fill="#8E88C1"/>
<path d="M200.27 236.41H178.66V241.43H200.27V236.41Z" fill="#8E88C1"/>
<path d="M208.35 243.39H178.66V248.41H208.35V243.39Z" fill="#8E88C1"/>
<path d="M203.181 250.38H178.971V255.4H203.181V250.38Z" fill="#8E88C1"/>
<path d="M169.559 229.42H151.349C149.201 229.42 147.459 231.162 147.459 233.31V251.52C147.459 253.668 149.201 255.41 151.349 255.41H169.559C171.707 255.41 173.449 253.668 173.449 251.52V233.31C173.449 231.162 171.707 229.42 169.559 229.42Z" fill="#8E88C1"/>
<path opacity="0.2" d="M165.06 236.79H155.84C155.282 236.79 154.83 237.242 154.83 237.8V247.02C154.83 247.578 155.282 248.03 155.84 248.03H165.06C165.618 248.03 166.07 247.578 166.07 247.02V237.8C166.07 237.242 165.618 236.79 165.06 236.79Z" fill="white"/>
<path opacity="0.2" d="M163.82 237.86H160.03C159.55 237.86 159.16 238.249 159.16 238.73V242.52C159.16 243 159.55 243.39 160.03 243.39H163.82C164.301 243.39 164.69 243 164.69 242.52V238.73C164.69 238.249 164.301 237.86 163.82 237.86Z" fill="white"/>
<path d="M134.09 236.41H124.59V245.91H134.09V236.41Z" fill="#8E88C1"/>
<path d="M125.58 241.85L128.26 244.88L133.62 237.41L127.89 242.97L125.58 241.85Z" fill="white"/>
<path d="M277.13 268.75H178.66V273.77H277.13V268.75Z" fill="#8E88C1"/>
<path d="M200.27 275.74H178.66V280.76H200.27V275.74Z" fill="#8E88C1"/>
<path d="M208.35 282.73H178.66V287.75H208.35V282.73Z" fill="#8E88C1"/>
<path d="M203.181 289.72H178.971V294.74H203.181V289.72Z" fill="#8E88C1"/>
<path d="M169.559 268.75H151.349C149.201 268.75 147.459 270.492 147.459 272.64V290.85C147.459 292.998 149.201 294.74 151.349 294.74H169.559C171.707 294.74 173.449 292.998 173.449 290.85V272.64C173.449 270.492 171.707 268.75 169.559 268.75Z" fill="#8E88C1"/>
<path opacity="0.2" d="M165.06 276.13H155.84C155.282 276.13 154.83 276.582 154.83 277.14V286.36C154.83 286.918 155.282 287.37 155.84 287.37H165.06C165.618 287.37 166.07 286.918 166.07 286.36V277.14C166.07 276.582 165.618 276.13 165.06 276.13Z" fill="white"/>
<path opacity="0.2" d="M163.82 277.2H160.03C159.55 277.2 159.16 277.59 159.16 278.07V281.86C159.16 282.34 159.55 282.73 160.03 282.73H163.82C164.301 282.73 164.69 282.34 164.69 281.86V278.07C164.69 277.59 164.301 277.2 163.82 277.2Z" fill="white"/>
<path d="M134.09 275.74H124.59V285.24H134.09V275.74Z" fill="#8E88C1"/>
<path d="M125.58 281.19L128.26 284.22L133.62 276.75L127.89 282.3L125.58 281.19Z" fill="white"/>
<g opacity="0.2">
<path opacity="0.2" d="M266.61 33.34H159.77V192.59H266.61V33.34Z" fill="black"/>
</g>
<path d="M259.119 24.9H152.279V184.15H259.119V24.9Z" fill="#8E88C1"/>
<g opacity="0.5">
<path opacity="0.5" d="M259.119 24.9H152.279V184.15H259.119V24.9Z" fill="white"/>
</g>
<path d="M259.13 24.9H152.27V35.56H259.13V24.9Z" fill="#8E88C1"/>
<path d="M255.68 30.18C255.688 30.8086 255.508 31.4254 255.165 31.9519C254.821 32.4785 254.329 32.891 253.751 33.1371C253.172 33.3831 252.534 33.4517 251.916 33.3339C251.299 33.2161 250.73 32.9174 250.283 32.4757C249.835 32.034 249.529 31.4693 249.404 30.8533C249.278 30.2373 249.339 29.5979 249.577 29.0163C249.816 28.4347 250.222 27.9373 250.744 27.5872C251.266 27.237 251.881 27.0501 252.51 27.05C253.343 27.0499 254.144 27.3784 254.737 27.9643C255.33 28.5502 255.669 29.3462 255.68 30.18Z" fill="white"/>
<path d="M240.26 172.74H172.32C170.811 172.741 169.315 172.445 167.92 171.868C166.525 171.291 165.257 170.445 164.189 169.378C163.121 168.311 162.274 167.044 161.696 165.649C161.118 164.255 160.82 162.76 160.82 161.25C160.82 159.74 161.118 158.245 161.696 156.851C162.274 155.456 163.121 154.189 164.189 153.122C165.257 152.055 166.525 151.209 167.92 150.632C169.315 150.055 170.811 149.759 172.32 149.76H240.26C241.77 149.759 243.265 150.055 244.66 150.632C246.056 151.209 247.323 152.055 248.391 153.122C249.459 154.189 250.307 155.456 250.885 156.851C251.463 158.245 251.76 159.74 251.76 161.25C251.76 162.76 251.463 164.255 250.885 165.649C250.307 167.044 249.459 168.311 248.391 169.378C247.323 170.445 246.056 171.291 244.66 171.868C243.265 172.445 241.77 172.741 240.26 172.74Z" fill="#8E88C1"/>
<path d="M170.08 165.26C169.326 164.875 168.696 164.286 168.26 163.56C167.827 162.811 167.6 161.96 167.6 161.095C167.6 160.23 167.827 159.379 168.26 158.63C168.693 157.905 169.325 157.318 170.08 156.94C170.883 156.524 171.776 156.315 172.68 156.33C173.495 156.316 174.302 156.477 175.05 156.8C175.73 157.095 176.322 157.56 176.77 158.15L174.83 159.89C174.606 159.565 174.307 159.299 173.96 159.113C173.612 158.927 173.225 158.826 172.83 158.82C172.542 158.806 172.255 158.854 171.987 158.961C171.72 159.068 171.479 159.231 171.28 159.44C170.872 159.894 170.66 160.49 170.69 161.1C170.663 161.709 170.875 162.305 171.28 162.76C171.479 162.967 171.721 163.129 171.989 163.234C172.256 163.339 172.543 163.386 172.83 163.37C173.224 163.364 173.61 163.265 173.958 163.08C174.305 162.896 174.604 162.632 174.83 162.31L176.77 164.04C176.322 164.63 175.73 165.095 175.05 165.39C174.255 165.725 173.398 165.887 172.536 165.865C171.674 165.843 170.826 165.636 170.05 165.26H170.08Z" fill="white"/>
<path d="M186.64 156.54V165.65H183.57V162.29H180.73V165.65H177.65V156.54H180.73V159.77H183.57V156.54H186.64Z" fill="white"/>
<path d="M195.699 163.34V165.65H188.119V156.54H195.529V158.86H191.139V159.92H194.999V162.14H191.139V163.34H195.699Z" fill="white"/>
<path d="M199 165.26C198.251 164.872 197.624 164.283 197.19 163.56C196.757 162.811 196.529 161.96 196.529 161.095C196.529 160.23 196.757 159.379 197.19 158.63C197.622 157.907 198.249 157.322 199 156.94C199.806 156.525 200.703 156.316 201.61 156.33C202.424 156.318 203.232 156.478 203.98 156.8C204.658 157.098 205.249 157.562 205.7 158.15L203.76 159.89C203.536 159.565 203.237 159.299 202.889 159.113C202.541 158.927 202.154 158.826 201.76 158.82C201.474 158.807 201.188 158.856 200.922 158.963C200.657 159.07 200.417 159.232 200.22 159.44C200.015 159.663 199.858 159.925 199.756 160.21C199.655 160.495 199.612 160.798 199.63 161.1C199.614 161.402 199.658 161.704 199.76 161.989C199.861 162.274 200.017 162.536 200.22 162.76C200.418 162.966 200.658 163.127 200.924 163.232C201.189 163.337 201.474 163.384 201.76 163.37C202.153 163.363 202.539 163.264 202.887 163.079C203.234 162.895 203.533 162.632 203.76 162.31L205.7 164.04C205.249 164.628 204.658 165.092 203.98 165.39C203.185 165.724 202.328 165.884 201.466 165.862C200.604 165.84 199.757 165.634 198.98 165.26H199Z" fill="white"/>
<path d="M210.28 162.63L209.59 163.4V165.65H206.59V156.54H209.59V159.85L212.59 156.54H215.93L212.29 160.54L216.12 165.64H212.56L210.28 162.63Z" fill="white"/>
<path d="M218.339 165.25C217.774 164.947 217.276 164.533 216.876 164.032C216.475 163.531 216.181 162.955 216.01 162.337C215.839 161.719 215.795 161.072 215.881 160.437C215.966 159.802 216.18 159.19 216.509 158.64C216.952 157.916 217.585 157.328 218.339 156.94C219.162 156.536 220.067 156.326 220.984 156.326C221.901 156.326 222.806 156.536 223.629 156.94C224.385 157.331 225.02 157.918 225.469 158.64C225.808 159.188 226.03 159.801 226.12 160.439C226.211 161.077 226.169 161.727 225.996 162.348C225.823 162.969 225.523 163.547 225.116 164.046C224.709 164.546 224.203 164.956 223.629 165.25C222.806 165.654 221.901 165.864 220.984 165.864C220.067 165.864 219.162 165.654 218.339 165.25ZM221.999 163.05C222.314 162.86 222.57 162.586 222.739 162.26C222.927 161.888 223.019 161.476 223.009 161.06C223.019 160.641 222.927 160.225 222.739 159.85C222.57 159.524 222.314 159.25 221.999 159.06C221.766 158.92 221.506 158.829 221.236 158.793C220.966 158.758 220.691 158.777 220.429 158.851C220.167 158.925 219.922 159.052 219.711 159.224C219.5 159.395 219.325 159.609 219.199 159.85C219.004 160.223 218.908 160.639 218.919 161.06C218.908 161.477 219.004 161.891 219.199 162.26C219.325 162.501 219.5 162.715 219.711 162.886C219.922 163.058 220.167 163.185 220.429 163.259C220.691 163.333 220.966 163.352 221.236 163.317C221.506 163.281 221.766 163.19 221.999 163.05Z" fill="white"/>
<path d="M228.339 164.73C227.936 164.309 227.624 163.809 227.423 163.262C227.222 162.715 227.135 162.132 227.169 161.55V156.55H230.239V161.47C230.196 161.983 230.323 162.496 230.599 162.93C230.721 163.076 230.875 163.192 231.048 163.27C231.221 163.347 231.41 163.385 231.599 163.38C231.789 163.387 231.978 163.35 232.152 163.272C232.325 163.194 232.478 163.077 232.599 162.93C232.876 162.496 233.003 161.983 232.959 161.47V156.55H235.959V161.55C235.993 162.132 235.907 162.715 235.706 163.262C235.505 163.809 235.193 164.309 234.789 164.73C233.856 165.462 232.705 165.859 231.519 165.859C230.334 165.859 229.182 165.462 228.249 164.73H228.339Z" fill="white"/>
<path d="M239.309 158.92H236.639V156.54H245.049V158.92H242.379V165.65H239.309V158.92Z" fill="white"/>
<path d="M174.289 67.05H170.289V63.45H182.999V67.05H178.999V77.23H174.349L174.289 67.05Z" fill="#8E88C1"/>
<path d="M185.429 76.71C184.511 76.2654 183.735 75.5726 183.189 74.71C182.659 73.8411 182.379 72.8429 182.379 71.825C182.379 70.8071 182.659 69.809 183.189 68.94C183.732 68.075 184.509 67.3815 185.429 66.94C186.44 66.4723 187.541 66.2301 188.654 66.2301C189.768 66.2301 190.869 66.4723 191.879 66.94C192.557 67.279 193.157 67.755 193.642 68.3378C194.126 68.9205 194.485 69.5975 194.694 70.3258C194.904 71.0542 194.96 71.8181 194.859 72.5693C194.759 73.3204 194.503 74.0426 194.109 74.69C193.57 75.5543 192.797 76.2479 191.879 76.69C190.87 77.1643 189.769 77.4103 188.654 77.4103C187.539 77.4103 186.438 77.1643 185.429 76.69V76.71ZM189.909 73.41C190.256 72.9624 190.43 72.4052 190.399 71.84C190.433 71.2806 190.258 70.7285 189.909 70.29C189.748 70.1165 189.552 69.9781 189.334 69.8835C189.116 69.7889 188.882 69.7401 188.644 69.7401C188.407 69.7401 188.172 69.7889 187.955 69.8835C187.737 69.9781 187.541 70.1165 187.379 70.29C187.03 70.7285 186.856 71.2806 186.889 71.84C186.859 72.4052 187.033 72.9624 187.379 73.41C187.54 73.5862 187.735 73.727 187.953 73.8233C188.171 73.9196 188.406 73.9694 188.644 73.9694C188.883 73.9694 189.118 73.9196 189.336 73.8233C189.554 73.727 189.749 73.5862 189.909 73.41Z" fill="#8E88C1"/>
<path d="M204.24 76.86C203.391 77.2805 202.447 77.4767 201.5 77.43C200.244 77.5177 199.002 77.1285 198.02 76.34C197.59 75.9136 197.257 75.3982 197.046 74.8299C196.836 74.2616 196.752 73.6542 196.8 73.05V70.3H195.32V67.05H196.8V64.05H201.25V67.05H203.45V70.3H201.25V73.05C201.231 73.3294 201.32 73.6055 201.5 73.82C201.586 73.9107 201.69 73.9824 201.806 74.0306C201.921 74.0788 202.045 74.1024 202.17 74.1C202.526 74.1047 202.876 74 203.17 73.8L204.24 76.86Z" fill="#8E88C1"/>
<path d="M214.519 67.54C215.042 68.0397 215.446 68.6503 215.703 69.327C215.959 70.0036 216.06 70.7291 215.999 71.45V77.24H211.869V75.82C211.591 76.3608 211.155 76.8043 210.619 77.0918C210.083 77.3793 209.473 77.4973 208.869 77.43C208.118 77.4553 207.371 77.3046 206.689 76.99C206.131 76.7262 205.66 76.3102 205.329 75.79C205.019 75.2777 204.859 74.6886 204.869 74.09C204.845 73.6141 204.945 73.1402 205.159 72.7143C205.372 72.2885 205.693 71.9253 206.089 71.66C207.217 71.0347 208.502 70.7498 209.789 70.84H211.579C211.439 70 210.759 69.58 209.579 69.58C209.077 69.5803 208.579 69.6544 208.099 69.8C207.639 69.9309 207.206 70.1407 206.819 70.42L205.399 67.49C206.095 67.0776 206.85 66.7741 207.639 66.59C208.493 66.3803 209.369 66.2729 210.249 66.27C211.777 66.1771 213.289 66.6269 214.519 67.54ZM211.009 74.54C211.273 74.3526 211.467 74.0813 211.559 73.77V73.02H210.459C209.559 73.02 209.099 73.33 209.099 73.93C209.097 74.0486 209.122 74.1661 209.172 74.2735C209.222 74.3809 209.296 74.4755 209.389 74.55C209.61 74.7238 209.887 74.8125 210.169 74.8C210.47 74.788 210.76 74.6832 210.999 74.5L211.009 74.54Z" fill="#8E88C1"/>
<path d="M217.939 62.63H222.389V77.24H217.939V62.63Z" fill="#8E88C1"/>
<path d="M196.57 97.68H165.27V101.12H196.57V97.68Z" fill="#8E88C1"/>
<path d="M188 89.22H165.27V92.66H188V89.22Z" fill="#263238"/>
<path d="M202.46 106.87H165.27V110.31H202.46V106.87Z" fill="#8E88C1"/>
<path d="M244.39 106.87H227.17V110.31H244.39V106.87Z" fill="#8E88C1"/>
<path d="M191.67 120.75H165.27V124.19H191.67V120.75Z" fill="#8E88C1"/>
<path d="M97.9091 138.13C94.7091 138.13 91.6391 141.02 89.7591 146.39C87.8791 151.76 89.2291 159.56 89.4891 163.24C89.7491 166.92 87.8691 172.24 87.8691 172.24C92.2191 168.69 95.1791 164.24 95.6791 158.11C96.1322 160.566 95.9812 163.095 95.2391 165.48C97.8187 163.218 99.847 160.396 101.169 157.23C103.569 151.73 103.299 143.92 103.299 143.92C103.299 143.92 101.119 138.13 97.9091 138.13Z" fill="#263238"/>
<path d="M95.5994 144.67C95.4694 147.48 96.5994 152.67 103.499 148.02C110.399 143.37 102.299 140.57 98.9894 141.23C98.1152 141.327 97.3011 141.722 96.6838 142.348C96.0665 142.975 95.6835 143.795 95.5994 144.67Z" fill="#8E88C1"/>
<path d="M98.9196 144.96C98.0396 150.71 100.79 155.96 102.46 162.84C104.13 169.72 102.72 171.24 102.72 171.24C102.72 171.24 117.36 168.94 124.98 155.42C132.6 141.9 118.85 133 110.38 135.64C106.21 133.55 99.7896 139.36 98.9196 144.96Z" fill="#263238"/>
<path d="M134.49 177.95C134.57 178.72 134.69 179.66 134.8 180.53C134.91 181.4 135.06 182.31 135.2 183.19C135.5 184.97 135.83 186.74 136.2 188.5C136.57 190.26 137.02 191.99 137.49 193.71C137.96 195.43 138.49 197.12 139.15 198.76L139.38 199.37L139.5 199.68L139.59 199.9C139.646 200.048 139.713 200.192 139.79 200.33C139.858 200.489 139.938 200.643 140.03 200.79C140.423 201.484 140.861 202.152 141.34 202.79C142.421 204.168 143.579 205.484 144.81 206.73C147.32 209.31 150.08 211.84 152.81 214.27L150.64 217.52C147.172 215.718 143.872 213.61 140.78 211.22C139.173 209.979 137.659 208.622 136.25 207.16C135.483 206.365 134.778 205.512 134.14 204.61C133.964 204.368 133.8 204.118 133.65 203.86C133.48 203.599 133.327 203.329 133.19 203.05L132.97 202.63L132.81 202.29L132.49 201.6C130.826 197.975 129.507 194.202 128.55 190.33C128.07 188.41 127.65 186.48 127.33 184.54C127.17 183.54 127.02 182.59 126.89 181.6C126.76 180.61 126.67 179.67 126.59 178.6L134.49 177.95Z" fill="#FFB573"/>
<path d="M131.759 170.58C134.419 171.25 136.279 182.2 136.279 182.2L128.949 187.2C128.949 187.2 121.949 176.2 123.949 173.2C125.949 170.2 127.879 169.59 131.759 170.58Z" fill="#8E88C1"/>
<g opacity="0.5">
<path opacity="0.5" d="M131.759 170.58C134.419 171.25 136.279 182.2 136.279 182.2L128.949 187.2C128.949 187.2 121.949 176.2 123.949 173.2C125.949 170.2 127.879 169.59 131.759 170.58Z" fill="white"/>
</g>
<path opacity="0.2" d="M131.52 173.05L133.52 184.05L132.52 184.76V185.45C132.377 189.61 131.868 193.749 131 197.82L129.33 193.37L127.85 187.58L129.49 186.84L131.52 173.05Z" fill="black"/>
<path d="M154.071 214.39L159.071 216.33L153.451 219.72C153.451 219.72 149.861 217.64 149.951 214.96L150.501 214.65C151.04 214.346 151.639 214.165 152.257 214.12C152.874 214.075 153.494 214.167 154.071 214.39Z" fill="#FFB573"/>
<path d="M162.14 219.99L157.91 223.51L153.43 219.72L159.05 216.32L162.14 219.99Z" fill="#FFB573"/>
<path d="M131.76 170.58C131.76 170.58 134.83 171.66 128.67 209.52H102.47C102.91 198.85 103 192.27 97.9102 170.38C101.537 169.629 105.213 169.141 108.91 168.92C112.872 168.64 116.848 168.64 120.81 168.92C126 169.39 131.76 170.58 131.76 170.58Z" fill="#8E88C1"/>
<g opacity="0.4">
<path opacity="0.4" d="M131.76 170.58C131.76 170.58 134.83 171.66 128.67 209.52H102.47C102.91 198.85 103 192.27 97.9102 170.38C101.537 169.629 105.213 169.141 108.91 168.92C112.872 168.64 116.848 168.64 120.81 168.92C126 169.39 131.76 170.58 131.76 170.58Z" fill="white"/>
</g>
<path opacity="0.2" d="M100.801 183.83L103.241 184.54L104.081 182.76C104.081 182.76 117.681 187.46 123.601 185.2C127.421 183.74 128.771 182.27 128.771 182.27L100.051 180.16L100.801 183.83Z" fill="black"/>
<path d="M111.029 354.76H117.489L120.129 339.82H113.679L111.029 354.76Z" fill="#FFB573"/>
<path d="M118 354.05H110.75C110.624 354.046 110.502 354.089 110.406 354.17C110.31 354.252 110.247 354.365 110.23 354.49L109.41 360.22C109.388 360.363 109.398 360.51 109.438 360.649C109.479 360.788 109.549 360.917 109.644 361.026C109.739 361.136 109.857 361.223 109.989 361.282C110.121 361.342 110.265 361.372 110.41 361.37C112.94 361.37 114.16 361.18 117.34 361.18C119.34 361.18 124.94 361.38 127.65 361.38C130.36 361.38 130.5 358.71 129.37 358.46C124.31 357.38 120.75 355.88 119.04 354.46C118.749 354.21 118.383 354.066 118 354.05Z" fill="#263238"/>
<g opacity="0.2">
<path opacity="0.2" d="M120.131 339.82L118.771 347.53H112.311L113.671 339.82H120.131Z" fill="black"/>
</g>
<path d="M109 168.93C112.958 168.64 116.932 168.64 120.89 168.93L121.67 169C122.67 170.8 122.86 173.57 120.58 177.63C120.58 177.63 110.15 173.43 107.43 169.03C107.91 168.99 108.43 168.95 109 168.93Z" fill="#FFB573"/>
<path d="M128.67 209.52C128.67 209.52 133.76 259.22 133.34 278.9C132.9 299.36 120.17 346.05 120.17 346.05H111.45C111.45 346.05 118.06 300.57 117.29 280.47C116.45 258.56 109.49 209.53 109.49 209.53L128.67 209.52Z" fill="#263238"/>
<path opacity="0.3" d="M128.67 209.52C128.67 209.52 133.76 259.22 133.34 278.9C132.9 299.36 120.17 346.05 120.17 346.05H111.45C111.45 346.05 118.06 300.57 117.29 280.47C116.45 258.56 109.49 209.53 109.49 209.53L128.67 209.52Z" fill="#263238"/>
<path d="M110.691 346.35H120.931L121.681 343.08L110.221 342.68L110.691 346.35Z" fill="#263238"/>
<path opacity="0.2" d="M117.369 221.88C123.809 234.83 118.659 258.45 116.369 267.24C115.199 254.04 113.229 237.91 111.699 226.06C112.689 219.36 114.399 215.92 117.369 221.88Z" fill="black"/>
<path d="M54.8105 297.06L56.9905 303.13L71.8505 300.32L69.6805 294.25L54.8105 297.06Z" fill="#FFB573"/>
<path d="M58.74 303.33L58.23 296.1C58.2248 295.968 58.174 295.843 58.0865 295.744C57.999 295.646 57.8801 295.581 57.75 295.56L51.92 294.39C51.7789 294.36 51.6326 294.364 51.4935 294.402C51.3543 294.441 51.2264 294.512 51.1206 294.61C51.0147 294.708 50.9339 294.83 50.8851 294.966C50.8363 295.101 50.8208 295.247 50.84 295.39C51.06 297.92 51.3 299.14 51.52 302.32C51.66 304.32 51.84 309.88 52.03 312.59C52.22 315.3 54.93 315.59 55.09 314.48C55.84 309.48 57.09 306.03 58.42 304.42C58.6645 304.112 58.7793 303.721 58.74 303.33Z" fill="#263238"/>
<g opacity="0.2">
<path opacity="0.2" d="M71.8498 300.32L64.1898 301.77L62.0098 295.69L69.6698 294.25L71.8498 300.32Z" fill="black"/>
</g>
<path d="M121.43 209.52C121.43 209.52 114.27 260.81 109.43 280.11C104.43 300.18 66.7502 301.89 66.7502 301.89L62.9102 294.05C62.9102 294.05 84.9102 288.21 94.3602 275C98.4702 253.38 102.24 209.52 102.24 209.52H121.43Z" fill="#263238"/>
<path opacity="0.3" d="M121.43 209.52C121.43 209.52 114.27 260.81 109.43 280.11C104.43 300.18 66.7502 301.89 66.7502 301.89L62.9102 294.05C62.9102 294.05 84.9102 288.21 94.3602 275C98.4702 253.38 102.24 209.52 102.24 209.52H121.43Z" fill="#263238"/>
<path d="M62.4707 293.32L65.8307 302.99L69.3007 303.02L65.9307 292.12L62.4707 293.32Z" fill="#263238"/>
<path d="M57.7704 305.68C57.7702 306.247 57.9487 306.8 58.2804 307.26C58.3782 307.366 58.4976 307.449 58.6305 307.504C58.7634 307.559 58.9066 307.585 59.0504 307.58C59.1302 307.581 59.2086 307.56 59.2773 307.519C59.346 307.478 59.4024 307.42 59.4404 307.35C59.8204 306.58 58.3204 303.94 58.1504 303.64C58.1343 303.612 58.1109 303.589 58.0828 303.573C58.0546 303.557 58.0227 303.549 57.9904 303.55C57.9597 303.551 57.9303 303.563 57.9068 303.583C57.8833 303.603 57.867 303.63 57.8604 303.66C57.7716 304.329 57.7415 305.005 57.7704 305.68ZM59.2004 306.9C59.2295 306.991 59.2295 307.089 59.2004 307.18C59.1862 307.21 59.1632 307.234 59.1346 307.25C59.106 307.266 59.0731 307.273 59.0404 307.27C58.9474 307.276 58.8541 307.262 58.7676 307.227C58.681 307.192 58.6034 307.139 58.5404 307.07C58.0779 306.181 57.9433 305.158 58.1604 304.18C58.649 305.026 59 305.944 59.2004 306.9Z" fill="#8E88C1"/>
<path d="M57.8598 303.69C57.8586 303.713 57.8586 303.737 57.8598 303.76C58.2698 304.54 59.7698 306.15 60.4998 306.07C60.6698 306.07 60.8798 305.94 60.8898 305.52C60.9013 305.202 60.7862 304.893 60.5698 304.66C59.8381 304.05 58.9456 303.664 57.9998 303.55C57.9801 303.549 57.9604 303.551 57.9416 303.557C57.9229 303.564 57.9056 303.574 57.8908 303.587C57.8759 303.6 57.8637 303.616 57.855 303.633C57.8463 303.651 57.8411 303.67 57.8398 303.69H57.8598ZM60.5998 305.38C60.6047 305.41 60.6047 305.44 60.5998 305.47C60.5998 305.75 60.4798 305.76 60.4398 305.77C59.9998 305.77 58.8298 304.72 58.2998 303.91C59.0595 304.023 59.7727 304.345 60.3598 304.84C60.497 304.989 60.5814 305.178 60.5998 305.38Z" fill="#8E88C1"/>
<path d="M120.41 355.15C120.961 355.2 121.512 355.059 121.97 354.75C122.075 354.658 122.155 354.541 122.204 354.41C122.253 354.279 122.269 354.138 122.25 354C122.244 353.917 122.218 353.836 122.172 353.766C122.127 353.696 122.064 353.639 121.99 353.6C121.2 353.16 118.63 354.48 118.34 354.6C118.311 354.615 118.288 354.638 118.274 354.667C118.259 354.696 118.254 354.728 118.26 354.76C118.264 354.79 118.278 354.819 118.3 354.84C118.322 354.862 118.35 354.876 118.38 354.88C119.047 355.034 119.726 355.124 120.41 355.15ZM121.56 353.81C121.657 353.805 121.754 353.826 121.84 353.87C121.873 353.881 121.9 353.903 121.918 353.932C121.937 353.961 121.944 353.996 121.94 354.03C121.956 354.119 121.949 354.211 121.919 354.297C121.889 354.383 121.838 354.46 121.77 354.52C121.38 354.87 120.32 354.93 118.89 354.7C119.722 354.251 120.625 353.95 121.56 353.81Z" fill="#8E88C1"/>
<path d="M118.41 354.92H118.47C119.24 354.58 120.76 353.19 120.64 352.45C120.64 352.28 120.49 352.07 120.07 352.02C119.917 352.004 119.763 352.019 119.617 352.066C119.47 352.112 119.335 352.189 119.22 352.29C118.628 352.987 118.277 353.857 118.22 354.77C118.214 354.797 118.217 354.825 118.227 354.85C118.238 354.875 118.257 354.896 118.28 354.91C118.3 354.921 118.321 354.927 118.344 354.929C118.366 354.931 118.389 354.928 118.41 354.92ZM119.94 352.3H120.04C120.32 352.3 120.33 352.44 120.34 352.47C120.41 352.91 119.34 354.01 118.59 354.47C118.651 353.733 118.941 353.034 119.42 352.47C119.568 352.355 119.752 352.295 119.94 352.3Z" fill="#8E88C1"/>
<path d="M110.129 155.53C110.879 159.35 111.629 166.37 108.949 168.92C108.949 168.92 109.949 172.81 117.109 172.81C124.939 172.81 120.849 168.92 120.849 168.92C116.579 167.92 116.689 164.74 117.439 161.76L110.129 155.53Z" fill="#FFB573"/>
<path opacity="0.2" d="M113.109 158.05L117.429 161.74C117.247 162.431 117.127 163.137 117.069 163.85C115.439 163.62 113.189 161.85 113.069 160.12C112.96 159.433 112.973 158.732 113.109 158.05Z" fill="black"/>
<path d="M106 148.89C107.46 155.13 108 157.8 111.68 160.49C117.29 164.54 124.63 161.38 125.07 154.84C125.46 148.95 123 139.74 116.41 138.28C114.958 137.953 113.446 138.002 112.017 138.423C110.589 138.843 109.292 139.622 108.249 140.685C107.207 141.748 106.453 143.059 106.059 144.495C105.665 145.931 105.645 147.444 106 148.89Z" fill="#FFB573"/>
<path d="M108.58 143.27C110.84 145 109.85 151.27 107.05 153.2C102.67 152.15 101.84 138.1 108.58 143.27Z" fill="#263238"/>
<path d="M116.47 137.05C119 137.49 122.21 141.25 122.89 142.78C119.09 142.08 108.62 145.32 108.62 145.32C108.62 145.32 103.94 144.8 106.57 141.19C109.2 137.58 116.47 137.05 116.47 137.05Z" fill="#263238"/>
<path d="M117.001 148.85C117.091 149.37 117.431 149.74 117.771 149.68C118.111 149.62 118.311 149.16 118.221 148.68C118.131 148.2 117.791 147.79 117.451 147.85C117.111 147.91 116.881 148.34 117.001 148.85Z" fill="#263238"/>
<path d="M122.76 147.87C122.85 148.38 123.19 148.75 123.53 148.69C123.87 148.63 124.06 148.17 123.98 147.69C123.9 147.21 123.55 146.81 123.21 146.86C122.87 146.91 122.67 147.35 122.76 147.87Z" fill="#263238"/>
<path d="M123.07 146.89L124.24 146.32C124.24 146.32 123.77 147.39 123.07 146.89Z" fill="#263238"/>
<path d="M120.5 149.1C121.154 150.206 121.959 151.215 122.89 152.1C122.661 152.332 122.383 152.51 122.077 152.622C121.772 152.735 121.445 152.778 121.12 152.75L120.5 149.1Z" fill="#ED893E"/>
<path d="M118.661 155.2C118.919 155.191 119.176 155.167 119.431 155.13C119.47 155.12 119.504 155.097 119.526 155.063C119.548 155.03 119.557 154.99 119.551 154.95C119.544 154.911 119.522 154.876 119.491 154.852C119.459 154.828 119.42 154.817 119.381 154.82C118.746 154.946 118.09 154.922 117.467 154.748C116.843 154.574 116.269 154.256 115.791 153.82C115.778 153.805 115.762 153.793 115.744 153.785C115.725 153.777 115.706 153.773 115.686 153.773C115.666 153.773 115.646 153.777 115.628 153.785C115.61 153.793 115.594 153.805 115.581 153.82C115.553 153.85 115.537 153.889 115.537 153.93C115.537 153.971 115.553 154.01 115.581 154.04C115.993 154.427 116.477 154.728 117.005 154.927C117.534 155.126 118.096 155.219 118.661 155.2Z" fill="#263238"/>
<path d="M105.281 154.96C105.904 156.03 106.925 156.81 108.121 157.13C109.711 157.53 110.471 156.13 110.001 154.62C109.581 153.29 108.241 151.47 106.661 151.72C106.316 151.78 105.992 151.926 105.718 152.144C105.444 152.361 105.229 152.644 105.092 152.966C104.955 153.287 104.9 153.638 104.933 153.987C104.966 154.335 105.086 154.67 105.281 154.96Z" fill="#FFB573"/>
<path d="M113.811 148.05C113.875 148.048 113.937 148.026 113.987 147.986C114.038 147.946 114.074 147.892 114.091 147.83C114.3 147.376 114.601 146.971 114.975 146.639C115.348 146.306 115.786 146.055 116.261 145.9C116.337 145.873 116.4 145.817 116.436 145.744C116.471 145.671 116.477 145.587 116.451 145.51C116.439 145.473 116.419 145.438 116.393 145.408C116.367 145.378 116.336 145.354 116.3 145.336C116.265 145.318 116.227 145.308 116.187 145.305C116.148 145.302 116.108 145.307 116.071 145.32C115.502 145.502 114.979 145.805 114.538 146.207C114.096 146.609 113.746 147.101 113.511 147.65C113.486 147.728 113.493 147.813 113.53 147.886C113.568 147.96 113.633 148.015 113.711 148.04L113.811 148.05Z" fill="#263238"/>
<path d="M123.419 144.89C123.485 144.886 123.547 144.862 123.598 144.82C123.648 144.779 123.684 144.723 123.701 144.659C123.718 144.596 123.714 144.529 123.69 144.468C123.667 144.407 123.624 144.355 123.569 144.32C123.154 144.071 122.686 143.923 122.202 143.89C121.719 143.857 121.235 143.939 120.789 144.13C120.752 144.148 120.719 144.173 120.692 144.204C120.665 144.235 120.644 144.271 120.631 144.311C120.618 144.35 120.613 144.391 120.616 144.432C120.619 144.473 120.631 144.513 120.649 144.55C120.689 144.619 120.753 144.67 120.829 144.694C120.905 144.718 120.987 144.713 121.059 144.68C121.413 144.532 121.797 144.47 122.18 144.5C122.562 144.529 122.932 144.649 123.259 144.85C123.308 144.877 123.363 144.891 123.419 144.89Z" fill="#263238"/>
<path d="M117.27 147.88L118.44 147.31C118.44 147.31 118 148.38 117.27 147.88Z" fill="#263238"/>
<path d="M102.08 207.98L101.41 210.33C101.32 210.51 101.53 210.69 101.83 210.69H128.83C129.07 210.69 129.27 210.58 129.28 210.43L129.52 208.08C129.52 207.92 129.33 207.78 129.07 207.78H102.5C102.418 207.774 102.337 207.789 102.263 207.824C102.19 207.859 102.126 207.913 102.08 207.98Z" fill="#FAFAFA"/>
<path d="M105.64 210.95H104.93C104.79 210.95 104.68 210.87 104.69 210.79L105.02 207.74C105.02 207.65 105.16 207.58 105.3 207.58H106C106.14 207.58 106.25 207.65 106.24 207.74L105.91 210.79C105.91 210.87 105.78 210.95 105.64 210.95Z" fill="#8E88C1"/>
<g opacity="0.3">
<path opacity="0.3" d="M105.64 210.95H104.93C104.79 210.95 104.68 210.87 104.69 210.79L105.02 207.74C105.02 207.65 105.16 207.58 105.3 207.58H106C106.14 207.58 106.25 207.65 106.24 207.74L105.91 210.79C105.91 210.87 105.78 210.95 105.64 210.95Z" fill="black"/>
</g>
<path d="M126.81 210.95H126.1C125.95 210.95 125.85 210.87 125.86 210.79L126.19 207.74C126.19 207.65 126.32 207.58 126.47 207.58H127.18C127.32 207.58 127.42 207.65 127.42 207.74L127.08 210.79C127.07 210.87 127 210.95 126.81 210.95Z" fill="#8E88C1"/>
<path opacity="0.3" d="M126.81 210.95H126.1C125.95 210.95 125.85 210.87 125.86 210.79L126.19 207.74C126.19 207.65 126.32 207.58 126.47 207.58H127.18C127.32 207.58 127.42 207.65 127.42 207.74L127.08 210.79C127.07 210.87 127 210.95 126.81 210.95Z" fill="black"/>
<path d="M116.22 210.95H115.51C115.37 210.95 115.26 210.87 115.27 210.79L115.61 207.74C115.61 207.65 115.74 207.58 115.88 207.58H116.59C116.73 207.58 116.84 207.65 116.83 207.74L116.5 210.79C116.49 210.87 116.37 210.95 116.22 210.95Z" fill="#8E88C1"/>
<path opacity="0.3" d="M116.22 210.95H115.51C115.37 210.95 115.26 210.87 115.27 210.79L115.61 207.74C115.61 207.65 115.74 207.58 115.88 207.58H116.59C116.73 207.58 116.84 207.65 116.83 207.74L116.5 210.79C116.49 210.87 116.37 210.95 116.22 210.95Z" fill="black"/>
<path d="M149.73 155.751L144.747 160.667C144.031 161.373 144.023 162.525 144.729 163.24L146.752 165.291C147.458 166.006 148.61 166.014 149.326 165.308L154.309 160.392C155.025 159.686 155.032 158.534 154.327 157.818L152.304 155.768C151.598 155.053 150.446 155.045 149.73 155.751Z" fill="#8E88C1"/>
<path opacity="0.4" d="M147.609 161.48L145.939 163.13C145.926 163.145 145.91 163.157 145.892 163.165C145.874 163.173 145.854 163.177 145.834 163.177C145.815 163.177 145.795 163.173 145.777 163.165C145.759 163.157 145.742 163.145 145.729 163.13C145.701 163.1 145.686 163.061 145.686 163.02C145.686 162.979 145.701 162.94 145.729 162.91L147.399 161.27C147.412 161.255 147.429 161.243 147.447 161.235C147.465 161.227 147.485 161.223 147.504 161.223C147.524 161.223 147.544 161.227 147.562 161.235C147.58 161.243 147.596 161.255 147.609 161.27C147.624 161.283 147.636 161.299 147.644 161.317C147.653 161.336 147.657 161.355 147.657 161.375C147.657 161.395 147.653 161.414 147.644 161.433C147.636 161.451 147.624 161.467 147.609 161.48Z" fill="white"/>
<path opacity="0.4" d="M151.211 155.69L149.541 157.33C149.513 157.357 149.475 157.373 149.436 157.373C149.396 157.373 149.359 157.357 149.331 157.33C149.316 157.317 149.304 157.301 149.296 157.283C149.287 157.265 149.283 157.245 149.283 157.225C149.283 157.205 149.287 157.186 149.296 157.167C149.304 157.149 149.316 157.133 149.331 157.12L151.001 155.47C151.014 155.455 151.03 155.443 151.048 155.435C151.066 155.427 151.086 155.423 151.106 155.423C151.125 155.423 151.145 155.427 151.163 155.435C151.181 155.443 151.197 155.455 151.211 155.47C151.239 155.5 151.254 155.539 151.254 155.58C151.254 155.621 151.239 155.66 151.211 155.69Z" fill="white"/>
<path opacity="0.4" d="M149.85 163.76L148.18 165.4C148.152 165.427 148.114 165.443 148.075 165.443C148.035 165.443 147.998 165.427 147.97 165.4C147.941 165.37 147.926 165.331 147.926 165.29C147.926 165.249 147.941 165.21 147.97 165.18L149.64 163.54C149.668 163.513 149.705 163.497 149.745 163.497C149.784 163.497 149.822 163.513 149.85 163.54C149.878 163.57 149.893 163.609 149.893 163.65C149.893 163.691 149.878 163.73 149.85 163.76Z" fill="white"/>
<path opacity="0.4" d="M146.91 163.23L146.47 163.66C146.44 163.688 146.401 163.704 146.36 163.704C146.319 163.704 146.28 163.688 146.25 163.66C146.222 163.632 146.207 163.594 146.207 163.555C146.207 163.516 146.222 163.478 146.25 163.45L146.68 163.01C146.711 162.984 146.75 162.97 146.79 162.97C146.83 162.97 146.869 162.984 146.9 163.01C146.929 163.038 146.947 163.077 146.949 163.118C146.951 163.159 146.937 163.199 146.91 163.23Z" fill="white"/>
<path opacity="0.2" d="M154.2 159.86L153.68 160.38C153.506 160.55 153.273 160.645 153.03 160.645C152.787 160.645 152.554 160.55 152.38 160.38C152.208 160.208 152.111 159.974 152.111 159.73C152.111 159.486 152.208 159.252 152.38 159.08L152.9 158.56C153.074 158.39 153.307 158.295 153.55 158.295C153.793 158.295 154.027 158.39 154.2 158.56C154.372 158.732 154.469 158.966 154.469 159.21C154.469 159.454 154.372 159.688 154.2 159.86Z" fill="black"/>
<path d="M100.75 172.05C102.3 172.66 104.01 173.32 105.67 173.89C107.33 174.46 109.02 175.06 110.67 175.58C113.936 176.647 117.279 177.463 120.67 178.02L121.29 178.11H121.45C121.52 178.11 121.45 178.11 121.45 178.11C121.642 178.111 121.834 178.087 122.02 178.04C122.708 177.867 123.377 177.63 124.02 177.33C125.562 176.618 127.061 175.816 128.51 174.93C131.51 173.12 134.59 171.09 137.57 169.08L140.17 171.98C137.661 174.817 134.929 177.449 132 179.85C130.464 181.107 128.836 182.247 127.13 183.26C126.16 183.843 125.135 184.329 124.07 184.71C123.381 184.949 122.666 185.107 121.94 185.18C121.71 185.18 121.5 185.18 121.25 185.18H120.73H119.98C118.98 185.13 117.98 185 116.98 184.89C115.98 184.78 114.98 184.61 114.08 184.41C112.16 184.07 110.29 183.6 108.44 183.1C106.59 182.6 104.77 182.02 102.97 181.4C101.17 180.78 99.4298 180.12 97.5898 179.31L100.75 172.05Z" fill="#FFB573"/>
<path d="M137.42 169.41L141.36 163.65L143.11 169.97C143.11 169.97 140.11 172.87 137.59 172.06L137.42 169.41Z" fill="#FFB573"/>
<path d="M146.529 162.01L147.709 167.38L143.109 169.97L141.359 163.65L146.529 162.01Z" fill="#FFB573"/>
<path d="M92.3901 180.39C94.3001 182.39 102.59 183.59 102.59 183.59L107.83 172.22C107.83 172.22 100.2 168.98 97.0701 170.7C93.9401 172.42 90.2201 178.14 92.3901 180.39Z" fill="#8E88C1"/>
<g opacity="0.5">
<path opacity="0.5" d="M92.3901 180.39C94.3001 182.39 102.59 183.59 102.59 183.59L107.83 172.22C107.83 172.22 100.2 168.98 97.0701 170.7C93.9401 172.42 90.2201 178.14 92.3901 180.39Z" fill="white"/>
</g>
<path d="M199.14 237.75L196.21 238.02C192.21 250.92 186.75 251.02 185.12 250.74C182.12 250.21 180.38 246.94 181.25 243.46C182.45 238.66 187.89 236.7 191.3 235.86C189.19 232.67 188.4 227.36 189.67 223.86C190.027 222.608 190.798 221.513 191.856 220.754C192.915 219.995 194.199 219.616 195.5 219.68C196.271 219.629 197.042 219.788 197.731 220.14C198.419 220.492 198.999 221.025 199.41 221.68C201.78 225.56 198.03 233.92 196.82 236.42L199.14 237.75ZM194.45 234.86C196.2 231.08 197.97 225.39 196.7 223.32C196.5 222.99 196.29 222.65 195.26 222.62C194.647 222.568 194.036 222.744 193.544 223.112C193.052 223.481 192.712 224.017 192.59 224.62C191.47 227.73 192.62 232.82 194.45 234.86ZM184.45 243.5C184.4 243.65 184.36 243.8 184.32 243.95C183.82 245.95 184.77 247.64 185.95 247.85C187.13 248.06 190.32 246.32 192.95 238.39C190.54 238.83 185.63 240.12 184.4 243.5H184.45Z" fill="#263238"/>
<path d="M303.87 244.85L283.89 300.13L185 264.4L204.91 209.29L303.87 244.85Z" fill="#8E88C1"/>
<path opacity="0.6" d="M303.87 244.85L283.89 300.13L185 264.4L204.91 209.29L303.87 244.85Z" fill="white"/>
<path d="M199.87 223.24L198.24 227.73L297.2 263.29L298.82 258.8L199.87 223.24Z" fill="#263238"/>
<path d="M287.89 289.07L286.69 292.37L187.74 256.81L188.93 253.51L287.89 289.07Z" fill="#263238"/>
<path opacity="0.2" d="M291.83 278.17L283.89 300.13L185 264.4L192.87 242.61L291.83 278.17Z" fill="black"/>
<path d="M224.699 252.05L223.699 249.8C212.329 250.33 210.699 246.03 210.439 244.66C209.999 242.12 212.089 239.81 215.109 239.5C219.249 239.08 222.369 242.83 224.009 245.3C225.101 243.931 226.464 242.804 228.013 241.988C229.562 241.172 231.263 240.686 233.009 240.56C234.107 240.48 235.199 240.774 236.107 241.396C237.016 242.017 237.686 242.928 238.009 243.98C238.269 244.582 238.36 245.244 238.272 245.894C238.184 246.545 237.92 247.158 237.509 247.67C235.119 250.67 227.409 250.08 225.089 249.84L224.699 252.05ZM225.699 247.5C229.189 247.81 234.219 247.58 235.489 245.98C235.699 245.72 235.909 245.46 235.629 244.64C235.497 244.138 235.184 243.703 234.75 243.419C234.316 243.135 233.792 243.021 233.279 243.1C231.76 243.229 230.287 243.694 228.97 244.462C227.652 245.23 226.521 246.281 225.659 247.54L225.699 247.5ZM215.919 242.05H215.529C213.819 242.23 212.729 243.47 212.909 244.46C213.089 245.45 215.369 247.46 222.409 247.32C221.389 245.58 218.999 242.05 215.919 242.05Z" fill="#263238"/>
<path d="M249.08 282.55H199.52V248.51H248.92L249.08 282.55Z" fill="#8E88C1"/>
<path opacity="0.4" d="M249.08 282.55H199.52V248.51H248.92L249.08 282.55Z" fill="white"/>
<path d="M236.421 248.51H232.391L232.551 282.55H236.581L236.421 248.51Z" fill="#263238"/>
<path d="M209.44 282.55H206.48L206.32 248.51H209.28L209.44 282.55Z" fill="#263238"/>
<path opacity="0.2" d="M219.22 282.55H199.52V248.51H219.06L219.22 282.55Z" fill="black"/>
<path d="M236.81 288.27C233.69 289.03 223.25 291.27 218.64 287.65C217.885 287.086 217.282 286.342 216.886 285.487C216.489 284.632 216.312 283.691 216.37 282.75C216.46 279.5 218.48 277.62 221.81 277.17C226.16 276.58 232.61 278.75 236.4 281.9C237.61 278.25 240.32 272.6 246.25 272.4C250.56 272.25 254.45 274.99 254.94 278.51C255.2 280.41 254.75 286.51 238.75 287.95L238.26 291.19L236.81 288.27ZM222.59 280.61C220.86 280.84 220.03 281.52 219.99 283.17C219.934 283.512 219.976 283.863 220.112 284.182C220.249 284.501 220.474 284.775 220.76 284.97C223.22 286.89 230.27 286.24 234.99 285.17C232.6 282.62 226.44 280.05 222.59 280.61ZM239.41 284.33C249.25 283.25 251.58 280.24 251.41 278.69C251.22 277.31 249.18 275.83 246.73 275.92C246.547 275.91 246.363 275.91 246.18 275.92C241.93 276.53 240.07 281.76 239.41 284.33Z" fill="#263238"/>
<path d="M267.884 280.163L205.449 288.582L208.527 311.406L270.962 302.986L267.884 280.163Z" fill="#8E88C1"/>
<path opacity="0.4" d="M267.884 280.163L205.449 288.582L208.527 311.406L270.962 302.986L267.884 280.163Z" fill="white"/>
<path opacity="0.2" d="M267.888 280.178L243.082 283.523L246.16 306.347L270.965 303.002L267.888 280.178Z" fill="white"/>
<path d="M226.273 285.783L221.199 286.467L224.277 309.291L229.351 308.606L226.273 285.783Z" fill="#263238"/>
<path d="M259.115 281.355L255.389 281.857L258.466 304.681L262.193 304.178L259.115 281.355Z" fill="#263238"/>
<path d="M183.929 245.29L182.499 246.53C178.149 235.88 172.639 227.53 164.119 225.14L165.549 223.91C173.669 226.05 179.339 234.32 183.929 245.29Z" fill="#263238"/>
<path opacity="0.5" d="M183.929 245.29L182.499 246.53C178.149 235.88 172.639 227.53 164.119 225.14L165.549 223.91C173.669 226.05 179.339 234.32 183.929 245.29Z" fill="white"/>
<path d="M178.36 245.39L176.36 246.81C172.24 238.49 172.74 234.22 162.48 227.81L164.43 226.39C174.69 233.28 174.69 237.54 178.36 245.39Z" fill="#263238"/>
<path opacity="0.5" d="M178.36 245.39L176.36 246.81C172.24 238.49 172.74 234.22 162.48 227.81L164.43 226.39C174.69 233.28 174.69 237.54 178.36 245.39Z" fill="white"/>
<path d="M303.33 245.35H176.48C176.069 245.35 175.665 245.452 175.304 245.649C174.944 245.846 174.638 246.13 174.416 246.475C174.194 246.821 174.063 247.217 174.033 247.626C174.004 248.036 174.079 248.447 174.25 248.82L203.68 313.44C203.904 313.923 204.278 314.321 204.747 314.575C205.215 314.829 205.752 314.925 206.28 314.85L299 301.05C299.542 300.968 300.041 300.706 300.418 300.308C300.795 299.909 301.028 299.396 301.08 298.85L305.77 248.05C305.805 247.709 305.768 247.364 305.661 247.038C305.554 246.712 305.38 246.412 305.15 246.157C304.92 245.903 304.639 245.699 304.326 245.56C304.012 245.421 303.673 245.35 303.33 245.35ZM302.99 249.35L298.53 298.05C298.481 298.575 298.258 299.069 297.895 299.451C297.532 299.834 297.052 300.084 296.53 300.16L207.7 313.38C207.195 313.455 206.679 313.363 206.23 313.12C205.781 312.877 205.423 312.494 205.21 312.03L177 250.14C176.836 249.782 176.764 249.389 176.791 248.997C176.819 248.604 176.944 248.225 177.156 247.894C177.368 247.562 177.66 247.289 178.005 247.1C178.349 246.911 178.736 246.811 179.13 246.81H300.63C300.959 246.806 301.286 246.871 301.589 247.001C301.892 247.132 302.164 247.324 302.388 247.567C302.611 247.809 302.781 248.096 302.887 248.408C302.992 248.721 303.031 249.052 303 249.38L302.99 249.35Z" fill="#263238"/>
<path d="M213.58 313.4H211.73L181.59 245.34H183.43L213.58 313.4Z" fill="#263238"/>
<path d="M221.881 312.1H220.041L191.211 245.34H193.061L221.881 312.1Z" fill="#263238"/>
<path d="M229.57 310.79H227.73L202.83 245.34H204.68L229.57 310.79Z" fill="#263238"/>
<path d="M237.8 309.4H235.96L213.58 245.34H215.42L237.8 309.4Z" fill="#263238"/>
<path d="M245.261 308.4H243.421L224.811 245.34H226.651L245.261 308.4Z" fill="#263238"/>
<path d="M253.68 307.18H251.84L235.34 245.34H237.19L253.68 307.18Z" fill="#263238"/>
<path d="M261.619 305.71H259.779L246.189 245.34H248.029L261.619 305.71Z" fill="#263238"/>
<path d="M269.95 304.79H268.1L257.18 245.34H259.03L269.95 304.79Z" fill="#263238"/>
<path d="M277.87 303.79H276.02L268.49 245.34H270.33L277.87 303.79Z" fill="#263238"/>
<path d="M285.79 302.33H283.94L279.52 245.34H281.37L285.79 302.33Z" fill="#263238"/>
<path d="M293.939 301.56H292.099L290.939 245.34H292.789L293.939 301.56Z" fill="#263238"/>
<path d="M302.999 264.72V266.57L185.199 271.88V270.03L302.999 264.72Z" fill="#263238"/>
<path d="M301.52 284.05V285.9L196.51 297.37V295.52L301.52 284.05Z" fill="#263238"/>
<path d="M213.58 354.65C213.584 355.962 213.198 357.245 212.471 358.337C211.744 359.43 210.709 360.281 209.498 360.784C208.286 361.287 206.952 361.419 205.666 361.162C204.379 360.906 203.198 360.273 202.272 359.344C201.345 358.415 200.716 357.232 200.464 355.944C200.211 354.657 200.347 353.323 200.853 352.113C201.36 350.903 202.215 349.871 203.309 349.148C204.403 348.424 205.688 348.042 207 348.05C208.746 348.058 210.418 348.756 211.651 349.993C212.884 351.23 213.577 352.904 213.58 354.65Z" fill="#8E88C1"/>
<path d="M212.001 354.61C211.709 355.544 211.127 356.361 210.34 356.942C209.552 357.523 208.599 357.838 207.621 357.84C206.686 357.869 205.774 357.557 205.052 356.963C204.331 356.369 203.851 355.532 203.701 354.61L201.641 342.05H218.461L216.461 349.05C216.32 349.537 216.074 349.988 215.741 350.37L212.001 354.61Z" fill="#263238"/>
<path opacity="0.3" d="M212.001 354.61C211.709 355.544 211.127 356.361 210.34 356.942C209.552 357.523 208.599 357.838 207.621 357.84C206.686 357.869 205.774 357.557 205.052 356.963C204.331 356.369 203.851 355.532 203.701 354.61L201.641 342.05H218.461L216.461 349.05C216.32 349.537 216.074 349.988 215.741 350.37L212.001 354.61Z" fill="white"/>
<path d="M276.891 354.65C276.887 355.961 277.272 357.243 277.997 358.334C278.723 359.426 279.756 360.277 280.966 360.781C282.176 361.285 283.508 361.418 284.794 361.164C286.079 360.911 287.261 360.281 288.188 359.355C289.116 358.429 289.747 357.248 290.003 355.963C290.259 354.677 290.128 353.345 289.626 352.134C289.124 350.924 288.274 349.889 287.183 349.162C286.093 348.435 284.811 348.048 283.501 348.05C281.749 348.05 280.07 348.745 278.83 349.982C277.591 351.22 276.893 352.899 276.891 354.65Z" fill="#8E88C1"/>
<path d="M278.46 354.61C278.755 355.544 279.339 356.361 280.128 356.941C280.917 357.522 281.87 357.837 282.85 357.84C283.784 357.869 284.697 357.557 285.418 356.963C286.139 356.369 286.62 355.532 286.77 354.61L288.83 342.05H272L274.05 349.05C274.187 349.539 274.433 349.99 274.77 350.37L278.46 354.61Z" fill="#263238"/>
<path opacity="0.3" d="M278.46 354.61C278.755 355.544 279.339 356.361 280.128 356.941C280.917 357.522 281.87 357.837 282.85 357.84C283.784 357.869 284.697 357.557 285.418 356.963C286.139 356.369 286.62 355.532 286.77 354.61L288.83 342.05H272L274.05 349.05C274.187 349.539 274.433 349.99 274.77 350.37L278.46 354.61Z" fill="white"/>
<path opacity="0.6" d="M303.33 245.35H176.48C176.069 245.35 175.665 245.452 175.304 245.649C174.944 245.846 174.638 246.13 174.416 246.475C174.194 246.821 174.063 247.217 174.033 247.626C174.004 248.036 174.079 248.447 174.25 248.82L203.68 313.44C203.904 313.923 204.278 314.321 204.747 314.575C205.215 314.829 205.752 314.925 206.28 314.85L299 301.05C299.542 300.968 300.041 300.706 300.418 300.308C300.795 299.909 301.028 299.396 301.08 298.85L305.77 248.05C305.805 247.709 305.768 247.364 305.661 247.038C305.554 246.712 305.38 246.412 305.15 246.157C304.92 245.903 304.639 245.699 304.326 245.56C304.012 245.421 303.673 245.35 303.33 245.35ZM300.65 246.81C300.977 246.81 301.301 246.878 301.6 247.01C301.899 247.143 302.167 247.336 302.388 247.578C302.608 247.82 302.775 248.105 302.879 248.415C302.983 248.726 303.02 249.054 302.99 249.38L301.58 264.79L293.19 265.17L292.82 246.81H300.65ZM186.89 271.81L193.18 271.53L203.48 294.78L197.64 295.41L186.89 271.81ZM194.99 271.45L202.34 271.12L212.14 293.83L205.24 294.58L194.99 271.45ZM273.87 287.05L266.87 287.81L263.3 268.33L271.45 267.97L273.87 287.05ZM273.24 267.88L281.24 267.52L282.68 286.08L275.68 286.85L273.24 267.88ZM265 288.05L257.79 288.84L253.28 268.84L261.4 268.48L265 288.05ZM256 289.05L249 289.81L243.52 269.27L251.45 268.91L256 289.05ZM247.23 290L240.04 290.79L233.82 269.71L241.72 269.35L247.23 290ZM238.23 291L231.57 291.73L224.04 270.17L231.97 269.81L238.23 291ZM229.8 291.93L222.64 292.71L214.23 270.61L222.23 270.25L229.8 291.93ZM220.87 292.93L213.87 293.7L204.15 271.05L212.46 270.67L220.87 292.93ZM212.87 295.65L219.77 311.65L213.16 312.65L206 296.33L212.87 295.65ZM214.63 295.46L221.54 294.7L227.54 310.48L221.54 311.38L214.63 295.46ZM223.31 294.51L230.42 293.73L235.84 309.24L229.29 310.24L223.31 294.51ZM232.2 293.51L238.76 292.79L243.32 308.05L237.63 308.9L232.2 293.51ZM240.54 292.6L247.69 291.82L251.69 306.82L245.03 307.82L240.54 292.6ZM249.48 291.6L256.39 290.85L259.71 305.63L253.47 306.56L249.48 291.6ZM258.19 290.65L265.32 289.87L268 304.38L261.51 305.38L258.19 290.65ZM267.13 289.65L274.06 288.9L276 303.19L269.87 304.11L267.13 289.65ZM275.88 288.65L282.79 287.89L283.92 302.05L277.76 302.97L275.88 288.65ZM284.62 287.65L291.76 286.87L292.04 300.7L285.7 301.64L284.62 287.65ZM284.48 285.82L283.04 267.38L291.35 267.01L291.72 285.01L284.48 285.82ZM293.19 266.92L301.37 266.55L299.76 284.15L293.56 284.83L293.19 266.92ZM291 246.81L291.38 265.25L282.97 265.63L281.51 246.81H291ZM279.67 246.81L281.13 265.71L273 266.05L270.51 246.78L279.67 246.81ZM268.67 246.81L271.16 266.16L262.91 266.53L259.29 246.81H268.67ZM257.44 246.81L261.08 266.62L252.89 266.98L248.35 246.81H257.44ZM246.51 246.81L251.08 267.05L243.08 267.41L237.58 246.79L246.51 246.81ZM235.72 246.81L241.24 267.51L233.29 267.87L227.08 246.81H235.72ZM225.23 246.81L231.47 267.95L223.47 268.31L215.96 246.81H225.23ZM214.08 246.81L221.62 268.39L213.62 268.75L205.28 246.81H214.08ZM203.38 246.81L211.76 268.81L203.36 269.19L193.68 246.78L203.38 246.81ZM191.84 246.81L201.54 269.3L194.18 269.63L184.07 246.81H191.84ZM179.14 246.81H182.23L192.37 269.71L186.05 269.99L177.05 250.14C176.887 249.785 176.815 249.394 176.841 249.004C176.867 248.614 176.989 248.237 177.198 247.906C177.406 247.576 177.694 247.302 178.035 247.111C178.376 246.919 178.759 246.816 179.15 246.81H179.14ZM205.21 312.05L198.44 297.18L204.26 296.55L211.47 312.84L207.7 313.4C207.195 313.475 206.679 313.383 206.23 313.14C205.781 312.897 205.423 312.514 205.21 312.05ZM298.53 298.05C298.481 298.575 298.258 299.069 297.895 299.451C297.532 299.834 297.052 300.084 296.53 300.16L293.91 300.55L293.63 286.8L299.63 286.15L298.53 298.05Z" fill="white"/>
<path d="M156.66 224.92L164.22 229.29L167.55 223.53L160 219.16C159.622 218.941 159.205 218.8 158.772 218.743C158.339 218.686 157.899 218.715 157.477 218.828C157.056 218.941 156.66 219.137 156.314 219.403C155.968 219.669 155.678 220.001 155.46 220.38C155.241 220.757 155.098 221.173 155.04 221.605C154.981 222.038 155.009 222.477 155.12 222.899C155.231 223.32 155.425 223.716 155.689 224.063C155.953 224.409 156.284 224.701 156.66 224.92Z" fill="#8E88C1"/>
<path d="M196.5 339.35V342.93H294.94V339.35H196.5Z" fill="#263238"/>
<path d="M213.282 313.877L213.83 317.415L231.41 314.69L230.862 311.152L213.282 313.877Z" fill="#263238"/>
<path d="M194.131 337.43C193.431 338.32 194.511 339.67 196.511 339.36V342.94C189.801 343.17 188.511 338.44 191.511 335.05L194.131 337.43Z" fill="#263238"/>
<path d="M210.51 319.05C211.379 318.115 212.552 317.52 213.82 317.37L213.28 313.83C211.211 314.166 209.306 315.163 207.85 316.67L210.51 319.05Z" fill="#263238"/>
<path d="M196.5 339.35V342.93H294.94V339.35H196.5Z" fill="#263238"/>
<path d="M213.282 313.877L213.83 317.415L231.41 314.69L230.862 311.152L213.282 313.877Z" fill="#263238"/>
<path d="M194.131 337.43C193.431 338.32 194.511 339.67 196.511 339.36V342.94C189.801 343.17 188.511 338.44 191.511 335.05L194.131 337.43Z" fill="#263238"/>
<path d="M210.51 319.05C211.379 318.115 212.552 317.52 213.82 317.37L213.28 313.83C211.211 314.166 209.306 315.163 207.85 316.67L210.51 319.05Z" fill="#263238"/>
<path d="M191.437 335.043L194.107 337.428L210.488 319.088L207.818 316.704L191.437 335.043Z" fill="#263238"/>
<path d="M191.437 335.043L194.107 337.428L210.488 319.088L207.818 316.704L191.437 335.043Z" fill="#263238"/>
<path opacity="0.4" d="M196.51 339.36C194.51 339.67 193.43 338.36 194.13 337.43L210.51 319.05C211.38 318.115 212.553 317.52 213.82 317.37L231.41 314.64L230.86 311.11L213.28 313.83C211.212 314.166 209.307 315.163 207.85 316.67L191.47 335.05C188.47 338.44 189.8 343.17 196.47 342.94H294.9V339.36H196.51Z" fill="white"/>
</g>
<defs>
<clipPath id="clip0_179_2250">
<rect width="500" height="372.61" fill="white"/>
</clipPath>
</defs>
</svg>
