<svg width="334" height="300" viewBox="0 0 334 300" fill="none" xmlns="http://www.w3.org/2000/svg">
<g clip-path="url(#clip0_178_2080)">
<path d="M166.87 299.93C259.03 299.93 333.74 296.541 333.74 292.36C333.74 288.179 259.03 284.79 166.87 284.79C74.7102 284.79 0 288.179 0 292.36C0 296.541 74.7102 299.93 166.87 299.93Z" fill="#8E88C1"/>
<path d="M68.3196 170.54C78.5996 160.62 99.5796 179.41 111.77 192.23C117.38 198.11 121.13 202.74 121.13 202.74C123.003 204.54 124.616 206.173 125.97 207.64C126.71 208.45 127.36 209.19 127.97 209.89L110.75 216.68C105.38 213.48 99.5896 209.94 95.8096 207.43C79.7196 196.75 58.6096 179.92 68.3196 170.54Z" fill="#B0ABE2"/>
<path d="M84.7209 183.36C84.7866 183.273 84.8689 183.2 84.9631 183.146C85.0573 183.091 85.1614 183.056 85.2694 183.042C85.3774 183.028 85.4871 183.036 85.5921 183.064C85.697 183.093 85.7952 183.143 85.8809 183.21C87.0009 184.09 109.261 201.51 121.351 212.5L119.641 213.18C107.311 202.08 85.1409 184.73 84.8709 184.51C84.7855 184.444 84.7139 184.362 84.6602 184.269C84.6064 184.176 84.5716 184.073 84.5577 183.966C84.5437 183.859 84.551 183.751 84.579 183.647C84.607 183.543 84.6552 183.445 84.7209 183.36Z" fill="#C1C1C1"/>
<path d="M115.559 182.07C116.519 184.483 117.313 186.637 117.939 188.53C118.419 190 118.799 191.3 119.079 192.46L105.479 197.84C101.149 191.7 94.2194 181.75 90.5594 175.84C80.3394 159.45 68.0894 135.38 80.8094 130.84C94.2794 126.06 105.599 151.84 111.399 168.56C114.059 176.31 115.559 182.07 115.559 182.07Z" fill="#8E88C1"/>
<path d="M111.731 195.37C106.121 181.25 90.2606 150.81 90.0906 150.47C89.9917 150.276 89.9729 150.051 90.0384 149.843C90.1039 149.636 90.2483 149.462 90.4406 149.36C90.5364 149.31 90.6412 149.279 90.7489 149.269C90.8567 149.26 90.9653 149.271 91.0684 149.304C91.1716 149.336 91.2673 149.389 91.3501 149.459C91.4328 149.528 91.501 149.614 91.5506 149.71C92.2706 151.08 107.661 180.64 113.271 194.76L111.731 195.37Z" fill="#B0ABE2"/>
<path d="M250.359 138.51C250.359 138.51 311.079 119.13 303.599 96.32C295.349 71.15 261.369 109.17 250.359 138.51Z" fill="#B0ABE2"/>
<path d="M244.311 144.42C258.001 128.7 280.311 110.12 280.631 109.89C280.681 109.847 280.739 109.814 280.802 109.794C280.866 109.773 280.932 109.766 280.998 109.771C281.064 109.777 281.129 109.796 281.187 109.826C281.246 109.857 281.298 109.899 281.341 109.95C281.426 110.054 281.467 110.188 281.456 110.322C281.445 110.456 281.382 110.581 281.281 110.67C281.001 110.9 258.491 129.61 244.901 145.27L244.311 144.42Z" fill="#C1C1C1"/>
<path d="M256.061 120.59C256.061 120.59 254.291 46.18 284.231 53.18C307.111 58.52 286.491 100.49 256.061 120.59Z" fill="#8E88C1"/>
<path d="M243.801 147.38C255.391 121.44 274.581 79.38 274.801 78.88C274.828 78.8191 274.867 78.7642 274.915 78.7185C274.964 78.6728 275.021 78.6373 275.083 78.614C275.146 78.5907 275.212 78.5801 275.279 78.5829C275.345 78.5856 275.411 78.6016 275.471 78.63C275.592 78.6866 275.686 78.7885 275.733 78.9138C275.78 79.0392 275.775 79.1779 275.721 79.3C275.491 79.8 256.021 122.47 244.461 148.35L243.801 147.38Z" fill="#B0ABE2"/>
<path d="M238.79 257.98C250.443 241.639 260.786 224.402 269.72 206.43C278.25 188.68 281.4 174.6 279.08 164.58C279.056 164.411 278.996 164.248 278.906 164.103C278.816 163.957 278.696 163.832 278.555 163.735C278.414 163.638 278.254 163.572 278.086 163.54C277.917 163.508 277.744 163.511 277.577 163.549C277.41 163.587 277.253 163.659 277.115 163.761C276.978 163.863 276.863 163.992 276.778 164.141C276.692 164.289 276.639 164.454 276.62 164.624C276.602 164.794 276.619 164.967 276.67 165.13C280.73 182.66 266.61 215.75 235.73 257.94L238.79 257.98Z" fill="#B0ABE2"/>
<path d="M276.01 189.97C276.01 189.97 284.79 195.4 293.73 179.58C293.73 179.58 277.95 175.09 276.01 189.97Z" fill="#8E88C1"/>
<path d="M271.82 198.37C271.82 198.37 277.73 189.9 262.43 180.1C262.43 180.1 257.07 195.68 271.82 198.37Z" fill="#8E88C1"/>
<path d="M278.521 172.57C278.521 172.57 286.911 166.57 275.761 152.21C275.761 152.21 265.531 165.06 278.521 172.57Z" fill="#8E88C1"/>
<path d="M263.949 215.51C263.949 215.51 270.389 223.59 284.149 211.73C284.119 211.73 270.759 202.16 263.949 215.51Z" fill="#8E88C1"/>
<path d="M258.369 223.42C258.369 223.42 265.649 216.1 252.279 203.8C252.279 203.8 244.309 218.17 258.369 223.42Z" fill="#8E88C1"/>
<path d="M251.83 235C251.83 235 258.11 243.2 272.09 231.6C272.09 231.6 258.95 221.77 251.83 235Z" fill="#8E88C1"/>
<path d="M246.781 243.94C246.781 243.94 236.591 242.3 240.161 224.49C240.161 224.49 255.061 231.42 246.781 243.94Z" fill="#8E88C1"/>
<path d="M259.18 23.33V279.99C259.18 283.854 257.645 287.56 254.913 290.293C252.181 293.025 248.475 294.56 244.61 294.56H116.8C114.887 294.561 112.992 294.185 111.223 293.454C109.455 292.722 107.848 291.649 106.495 290.296C105.142 288.942 104.069 287.336 103.337 285.567C102.605 283.799 102.229 281.904 102.23 279.99V23.33C102.23 21.4171 102.607 19.523 103.34 17.7558C104.072 15.9887 105.145 14.3832 106.499 13.031C107.852 11.6789 109.458 10.6066 111.226 9.87548C112.993 9.14436 114.888 8.76871 116.8 8.77002H244.61C246.523 8.76871 248.418 9.14436 250.185 9.87548C251.953 10.6066 253.559 11.6789 254.912 13.031C256.265 14.3832 257.339 15.9887 258.071 17.7558C258.804 19.523 259.18 21.4171 259.18 23.33Z" fill="#221B22"/>
<path d="M101.83 54.94H102.23V88.84H101.83C101.183 88.84 100.542 88.7125 99.9438 88.4647C99.3456 88.217 98.8021 87.8538 98.3444 87.396C97.8866 86.9382 97.5234 86.3948 97.2757 85.7966C97.0279 85.1985 96.9004 84.5574 96.9004 83.91V59.86C96.903 58.5542 97.4236 57.3028 98.3479 56.3804C99.2722 55.458 100.525 54.94 101.83 54.94Z" fill="#564C54"/>
<path d="M259.5 79.97H259.17V52.36H259.5C260.561 52.36 261.578 52.7815 262.328 53.5316C263.078 54.2817 263.5 55.2992 263.5 56.36V75.94C263.504 76.4678 263.403 76.9912 263.204 77.48C263.005 77.9687 262.711 78.4133 262.339 78.7879C261.967 79.1625 261.525 79.4598 261.038 79.6627C260.55 79.8656 260.028 79.97 259.5 79.97Z" fill="#564C54"/>
<path d="M101.83 93.45H102.23V127.36H101.83C100.523 127.36 99.2689 126.841 98.3444 125.916C97.4198 124.991 96.9004 123.738 96.9004 122.43V98.37C96.903 97.0642 97.4236 95.8128 98.3479 94.8904C99.2722 93.968 100.525 93.45 101.83 93.45Z" fill="#564C54"/>
<path d="M251.949 22.45V280.87C251.949 282.573 251.273 284.206 250.069 285.41C248.865 286.614 247.232 287.29 245.529 287.29H115.949C114.248 287.287 112.618 286.61 111.416 285.406C110.214 284.202 109.539 282.571 109.539 280.87V22.45C109.539 20.749 110.214 19.1176 111.416 17.9139C112.618 16.7102 114.248 16.0327 115.949 16.03H245.489C246.355 16.027 247.212 16.2005 248.009 16.54C249.173 17.0303 250.167 17.8519 250.868 18.9027C251.568 19.9535 251.944 21.1871 251.949 22.45Z" fill="white"/>
<path d="M241.18 145.26H123.18C122.955 145.26 122.738 145.35 122.579 145.509C122.42 145.668 122.33 145.885 122.33 146.11C122.333 146.334 122.423 146.547 122.583 146.705C122.742 146.862 122.956 146.95 123.18 146.95H241.18C241.404 146.95 241.618 146.862 241.778 146.705C241.937 146.547 242.027 146.334 242.03 146.11C242.03 145.885 241.941 145.668 241.781 145.509C241.622 145.35 241.405 145.26 241.18 145.26Z" fill="#8E88C1"/>
<path d="M241.18 152.36H123.18C122.955 152.36 122.738 152.45 122.579 152.609C122.42 152.768 122.33 152.985 122.33 153.21C122.333 153.434 122.423 153.647 122.583 153.805C122.742 153.962 122.956 154.05 123.18 154.05H241.18C241.404 154.05 241.618 153.962 241.778 153.805C241.937 153.647 242.027 153.434 242.03 153.21C242.03 152.985 241.941 152.768 241.781 152.609C241.622 152.45 241.405 152.36 241.18 152.36Z" fill="#8E88C1"/>
<path d="M241.18 57.92H184.58C184.357 57.92 184.144 57.8315 183.986 57.674C183.829 57.5164 183.74 57.3028 183.74 57.08C183.74 56.8563 183.828 56.6416 183.986 56.4824C184.143 56.3233 184.357 56.2326 184.58 56.23H241.18C241.406 56.23 241.622 56.3195 241.781 56.4789C241.941 56.6383 242.03 56.8545 242.03 57.08C242.03 57.1911 242.008 57.3012 241.965 57.4038C241.923 57.5063 241.86 57.5994 241.781 57.6775C241.702 57.7556 241.608 57.8173 241.505 57.8589C241.402 57.9006 241.291 57.9213 241.18 57.92Z" fill="#8E88C1"/>
<path d="M241.18 65.02H184.58C184.357 65.02 184.144 64.9315 183.986 64.774C183.829 64.6165 183.74 64.4028 183.74 64.18C183.74 63.9563 183.828 63.7416 183.986 63.5825C184.143 63.4234 184.357 63.3326 184.58 63.33H241.18C241.406 63.33 241.622 63.4196 241.781 63.579C241.941 63.7384 242.03 63.9546 242.03 64.18C242.03 64.2912 242.008 64.4012 241.965 64.5038C241.923 64.6064 241.86 64.6994 241.781 64.7776C241.702 64.8557 241.608 64.9173 241.505 64.959C241.402 65.0006 241.291 65.0213 241.18 65.02Z" fill="#8E88C1"/>
<path d="M241.18 72.12H184.58C184.358 72.1174 184.146 72.0281 183.989 71.8711C183.832 71.7141 183.743 71.502 183.74 71.28C183.74 71.0563 183.828 70.8416 183.986 70.6825C184.143 70.5233 184.357 70.4326 184.58 70.43H241.18C241.406 70.43 241.622 70.5195 241.781 70.679C241.941 70.8384 242.03 71.0546 242.03 71.28C242.028 71.5037 241.937 71.7173 241.778 71.8746C241.619 72.0318 241.404 72.12 241.18 72.12Z" fill="#8E88C1"/>
<path d="M241.18 79.22H184.58C184.358 79.2174 184.146 79.1281 183.989 78.9711C183.832 78.8141 183.743 78.602 183.74 78.38C183.74 78.1563 183.828 77.9416 183.986 77.7825C184.143 77.6234 184.357 77.5327 184.58 77.53H241.18C241.406 77.53 241.622 77.6196 241.781 77.779C241.941 77.9384 242.03 78.1546 242.03 78.38C242.028 78.6037 241.937 78.8174 241.778 78.9746C241.619 79.1319 241.404 79.22 241.18 79.22Z" fill="#8E88C1"/>
<path d="M241.18 86.32H184.58C184.358 86.3174 184.146 86.2281 183.989 86.0711C183.832 85.9141 183.743 85.702 183.74 85.48C183.74 85.2563 183.828 85.0416 183.986 84.8825C184.143 84.7234 184.357 84.6326 184.58 84.63H241.18C241.406 84.63 241.622 84.7196 241.781 84.879C241.941 85.0384 242.03 85.2546 242.03 85.48C242.028 85.7037 241.937 85.9174 241.778 86.0746C241.619 86.2318 241.404 86.32 241.18 86.32Z" fill="#8E88C1"/>
<path d="M241.18 93.42H184.58C184.358 93.4174 184.146 93.3281 183.989 93.1711C183.832 93.0141 183.743 92.8019 183.74 92.58C183.74 92.3563 183.828 92.1416 183.986 91.9824C184.143 91.8233 184.357 91.7326 184.58 91.73H241.18C241.406 91.73 241.622 91.8195 241.781 91.9789C241.941 92.1383 242.03 92.3545 242.03 92.58C242.028 92.8037 241.937 93.0173 241.778 93.1746C241.619 93.3318 241.404 93.42 241.18 93.42Z" fill="#8E88C1"/>
<path d="M174.661 244.25H222.471V207.94H174.661V244.25Z" fill="#F77659"/>
<path d="M173.081 212.16H224.051V206.12H173.081V212.16Z" fill="#F77659"/>
<path d="M174.661 215.48H222.471V212.16H174.661V215.48Z" fill="#E33D15"/>
<path d="M196.47 244.28H200.66V206.12H196.47V244.28Z" fill="white"/>
<path d="M200.661 215.26H196.471V244.28H200.661V215.26Z" fill="#F0F0F0"/>
<path d="M200.661 212.16H196.471V215.48H200.661V212.16Z" fill="#8E88C1"/>
<path d="M153.706 215.348L197.232 195.568L182.21 162.511L138.684 182.292L153.706 215.348Z" fill="#EBB12B"/>
<path d="M138.994 186.791L185.396 165.702L182.897 160.204L136.495 181.292L138.994 186.791Z" fill="#EBB12B"/>
<path d="M141.812 189.163L185.338 169.382L183.964 166.36L140.438 186.141L141.812 189.163Z" fill="#D38400"/>
<path d="M173.58 206.356L177.395 204.622L161.606 169.881L157.792 171.615L173.58 206.356Z" fill="white"/>
<path d="M165.387 178.239L161.572 179.973L173.579 206.392L177.394 204.659L165.387 178.239Z" fill="#F0F0F0"/>
<path d="M164.094 175.41L160.279 177.144L161.653 180.166L165.467 178.433L164.094 175.41Z" fill="#8E88C1"/>
<path d="M205.77 277.09C209.288 277.09 212.14 274.238 212.14 270.72C212.14 267.202 209.288 264.35 205.77 264.35C202.252 264.35 199.4 267.202 199.4 270.72C199.4 274.238 202.252 277.09 205.77 277.09Z" fill="#221B22"/>
<path d="M205.769 274.71C207.973 274.71 209.759 272.924 209.759 270.72C209.759 268.516 207.973 266.73 205.769 266.73C203.566 266.73 201.779 268.516 201.779 270.72C201.779 272.924 203.566 274.71 205.769 274.71Z" fill="#564C54"/>
<path d="M164.609 270.68C164.607 271.943 164.98 273.178 165.68 274.228C166.381 275.279 167.377 276.098 168.543 276.582C169.709 277.067 170.993 277.194 172.232 276.948C173.47 276.702 174.608 276.094 175.501 275.201C176.394 274.308 177.001 273.171 177.247 271.932C177.493 270.694 177.366 269.41 176.882 268.244C176.398 267.078 175.578 266.081 174.528 265.381C173.477 264.681 172.242 264.308 170.979 264.31C170.143 264.31 169.315 264.475 168.542 264.795C167.769 265.115 167.067 265.584 166.475 266.176C165.884 266.767 165.414 267.469 165.094 268.242C164.774 269.015 164.609 269.843 164.609 270.68Z" fill="#221B22"/>
<path d="M170.949 274.68C171.74 274.68 172.514 274.445 173.172 274.006C173.829 273.566 174.342 272.942 174.645 272.211C174.947 271.48 175.027 270.676 174.872 269.9C174.718 269.124 174.337 268.411 173.778 267.852C173.218 267.292 172.505 266.911 171.73 266.757C170.954 266.603 170.149 266.682 169.418 266.984C168.688 267.287 168.063 267.8 167.623 268.458C167.184 269.115 166.949 269.889 166.949 270.68C166.949 271.741 167.371 272.758 168.121 273.508C168.871 274.259 169.888 274.68 170.949 274.68Z" fill="#564C54"/>
<path d="M233.631 188.41C233.481 188.233 233.294 188.091 233.083 187.994C232.873 187.897 232.643 187.848 232.411 187.85H138.411L136.951 182.38C136.853 182.036 136.646 181.732 136.361 181.516C136.076 181.3 135.729 181.182 135.371 181.18H125.211V184.45H134.131L135.581 189.76C135.572 189.806 135.572 189.854 135.581 189.9L138.521 200.46L138.971 202.09L142.681 215.39L143.581 218.63L147.161 231.49L148.061 234.74L151.291 246.33C151.291 246.4 151.291 246.47 151.361 246.54L154.141 256.54C154.855 259.077 156.376 261.312 158.475 262.905C160.574 264.499 163.136 265.364 165.771 265.37H215.331C215.761 265.37 216.173 265.199 216.476 264.896C216.78 264.592 216.951 264.18 216.951 263.75C216.951 263.32 216.78 262.908 216.476 262.604C216.173 262.301 215.761 262.13 215.331 262.13H165.811C163.883 262.124 162.01 261.491 160.474 260.325C158.939 259.159 157.825 257.525 157.301 255.67L155.031 247.53H224.551C224.943 247.529 225.321 247.387 225.617 247.13C225.912 246.873 226.106 246.518 226.161 246.13L227.741 234.75L228.191 231.5L229.951 218.68L230.401 215.44L232.301 201.77C232.446 201.521 232.522 201.238 232.521 200.95C232.525 200.815 232.508 200.68 232.471 200.55L233.971 189.74C234.018 189.507 234.012 189.266 233.953 189.036C233.894 188.806 233.784 188.592 233.631 188.41ZM223.141 244.28H154.141L151.921 236.28C151.899 236.208 151.872 236.138 151.841 236.07L151.461 234.72H224.461L223.141 244.28ZM224.951 231.49H150.551L146.951 218.68H226.701L224.951 231.49ZM227.201 215.39H146.061L142.481 202.52H228.951L227.201 215.39ZM229.441 199.28H141.581L139.301 191.09H230.551L229.441 199.28Z" fill="#221B22"/>
<path d="M115.289 182.81C115.288 183.026 115.329 183.24 115.411 183.439C115.493 183.639 115.614 183.82 115.766 183.973C115.919 184.125 116.1 184.246 116.3 184.328C116.5 184.41 116.713 184.451 116.929 184.45H128.219V181.18H116.949C116.733 181.176 116.517 181.215 116.316 181.295C116.115 181.375 115.932 181.495 115.777 181.647C115.623 181.798 115.5 181.979 115.416 182.179C115.332 182.379 115.289 182.593 115.289 182.81Z" fill="#564C54"/>
<path d="M166.81 53.51H131.39C126.397 53.51 122.35 57.5574 122.35 62.55V86.61C122.35 91.6027 126.397 95.65 131.39 95.65H166.81C171.802 95.65 175.85 91.6027 175.85 86.61V62.55C175.85 57.5574 171.802 53.51 166.81 53.51Z" fill="#8E88C1"/>
<path d="M125.789 86.06L168.159 85.88C168.5 85.139 168.684 84.3355 168.699 83.52C168.949 79.94 167.789 74.22 167.209 70.62C167.139 70.2 167.079 69.8 167.029 69.45C166.957 68.9631 166.913 68.4722 166.899 67.98C166.899 64.98 164.289 65.55 164.289 65.55C160.019 69.77 155.139 63.49 152.289 65.55C152.289 65.55 151.069 66.43 147.719 69.47C144.369 72.51 138.659 74.53 133.799 76.59C127.529 79.25 125.799 81.88 125.419 83.69C125.244 84.4985 125.376 85.3434 125.789 86.06Z" fill="#F77659"/>
<path d="M125.789 86.06L168.159 85.88C168.5 85.139 168.684 84.3355 168.699 83.52L125.439 83.71C125.263 84.5097 125.388 85.3464 125.789 86.06Z" fill="#E33D15"/>
<path d="M151.69 67.37C151.69 67.37 150.92 65.52 149.24 66.12C147.56 66.72 147.74 69.49 147.74 69.49C147.74 69.49 148.76 72.01 151.69 67.37Z" fill="white"/>
<path d="M152.239 75.68C152.425 75.68 152.603 75.6062 152.734 75.475C152.866 75.3437 152.939 75.1656 152.939 74.98C152.956 73.7521 152.717 72.5341 152.239 71.4032C151.76 70.2723 151.052 69.253 150.159 68.41C150.089 68.3484 150.007 68.3015 149.918 68.2721C149.829 68.2428 149.736 68.2315 149.642 68.2389C149.549 68.2464 149.458 68.2724 149.375 68.3156C149.293 68.3587 149.219 68.418 149.159 68.49C149.038 68.6333 148.977 68.8191 148.992 69.0065C149.007 69.194 149.096 69.3679 149.239 69.49C149.975 70.2022 150.557 71.0577 150.949 72.0037C151.342 72.9497 151.535 73.9661 151.519 74.99C151.521 75.0828 151.54 75.1744 151.577 75.2595C151.614 75.3446 151.668 75.4215 151.735 75.4857C151.802 75.5499 151.881 75.6001 151.968 75.6335C152.054 75.6668 152.147 75.6827 152.239 75.68Z" fill="white"/>
<path d="M143.41 70.25C143.584 70.2494 143.751 70.1854 143.88 70.07C144.76 69.28 147.36 69.12 148.79 69.21C148.882 69.2154 148.974 69.2026 149.061 69.1723C149.148 69.1421 149.229 69.0949 149.297 69.0336C149.366 68.9723 149.422 68.898 149.462 68.815C149.502 68.732 149.525 68.642 149.53 68.55C149.536 68.4593 149.523 68.3685 149.493 68.2827C149.464 68.1969 149.417 68.1179 149.357 68.05C149.297 67.9822 149.223 67.927 149.142 67.8875C149.06 67.848 148.971 67.8251 148.88 67.82C148.44 67.82 144.55 67.6 142.94 69.03C142.835 69.1248 142.761 69.2493 142.728 69.3871C142.695 69.5249 142.705 69.6694 142.756 69.8016C142.807 69.9338 142.897 70.0475 143.013 70.1275C143.13 70.2076 143.269 70.2503 143.41 70.25Z" fill="white"/>
<path d="M149.571 69.68L149.861 68.19L149.141 67.47C149.531 67.07 153.061 63.63 155.991 63.62C156.399 63.6162 156.804 63.6958 157.181 63.854C157.557 64.0122 157.897 64.2456 158.181 64.54C158.474 64.8276 158.679 65.1933 158.771 65.5939C158.864 65.9944 158.839 66.413 158.701 66.8C158.241 68.15 156.571 69.18 154.361 69.49C153.242 69.6584 152.112 69.7486 150.981 69.76C150.509 69.7725 150.038 69.7457 149.571 69.68ZM150.571 68.25C151.802 68.2741 153.034 68.1904 154.251 68C156.101 67.74 157.161 67 157.381 66.32C157.431 66.1964 157.44 66.0601 157.408 65.9307C157.376 65.8013 157.303 65.6855 157.201 65.6C157.058 65.4495 156.886 65.3307 156.695 65.2514C156.503 65.1721 156.298 65.1342 156.091 65.14C154.261 65.19 151.721 67.21 150.551 68.29L150.571 68.25Z" fill="white"/>
<path d="M148.41 69.06L149.05 67.69C147.65 67.03 146.31 65.3 146.39 64.26C146.39 64 146.52 63.69 147.18 63.49C147.313 63.4332 147.458 63.4116 147.601 63.4274C147.745 63.4432 147.882 63.4957 148 63.58C148.74 64.15 149 66.06 149 67.13H150.51C150.51 66.77 150.51 63.56 148.98 62.36C148.617 62.1232 148.201 61.9805 147.769 61.9446C147.338 61.9087 146.904 61.9808 146.507 62.1544C146.11 62.3281 145.763 62.5977 145.496 62.9391C145.229 63.2805 145.052 63.6829 144.98 64.11C144.74 66 146.63 68.22 148.41 69.06Z" fill="white"/>
<path d="M163.839 85.89H165.089C164.279 84.9688 163.658 83.8964 163.263 82.7346C162.869 81.5728 162.708 80.3444 162.789 79.12C162.898 77.4745 163.347 75.8695 164.108 74.4064C164.868 72.9433 165.925 71.654 167.209 70.62C167.139 70.2 167.079 69.8 167.029 69.45C165.507 70.5746 164.248 72.0181 163.341 73.6797C162.434 75.3414 161.901 77.181 161.779 79.07C161.628 81.5165 162.359 83.9361 163.839 85.89Z" fill="#E33D15"/>
<path d="M148.469 71.99C148.626 71.9879 148.778 71.9338 148.901 71.8361C149.025 71.7383 149.112 71.6026 149.149 71.45C149.191 71.2697 149.16 71.08 149.063 70.9226C148.965 70.7652 148.809 70.6528 148.629 70.61L145.989 69.96C145.899 69.9354 145.805 69.9292 145.712 69.9417C145.619 69.9542 145.53 69.9851 145.449 70.0327C145.369 70.0803 145.299 70.1435 145.243 70.2187C145.187 70.2939 145.147 70.3794 145.125 70.4704C145.103 70.5613 145.1 70.6557 145.115 70.748C145.13 70.8404 145.163 70.9288 145.213 71.008C145.263 71.0872 145.328 71.1556 145.405 71.2092C145.481 71.2628 145.568 71.3005 145.659 71.32L148.299 71.97L148.469 71.99Z" fill="white"/>
<path d="M145.831 73.54C145.988 73.5379 146.14 73.4838 146.263 73.386C146.386 73.2883 146.473 73.1525 146.511 73C146.553 72.821 146.523 72.6326 146.428 72.4754C146.332 72.3183 146.179 72.2049 146.001 72.16L143.351 71.51C143.26 71.4854 143.166 71.4792 143.073 71.4917C142.981 71.5042 142.891 71.5351 142.811 71.5827C142.73 71.6303 142.66 71.6935 142.604 71.7687C142.549 71.8439 142.509 71.9294 142.487 72.0204C142.464 72.1113 142.461 72.2057 142.476 72.298C142.491 72.3904 142.524 72.4787 142.574 72.5579C142.624 72.6371 142.689 72.7056 142.766 72.7592C142.842 72.8128 142.929 72.8504 143.021 72.87L145.661 73.52L145.831 73.54Z" fill="white"/>
<path d="M143.19 75.03C143.347 75.028 143.499 74.9738 143.622 74.8761C143.745 74.7784 143.832 74.6426 143.87 74.49C143.912 74.3111 143.883 74.1227 143.787 73.9655C143.692 73.8083 143.538 73.695 143.36 73.65L140.71 73C140.62 72.9755 140.525 72.9692 140.433 72.9817C140.34 72.9942 140.251 73.0252 140.17 73.0727C140.09 73.1203 140.019 73.1836 139.964 73.2587C139.908 73.3339 139.868 73.4195 139.846 73.5104C139.824 73.6013 139.82 73.6957 139.835 73.7881C139.85 73.8804 139.884 73.9688 139.934 74.048C139.983 74.1272 140.048 74.1956 140.125 74.2492C140.202 74.3028 140.288 74.3405 140.38 74.36L143.02 75.01L143.19 75.03Z" fill="white"/>
<path d="M140.309 76.41C140.466 76.4079 140.618 76.3538 140.741 76.256C140.864 76.1583 140.952 76.0225 140.989 75.87C141.031 75.691 141.002 75.5026 140.906 75.3454C140.811 75.1883 140.657 75.0749 140.479 75.03L137.829 74.38C137.739 74.3554 137.645 74.3492 137.552 74.3617C137.459 74.3742 137.37 74.4051 137.289 74.4527C137.209 74.5003 137.139 74.5635 137.083 74.6387C137.027 74.7139 136.987 74.7994 136.965 74.8903C136.943 74.9813 136.939 75.0757 136.954 75.168C136.969 75.2603 137.003 75.3487 137.053 75.4279C137.102 75.5072 137.168 75.5756 137.244 75.6292C137.321 75.6828 137.408 75.7204 137.499 75.74L140.149 76.39L140.309 76.41Z" fill="white"/>
<path d="M137.19 77.59C137.346 77.5874 137.496 77.5329 137.617 77.4351C137.739 77.3373 137.824 77.2017 137.86 77.05C137.883 76.9613 137.889 76.8687 137.876 76.7778C137.863 76.6869 137.832 76.5995 137.784 76.521C137.736 76.4425 137.673 76.3745 137.599 76.3211C137.524 76.2676 137.439 76.2298 137.35 76.21L134.7 75.56C134.521 75.5219 134.335 75.5549 134.181 75.6519C134.027 75.7489 133.916 75.9023 133.873 76.0795C133.83 76.2567 133.858 76.4436 133.951 76.6006C134.044 76.7575 134.194 76.8721 134.37 76.92L137.02 77.57L137.19 77.59Z" fill="white"/>
<path d="M139.35 124.8L134.91 127.14L135.75 122.19L132.16 118.68L137.13 117.96L139.35 113.46L141.57 117.96L146.54 118.68L142.95 122.19L143.79 127.14L139.35 124.8Z" fill="#EBB12B"/>
<path d="M162.03 124.8L157.58 127.14L158.43 122.19L154.84 118.68L159.81 117.96L162.03 113.46L164.25 117.96L169.22 118.68L165.62 122.19L166.47 127.14L162.03 124.8Z" fill="#EBB12B"/>
<path d="M184.7 124.8L180.26 127.14L181.11 122.19L177.51 118.68L182.48 117.96L184.7 113.46L186.93 117.96L191.9 118.68L188.3 122.19L189.15 127.14L184.7 124.8Z" fill="#EBB12B"/>
<path d="M207.379 124.8L202.939 127.14L203.789 122.19L200.189 118.68L205.159 117.96L207.379 113.46L209.599 117.96L214.569 118.68L210.979 122.19L211.829 127.14L207.379 124.8Z" fill="#EBB12B"/>
<path d="M228.831 124.8L224.391 127.14L225.241 122.19L221.641 118.68L226.611 117.96L228.831 113.46L231.051 117.96L236.021 118.68L232.431 122.19L233.281 127.14L228.831 124.8Z" fill="#8E88C1"/>
<path d="M228.6 133.73H134.95C131.388 133.73 127.972 132.315 125.453 129.796C122.934 127.278 121.52 123.862 121.52 120.3C121.52 116.738 122.934 113.322 125.453 110.804C127.972 108.285 131.388 106.87 134.95 106.87H228.56C232.121 106.87 235.537 108.285 238.056 110.804C240.575 113.322 241.99 116.738 241.99 120.3C241.99 123.862 240.575 127.278 238.056 129.796C235.537 132.315 232.121 133.73 228.56 133.73H228.6ZM134.95 108.18C131.735 108.18 128.652 109.457 126.379 111.73C124.106 114.003 122.83 117.086 122.83 120.3C122.83 123.514 124.106 126.597 126.379 128.87C128.652 131.143 131.735 132.42 134.95 132.42H228.56C231.774 132.42 234.857 131.143 237.13 128.87C239.403 126.597 240.68 123.514 240.68 120.3C240.68 117.086 239.403 114.003 237.13 111.73C234.857 109.457 231.774 108.18 228.56 108.18H134.95Z" fill="#8E88C1"/>
<path d="M251.95 22.45V36.07H109.5V22.45C109.5 20.749 110.175 19.1176 111.377 17.9139C112.579 16.7102 114.209 16.0327 115.91 16.03H245.49C246.356 16.027 247.213 16.2005 248.01 16.54C249.174 17.0303 250.168 17.8519 250.868 18.9027C251.569 19.9535 251.945 21.1871 251.95 22.45Z" fill="#8E88C1"/>
<path d="M217.93 14.09H143.49C139.718 14.09 136.66 17.1479 136.66 20.92V22.03C136.66 25.8021 139.718 28.86 143.49 28.86H217.93C221.702 28.86 224.76 25.8021 224.76 22.03V20.92C224.76 17.1479 221.702 14.09 217.93 14.09Z" fill="#221B22"/>
<path d="M201.77 18.7H152.33C151.403 18.7 150.65 19.4522 150.65 20.38V20.65C150.65 21.5778 151.403 22.33 152.33 22.33H201.77C202.698 22.33 203.45 21.5778 203.45 20.65V20.38C203.45 19.4522 202.698 18.7 201.77 18.7Z" fill="#564C54"/>
<path d="M216.309 20.39C216.309 20.8212 216.181 21.2427 215.942 21.6012C215.702 21.9597 215.362 22.2391 214.963 22.4041C214.565 22.5691 214.127 22.6123 213.704 22.5281C213.281 22.444 212.893 22.2364 212.588 21.9315C212.283 21.6266 212.075 21.2382 211.991 20.8153C211.907 20.3924 211.95 19.9541 212.115 19.5558C212.28 19.1574 212.56 18.817 212.918 18.5774C213.277 18.3379 213.698 18.21 214.129 18.21C214.707 18.21 215.262 18.4397 215.671 18.8485C216.08 19.2574 216.309 19.8119 216.309 20.39Z" fill="#564C54"/>
<path d="M252.949 70.28L264.669 97.01C265.035 97.8428 265.717 98.496 266.565 98.8261C267.412 99.1562 268.356 99.136 269.189 98.77L295.949 87.04C296.361 86.8598 296.734 86.6001 297.045 86.2758C297.357 85.9515 297.601 85.5689 297.765 85.15C297.928 84.7311 298.007 84.2841 297.998 83.8345C297.988 83.3849 297.89 82.9417 297.709 82.53L285.949 55.8C285.77 55.3872 285.511 55.0138 285.187 54.7012C284.863 54.3887 284.481 54.1432 284.062 53.9787C283.643 53.8143 283.195 53.7342 282.745 53.743C282.295 53.7518 281.851 53.8493 281.439 54.03L254.709 65.76C254.296 65.9402 253.923 66.2003 253.61 66.5253C253.298 66.8504 253.053 67.234 252.889 67.654C252.726 68.0741 252.647 68.5223 252.657 68.973C252.667 69.4237 252.767 69.8679 252.949 70.28ZM270.769 65.12C270.457 65.3456 270.08 65.4633 269.695 65.4551C269.31 65.4469 268.938 65.3134 268.636 65.0748C268.333 64.8362 268.117 64.5055 268.02 64.1329C267.923 63.7603 267.949 63.3661 268.096 63.0101C268.243 62.6542 268.502 62.3558 268.834 62.1604C269.166 61.9649 269.553 61.883 269.935 61.9271C270.318 61.9712 270.675 62.1389 270.954 62.4047C271.233 62.6705 271.417 63.02 271.479 63.4C271.537 63.7226 271.503 64.0548 271.381 64.3589C271.259 64.6629 271.054 64.9267 270.789 65.12H270.769Z" fill="#4B71F8"/>
<path d="M263.17 77.04C261.89 74.1 263.04 71.59 265.56 70.49C268.08 69.39 270.7 70.24 271.99 73.17C273.28 76.1 272.12 78.62 269.61 79.72C267.1 80.82 264.47 80 263.17 77.04ZM275.39 66.45L279.39 64.7L275.34 86.25L271.34 88L275.39 66.45ZM268.62 74.65C267.93 73.06 267.2 72.82 266.68 73.04C266.16 73.26 265.84 73.98 266.54 75.56C267.24 77.14 267.96 77.39 268.49 77.17C269.02 76.95 269.32 76.24 268.62 74.68V74.65ZM278.76 79.52C277.47 76.59 278.63 74.07 281.14 72.97C283.65 71.87 286.28 72.72 287.57 75.66C288.86 78.6 287.7 81.11 285.19 82.21C282.68 83.31 280.06 82.49 278.76 79.52ZM284.2 77.14C283.51 75.55 282.78 75.3 282.26 75.53C281.74 75.76 281.43 76.46 282.12 78.05C282.81 79.64 283.55 79.88 284.12 79.65C284.69 79.42 284.95 78.68 284.2 77.14Z" fill="white"/>
<path d="M271.85 50.38C269.625 41.0031 265.44 32.2035 259.57 24.56L259.19 24.08V25.58C264.807 33.0108 268.828 41.5221 271 50.58C271.599 53.1237 271.822 55.7417 271.66 58.35C271.594 59.6818 271.184 60.9738 270.47 62.1C270.243 62.4191 269.962 62.6966 269.64 62.92C269.153 63.2363 268.59 63.4159 268.01 63.44C267.966 63.733 267.997 64.0323 268.1 64.31C268.702 64.278 269.289 64.1102 269.817 63.8193C270.346 63.5284 270.801 63.1218 271.15 62.63C272.046 61.2358 272.531 59.6173 272.55 57.96C272.657 55.4134 272.421 52.864 271.85 50.38ZM259.19 58.24C250.19 47.13 237.58 14.44 235.43 8.77002C235.411 8.72777 235.394 8.68436 235.38 8.64003L235.95 8.77002H239.13C237.71 8.29014 236.256 7.91579 234.78 7.65003C234.705 7.63615 234.627 7.64274 234.555 7.66912C234.483 7.6955 234.419 7.74069 234.37 7.80002C234.32 7.85844 234.287 7.92942 234.275 8.00523C234.263 8.08105 234.271 8.1588 234.3 8.23003L234.5 8.77002C236.39 13.77 249.78 48.77 259.19 59.57C259.93 60.4487 260.776 61.2314 261.71 61.9C261.96 62.07 262.2 62.23 262.44 62.37L263.44 61.95C263.05 61.72 262.64 61.47 262.23 61.19C261.079 60.3589 260.055 59.3652 259.19 58.24Z" fill="#F77659"/>
<path d="M112.02 249.39C111.942 249.387 111.865 249.369 111.793 249.337C111.722 249.304 111.658 249.257 111.605 249.2C111.552 249.142 111.511 249.074 111.484 249C111.458 248.927 111.446 248.848 111.45 248.77C111.597 245.747 111.965 242.739 112.55 239.77C113.93 233.17 116.23 229.82 119.39 229.82C122.55 229.82 124.79 233.17 126.05 239.82C126.578 242.794 126.892 245.801 126.99 248.82C126.993 248.899 126.979 248.978 126.951 249.052C126.923 249.126 126.879 249.193 126.824 249.25C126.769 249.307 126.703 249.352 126.631 249.383C126.558 249.414 126.479 249.43 126.4 249.43C126.323 249.433 126.247 249.42 126.176 249.392C126.104 249.365 126.039 249.323 125.984 249.27C125.929 249.217 125.885 249.153 125.855 249.083C125.825 249.012 125.81 248.937 125.81 248.86C125.67 243.39 124.33 231.07 119.39 231.07C114.45 231.07 112.86 243.4 112.63 248.87C112.61 249.017 112.537 249.151 112.425 249.247C112.312 249.343 112.168 249.394 112.02 249.39Z" fill="#221B22"/>
<path d="M139.68 294.86H96.8301L102.73 247.17H133.78L139.68 294.86Z" fill="#3639D9"/>
<path d="M137.51 294.86H94.6602L100.56 247.17H131.61L137.51 294.86Z" fill="#4B71F8"/>
<path d="M116.089 279.16L122.249 282.4L121.069 275.54L126.059 270.68L119.169 269.68L116.089 263.43L112.999 269.68L106.109 270.68L111.099 275.54L109.919 282.4L116.089 279.16Z" fill="#3639D9"/>
<path d="M109.271 251.02C110.077 251.02 110.731 250.366 110.731 249.56C110.731 248.754 110.077 248.1 109.271 248.1C108.464 248.1 107.811 248.754 107.811 249.56C107.811 250.366 108.464 251.02 109.271 251.02Z" fill="#3639D9"/>
<path d="M124.239 251.02C125.046 251.02 125.699 250.366 125.699 249.56C125.699 248.754 125.046 248.1 124.239 248.1C123.433 248.1 122.779 248.754 122.779 249.56C122.779 250.366 123.433 251.02 124.239 251.02Z" fill="#3639D9"/>
<path d="M109.3 249.39C109.219 249.389 109.139 249.371 109.064 249.338C108.99 249.305 108.923 249.257 108.868 249.197C108.813 249.137 108.77 249.066 108.743 248.99C108.716 248.913 108.705 248.831 108.71 248.75C108.862 245.633 109.243 242.531 109.85 239.47C111.27 232.64 113.65 229.18 116.92 229.18C120.19 229.18 122.51 232.64 123.8 239.48C124.364 242.544 124.699 245.646 124.8 248.76C124.804 248.841 124.792 248.923 124.764 248.999C124.735 249.075 124.692 249.145 124.636 249.204C124.579 249.263 124.512 249.31 124.437 249.342C124.362 249.374 124.282 249.39 124.2 249.39C124.04 249.393 123.885 249.332 123.769 249.222C123.653 249.112 123.586 248.96 123.58 248.8C123.45 243.15 122.06 230.4 116.95 230.4C111.84 230.4 110.2 243.16 109.95 248.81C109.947 248.891 109.927 248.97 109.892 249.044C109.857 249.117 109.808 249.183 109.747 249.237C109.687 249.291 109.616 249.332 109.539 249.358C109.462 249.385 109.381 249.395 109.3 249.39Z" fill="#221B22"/>
<path d="M78.43 243.22C78.3411 243.217 78.2537 243.197 78.1727 243.161C78.0917 243.124 78.0188 243.071 77.9583 243.006C77.8978 242.941 77.8509 242.865 77.8203 242.781C77.7897 242.698 77.776 242.609 77.78 242.52C77.9507 239.094 78.3685 235.686 79.03 232.32C80.6 224.82 83.21 221.01 86.8 221.01C90.39 221.01 92.93 224.82 94.36 232.33C94.9606 235.7 95.3182 239.109 95.43 242.53C95.4313 242.619 95.4151 242.708 95.3821 242.791C95.3491 242.874 95.3001 242.95 95.2379 243.014C95.1757 243.078 95.1015 243.129 95.0195 243.164C94.9375 243.2 94.8493 243.219 94.76 243.22C94.584 243.22 94.4151 243.151 94.2897 243.027C94.1644 242.904 94.0926 242.736 94.09 242.56C93.93 236.36 92.41 222.36 86.8 222.36C81.19 222.36 79.38 236.36 79.12 242.58C79.1097 242.755 79.0322 242.919 78.9036 243.039C78.775 243.158 78.6054 243.223 78.43 243.22Z" fill="#221B22"/>
<path d="M109.84 294.86H61.1699L67.8799 240.7H103.14L109.84 294.86Z" fill="#E33D15"/>
<path d="M107.381 294.86H58.7109L65.4209 240.7H100.671L107.381 294.86Z" fill="#F77659"/>
<path d="M84.5902 281.02H84.4802C81.4761 281.015 78.5968 279.818 76.4745 277.692C74.3521 275.565 73.1602 272.684 73.1602 269.68V269.59C73.1681 266.587 74.366 263.709 76.4915 261.587C78.6171 259.466 81.4969 258.273 84.5002 258.27H84.6202C87.6252 258.275 90.5054 259.472 92.6294 261.598C94.7533 263.724 95.9475 266.605 95.9502 269.61V269.68C95.9422 272.685 94.7429 275.564 92.6152 277.686C90.4876 279.808 87.6052 281 84.6002 281L84.5902 281.02ZM84.5902 280.24C87.3918 280.24 90.0788 279.128 92.0608 277.148C94.0427 275.168 95.1575 272.482 95.1602 269.68V269.59C95.1655 266.787 94.0586 264.097 92.0826 262.11C90.1065 260.123 87.4227 259.001 84.6202 258.99H84.5102C81.711 259.001 79.0296 260.118 77.0512 262.098C75.0729 264.078 73.9581 266.761 73.9502 269.56V269.68C73.9475 271.068 74.2183 272.443 74.7471 273.727C75.2759 275.01 76.0522 276.177 77.0319 277.16C78.0115 278.143 79.1753 278.924 80.4567 279.458C81.7381 279.991 83.1121 280.267 84.5002 280.27L84.5902 280.24Z" fill="#E33D15"/>
<path d="M84.7409 277.19C84.69 277.19 84.6395 277.18 84.593 277.159C84.5465 277.138 84.5048 277.108 84.4709 277.07L78.9509 271.56C78.1031 270.707 77.6284 269.553 77.6309 268.35C77.6295 267.755 77.7464 267.166 77.9747 266.617C78.203 266.067 78.5383 265.569 78.9609 265.15C79.3068 264.794 79.7277 264.519 80.193 264.346C80.6583 264.173 81.1564 264.106 81.6509 264.15C82.2709 264.25 82.8644 264.474 83.3954 264.809C83.9265 265.144 84.3842 265.583 84.7409 266.1C85.0985 265.584 85.558 265.146 86.0912 264.814C86.6243 264.482 87.2198 264.263 87.8409 264.17C88.3339 264.126 88.8304 264.194 89.2941 264.367C89.7578 264.54 90.177 264.814 90.5209 265.17C91.3691 266.021 91.8453 267.173 91.8453 268.375C91.8453 269.577 91.3691 270.729 90.5209 271.58L85.0009 277.07C84.968 277.107 84.928 277.136 84.8833 277.157C84.8386 277.178 84.7901 277.189 84.7409 277.19Z" fill="#E33D15"/>
<path d="M75.3006 245.07C76.2174 245.07 76.9606 244.327 76.9606 243.41C76.9606 242.493 76.2174 241.75 75.3006 241.75C74.3838 241.75 73.6406 242.493 73.6406 243.41C73.6406 244.327 74.3838 245.07 75.3006 245.07Z" fill="#E33D15"/>
<path d="M93.9494 243.41C93.9513 243.741 93.8548 244.065 93.6721 244.342C93.4893 244.618 93.2286 244.833 92.9231 244.961C92.6175 245.089 92.2809 245.122 91.956 245.058C91.6312 244.994 91.3327 244.835 91.0985 244.601C90.8644 244.367 90.7051 244.068 90.641 243.743C90.5769 243.418 90.6108 243.082 90.7384 242.776C90.8661 242.471 91.0816 242.21 91.3578 242.027C91.634 241.845 91.9582 241.748 92.2894 241.75C92.7296 241.75 93.1518 241.925 93.4632 242.236C93.7745 242.548 93.9494 242.97 93.9494 243.41Z" fill="#E33D15"/>
<path d="M75.3392 243.22C75.2468 243.218 75.1558 243.196 75.0717 243.158C74.9876 243.12 74.9121 243.065 74.8496 242.997C74.7871 242.929 74.739 242.849 74.708 242.762C74.677 242.675 74.6638 242.582 74.6691 242.49C74.8403 238.947 75.2681 235.421 75.9491 231.94C77.5691 224.19 80.2691 220.26 83.9491 220.26C87.6291 220.26 90.2991 224.19 91.7691 231.96C92.3958 235.441 92.7635 238.964 92.8692 242.5C92.8732 242.592 92.8586 242.684 92.8264 242.771C92.7941 242.858 92.7449 242.937 92.6814 243.004C92.618 243.071 92.5418 243.125 92.4572 243.162C92.3726 243.199 92.2815 243.219 92.1891 243.22C92.0069 243.22 91.8318 243.149 91.7011 243.022C91.5704 242.895 91.4944 242.722 91.4892 242.54C91.3292 236.13 89.7591 221.65 83.9491 221.65C78.1391 221.65 76.2891 236.14 76.0091 242.56C76.0016 242.734 75.9283 242.899 75.804 243.022C75.6797 243.144 75.5136 243.215 75.3392 243.22Z" fill="#221B22"/>
<path d="M277.841 31.8L274.401 31.71C274.32 31.7042 274.245 31.6685 274.191 31.61C274.162 31.5811 274.139 31.5467 274.124 31.509C274.108 31.4712 274.1 31.4308 274.101 31.39L274.17 29.09C272.757 28.9437 271.367 28.6247 270.031 28.14C269.348 27.8825 268.697 27.5469 268.091 27.14C268.027 27.1024 267.981 27.0422 267.961 26.9717C267.94 26.9012 267.947 26.8255 267.981 26.76L269.981 22.61C269.999 22.5713 270.025 22.537 270.058 22.5094C270.091 22.4818 270.129 22.4616 270.17 22.45C270.21 22.4327 270.252 22.4237 270.295 22.4237C270.339 22.4237 270.381 22.4327 270.42 22.45C271.47 23.0987 272.619 23.5716 273.821 23.85C274.476 24.0101 275.146 24.1039 275.821 24.13C276.363 24.1741 276.909 24.1165 277.43 23.96C277.71 23.84 277.761 23.7 277.761 23.56C277.761 23.06 276.76 22.77 275.56 22.49L275.141 22.39C273.716 22.1138 272.336 21.6427 271.041 20.99C270.193 20.5325 269.498 19.8374 269.041 18.99C268.66 18.2208 268.481 17.3674 268.521 16.51C268.611 13.51 270.971 11.28 274.701 10.78L274.771 8.38002C274.769 8.34057 274.777 8.30132 274.792 8.26503C274.808 8.22875 274.831 8.19633 274.86 8.17003C274.889 8.1413 274.924 8.11855 274.962 8.10311C274.999 8.08766 275.04 8.07981 275.081 8.08002L278.521 8.18003C278.56 8.18132 278.599 8.19037 278.635 8.20665C278.67 8.22294 278.703 8.24613 278.73 8.27492C278.757 8.30371 278.778 8.33753 278.792 8.37444C278.805 8.41135 278.812 8.45062 278.81 8.49002L278.75 10.83C279.31 10.9072 279.864 11.0174 280.411 11.16C281.5 11.4156 282.545 11.8336 283.511 12.4C283.574 12.4377 283.621 12.4972 283.643 12.5672C283.665 12.6373 283.66 12.713 283.631 12.78L281.781 16.91C281.741 16.983 281.678 17.0397 281.601 17.07C281.523 17.1001 281.438 17.1001 281.36 17.07L281.021 16.89C279.708 16.1861 278.257 15.7798 276.771 15.7H276.481C275.741 15.7 274.841 15.83 274.821 16.42C274.821 16.5 274.82 16.62 275.06 16.77C275.799 17.1321 276.588 17.3816 277.401 17.51C278.061 17.66 278.81 17.83 279.55 18.06C280.91 18.48 282.821 19.25 283.661 21.06C283.979 21.7764 284.126 22.557 284.091 23.34C284.001 26.26 281.771 28.42 278.231 29.02L278.161 31.48C278.162 31.5195 278.154 31.5587 278.139 31.595C278.123 31.6313 278.1 31.6637 278.071 31.69C278.042 31.7231 278.006 31.75 277.967 31.7689C277.927 31.7878 277.884 31.7984 277.841 31.8ZM274.711 31.11L277.55 31.19L277.61 28.78C277.614 28.7093 277.642 28.6419 277.689 28.5891C277.737 28.5363 277.801 28.5014 277.87 28.49C281.3 27.99 283.391 26.07 283.461 23.35C283.498 22.6634 283.371 21.9779 283.091 21.35C282.531 20.15 281.341 19.35 279.351 18.69C278.641 18.47 277.89 18.3 277.24 18.15C276.35 18.0118 275.489 17.7281 274.691 17.31C274.541 17.2215 274.418 17.0957 274.332 16.9449C274.246 16.7941 274.201 16.6236 274.201 16.45C274.201 15.86 274.621 15.16 276.461 15.14H276.771C278.348 15.2229 279.888 15.6531 281.281 16.4H281.341L282.951 12.82C282.097 12.3715 281.19 12.0354 280.25 11.82C279.636 11.6611 279.011 11.5442 278.381 11.47C278.305 11.4603 278.236 11.4233 278.187 11.3662C278.137 11.3091 278.11 11.2358 278.11 11.16L278.18 8.85003L275.341 8.77002L275.271 11.13C275.271 11.202 275.244 11.2716 275.196 11.3252C275.148 11.3788 275.082 11.4126 275.011 11.42C271.391 11.82 269.19 13.76 269.11 16.6C269.052 17.4036 269.232 18.2065 269.629 18.9077C270.026 19.6089 270.621 20.1769 271.341 20.54C272.584 21.17 273.911 21.6212 275.281 21.88L275.701 21.98C276.961 22.28 278.39 22.63 278.37 23.66C278.367 23.8717 278.296 24.0767 278.169 24.2457C278.041 24.4146 277.863 24.5387 277.661 24.6C277.065 24.7954 276.435 24.8669 275.81 24.81C275.08 24.7834 274.353 24.6863 273.641 24.52C272.487 24.2486 271.378 23.8106 270.351 23.22L268.631 26.82C269.14 27.1205 269.676 27.3748 270.231 27.58C271.606 28.081 273.042 28.3971 274.5 28.52C274.577 28.5276 274.647 28.5639 274.697 28.6215C274.747 28.6791 274.773 28.7537 274.771 28.83L274.711 31.11Z" fill="#B0ABE2"/>
<path d="M110.859 0.349998C110.862 0.44108 110.9 0.527559 110.965 0.591049C111.031 0.65454 111.118 0.69004 111.209 0.690002H196.889C196.98 0.690002 197.066 0.654178 197.13 0.590416C197.194 0.526654 197.229 0.440172 197.229 0.349998C197.229 0.25888 197.194 0.171338 197.13 0.10598C197.067 0.0406222 196.98 0.00260339 196.889 0H111.209C111.117 0 111.028 0.0368784 110.962 0.102516C110.896 0.168154 110.859 0.257173 110.859 0.349998Z" fill="#B0ABE2"/>
<path d="M70.0398 156.3C70.0398 156.209 70.0043 156.121 69.9408 156.056C69.8773 155.991 69.7908 155.953 69.6998 155.95H40.6998C40.614 155.948 40.5303 155.976 40.4628 156.029C40.3953 156.082 40.3483 156.156 40.3298 156.24C40.3225 156.29 40.3262 156.341 40.3406 156.389C40.3549 156.438 40.3795 156.482 40.4128 156.52C40.446 156.558 40.4871 156.589 40.5332 156.609C40.5792 156.63 40.6293 156.641 40.6798 156.64H69.7398C69.8299 156.64 69.9164 156.604 69.9802 156.54C70.0439 156.477 70.0798 156.39 70.0798 156.3H70.0398Z" fill="#B0ABE2"/>
<path d="M68.5098 31.5C68.4671 31.5102 68.4225 31.5102 68.3798 31.5L63.7298 29.44C62.4232 29.9787 61.0231 30.2539 59.6098 30.25H59.4898C58.0655 30.2487 56.6555 29.9662 55.3407 29.4187C54.0258 28.8712 52.832 28.0696 51.8276 27.0597C50.8233 26.0498 50.0282 24.8515 49.4881 23.5337C48.9479 22.2158 48.6732 20.8042 48.6798 19.38V19.3C48.6877 16.4293 49.833 13.6788 51.8647 11.6508C53.8965 9.62279 56.6491 8.48262 59.5198 8.47998H59.6298C62.5048 8.49057 65.2584 9.64079 67.2866 11.6785C69.3149 13.7161 70.4525 16.4749 70.4498 19.35V19.43C70.4575 21.9089 69.6019 24.3133 68.0298 26.23L68.8298 31.15C68.839 31.2076 68.8328 31.2667 68.8117 31.3212C68.7906 31.3757 68.7554 31.4235 68.7098 31.46C68.6496 31.4955 68.5791 31.5096 68.5098 31.5ZM63.7298 28.73C63.7726 28.7208 63.8169 28.7208 63.8598 28.73L68.0898 30.6L67.3598 26.13C67.3512 26.0842 67.353 26.037 67.3651 25.992C67.3772 25.947 67.3993 25.9053 67.4298 25.87C68.9634 24.0517 69.8031 21.7487 69.7998 19.37V19.28C69.8025 16.5782 68.7331 13.9858 66.8264 12.0716C64.9198 10.1574 62.3315 9.07792 59.6298 9.06998H59.5198C56.8215 9.07261 54.2342 10.1443 52.3243 12.0504C50.4145 13.9565 49.3377 16.5417 49.3298 19.24V19.32C49.3271 22.0227 50.3962 24.6161 52.3025 26.5319C54.2089 28.4477 56.7971 29.5294 59.4998 29.54H59.6098C60.984 29.5411 62.3443 29.2656 63.6098 28.73C63.6494 28.7222 63.6902 28.7222 63.7298 28.73Z" fill="#B0ABE2"/>
<path d="M59.76 26.85C59.6561 26.8501 59.556 26.8108 59.48 26.74L54.02 21.25C53.1767 20.4045 52.7031 19.2591 52.7031 18.065C52.7031 16.8708 53.1767 15.7254 54.02 14.88C54.3622 14.5217 54.7811 14.2456 55.2453 14.0724C55.7094 13.8992 56.2068 13.8334 56.7 13.88C57.3166 13.9781 57.9068 14.2007 58.4346 14.5342C58.9624 14.8677 59.4167 15.3052 59.77 15.82C60.1274 15.3056 60.5855 14.8693 61.1167 14.5375C61.6479 14.2058 62.241 13.9855 62.86 13.89C63.35 13.8465 63.8435 13.9139 64.3039 14.087C64.7644 14.2601 65.18 14.5345 65.52 14.89C66.3615 15.7384 66.8337 16.885 66.8337 18.08C66.8337 19.275 66.3615 20.4215 65.52 21.27L60.03 26.73C59.9592 26.8039 59.8623 26.8469 59.76 26.85ZM56.39 14.62C56.0504 14.6271 55.7156 14.7015 55.4049 14.8388C55.0943 14.9761 54.8139 15.1736 54.58 15.42C54.2326 15.7673 53.957 16.1796 53.769 16.6335C53.581 17.0873 53.4842 17.5737 53.4842 18.065C53.4842 18.5562 53.581 19.0427 53.769 19.4965C53.957 19.9503 54.2326 20.3627 54.58 20.71L59.77 25.92L64.98 20.73C65.3303 20.3856 65.608 19.9746 65.797 19.5212C65.9859 19.0678 66.0821 18.5812 66.08 18.09C66.0836 17.6004 65.99 17.1149 65.8046 16.6617C65.6192 16.2086 65.3457 15.7967 65 15.45C64.7382 15.1757 64.418 14.964 64.063 14.8307C63.7081 14.6973 63.3276 14.6458 62.95 14.68C62.3605 14.789 61.8015 15.0242 61.3113 15.3694C60.8211 15.7146 60.4113 16.1617 60.11 16.68C60.0757 16.7334 60.0283 16.7771 59.9723 16.8068C59.9162 16.8366 59.8534 16.8515 59.79 16.85C59.7266 16.8515 59.6638 16.8366 59.6078 16.8068C59.5517 16.7771 59.5043 16.7334 59.47 16.68C59.1713 16.1615 58.7636 15.7141 58.2749 15.3688C57.7863 15.0235 57.2284 14.7884 56.64 14.68L56.39 14.62Z" fill="#B0ABE2"/>
<path d="M60.8399 134.19C60.1141 134.19 59.4045 134.405 58.801 134.809C58.1974 135.212 57.7271 135.785 57.4493 136.456C57.1715 137.126 57.0988 137.864 57.2404 138.576C57.3821 139.288 57.7316 139.942 58.2448 140.455C58.7581 140.968 59.412 141.318 60.1239 141.459C60.8358 141.601 61.5737 141.528 62.2444 141.251C62.915 140.973 63.4882 140.502 63.8914 139.899C64.2947 139.295 64.5099 138.586 64.5099 137.86C64.5099 136.887 64.1233 135.953 63.435 135.265C62.7467 134.577 61.8133 134.19 60.8399 134.19ZM60.8399 140.84C60.2466 140.84 59.6666 140.664 59.1732 140.334C58.6799 140.005 58.2953 139.536 58.0683 138.988C57.8412 138.44 57.7818 137.837 57.8975 137.255C58.0133 136.673 58.299 136.138 58.7186 135.719C59.1382 135.299 59.6727 135.013 60.2546 134.898C60.8366 134.782 61.4398 134.841 61.988 135.068C62.5362 135.295 63.0047 135.68 63.3343 136.173C63.664 136.667 63.8399 137.247 63.8399 137.84C63.8399 138.234 63.7623 138.624 63.6116 138.988C63.4608 139.352 63.2398 139.683 62.9612 139.961C62.6827 140.24 62.3519 140.461 61.988 140.612C61.624 140.762 61.2339 140.84 60.8399 140.84Z" fill="#B0ABE2"/>
<path d="M290.321 38.6C289.594 38.598 288.884 38.8116 288.279 39.2136C287.674 39.6157 287.202 40.1882 286.923 40.8586C286.644 41.529 286.569 42.2673 286.71 42.9798C286.85 43.6924 287.199 44.3472 287.712 44.8615C288.225 45.3758 288.879 45.7263 289.591 45.8687C290.303 46.0111 291.042 45.9391 291.713 45.6616C292.384 45.3841 292.958 44.9137 293.361 44.31C293.765 43.7062 293.981 42.9963 293.981 42.27C293.978 41.2992 293.592 40.3687 292.906 39.6813C292.221 38.9939 291.291 38.6053 290.321 38.6ZM290.321 45.25C289.727 45.25 289.147 45.074 288.654 44.7444C288.161 44.4148 287.776 43.9462 287.549 43.398C287.322 42.8499 287.263 42.2467 287.378 41.6647C287.494 41.0828 287.78 40.5482 288.199 40.1287C288.619 39.7091 289.153 39.4234 289.735 39.3076C290.317 39.1919 290.921 39.2513 291.469 39.4783C292.017 39.7054 292.485 40.0899 292.815 40.5833C293.145 41.0766 293.321 41.6567 293.321 42.25C293.321 43.0456 293.005 43.8087 292.442 44.3713C291.879 44.9339 291.116 45.25 290.321 45.25Z" fill="#B0ABE2"/>
</g>
<defs>
<clipPath id="clip0_178_2080">
<rect width="333.74" height="299.94" fill="white"/>
</clipPath>
</defs>
</svg>
