<svg width="424" height="256" viewBox="0 0 424 256" fill="none" xmlns="http://www.w3.org/2000/svg">
<g clip-path="url(#clip0_178_2178)">
<path d="M405.26 174.664C425.8 211.496 396.078 283.763 207.574 233.539C113.061 208.358 42.4577 265.086 27.9154 225.488C-5.97189 133.259 132.417 26.5699 209.372 101.055C279.715 169.138 367.875 107.627 405.26 174.664Z" stroke="#E4E4E4" stroke-width="4" stroke-miterlimit="10" stroke-dasharray="32.09 32.09"/>
<path d="M404.178 255.739H19.8242C31.8529 166.685 113.299 97.8014 211.995 97.8014C310.69 97.8014 392.143 166.685 404.178 255.739Z" fill="#F6F5F5"/>
<path d="M354.077 22.7333H209.508C202.778 22.7333 197.322 28.2005 197.322 34.9445V242.745C197.322 249.49 202.778 254.957 209.508 254.957H354.077C360.808 254.957 366.263 249.49 366.263 242.745V34.9445C366.263 28.2005 360.808 22.7333 354.077 22.7333Z" fill="#A9BAE6"/>
<path d="M351.643 32.0922H212.592V234.497H351.643V32.0922Z" fill="#F6F5F5"/>
<path d="M351.643 32.0939C351.686 111.02 354.229 206.21 345.381 227.289C306.412 231.094 260.782 232.315 212.59 232.547L230.908 32.7034L351.643 32.0939Z" fill="#E4E4E4"/>
<path d="M339.153 220.908C278.412 230.649 237.82 231.164 204.891 228.714C209.154 183.201 210.869 107.591 212.597 32.1021L285.791 32.2664L352.034 36.6484C352.99 114.996 353.096 187.368 339.153 220.908Z" fill="white"/>
<path d="M317.686 52.4956L244.537 50.7682L244.275 61.9329L317.423 63.6603L317.686 52.4956Z" fill="#708CD5"/>
<path d="M331.787 79.818L265.807 78.2599L265.686 83.37L331.667 84.9281L331.787 79.818Z" fill="#708CD5"/>
<path d="M310.392 90.4612L265.545 89.4022L265.425 94.5123L310.272 95.5714L310.392 90.4612Z" fill="#D3DFFF"/>
<path d="M245.017 78.0691L229.396 77.7002L229.028 93.3525L244.649 93.7214L245.017 78.0691Z" fill="white" stroke="#708CD5" stroke-width="6" stroke-miterlimit="10"/>
<path d="M231.946 81.8095C232.428 83.6596 233.319 91.4099 237.193 89.2427C238.087 88.7498 238.843 87.4222 239.512 86.6615L243.119 82.5637L250.324 74.3648C250.94 73.6649 248.222 71.9085 247.449 72.7875L241.045 80.0745L237.842 83.7188C237.101 84.5617 235.383 87.2793 234.289 87.5208L236.081 88.1008C236.504 88.4475 235.719 85.9862 235.701 85.9188C235.405 84.7764 235.107 83.6333 234.807 82.4898C234.561 81.5467 231.589 80.4113 231.953 81.8095H231.946Z" fill="#EE6F57"/>
<path d="M319.474 107.999L265.141 106.715L265.02 111.826L319.354 113.109L319.474 107.999Z" fill="#708CD5"/>
<path d="M331.524 118.139L265.525 116.816L265.423 121.928L331.422 123.251L331.524 118.139Z" fill="#D3DFFF"/>
<path d="M244.347 106.526L228.727 106.157L228.358 121.81L243.979 122.178L244.347 106.526Z" fill="white" stroke="#708CD5" stroke-width="6" stroke-miterlimit="10"/>
<path d="M231.268 110.708C231.75 112.558 232.641 120.308 236.515 118.141C237.409 117.648 238.165 116.32 238.834 115.56L242.441 111.46L249.646 103.263C250.262 102.563 247.544 100.798 246.772 101.686L240.367 108.973L237.165 112.615C236.424 113.458 234.705 116.177 233.612 116.419L235.404 116.999C235.827 117.346 235.041 114.884 235.025 114.817C234.727 113.674 234.429 112.531 234.131 111.388C233.884 110.445 230.911 109.309 231.275 110.708H231.268Z" fill="#EE6F57"/>
<path d="M330.449 136.731L264.469 135.172L264.349 140.283L330.329 141.841L330.449 136.731Z" fill="#708CD5"/>
<path d="M293.713 147.012L264.205 146.315L264.085 151.425L293.593 152.122L293.713 147.012Z" fill="#D3DFFF"/>
<path d="M243.681 134.982L228.061 134.613L227.692 150.265L243.313 150.634L243.681 134.982Z" fill="white" stroke="#708CD5" stroke-width="6" stroke-miterlimit="10"/>
<path d="M230.812 139.366C231.294 141.216 232.185 148.966 236.059 146.799C236.953 146.306 237.709 144.979 238.376 144.218L241.983 140.12L249.188 131.921C249.805 131.221 247.086 129.465 246.314 130.344L239.908 137.631L236.7 141.275C235.959 142.118 234.241 144.836 233.147 145.077L234.941 145.657C235.362 146.004 234.579 143.543 234.561 143.475C234.264 142.334 233.967 141.191 233.667 140.046C233.421 139.103 230.447 137.968 230.812 139.366Z" fill="#EE6F57"/>
<path d="M330.608 163.926L264.609 162.603L264.507 167.715L330.506 169.038L330.608 163.926Z" fill="#708CD5"/>
<path d="M315.66 176.001L263.537 174.77L263.417 179.88L315.539 181.111L315.66 176.001Z" fill="#D3DFFF"/>
<path d="M243.009 163.437L227.389 163.068L227.021 178.721L242.641 179.089L243.009 163.437Z" fill="white" stroke="#708CD5" stroke-width="6" stroke-miterlimit="10"/>
<path d="M230.141 167.636C230.623 169.486 231.514 177.235 235.388 175.068C236.282 174.575 237.038 173.247 237.705 172.488L241.313 168.381L248.517 160.183C249.134 159.483 246.415 157.719 245.643 158.606L239.237 165.893L236.044 169.544C235.303 170.387 233.585 173.106 232.491 173.346L234.285 173.926C234.708 174.274 233.922 171.813 233.904 171.746C233.607 170.602 233.309 169.459 233.011 168.317C232.765 167.372 229.79 166.236 230.156 167.636H230.141Z" fill="#EE6F57"/>
<path d="M289.291 192.486L263.137 191.869L263.017 196.979L289.17 197.596L289.291 192.486Z" fill="#708CD5"/>
<path d="M328.862 204.567L262.881 203.011L262.762 208.121C288.288 208.721 320.792 209.919 327.424 208.9C328.431 207.745 328.974 206.337 328.862 204.567Z" fill="#D3DFFF"/>
<path d="M242.563 191.684L226.943 191.315L226.575 206.968L242.195 207.337L242.563 191.684Z" fill="white" stroke="#708CD5" stroke-width="6" stroke-miterlimit="10"/>
<path d="M229.486 195.659C229.978 197.509 230.861 205.257 234.733 203.09C235.625 202.597 236.383 201.27 237.05 200.511L240.658 196.403L247.872 188.206C248.487 187.504 245.77 185.741 244.996 186.627L238.592 193.914L235.389 197.558C234.648 198.401 232.93 201.119 231.836 201.36L233.63 201.94C234.051 202.288 233.268 199.825 233.25 199.76C232.951 198.616 232.653 197.473 232.356 196.331C232.11 195.386 229.136 194.251 229.5 195.65L229.486 195.659Z" fill="#EE6F57"/>
<path d="M313.11 24.1398V39.7686H250.475V24.1398C250.473 22.9536 250.705 21.7787 251.158 20.6825C251.61 19.5863 252.274 18.5903 253.111 17.7516C253.312 17.549 253.525 17.3581 253.747 17.1798C255.359 15.8369 257.39 15.1042 259.486 15.1096C261.08 15.1103 262.654 14.7508 264.091 14.058C264.698 13.7635 265.278 13.4137 265.822 13.013C267.652 11.6568 268.997 9.74646 269.659 7.56466C270.323 5.37816 271.671 3.46341 273.504 2.10265C275.337 0.741887 277.557 0.00710043 279.838 0.0065918H283.747C286.028 0.00710043 288.248 0.741887 290.081 2.10265C291.914 3.46341 293.262 5.37816 293.926 7.56466C294.587 9.75216 295.935 11.6675 297.77 13.0262C298.314 13.4269 298.893 13.7767 299.501 14.0712C300.937 14.764 302.511 15.1234 304.105 15.1227C306.491 15.1262 308.779 16.0771 310.467 17.7672C312.155 19.4573 313.105 21.7488 313.11 24.1398Z" fill="#EE6F57"/>
<path d="M318.192 32.0922V43.7054H245.391V32.0922H250.474V39.762H313.109V32.0922H318.192Z" fill="#E4E4E4"/>
<path d="M281.792 14.6544C284.86 14.6544 287.347 12.2857 287.347 9.36377C287.347 6.44182 284.86 4.07312 281.792 4.07312C278.723 4.07312 276.236 6.44182 276.236 9.36377C276.236 12.2857 278.723 14.6544 281.792 14.6544Z" fill="white"/>
<path d="M161.754 82.5029C159.532 82.0823 157.456 78.3624 156.735 76.9362C156.557 76.5873 156.499 76.1893 156.571 75.8041L157.456 71.1083C157.456 71.1083 159.496 71.455 159.339 74.1775C159.327 74.4609 159.375 74.7436 159.48 75.0073L160.262 77.0545L162.571 75.2636L161.305 71.6801C161.305 71.6801 159.609 72.1467 158.734 71.8674C156.93 71.2923 159.293 69.8957 160.045 69.7314C160.798 69.5671 162.429 68.9855 163.174 70.2539C163.918 71.5223 164.366 72.2699 164.366 72.2699C164.366 72.2699 165.186 69.4324 164.627 63.0885C164.602 62.8026 165.315 62.8092 165.515 63.0146C166.115 63.6258 167.071 65.4874 167.122 71.1494C167.122 71.1494 167.222 64.5508 168.35 63.8723C169.282 63.312 169.752 66.5422 169.096 72.0185C169.096 72.0185 170.311 67.2767 171.182 67.2685C172.65 67.2537 171.2 79.9331 167.511 83.7122L161.754 82.5029Z" fill="#F9B384"/>
<path d="M168.72 80.5624C168.655 81.1934 168.583 81.8046 168.504 82.3961C168.28 84.2742 167.956 86.1389 167.533 87.9825C167.514 88.0613 167.501 88.1336 167.481 88.2059C166.359 92.8065 166.156 95.0673 162.326 94.4627L158.39 89.9673L158.351 89.9213L158.062 89.5927L158.863 87.2267L158.968 86.9178L159.558 85.1959L159.63 84.9724L160.64 82.0149L161.047 80.8122L168.72 80.5624Z" fill="#F9B384"/>
<path d="M95.4892 244.254L94.4857 247.397C87.5991 249.661 83.5934 252.255 83.3359 255.284H103.23L104.826 244.768C100.797 245.747 97.5667 245.062 95.4892 244.254Z" fill="#1F3C88"/>
<path d="M97.9842 236.443L95.4902 244.254C97.5677 245.062 100.798 245.747 104.827 244.761L105.855 237.976L97.9842 236.443Z" fill="#F9B384"/>
<path d="M131.997 243.906L132.581 235.95L123.235 236.443L122.725 243.777C126.678 245.041 129.957 244.546 131.997 243.906Z" fill="#F9B384"/>
<path d="M143.24 255.284C142.982 252.256 139.468 248.108 131.762 247.123L131.998 243.906C129.953 244.546 126.682 245.041 122.726 243.777L121.924 255.279L143.24 255.284Z" fill="#1F3C88"/>
<path d="M124.423 84.5452L113.148 84.6241V67.5363H124.082L124.088 68.5812L124.141 73.9968L124.22 82.6918L124.423 84.5452Z" fill="#F9B384"/>
<path d="M124.141 74.8183C122.114 76.9543 116.828 74.5423 114.598 72.1894L124.088 69.3962L124.141 74.8183Z" fill="#E28B6D"/>
<path d="M126.757 63.5929C126.76 64.8803 126.661 66.1659 126.462 67.4377C125.911 70.8881 124.455 73.8588 121.097 73.9508C113.161 74.1808 110.898 69.6328 109.403 65.9129C107.907 62.1931 110.334 53.2285 110.334 53.2285L120.605 52.2098L126.246 56.8433C126.596 59.0758 126.768 61.3329 126.757 63.5929Z" fill="#F9B384"/>
<path d="M109.723 63.7819C109.723 63.7819 111.988 63.6784 112.375 57.8225C116.423 59.1797 119.383 57.9425 121.721 55.2396C123.721 57.8866 129.321 58.7164 131.211 53.2959C132.582 49.3805 128.811 43.5476 123.318 47.0802C117.935 44.3544 109.769 44.5417 107.413 51.2273C107.413 51.2273 99.2458 55.0063 107.895 63.3104C108.074 63.4763 109.723 63.7819 109.723 63.7819Z" fill="#102048"/>
<path d="M140.944 145.959L134.714 240.386H120.066L123.728 148.758L125.969 147.718L140.944 145.959Z" fill="#102048"/>
<path d="M102.794 133.04L92.5195 240.386H108.479L123.673 151.222L140.944 145.964L141.71 126.905L103.232 126.029L102.794 133.04Z" fill="#1F3C88"/>
<path opacity="0.6" d="M105.085 133.273C113.802 136.41 134.254 132.827 138.5 128.458L135.483 122.414L101.844 126.893L105.085 133.273Z" fill="#102048"/>
<path d="M137.716 127.002C137.434 127.12 137.146 127.245 136.851 127.357C133.322 128.793 129.662 129.885 125.924 130.617C123.507 131.097 121.059 131.398 118.598 131.517C114.739 131.734 110.868 131.42 107.094 130.584L111.98 84.933L112.577 79.3663C112.577 79.3663 118.972 87.253 126.022 78.5448L137.716 127.002Z" fill="white"/>
<path opacity="0.3" d="M118.598 131.517C114.739 131.734 110.868 131.42 107.094 130.584L111.98 84.933L113.725 82.406C118.034 92.9084 122.448 116.171 118.598 131.517Z" fill="#1F3C88"/>
<path d="M113.152 77.559C118.01 98.2286 120.009 119.498 112.852 143.117C107.544 145.14 101.764 145.117 95.581 143.335L97.1108 100.397L61.0919 125.208L58.9062 111.68C72.7517 98.4143 96.6911 78.3805 113.152 77.559Z" fill="#708CD5"/>
<path opacity="0.3" d="M136.844 127.357C133.315 128.793 129.656 129.885 125.917 130.617C123.753 118.143 123.274 97.6503 125.038 88.4031L136.844 127.357Z" fill="#1F3C88"/>
<path opacity="0.6" d="M167.532 87.9956C167.512 88.0745 167.499 88.1468 167.479 88.2191C166.358 92.8196 166.154 95.0805 162.324 94.4759L158.389 89.9804L158.35 89.9344L158.861 87.2398L158.966 86.9309L159.556 85.209L159.629 84.9855L167.532 87.9956Z" fill="#E28B6D"/>
<path d="M166.85 92.1821C166.85 92.1821 157.176 112.72 151.437 113.213C145.874 113.691 143.239 108.284 143.239 108.284L147.174 138.299C142.55 140.468 137.5 141.526 131.65 140.488C126.449 123.565 124.483 101.682 124.096 77.3124C128.306 77.5753 136.646 77.9352 139.632 79.8592C144.989 83.3096 151.601 95.6325 151.601 95.6325L159.308 85.117L166.85 92.1821Z" fill="#708CD5"/>
<path d="M48.9141 63.243C48.9141 63.243 49.4994 53.4191 50.498 53.8776C51.4965 54.336 53.4969 62.8848 53.4969 62.8848L51.3572 66.3451L48.9141 63.243Z" fill="#6F3428"/>
<path d="M78.3569 240.66L78.6472 243.894C78.8926 246.635 78.0413 249.362 76.2806 251.475C74.5199 253.587 71.994 254.912 69.2584 255.159L68.4287 255.233C67.0743 255.355 65.7091 255.208 64.4112 254.801C63.1134 254.395 61.9081 253.736 60.8644 252.862C59.8206 251.989 58.9588 250.918 58.3281 249.711C57.6974 248.503 57.3103 247.183 57.1887 245.826L56.8984 242.593L78.3569 240.66Z" fill="#EE6F57"/>
<path d="M64.3107 84.0918L42.8516 86.0223L56.8795 242.6L78.3386 240.67L64.3107 84.0918Z" fill="#FBC343"/>
<path opacity="0.3" d="M57.1081 81.573L49.4863 82.2587L61.7823 219.505L69.4041 218.819L57.1081 81.573Z" stroke="#6F3428" stroke-width="8" stroke-miterlimit="10"/>
<path d="M78.353 240.662L56.8995 242.594L56.3354 236.285L55.9419 231.901L54.7285 218.428L76.1887 216.496L77.3955 229.969L77.789 234.353L78.353 240.662Z" fill="#102048"/>
<path d="M77.4148 229.96L55.9609 231.894L56.3545 236.278L77.8083 234.344L77.4148 229.96Z" fill="#FBC343"/>
<path d="M42.8555 86.0158L48.8173 62.0764C48.8173 62.0764 50.8735 62.9916 53.3691 61.4471L64.3172 84.0835L42.8555 86.0158Z" fill="#EE6F57"/>
<path d="M110.909 62.7911C110.814 62.4379 109.212 61.9532 108.86 61.8562C108.314 61.7051 107.712 61.6295 107.187 61.871C105.251 62.7484 105.51 65.5268 106.513 66.9875C107.078 67.8246 107.915 68.44 108.881 68.7291C109.233 68.8294 112.564 68.8704 112.418 68.3332L110.909 62.7911Z" fill="#F9B384"/>
<path d="M49.9419 118.635C49.8295 118.26 49.6428 117.911 49.393 117.609C49.1432 117.307 48.8352 117.059 48.4876 116.879C48.14 116.699 47.7597 116.591 47.3696 116.561C46.9794 116.532 46.5872 116.581 46.2165 116.706C43.775 117.551 41.6484 118.984 41.3188 121.422C41.0187 123.642 42.1272 130.732 47.0757 131.643L46.6723 128.001C46.6723 128.001 49.7025 127.293 50.3075 125.977C50.7322 125.055 50.7617 121.208 49.9419 118.635Z" fill="#F9B384"/>
<path d="M141.728 94.2491C141.989 95.8002 142.21 97.3562 142.422 98.9138C142.633 100.471 142.817 102.036 143.017 103.592L143.525 108.278C143.673 109.843 143.819 111.399 143.914 112.98L143.66 113.01C143.391 111.459 143.168 109.903 142.956 108.345L142.371 103.667C142.207 102.103 142.017 100.545 141.879 98.9779C141.741 97.4104 141.584 95.8478 141.48 94.2787L141.728 94.2491Z" fill="#1F3C88"/>
<path d="M97.6191 93.9895C97.6191 95.7311 97.5732 97.4728 97.5224 99.2128C97.4716 100.953 97.3896 102.698 97.3273 104.438L97.0436 109.653C96.9272 111.391 96.8075 113.128 96.6386 114.863L96.3828 114.85C96.3828 113.106 96.4238 111.366 96.4714 109.626L96.6714 104.408C96.7714 102.67 96.8452 100.93 96.9665 99.193C97.0879 97.4563 97.1994 95.718 97.3601 93.9829L97.6191 93.9895Z" fill="#1F3C88"/>
<path d="M118.87 62.6285C119.008 63.2479 118.754 63.8329 118.302 63.9429C117.849 64.053 117.369 63.6242 117.231 63.0048C117.093 62.3853 117.347 61.8004 117.8 61.6903C118.252 61.5802 118.731 62.0091 118.87 62.6285Z" fill="#102048"/>
<path d="M125.407 61.8628C125.379 62.497 124.983 62.9949 124.519 62.9752C124.055 62.9555 123.699 62.4264 123.728 61.7905C123.758 61.1547 124.153 60.6585 124.615 60.6782C125.078 60.6979 125.434 61.227 125.407 61.8628Z" fill="#102048"/>
<path d="M121.76 62.382C121.985 62.9259 121.949 63.5108 122.088 63.9561C122.144 64.1629 122.253 64.3515 122.405 64.5032C122.592 64.6377 122.8 64.7399 123.021 64.8055C123.331 64.9221 123.601 65.1258 123.798 65.3921C123.91 65.5463 123.977 65.7288 123.991 65.919C124.005 66.1092 123.965 66.2994 123.877 66.4683C123.717 66.7343 123.498 66.9593 123.236 67.1256C123.011 67.2784 122.795 67.4394 122.56 67.5823L122.396 67.3884C122.568 67.1765 122.757 66.9826 122.937 66.7805C123.111 66.623 123.255 66.4354 123.362 66.2268C123.5 65.9228 123.198 65.5893 122.772 65.4184C122.55 65.3165 122.231 65.2278 121.973 64.9633C121.747 64.724 121.6 64.4204 121.552 64.0941C121.444 63.4862 121.568 62.9653 121.509 62.451L121.76 62.382Z" fill="#E28B6D"/>
<path d="M115.74 60.964C115.846 60.5585 116.082 60.1988 116.411 59.9404C116.749 59.6681 117.166 59.5115 117.6 59.4935C118.019 59.4693 118.437 59.5662 118.804 59.7726C119.17 59.9791 119.47 60.2865 119.667 60.6584L119.467 60.8227C118.954 60.3876 118.303 60.1499 117.631 60.1524C117.302 60.1686 116.982 60.2605 116.694 60.4209C116.407 60.5813 116.16 60.806 115.973 61.0774L115.74 60.964Z" fill="#102048"/>
<path d="M122.51 60.159C122.609 59.8435 122.786 59.5581 123.025 59.3292C123.28 59.0825 123.605 58.9212 123.956 58.8675C124.659 58.7509 125.417 59.1107 125.694 59.7367L125.489 59.8912C125.073 59.5919 124.56 59.4579 124.051 59.5149C123.809 59.5514 123.576 59.6363 123.367 59.7646C123.14 59.92 122.927 60.096 122.731 60.2904L122.51 60.159Z" fill="#102048"/>
<path d="M118.881 68.7472C120.029 70.5431 121.552 70.7386 122.731 68.8491L118.881 68.7472Z" fill="white"/>
<path opacity="0.4" d="M126.789 63.1542C126.78 64.588 126.671 66.0194 126.461 67.4377C126.062 67.3104 125.713 67.0588 125.467 66.7196C125.22 66.3803 125.088 65.9711 125.09 65.5515C125.091 64.559 125.859 63.3054 126.789 63.1542Z" fill="#FC8879"/>
<path opacity="0.4" d="M116.086 68.8458C117.254 68.8458 118.201 67.8969 118.201 66.7263C118.201 65.5557 117.254 64.6068 116.086 64.6068C114.918 64.6068 113.971 65.5557 113.971 66.7263C113.971 67.8969 114.918 68.8458 116.086 68.8458Z" fill="#FC8879"/>
<path d="M109.525 64.9074C109.148 64.6217 108.753 64.361 108.343 64.1269C108.184 64.0373 108.004 63.9909 107.821 63.9922C107.621 64.0263 107.432 64.1124 107.275 64.2419L107.061 64.1039C107.105 63.9509 107.184 63.8105 107.292 63.6938C107.401 63.5771 107.535 63.4874 107.684 63.4319C107.841 63.385 108.006 63.3706 108.169 63.3895C108.332 63.4085 108.489 63.4603 108.631 63.542C109.125 63.8085 109.512 64.2357 109.73 64.7529L109.525 64.9074Z" fill="#E28B6D"/>
<path opacity="0.6" d="M50.3076 125.975L47.2644 135.243L46.6348 128.001C48.527 127.588 49.5599 126.829 50.3076 125.975Z" fill="#6F3428"/>
<path d="M0 255.343H424" stroke="#102048" stroke-width="8" stroke-miterlimit="10"/>
</g>
<defs>
<clipPath id="clip0_178_2178">
<rect width="424" height="256" fill="white"/>
</clipPath>
</defs>
</svg>
