<svg width="14" height="15" viewBox="0 0 14 15" fill="none" xmlns="http://www.w3.org/2000/svg">
<path fill-rule="evenodd" clip-rule="evenodd" d="M7.17899 0.378662C5.32632 0.378662 5.09381 0.386763 4.36616 0.419877C3.63993 0.453133 3.14422 0.568107 2.71047 0.736803C2.2618 0.911041 1.8812 1.14412 1.50203 1.52343C1.12257 1.90261 0.889495 2.2832 0.714688 2.73173C0.545566 3.16562 0.430449 3.66148 0.397762 4.38742C0.365217 5.11507 0.356689 5.34772 0.356689 7.20039C0.356689 9.05306 0.364932 9.28485 0.397904 10.0125C0.431302 10.7387 0.546277 11.2344 0.71483 11.6682C0.889211 12.1169 1.12229 12.4975 1.5016 12.8766C1.88063 13.2561 2.26123 13.4897 2.70962 13.664C3.14365 13.8327 3.6395 13.9476 4.36559 13.9809C5.09324 14.014 5.32561 14.0221 7.17813 14.0221C9.03094 14.0221 9.26274 14.014 9.99039 13.9809C10.7166 13.9476 11.2129 13.8327 11.6469 13.664C12.0955 13.4897 12.4755 13.2561 12.8545 12.8766C13.234 12.4975 13.4671 12.1169 13.6419 11.6683C13.8096 11.2344 13.9247 10.7386 13.9588 10.0126C13.9915 9.28499 14 9.05306 14 7.20039C14 5.34772 13.9915 5.11521 13.9588 4.38756C13.9247 3.66133 13.8096 3.16562 13.6419 2.73187C13.4671 2.2832 13.234 1.90261 12.8545 1.52343C12.4751 1.14397 12.0956 0.910899 11.6465 0.736803C11.2116 0.568107 10.7156 0.453133 9.9894 0.419877C9.26174 0.386763 9.03009 0.378662 7.17685 0.378662H7.17899ZM6.95134 1.60786H6.95156L7.17892 1.60792C9.00032 1.60792 9.2162 1.61446 9.93546 1.64715C10.6006 1.67756 10.9616 1.7887 11.202 1.88207C11.5204 2.00572 11.7473 2.15352 11.986 2.39228C12.2247 2.63104 12.3725 2.85843 12.4965 3.17678C12.5898 3.41696 12.7011 3.77794 12.7314 4.44306C12.7641 5.16218 12.7712 5.37821 12.7712 7.19875C12.7712 9.0193 12.7641 9.23532 12.7314 9.95445C12.701 10.6196 12.5898 10.9805 12.4965 11.2207C12.3728 11.5391 12.2247 11.7658 11.986 12.0044C11.7472 12.2431 11.5205 12.3909 11.202 12.5146C10.9619 12.6084 10.6006 12.7192 9.93546 12.7497C9.21634 12.7823 9.00032 12.7894 7.17892 12.7894C5.35738 12.7894 5.1415 12.7823 4.42237 12.7497C3.75726 12.719 3.39627 12.6078 3.15566 12.5144C2.83732 12.3908 2.60993 12.243 2.37117 12.0042C2.13241 11.7655 1.9846 11.5387 1.86067 11.2202C1.7673 10.98 1.65602 10.619 1.62575 9.95388C1.59306 9.23476 1.58653 9.01873 1.58653 7.19705C1.58653 5.37536 1.59306 5.16048 1.62575 4.44136C1.65616 3.77624 1.7673 3.41525 1.86067 3.17479C1.98432 2.85644 2.13241 2.62905 2.37117 2.39029C2.60993 2.15153 2.83732 2.00373 3.15566 1.8798C3.39613 1.786 3.75726 1.67515 4.42237 1.64459C5.05168 1.61617 5.29555 1.60764 6.56695 1.60622V1.60792C6.68571 1.60774 6.81346 1.60779 6.95132 1.60786H6.95133H6.95134ZM10.0018 3.55899C10.0018 3.10691 10.3685 2.74067 10.8204 2.74067V2.74038C11.2724 2.74038 11.639 3.10705 11.639 3.55899C11.639 4.01093 11.2724 4.3776 10.8204 4.3776C10.3685 4.3776 10.0018 4.01093 10.0018 3.55899ZM7.17883 3.69709C5.24422 3.69717 3.67573 5.26571 3.67573 7.20033C3.67573 9.135 5.2443 10.7029 7.17897 10.7029C9.11364 10.7029 10.6816 9.135 10.6816 7.20033C10.6816 5.26566 9.1135 3.69709 7.17883 3.69709ZM9.45283 7.20028C9.45283 5.94437 8.43469 4.92637 7.17892 4.92637C5.92301 4.92637 4.90501 5.94437 4.90501 7.20028C4.90501 8.45605 5.92301 9.47419 7.17892 9.47419C8.43469 9.47419 9.45283 8.45605 9.45283 7.20028Z" fill="white"/>
</svg>
