<svg width="69" height="69" viewBox="0 0 69 69" fill="none" xmlns="http://www.w3.org/2000/svg">
<rect x="1" y="1" width="66" height="66" rx="6" fill="white"/>
<path d="M42.3717 22.1784L39.4373 28.4011L53.0314 57.2339H58.98L42.3717 22.1784ZM39.2665 28.4011L42.2852 21.9955L37.1838 11.2226L20.5976 46.3882H47.7459L39.2665 28.4011ZM29.7291 41.0139L34.4889 30.8778L39.1911 41.0139H29.7291ZM47.8213 46.5513H20.5266L15.4895 57.2339H22.1879L24.9626 51.2139H43.9464L46.7921 57.2339H52.8539L47.8213 46.5513ZM31.6454 11.1565L10 57.2339H15.3099L37.0329 11.1565H31.6454Z" fill="#141C5B"/>
<path d="M20.5155 46.7055C20.6392 46.7055 20.7395 46.6058 20.7395 46.4829C20.7395 46.36 20.6392 46.2604 20.5155 46.2604C20.3918 46.2604 20.2915 46.36 20.2915 46.4829C20.2915 46.6058 20.3918 46.7055 20.5155 46.7055Z" fill="#141C5B" stroke="#141C5B" stroke-width="0.5" stroke-miterlimit="10"/>
<path d="M47.8612 46.6857C47.9849 46.6857 48.0852 46.5861 48.0852 46.4632C48.0852 46.3402 47.9849 46.2406 47.8612 46.2406C47.7375 46.2406 47.6372 46.3402 47.6372 46.4632C47.6372 46.5861 47.7375 46.6857 47.8612 46.6857Z" fill="#141C5B" stroke="#141C5B" stroke-width="0.5" stroke-miterlimit="10"/>
<path d="M39.3773 28.6325C39.5011 28.6325 39.6014 28.5328 39.6014 28.4099C39.6014 28.287 39.5011 28.1874 39.3773 28.1874C39.2536 28.1874 39.1533 28.287 39.1533 28.4099C39.1533 28.5328 39.2536 28.6325 39.3773 28.6325Z" fill="#141C5B" stroke="#141C5B" stroke-width="0.5" stroke-miterlimit="10"/>
<path d="M42.3185 22.3216C42.4422 22.3216 42.5425 22.2219 42.5425 22.099C42.5425 21.9761 42.4422 21.8765 42.3185 21.8765C42.1948 21.8765 42.0945 21.9761 42.0945 22.099C42.0945 22.2219 42.1948 22.3216 42.3185 22.3216Z" fill="#141C5B" stroke="#141C5B" stroke-width="0.5" stroke-miterlimit="10"/>
<path d="M37.1061 11.4451C37.2298 11.4451 37.3301 11.3455 37.3301 11.2226C37.3301 11.0996 37.2298 11 37.1061 11C36.9824 11 36.8821 11.0996 36.8821 11.2226C36.8821 11.3455 36.9824 11.4451 37.1061 11.4451Z" fill="#141C5B" stroke="#141C5B" stroke-width="0.5" stroke-miterlimit="10"/>
<path d="M52.9315 57.4475C53.0553 57.4475 53.1556 57.3479 53.1556 57.225C53.1556 57.1021 53.0553 57.0024 52.9315 57.0024C52.8078 57.0024 52.7075 57.1021 52.7075 57.225C52.7075 57.3479 52.8078 57.4475 52.9315 57.4475Z" fill="#141C5B" stroke="#141C5B" stroke-width="0.5" stroke-miterlimit="10"/>
<path d="M15.4096 57.4168C15.5333 57.4168 15.6336 57.3171 15.6336 57.1942C15.6336 57.0713 15.5333 56.9717 15.4096 56.9717C15.2858 56.9717 15.1855 57.0713 15.1855 57.1942C15.1855 57.3171 15.2858 57.4168 15.4096 57.4168Z" fill="#141C5B" stroke="#141C5B" stroke-width="0.5" stroke-miterlimit="10"/>
</svg>
