<svg width="42" height="42" viewBox="0 0 42 42" fill="none" xmlns="http://www.w3.org/2000/svg">
<g clip-path="url(#clip0_321_2086)">
<path d="M0.000238479 36.5047C0.0681766 36.2274 0.126253 35.948 0.20734 35.6752C0.460465 34.8336 0.937127 34.1411 1.53652 33.4946C4.2661 30.5743 7.45371 28.1855 10.5537 25.6992C11.3854 25.0341 12.2258 24.3843 13.0827 23.7049C13.0225 23.5877 12.9731 23.4792 12.9151 23.3762C8.16378 15.1064 11.8423 4.58801 20.7104 1.09029C29.8799 -2.52577 40.0969 3.22158 41.7614 12.9411C42.3991 16.6667 41.7493 20.1732 39.8701 23.4441C39.343 24.3646 38.3119 24.6363 37.4933 24.0939C36.7405 23.5942 36.5389 22.6628 37.0287 21.8169C37.7527 20.5595 38.2588 19.1887 38.5256 17.7625C39.7309 11.4629 35.5198 5.02851 29.2553 3.61496C22.4823 2.08745 15.9964 6.15387 14.4042 12.9203C12.8088 19.7229 17.5666 26.7051 24.4854 27.7363C26.9181 28.1122 29.4078 27.7627 31.643 26.7314C32.6851 26.2614 33.7359 26.7621 33.9956 27.8185C34.0827 28.174 34.0452 28.5486 33.8895 28.8798C33.7338 29.211 33.4691 29.4788 33.1398 29.6385C31.5416 30.4216 29.8158 30.9112 28.0445 31.0839C24.687 31.4481 21.3026 30.7021 18.4093 28.9603C18.3606 28.9364 18.3104 28.9155 18.2592 28.8978L17.914 29.3284C15.7115 32.081 13.544 34.8632 11.29 37.5741C10.3323 38.7258 9.20805 39.7449 8.132 40.7902C7.47453 41.4225 6.65708 41.7633 5.76183 41.9222C5.67032 41.9434 5.57998 41.9694 5.49118 42H4.34719C4.27246 41.9707 4.19597 41.9462 4.11817 41.9266C2.24001 41.5683 0.956852 40.5021 0.282949 38.7083C0.155839 38.3686 0.0911879 38.0048 -0.00195312 37.653L0.000238479 36.5047ZM15.1011 26.2899C13.521 27.5423 11.9913 28.7564 10.4594 29.9684C8.13309 31.8093 5.84073 33.6885 3.81025 35.8636C3.12978 36.5945 3.10238 37.5906 3.77081 38.2481C4.43923 38.9055 5.42543 38.8858 6.12125 38.1933C7.05156 37.2684 8.03228 36.3819 8.86069 35.3727C11.1344 32.6092 13.3424 29.7898 15.5745 26.9922C15.5946 26.9657 15.6101 26.9361 15.6205 26.9046L15.1011 26.2899Z" fill="black"/>
<path d="M26.6916 6.567C30.3395 6.84971 33.0362 8.55693 34.6338 11.8903C35.0666 12.7932 34.7204 13.7531 33.8668 14.141C33.0132 14.5289 32.0993 14.1826 31.6752 13.2885C30.8358 11.5177 29.4837 10.3956 27.5649 9.97157C27.2039 9.89943 26.8372 9.85946 26.4692 9.85213C25.4687 9.81159 24.7565 9.11796 24.7707 8.17779C24.785 7.23761 25.5257 6.56371 26.524 6.567H26.6916Z" fill="black"/>
</g>
<defs>
<clipPath id="clip0_321_2086">
<rect width="41.9967" height="42" fill="white"/>
</clipPath>
</defs>
</svg>
