<svg width="15" height="14" viewBox="0 0 15 14" fill="none" xmlns="http://www.w3.org/2000/svg">
<path fill-rule="evenodd" clip-rule="evenodd" d="M0.80249 6.99201C0.80249 3.3454 3.7776 0.378662 7.43456 0.378662C11.0915 0.378662 14.0667 3.3454 14.0667 6.99201C14.0667 7.50861 14.0236 7.92681 13.927 8.34659L13.9255 8.35355C13.9253 8.35479 13.8774 8.54829 13.8509 8.63272C13.687 9.15546 13.3902 9.59086 12.9926 9.8918C12.6071 10.1837 12.129 10.3445 11.6466 10.3445C11.587 10.3445 11.5269 10.3421 11.4682 10.3374C10.783 10.2825 10.1806 9.92301 9.81126 9.34974C9.17593 9.98676 8.33301 10.3372 7.43456 10.3372C5.58482 10.3372 4.07993 8.83658 4.07993 6.99201C4.07993 5.14748 5.58482 3.64687 7.43456 3.64687C9.2843 3.64687 10.7892 5.14748 10.7892 6.99201V8.07036C10.792 8.69954 11.2154 8.95675 11.5771 8.98585C11.937 9.01353 12.416 8.8045 12.5828 8.12221C12.6651 7.74803 12.7069 7.36768 12.7069 6.99201C12.7069 4.09301 10.3418 1.73453 7.43456 1.73453C4.52737 1.73453 2.16223 4.09301 2.16223 6.99201C2.16223 9.89101 4.52737 12.2495 7.43456 12.2495C8.44654 12.2495 9.43074 11.9613 10.2808 11.416L10.296 11.4063L11.1895 12.4421L11.1703 12.4552C10.0662 13.2077 8.77434 13.6054 7.43456 13.6054C3.7776 13.6054 0.80249 10.6387 0.80249 6.99201ZM7.43459 8.98116C8.53457 8.98116 9.42949 8.08876 9.42949 6.99185C9.42949 5.89497 8.53457 5.00261 7.43459 5.00261C6.33458 5.00261 5.4397 5.89497 5.4397 6.99185C5.4397 8.08876 6.33458 8.98116 7.43459 8.98116Z" fill="white"/>
</svg>
