<svg width="477" height="324" viewBox="0 0 477 324" fill="none" xmlns="http://www.w3.org/2000/svg">
<g clip-path="url(#clip0_74_3082)">
<path fill-rule="evenodd" clip-rule="evenodd" d="M409.772 103.192C410.885 104.025 411.883 105.003 412.74 106.099L416.52 105.402L419.035 111.282L415.917 113.541C416.118 114.916 416.135 116.311 415.967 117.691L419.127 119.883L416.755 125.805L412.958 125.192C412.129 126.307 411.153 127.304 410.057 128.157L410.745 131.954L404.877 134.474L402.656 131.324C401.265 131.517 399.855 131.517 398.464 131.324L396.276 134.499L390.409 132.122L391.021 128.317C389.906 127.486 388.907 126.508 388.053 125.41L384.273 126.099L381.758 120.219L384.868 117.959C384.684 116.566 384.684 115.153 384.868 113.76L381.699 111.668L384.071 105.788L387.869 106.393C388.7 105.28 389.675 104.283 390.769 103.428L390.082 99.5973L395.95 97.0774L398.204 100.194C399.593 99.9911 401.003 99.9769 402.396 100.152L404.575 96.985L410.485 99.3622L409.873 103.167L409.772 103.192ZM403.192 109.534C401.94 109.031 400.567 108.91 399.246 109.188C397.925 109.467 396.717 110.131 395.773 111.097C394.829 112.064 394.193 113.289 393.944 114.618C393.695 115.947 393.845 117.32 394.374 118.564C394.904 119.807 395.79 120.866 396.92 121.605C398.05 122.344 399.373 122.731 400.722 122.717C402.072 122.702 403.386 122.288 404.5 121.524C405.614 120.761 406.478 119.684 406.981 118.43C407.315 117.597 407.482 116.705 407.473 115.807C407.463 114.909 407.277 114.022 406.926 113.196C406.574 112.369 406.063 111.621 405.422 110.993C404.782 110.365 404.024 109.869 403.192 109.534Z" fill="#EBEBEB"/>
<path fill-rule="evenodd" clip-rule="evenodd" d="M58.8204 128.753C60.8301 130.261 62.6313 132.029 64.1769 134.012L71.017 132.76L75.5352 143.361L69.8686 147.477C70.2293 149.965 70.2546 152.491 69.944 154.986L75.6609 158.942L71.3774 169.644L64.5457 168.476C63.0457 170.494 61.2806 172.3 59.2982 173.844L60.5472 180.698L49.9684 185.276L45.8945 179.631C43.4112 179.991 40.8913 180.02 38.4005 179.715L34.444 185.436L23.7646 181.127L24.8627 174.247C22.853 172.739 21.0518 170.971 19.5063 168.989L12.6745 170.24L8.15633 159.64L13.7894 155.557C13.4301 153.069 13.402 150.544 13.7056 148.048L7.99707 144.117L12.2889 133.424L19.1458 134.532C20.6525 132.518 22.4168 130.71 24.3933 129.157L23.1443 122.277L33.7231 117.749L37.8054 123.394C40.2887 123.034 42.8087 123.006 45.2994 123.31L49.2475 117.581L59.9269 121.882L58.8204 128.753ZM46.934 140.228C44.6694 139.315 42.1856 139.096 39.7969 139.599C37.4081 140.101 35.2218 141.302 33.5142 143.05C31.8067 144.797 30.6548 147.013 30.2042 149.417C29.7536 151.821 30.0245 154.304 30.9827 156.554C31.9409 158.803 33.5434 160.717 35.5873 162.054C37.6313 163.391 40.025 164.09 42.4656 164.064C44.9062 164.037 47.2842 163.286 49.2986 161.905C51.313 160.523 52.8734 158.575 53.7825 156.305C54.9985 153.263 54.9604 149.861 53.6764 146.847C52.3925 143.833 49.9676 141.452 46.934 140.228Z" fill="#EBEBEB"/>
<path fill-rule="evenodd" clip-rule="evenodd" d="M30.7558 75.0949C31.8664 75.928 32.8614 76.9053 33.7149 78.0012L37.4954 77.3125L40.0102 83.1924L36.9002 85.4519C37.0886 86.8456 37.0886 88.2583 36.9002 89.6519L40.0604 91.8442L37.6882 97.7242L33.8993 97.111C33.0651 98.2266 32.087 99.2265 30.9905 100.085L31.6863 103.873L25.8185 106.393L23.5636 103.276C22.1892 103.457 20.7971 103.457 19.4226 103.276L17.2348 106.443L11.367 104.066L11.9789 100.261C10.8665 99.43 9.87116 98.4524 9.01991 97.3546L5.23099 98.0433L2.71623 92.1634L5.83454 89.9039C5.63186 88.5263 5.61776 87.1274 5.79262 85.7459L2.62402 83.562L4.99628 77.64L8.79357 78.2532C9.62482 77.1378 10.6001 76.1379 11.6939 75.2797L11.0066 71.4913L16.8743 68.9714L19.1292 72.0961C20.5177 71.8907 21.9275 71.8737 23.3205 72.0457L25.5084 68.879L31.3761 71.2561L30.7726 75.0613L30.7558 75.0949ZM24.1755 81.4368C22.9227 80.9313 21.5484 80.8093 20.2264 81.0862C18.9044 81.3631 17.6939 82.0264 16.7479 82.9923C15.802 83.9583 15.1629 85.1835 14.9116 86.5133C14.6603 87.843 14.8079 89.2176 15.3358 90.4633C15.8637 91.709 16.7482 92.7699 17.8777 93.5121C19.0071 94.2542 20.3306 94.6443 21.6812 94.633C23.0317 94.6217 24.3486 94.2095 25.4655 93.4485C26.5823 92.6875 27.449 91.6118 27.9561 90.3575C28.2933 89.5231 28.4631 88.6302 28.4555 87.73C28.448 86.8298 28.2634 85.94 27.9123 85.1114C27.5611 84.2828 27.0503 83.5317 26.4091 82.9012C25.7679 82.2706 25.0089 81.773 24.1755 81.4368Z" fill="#F0F0F0"/>
<path fill-rule="evenodd" clip-rule="evenodd" d="M107.749 28.442C110.997 29.638 114.07 31.2653 116.886 33.2803L125.436 28.9292L135.562 41.1594L129.695 48.7781C131.146 51.9266 132.175 55.2539 132.754 58.6731L141.858 61.6551L140.391 77.4805L130.885 78.7236C129.691 81.9809 128.068 85.0631 126.057 87.8879L130.399 96.4558L118.185 106.603L110.591 100.723C107.456 102.182 104.141 103.216 100.733 103.797L97.7572 112.928L81.9645 111.45L80.7658 101.941C77.5179 100.745 74.4448 99.1176 71.6288 97.1026L63.0786 101.445L52.9525 89.2151L58.8203 81.5964C57.3688 78.4479 56.34 75.1206 55.7607 71.7013L46.6572 68.7194L48.0739 52.894L57.5797 51.6508C58.7691 48.3924 60.3873 45.3076 62.3913 42.4782L58.0491 33.9187L70.2625 23.7717L77.857 29.6516C80.999 28.1894 84.3232 27.1581 87.7401 26.5856L90.7159 17.455L106.509 18.9585L107.749 28.484V28.442ZM96.5333 48.2825C93.1821 47.9697 89.8135 48.6597 86.8537 50.2654C83.8938 51.8711 81.4757 54.3202 79.905 57.3032C78.3343 60.2861 77.6816 63.6688 78.0295 67.0234C78.3775 70.3781 79.7103 73.554 81.8596 76.1495C84.0089 78.745 86.878 80.6436 90.1041 81.605C93.3302 82.5664 96.7684 82.5476 99.9838 81.5508C103.199 80.5541 106.047 78.6242 108.168 76.0053C110.289 73.3864 111.587 70.1961 111.899 66.8378C112.106 64.6083 111.874 62.3597 111.214 60.2203C110.554 58.081 109.48 56.0929 108.053 54.3697C106.626 52.6465 104.874 51.222 102.898 50.1775C100.921 49.133 98.7584 48.4891 96.5333 48.2825Z" fill="#ECECEC"/>
<path d="M41.4601 290.275C51.9215 283.412 54.5788 270.266 54.4614 258.355C54.4614 256.373 54.7213 254.289 53.8076 252.525C52.8939 250.762 50.706 249.527 48.887 250.316C47.3866 250.972 46.6992 252.668 45.8274 254.063C44.6651 255.929 43 257.429 41.0242 258.389C39.7333 259.01 38.149 259.371 36.9084 258.657C35.2319 257.675 35.0558 255.297 35.1145 253.34C35.2319 249.667 35.3436 245.996 35.4498 242.328C35.6216 240.356 35.4687 238.37 34.9972 236.448C34.7472 235.497 34.2736 234.619 33.6159 233.888C32.9582 233.157 32.1355 232.595 31.2166 232.248C29.3306 231.677 26.9667 232.702 26.514 234.617C26.4202 235.431 26.381 236.25 26.3967 237.07C26.3983 237.481 26.2781 237.883 26.0513 238.225C25.8244 238.568 25.5012 238.835 25.1225 238.993C24.7105 239.031 24.2956 238.963 23.9172 238.796C23.5387 238.628 23.2092 238.367 22.9598 238.036C21.0513 235.897 19.5052 233.46 18.383 230.82C17.2624 228.185 15.8329 225.692 14.1246 223.395C12.314 221.177 9.7741 219.396 6.92403 219.195C4.07397 218.993 0.997577 220.64 0.218001 223.395C-0.561575 226.15 0.997577 229.014 2.73276 231.299C5.30076 234.705 8.34726 237.721 11.7775 240.253C12.4454 240.639 12.9737 241.227 13.2864 241.933C13.6804 243.26 12.3894 244.529 11.0734 244.932C9.57291 245.386 7.96347 245.192 6.4127 245.335C4.86193 245.478 3.15189 246.116 2.53158 247.553C1.69332 249.552 3.31954 251.702 4.95413 253.122C8.25121 255.979 12.0101 258.251 16.0694 259.842C17.5662 260.29 18.9693 261.008 20.2104 261.959C21.3671 263 22.0378 264.789 21.2917 266.158C20.5457 267.528 18.7015 267.931 17.1675 267.612C15.6883 267.17 14.2497 266.603 12.8673 265.915C10.1513 264.831 6.61387 264.932 4.80325 267.234C4.24414 268.02 3.87701 268.926 3.73142 269.88C3.58582 270.835 3.66583 271.81 3.96499 272.727C4.59109 274.552 5.57748 276.232 6.86535 277.666C11.0924 282.939 16.6365 286.996 22.9347 289.426C29.23 291.761 35.1061 292.492 41.4685 290.359" fill="#141C5B"/>
<path d="M3.15234 220.799L3.34514 220.992L3.92354 221.522C4.43487 221.992 5.18091 222.681 6.12814 223.596C8.80123 226.177 11.2782 228.954 13.5383 231.904C14.9717 233.76 16.4638 235.869 18.023 238.153C19.5821 240.438 21.2167 242.908 22.8513 245.554C24.5753 248.309 26.1452 251.158 27.5539 254.088C28.2916 255.608 28.937 257.204 29.5909 258.825C30.2447 260.447 30.9153 262.093 31.5859 263.764C34.1558 270.006 36.3696 276.389 38.2165 282.883C39.7027 288.193 40.6823 293.632 41.142 299.128C41.4426 302.833 41.4145 306.558 41.0582 310.258C40.9241 311.56 40.7983 312.576 40.6894 313.265C40.6391 313.593 40.6055 313.853 40.572 314.046C40.5664 314.136 40.5664 314.225 40.572 314.315C40.6002 314.23 40.6226 314.143 40.6391 314.055C40.6391 313.861 40.7229 313.601 40.7816 313.273C40.9157 312.593 41.0666 311.593 41.2258 310.275C41.6367 306.568 41.7041 302.831 41.427 299.111C41.0059 293.593 40.0486 288.13 38.5686 282.799C36.7346 276.284 34.5263 269.881 31.9547 263.622C31.273 261.942 30.608 260.298 29.9597 258.691C29.2975 257.07 28.6436 255.465 27.906 253.928C26.4834 250.989 24.8995 248.132 23.1615 245.369C21.485 242.723 19.8587 240.27 18.2996 237.985C16.7404 235.701 15.2232 233.601 13.7646 231.744C11.4709 228.8 8.94825 226.041 6.22035 223.495C5.25636 222.597 4.48517 221.916 3.95707 221.471L3.36191 220.959C3.22779 220.85 3.16073 220.791 3.15234 220.799Z" fill="#353E42"/>
<path d="M27.7796 253.911C27.8792 253.64 27.9494 253.358 27.9891 253.071C28.1065 252.525 28.2574 251.744 28.4166 250.761C28.7436 248.804 29.1124 246.091 29.498 243.101C29.8836 240.11 30.286 237.406 30.6464 235.457C30.8224 234.491 30.9733 233.701 31.0823 233.155C31.158 232.881 31.203 232.599 31.2164 232.315C31.0895 232.583 30.9965 232.865 30.9398 233.155C30.7889 233.685 30.5961 234.466 30.3865 235.432C29.9674 237.372 29.5483 240.077 29.1375 243.076C28.7268 246.074 28.4166 248.704 28.1652 250.753C28.0394 251.669 27.9305 252.433 27.855 253.071C27.7975 253.348 27.7722 253.629 27.7796 253.911Z" fill="#353E42"/>
<path d="M2.28809 248.569C2.62098 248.648 2.96056 248.696 3.30237 248.712C3.95621 248.788 4.91182 248.888 6.077 249.056C8.41573 249.359 11.6346 249.896 15.1553 250.636C18.676 251.375 21.8613 252.206 24.0994 252.853C25.2395 253.172 26.1532 253.458 26.7819 253.651C27.1046 253.772 27.4389 253.859 27.7794 253.911C27.4733 253.758 27.1567 253.626 26.8322 253.517C26.2119 253.281 25.3065 252.962 24.1749 252.61C21.92 251.887 18.7598 251.03 15.2307 250.283C12.2176 249.634 9.17364 249.137 6.11053 248.796C4.92859 248.662 3.97298 248.603 3.31914 248.578C2.97661 248.54 2.63118 248.537 2.28809 248.569Z" fill="#353E42"/>
<path d="M38.2412 282.32C38.3156 282.228 38.3776 282.126 38.4256 282.017L38.8867 281.11C39.2806 280.321 39.8255 279.17 40.4793 277.75C41.787 274.878 43.4635 270.854 45.249 266.394C47.0345 261.933 48.6859 257.893 49.9265 255.003L51.4102 251.576L51.8125 250.644C51.8964 250.426 51.9383 250.308 51.9215 250.308C51.8525 250.402 51.7935 250.504 51.7455 250.61L51.2844 251.517C50.8821 252.307 50.3456 253.458 49.6918 254.877C48.3841 257.75 46.7076 261.774 44.9137 266.234C43.1198 270.694 41.4852 274.735 40.2362 277.624C39.6327 279.035 39.1298 280.195 38.7525 281.051L38.3586 281.984C38.3051 282.09 38.2657 282.203 38.2412 282.32Z" fill="#353E42"/>
<path d="M4.48438 270.661C4.48438 270.661 4.59335 270.728 4.81129 270.812L5.79205 271.156L9.41331 272.416C12.4646 273.475 16.6642 274.987 21.2997 276.667C25.9353 278.347 30.1517 279.817 33.2281 280.816C34.7705 281.32 36.0111 281.707 36.8829 281.959L37.8804 282.244C38.1151 282.311 38.2409 282.337 38.2409 282.32C38.1343 282.261 38.0219 282.213 37.9056 282.177L36.9248 281.824L33.3119 280.573C30.2607 279.514 26.061 278.002 21.4255 276.322C16.7899 274.642 12.5651 273.164 9.49714 272.164C7.95475 271.669 6.70575 271.274 5.84235 271.022L4.83644 270.736C4.72188 270.7 4.60395 270.674 4.48438 270.661Z" fill="#353E42"/>
<path d="M381.632 201.639L331.06 201.404C329.613 201.401 328.18 201.111 326.845 200.551C325.51 199.992 324.298 199.173 323.279 198.143C322.26 197.113 321.455 195.891 320.908 194.548C320.362 193.204 320.086 191.766 320.096 190.316L320.632 63.6207C320.64 62.1727 320.932 60.7405 321.493 59.4058C322.053 58.0711 322.87 56.8601 323.898 55.8421C324.926 54.8241 326.143 54.019 327.482 53.4728C328.82 52.9266 330.252 52.65 331.697 52.6588L382.269 52.8856C385.186 52.8967 387.98 54.0668 390.037 56.1392C392.094 58.2115 393.246 61.0169 393.242 63.9399L392.706 190.644C392.701 192.095 392.411 193.531 391.852 194.869C391.292 196.208 390.475 197.423 389.446 198.444C388.418 199.466 387.198 200.274 385.857 200.822C384.516 201.37 383.08 201.648 381.632 201.639Z" fill="#5E6965"/>
<path d="M382.202 57.2956H372.394C372.075 57.3 371.761 57.3674 371.468 57.494C371.175 57.6205 370.91 57.8038 370.688 58.0333C370.466 58.2627 370.292 58.5338 370.174 58.831C370.057 59.1282 370 59.4457 370.005 59.7652V61.5459C370.012 62.1907 369.765 62.8123 369.318 63.276C368.871 63.7398 368.26 64.0085 367.616 64.0239L348.496 63.9315C348.175 63.9239 347.858 63.8525 347.565 63.7213C347.272 63.5901 347.007 63.4018 346.787 63.1673C346.567 62.9328 346.396 62.6568 346.284 62.3554C346.171 62.054 346.12 61.7331 346.132 61.4115V59.614C346.143 59.2926 346.091 58.9723 345.978 58.6714C345.865 58.3705 345.693 58.0949 345.474 57.8606C345.254 57.6264 344.99 57.438 344.697 57.3065C344.405 57.1749 344.089 57.1027 343.768 57.094H340.314H331.731C330.719 57.0885 329.716 57.2827 328.779 57.6655C327.843 58.0483 326.99 58.6123 326.271 59.3252C325.552 60.0382 324.98 60.8861 324.588 61.8205C324.195 62.755 323.991 63.7577 323.985 64.7715L323.457 188.443C323.453 190.491 324.26 192.457 325.701 193.909C327.142 195.361 329.1 196.181 331.144 196.188L381.615 196.423C383.658 196.432 385.622 195.629 387.075 194.19C388.529 192.75 389.353 190.793 389.369 188.745L389.889 65.0739C389.896 64.0566 389.703 63.0478 389.321 62.1056C388.938 61.1633 388.373 60.3061 387.659 59.5833C386.945 58.8604 386.095 58.2862 385.158 57.8936C384.222 57.501 383.217 57.2978 382.202 57.2956Z" fill="white"/>
<path d="M381.372 141.445H331.429V144.797H381.372V141.445Z" fill="#5E6965"/>
<path d="M379.595 154.625C379.595 154.743 368.932 154.843 355.788 154.843C342.645 154.843 331.974 154.743 331.974 154.625C331.974 154.507 342.636 154.407 355.788 154.407C368.941 154.407 379.595 154.507 379.595 154.625Z" fill="#5E6965"/>
<path d="M379.595 75.2377C379.595 75.3637 368.932 75.4561 355.788 75.4561C342.645 75.4561 331.974 75.3637 331.974 75.2377C331.974 75.1117 342.636 75.0193 355.788 75.0193C368.941 75.0193 379.595 75.0949 379.595 75.2377Z" fill="#5E6965"/>
<path d="M379.595 160.723C379.595 160.841 368.932 160.942 355.788 160.942C342.645 160.942 331.974 160.841 331.974 160.723C331.974 160.606 342.636 160.505 355.788 160.505C368.941 160.505 379.595 160.597 379.595 160.723Z" fill="#5E6965"/>
<path d="M379.595 166.796C379.595 166.914 368.932 167.015 355.788 167.015C342.645 167.015 331.974 166.914 331.974 166.796C331.974 166.679 342.636 166.578 355.788 166.578C368.941 166.578 379.595 166.696 379.595 166.796Z" fill="#5E6965"/>
<path d="M379.595 172.911C379.595 173.029 368.932 173.13 355.788 173.13C342.645 173.13 331.974 173.029 331.974 172.911C331.974 172.794 342.636 172.693 355.788 172.693C368.941 172.693 379.595 172.785 379.595 172.911Z" fill="#5E6965"/>
<path d="M379.595 179.001C379.595 179.127 368.932 179.22 355.788 179.22C342.645 179.22 331.974 179.127 331.974 179.001C331.974 178.875 342.636 178.783 355.788 178.783C368.941 178.783 379.595 178.884 379.595 179.001Z" fill="#5E6965"/>
<path d="M380.275 185.914C380.275 186.032 369.612 186.133 356.468 186.133C343.324 186.133 332.653 186.032 332.653 185.914C332.653 185.797 343.316 185.696 356.468 185.696C369.62 185.696 380.275 185.788 380.275 185.914Z" fill="#5E6965"/>
<path d="M382.043 82.1676H331.974V130.71H382.043V82.1676Z" fill="#ECECEC"/>
<path d="M335.863 126.553L349.711 101.571L361.036 117.539L367.926 109.064L378.162 126.553H335.863Z" fill="#141C5B"/>
<path d="M365.864 96.7162C365.864 97.4306 365.653 98.1289 365.257 98.7229C364.861 99.3169 364.298 99.7798 363.639 100.053C362.98 100.327 362.256 100.398 361.557 100.259C360.857 100.119 360.215 99.7754 359.711 99.2702C359.207 98.7651 358.864 98.1215 358.725 97.4209C358.585 96.7202 358.657 95.994 358.93 95.334C359.202 94.674 359.664 94.1098 360.257 93.713C360.85 93.3161 361.547 93.1042 362.26 93.1042C363.215 93.1065 364.131 93.4877 364.806 94.1646C365.482 94.8415 365.862 95.7589 365.864 96.7162Z" fill="#141C5B"/>
<path d="M378.162 126.687C378.162 126.687 378.162 126.62 378.162 126.485C378.162 126.351 378.162 126.158 378.162 125.923C378.162 125.402 378.162 124.679 378.162 123.739C378.162 121.815 378.162 119.026 378.103 115.49C378.103 108.4 378.044 98.3038 378.003 86.1828L378.204 86.3844H335.905C335.847 86.4348 336.35 85.9308 336.14 86.1492V97.069C336.14 100.639 336.14 104.133 336.14 107.527C336.14 114.331 336.14 120.757 336.14 126.67L335.931 126.46L366.518 126.569L375.152 126.62H377.441H378.028H378.237H378.053H377.483H375.236L366.653 126.67L335.931 126.779H335.721V126.569C335.721 120.689 335.721 114.23 335.721 107.426C335.721 104.066 335.721 100.538 335.721 96.9682V86.0484C335.503 86.2584 336.006 85.746 335.964 85.8048H378.262H378.346V86.1576C378.296 98.3374 378.262 108.476 378.237 115.599C378.237 119.11 378.237 121.882 378.187 123.797C378.187 124.721 378.187 125.435 378.187 125.939C378.187 126.166 378.187 126.343 378.187 126.485C378.188 126.553 378.18 126.621 378.162 126.687Z" fill="#5E6965"/>
<path d="M118.856 9.70185L118.856 121.605C118.856 126.963 123.191 131.307 128.538 131.307H297.229C302.576 131.307 306.91 126.963 306.91 121.605V9.70185C306.91 4.34366 302.576 0 297.229 0H128.538C123.191 0 118.856 4.34366 118.856 9.70185Z" fill="#5E6965"/>
<path d="M131.724 4.14114V127.166L288.771 127.166V4.14114L131.724 4.14114Z" fill="white"/>
<path d="M297.455 60.6135C298.45 60.6135 299.422 60.9091 300.25 61.4628C301.077 62.0166 301.721 62.8038 302.102 63.7247C302.483 64.6456 302.582 65.659 302.388 66.6366C302.194 67.6143 301.715 68.5123 301.012 69.2172C300.308 69.922 299.412 70.402 298.437 70.5965C297.461 70.791 296.45 70.6911 295.531 70.3097C294.612 69.9282 293.826 69.2822 293.273 68.4534C292.721 67.6246 292.426 66.6502 292.426 65.6534C292.426 64.3167 292.956 63.0348 293.899 62.0896C294.842 61.1445 296.121 60.6135 297.455 60.6135Z" fill="#353E42"/>
<path d="M124.271 46.9049V84.4019C124.271 84.9679 124.729 85.4267 125.294 85.4267H125.328C125.892 85.4267 126.35 84.9679 126.35 84.4019V46.9049C126.35 46.3389 125.892 45.8801 125.328 45.8801H125.294C124.729 45.8801 124.271 46.3389 124.271 46.9049Z" fill="#353E42"/>
<path d="M253.296 13.3894H203.353V16.741H253.296V13.3894Z" fill="#5E6965"/>
<path d="M188.239 70.9453H138.296V74.2969H188.239V70.9453Z" fill="#5E6965"/>
<path d="M265.458 25.8464C265.458 25.9724 251.56 26.0648 234.443 26.0648C217.326 26.0648 203.386 25.9724 203.386 25.8464C203.386 25.7204 217.284 25.628 234.443 25.628C251.602 25.628 265.458 25.7288 265.458 25.8464Z" fill="#5E6965"/>
<path d="M265.458 33.1627C265.458 33.2803 251.56 33.3811 234.443 33.3811C217.326 33.3811 203.386 33.2803 203.386 33.1627C203.386 33.0451 217.284 32.9443 234.443 32.9443C251.602 32.9443 265.458 33.0367 265.458 33.1627Z" fill="#5E6965"/>
<path d="M265.458 40.4706C265.458 40.5882 251.56 40.689 234.443 40.689C217.326 40.689 203.386 40.5882 203.386 40.4706C203.386 40.353 217.284 40.2522 234.443 40.2522C251.602 40.2522 265.458 40.353 265.458 40.4706Z" fill="#5E6965"/>
<path d="M265.458 47.7785C265.458 47.9045 251.56 47.9969 234.443 47.9969C217.326 47.9969 203.386 47.9045 203.386 47.7785C203.386 47.6525 217.284 47.5601 234.443 47.5601C251.602 47.5601 265.458 47.6609 265.458 47.7785Z" fill="#5E6965"/>
<path d="M265.458 55.078C265.458 55.1956 251.56 55.2964 234.443 55.2964C217.326 55.2964 203.386 55.1956 203.386 55.078C203.386 54.9604 217.284 54.8596 234.443 54.8596C251.602 54.8596 265.458 54.9688 265.458 55.078Z" fill="#5E6965"/>
<path d="M251.837 62.4027C251.837 62.5203 240.982 62.621 227.595 62.621C214.208 62.621 203.353 62.5203 203.353 62.4027C203.353 62.2851 214.2 62.1843 227.595 62.1843C240.99 62.1843 251.837 62.2851 251.837 62.4027Z" fill="#5E6965"/>
<path d="M220.319 84.1248C220.319 84.2424 202.079 84.3432 179.58 84.3432C157.081 84.3432 138.841 84.2424 138.841 84.1248C138.841 84.0072 157.081 83.9064 179.58 83.9064C202.079 83.9064 220.319 83.9988 220.319 84.1248Z" fill="#5E6965"/>
<path d="M220.319 90.2147C220.319 90.3407 202.079 90.4331 179.58 90.4331C157.081 90.4331 138.841 90.3407 138.841 90.2147C138.841 90.0887 157.081 89.9963 179.58 89.9963C202.079 89.9963 220.319 90.0971 220.319 90.2147Z" fill="#5E6965"/>
<path d="M220.319 96.3129C220.319 96.4305 202.079 96.5313 179.58 96.5313C157.081 96.5313 138.841 96.4305 138.841 96.3129C138.841 96.1953 157.081 96.0945 179.58 96.0945C202.079 96.0945 220.319 96.1869 220.319 96.3129Z" fill="#5E6965"/>
<path d="M220.319 102.403C220.319 102.529 202.079 102.621 179.58 102.621C157.081 102.621 138.841 102.529 138.841 102.403C138.841 102.277 157.081 102.184 179.58 102.184C202.079 102.184 220.319 102.285 220.319 102.403Z" fill="#5E6965"/>
<path d="M220.319 108.501C220.319 108.619 202.079 108.72 179.58 108.72C157.081 108.72 138.841 108.619 138.841 108.501C138.841 108.384 157.081 108.283 179.58 108.283C202.079 108.283 220.319 108.384 220.319 108.501Z" fill="#5E6965"/>
<path d="M188.91 11.6674H138.841V60.2103H188.91V11.6674Z" fill="#141C5B"/>
<path d="M142.722 56.0523L156.578 31.0711L167.903 47.0393L174.785 38.5638L185.028 56.0523H142.722Z" fill="#ECECEC"/>
<path d="M172.731 26.2076C172.733 26.9223 172.523 27.6215 172.128 28.2166C171.733 28.8117 171.171 29.2759 170.512 29.5506C169.854 29.8253 169.129 29.898 168.429 29.7596C167.729 29.6212 167.086 29.2778 166.581 28.773C166.076 28.2682 165.732 27.6246 165.592 26.9238C165.453 26.2229 165.523 25.4962 165.796 24.8357C166.069 24.1752 166.531 23.6106 167.124 23.2134C167.716 22.8161 168.414 22.6041 169.127 22.6041C170.081 22.6041 170.997 22.9835 171.673 23.659C172.348 24.3346 172.729 25.2511 172.731 26.2076Z" fill="#ECECEC"/>
<path d="M185.028 56.1868C185.028 56.1868 185.028 56.1112 185.028 55.9852C185.028 55.8592 185.028 55.6576 185.028 55.4224C185.028 54.9016 185.028 54.1708 185.028 53.2384C185.028 51.3064 185.028 48.5261 184.978 44.9897C184.978 37.9002 184.919 27.8036 184.878 15.6826L185.079 15.8842H142.78C142.722 15.9346 143.225 15.439 143.015 15.6574V21.1425C143.015 22.9569 143.015 24.7628 143.015 26.5436V37.0014C143.015 43.8053 143.015 50.2312 143.015 56.1448L142.806 55.9348L173.393 56.0356L182.019 56.0944H184.308H184.903H185.112H184.928H184.358H182.111L173.528 56.1532L142.806 56.254H142.596V56.044C142.596 50.1641 142.596 43.7045 142.596 36.9006C142.596 33.5015 142.596 30.0156 142.596 26.4428V15.523C142.378 15.733 142.881 15.2206 142.839 15.271H185.137H185.347V15.481C185.305 27.6524 185.272 37.7994 185.246 44.9225C185.246 48.4337 185.204 51.2056 185.196 53.1208C185.196 54.0364 185.196 54.8008 185.196 55.2628C185.196 55.4896 185.196 55.666 185.196 55.8088C185.19 55.9515 185.13 56.0867 185.028 56.1868Z" fill="#5E6965"/>
<path d="M266.993 77.3881H231.56V111.744H266.993V77.3881Z" fill="#141C5B"/>
<path d="M234.31 108.804L244.109 91.1218L252.131 102.42L257.001 96.4221L264.252 108.804H234.31Z" fill="#ECECEC"/>
<path d="M255.542 87.6779C255.542 88.1763 255.395 88.6635 255.118 89.0779C254.842 89.4923 254.449 89.8153 253.99 90.006C253.53 90.1967 253.025 90.2466 252.537 90.1494C252.049 90.0522 251.601 89.8122 251.249 89.4597C250.898 89.1073 250.658 88.6583 250.561 88.1695C250.464 87.6807 250.514 87.174 250.704 86.7135C250.894 86.2531 251.217 85.8595 251.63 85.5826C252.044 85.3057 252.53 85.1579 253.027 85.1579C253.694 85.1579 254.334 85.4234 254.806 85.896C255.277 86.3686 255.542 87.0095 255.542 87.6779Z" fill="#ECECEC"/>
<path d="M264.244 108.888C264.244 108.888 264.244 108.837 264.244 108.753C264.244 108.669 264.244 108.518 264.244 108.35C264.244 107.98 264.244 107.51 264.244 106.804C264.244 105.444 264.244 103.444 264.244 100.925C264.244 95.8846 264.202 88.7615 264.168 80.1852L264.311 80.328H234.377C234.335 80.328 234.695 80.0088 234.544 80.1684V87.8795C234.544 90.3995 234.544 92.8662 234.544 95.2798C234.544 100.093 234.544 104.637 234.544 108.82L234.402 108.678L255.962 108.837H262.064H263.69H264.252C264.252 108.837 264.21 108.837 264.126 108.837H263.724H262.131L256.054 108.879L234.318 108.955H234.167V108.804C234.167 104.604 234.167 100.076 234.167 95.263V80.2776C234.016 80.4204 234.377 80.0592 234.343 80.1012H264.277H264.428V80.244C264.428 88.8623 264.369 96.0358 264.353 101.076C264.353 103.596 264.352 105.528 264.311 106.88C264.311 107.535 264.311 108.039 264.311 108.4C264.311 108.56 264.311 108.686 264.311 108.787C264.311 108.888 264.252 108.896 264.244 108.888Z" fill="#5E6965"/>
<path d="M292.509 144.587H54.0679C47.3226 144.587 41.8545 150.066 41.8545 156.826V306.537C41.8545 313.296 47.3226 318.775 54.0679 318.775H292.509C299.254 318.775 304.723 313.296 304.723 306.537V156.826C304.723 150.066 299.254 144.587 292.509 144.587Z" fill="#353E42"/>
<path d="M30.8564 305.898H315.653V306.192C315.653 310.158 314.081 313.961 311.283 316.765C308.485 319.569 304.69 321.144 300.732 321.144H45.7774C41.8201 321.144 38.0249 319.569 35.2267 316.765C32.4285 313.961 30.8564 310.158 30.8564 306.192V305.898Z" fill="#353E42"/>
<path d="M296.927 151.509H48.9043V298.607H296.927V151.509Z" fill="#ECECEC"/>
<path d="M147.374 305.898L150.903 311.526H200.637L203.914 305.898H147.374Z" fill="#5E6965"/>
<path d="M285.526 161.303H57.1777V298.548H285.526V161.303Z" fill="#FAFAFA"/>
<path d="M66.9261 168.065C66.9278 168.445 66.8166 168.818 66.6067 169.136C66.3967 169.453 66.0975 169.701 65.7469 169.848C65.3963 169.995 65.0101 170.034 64.6372 169.961C64.2642 169.887 63.9214 169.705 63.6521 169.436C63.3828 169.168 63.1992 168.825 63.1244 168.451C63.0497 168.078 63.0872 167.691 63.2322 167.339C63.3773 166.987 63.6233 166.686 63.9392 166.474C64.255 166.263 64.6265 166.15 65.0065 166.15C65.5142 166.15 66.0012 166.351 66.3609 166.71C66.7207 167.069 66.9239 167.556 66.9261 168.065Z" fill="#5E6965"/>
<path d="M74.7386 168.065C74.7403 168.446 74.6289 168.819 74.4186 169.137C74.2083 169.454 73.9086 169.702 73.5575 169.849C73.2064 169.995 72.8197 170.034 72.4466 169.96C72.0734 169.886 71.7306 169.703 71.4616 169.433C71.1927 169.164 71.0097 168.82 70.9359 168.446C70.8621 168.072 70.9008 167.685 71.0471 167.333C71.1935 166.981 71.4408 166.681 71.7578 166.47C72.0747 166.259 72.447 166.148 72.8274 166.15C73.3343 166.15 73.8204 166.351 74.1788 166.71C74.5372 167.07 74.7386 167.557 74.7386 168.065Z" fill="#5E6965"/>
<path d="M82.5599 168.065C82.5615 168.446 82.4504 168.818 82.2405 169.136C82.0305 169.453 81.7313 169.701 81.3807 169.848C81.0301 169.995 80.6439 170.034 80.271 169.961C79.898 169.887 79.5552 169.705 79.2859 169.436C79.0166 169.168 78.833 168.825 78.7582 168.451C78.6835 168.078 78.721 167.691 78.866 167.339C79.0111 166.987 79.2571 166.686 79.5729 166.474C79.8888 166.263 80.2603 166.15 80.6403 166.15C80.892 166.148 81.1414 166.197 81.3742 166.293C81.6071 166.389 81.8188 166.53 81.9971 166.708C82.1755 166.885 82.317 167.097 82.4136 167.33C82.5102 167.563 82.5599 167.813 82.5599 168.065Z" fill="#5E6965"/>
<path d="M285.526 176.465C285.526 176.591 234.393 176.683 171.356 176.683C108.32 176.683 57.1777 176.591 57.1777 176.465C57.1777 176.339 108.311 176.246 171.356 176.246C234.401 176.246 285.526 176.347 285.526 176.465Z" fill="#5E6965"/>
<path d="M304.723 306.007H41.8545V306.847H304.723V306.007Z" fill="#5E6965"/>
<path d="M125.847 243.151H75.9043V246.503H125.847V243.151Z" fill="#5E6965"/>
<path d="M190.351 196.675H140.408V200.026H190.351V196.675Z" fill="#5E6965"/>
<path d="M264.637 209.14C264.637 209.258 236.824 209.359 202.523 209.359C168.221 209.359 140.408 209.258 140.408 209.14C140.408 209.023 168.213 208.913 202.523 208.913C236.833 208.913 264.637 209.014 264.637 209.14Z" fill="#5E6965"/>
<path d="M264.637 216.448C264.637 216.566 236.824 216.666 202.523 216.666C168.221 216.666 140.408 216.566 140.408 216.448C140.408 216.33 168.213 216.23 202.523 216.23C236.833 216.23 264.637 216.356 264.637 216.448Z" fill="#5E6965"/>
<path d="M264.637 223.756C264.637 223.882 236.824 223.974 202.523 223.974C168.221 223.974 140.408 223.882 140.408 223.756C140.408 223.63 168.213 223.537 202.523 223.537C236.833 223.537 264.637 223.638 264.637 223.756Z" fill="#5E6965"/>
<path d="M264.637 231.072C264.637 231.19 236.824 231.291 202.523 231.291C168.221 231.291 140.408 231.19 140.408 231.072C140.408 230.955 168.213 230.845 202.523 230.845C236.833 230.845 264.637 230.946 264.637 231.072Z" fill="#5E6965"/>
<path d="M264.637 238.38C264.637 238.498 236.824 238.598 202.523 238.598C168.221 238.598 140.408 238.498 140.408 238.38C140.408 238.262 168.213 238.162 202.523 238.162C236.833 238.162 264.637 238.254 264.637 238.38Z" fill="#5E6965"/>
<path d="M188.901 245.688C188.901 245.806 178.046 245.906 164.659 245.906C151.272 245.906 140.408 245.806 140.408 245.688C140.408 245.57 151.305 245.47 164.659 245.47C178.012 245.47 188.901 245.57 188.901 245.688Z" fill="#5E6965"/>
<path d="M263.723 259.875C263.723 260.001 245.441 260.094 222.9 260.094C200.359 260.094 182.077 260.001 182.077 259.875C182.077 259.749 200.351 259.657 222.9 259.657C245.449 259.657 263.723 259.758 263.723 259.875Z" fill="#5E6965"/>
<path d="M263.723 267.637C263.723 267.754 245.441 267.855 222.9 267.855C200.359 267.855 182.077 267.754 182.077 267.637C182.077 267.519 200.351 267.418 222.9 267.418C245.449 267.418 263.723 267.519 263.723 267.637Z" fill="#5E6965"/>
<path d="M263.723 275.398C263.723 275.516 245.441 275.617 222.9 275.617C200.359 275.617 182.077 275.516 182.077 275.398C182.077 275.281 200.351 275.18 222.9 275.18C245.449 275.18 263.723 275.272 263.723 275.398Z" fill="#5E6965"/>
<path d="M263.723 283.16C263.723 283.277 245.441 283.378 222.9 283.378C200.359 283.378 182.077 283.277 182.077 283.16C182.077 283.042 200.351 282.941 222.9 282.941C245.449 282.941 263.723 283.034 263.723 283.16Z" fill="#5E6965"/>
<path d="M125.964 259.136C125.964 259.254 115.067 259.354 101.655 259.354C88.243 259.354 77.3457 259.254 77.3457 259.136C77.3457 259.019 88.243 258.918 101.655 258.918C115.067 258.918 125.964 259.01 125.964 259.136Z" fill="#5E6965"/>
<path d="M125.964 265.226C125.964 265.352 115.067 265.444 101.655 265.444C88.243 265.444 77.3457 265.352 77.3457 265.226C77.3457 265.1 88.243 265.008 101.655 265.008C115.067 265.008 125.964 265.075 125.964 265.226Z" fill="#5E6965"/>
<path d="M125.964 271.324C125.964 271.442 115.067 271.543 101.655 271.543C88.243 271.543 77.3457 271.442 77.3457 271.324C77.3457 271.207 88.243 271.106 101.655 271.106C115.067 271.106 125.964 271.207 125.964 271.324Z" fill="#5E6965"/>
<path d="M125.964 277.414C125.964 277.54 115.067 277.633 101.655 277.633C88.243 277.633 77.3457 277.54 77.3457 277.414C77.3457 277.288 88.243 277.196 101.655 277.196C115.067 277.196 125.964 277.297 125.964 277.414Z" fill="#5E6965"/>
<path d="M125.964 283.555C125.964 283.672 115.067 283.773 101.655 283.773C88.243 283.773 77.3457 283.672 77.3457 283.555C77.3457 283.437 88.243 283.336 101.655 283.336C115.067 283.336 125.964 283.395 125.964 283.555Z" fill="#5E6965"/>
<path d="M125.973 185.73H75.9043V234.272H125.973V185.73Z" fill="#ECECEC"/>
<path d="M79.7852 230.123L93.6331 205.142L104.966 221.11L111.848 212.626L122.092 230.123H79.7852Z" fill="#141C5B"/>
<path d="M109.786 200.278C109.786 200.993 109.575 201.691 109.179 202.285C108.783 202.879 108.22 203.342 107.561 203.615C106.902 203.889 106.178 203.96 105.478 203.821C104.779 203.681 104.137 203.337 103.633 202.832C103.129 202.327 102.785 201.684 102.646 200.983C102.507 200.282 102.579 199.556 102.852 198.896C103.124 198.236 103.586 197.672 104.179 197.275C104.772 196.878 105.469 196.666 106.182 196.666C107.138 196.666 108.054 197.047 108.73 197.724C109.406 198.402 109.786 199.32 109.786 200.278Z" fill="#141C5B"/>
<path d="M122.084 230.249C122.08 230.185 122.08 230.12 122.084 230.056C122.084 229.905 122.084 229.72 122.084 229.485C122.084 228.972 122.084 228.241 122.084 227.301C122.084 225.377 122.084 222.597 122.025 219.06C122.025 211.971 121.966 201.874 121.925 189.745L122.126 189.955H79.8274C79.7687 190.005 80.2717 189.501 80.0621 189.72V200.639C80.0621 204.201 80.0621 207.695 80.0621 211.097C80.0621 217.893 80.0621 224.319 80.0621 230.232L79.8526 230.031L110.44 230.131L119.074 230.19H121.363H122.159C122.159 230.19 122.101 230.19 121.975 230.19H121.405H119.158L110.575 230.249L79.8526 230.35H79.6514V230.14C79.6514 224.26 79.6514 217.8 79.6514 211.005C79.6514 207.603 79.6514 204.109 79.6514 200.547V189.627L79.8945 189.384H122.193H122.402V189.585C122.402 201.765 122.318 211.904 122.293 219.027C122.293 222.546 122.293 225.31 122.243 227.225C122.243 228.149 122.243 228.863 122.243 229.375C122.243 229.602 122.243 229.779 122.243 229.913C122.243 230.047 122.092 230.257 122.084 230.249Z" fill="#5E6965"/>
<path d="M175.816 256.179H140.383V290.535H175.816V256.179Z" fill="#ECECEC"/>
<path d="M143.124 287.595L152.932 269.913L160.945 281.211L165.816 275.213L173.066 287.595H143.124Z" fill="#141C5B"/>
<path d="M164.357 266.469C164.357 266.968 164.209 267.455 163.933 267.869C163.657 268.284 163.264 268.607 162.804 268.797C162.345 268.988 161.839 269.038 161.351 268.941C160.863 268.844 160.415 268.604 160.064 268.251C159.712 267.899 159.473 267.45 159.375 266.961C159.278 266.472 159.328 265.965 159.519 265.505C159.709 265.044 160.031 264.651 160.445 264.374C160.858 264.097 161.345 263.949 161.842 263.949C162.509 263.949 163.148 264.215 163.62 264.687C164.092 265.16 164.357 265.801 164.357 266.469Z" fill="#141C5B"/>
<path d="M173.066 287.687C173.063 287.64 173.063 287.592 173.066 287.545C173.066 287.444 173.066 287.309 173.066 287.141C173.066 286.78 173.066 286.301 173.066 285.596C173.066 284.235 173.066 282.236 173.024 279.758C173.024 274.718 173.024 267.595 172.957 259.019L173.099 259.161H143.157C143.157 259.161 143.476 258.842 143.325 259.002V274.122C143.325 278.935 143.325 283.479 143.325 287.671L143.174 287.519L164.826 287.595L170.928 287.637H172.546H170.954H164.885L143.14 287.713H142.998V287.57C142.998 283.37 142.998 278.834 142.998 274.021C142.998 271.618 142.998 269.14 142.998 266.62V258.926C142.847 259.069 143.199 258.708 143.165 258.75H173.108H173.25V258.893C173.25 267.511 173.192 274.684 173.175 279.733C173.175 282.253 173.175 284.176 173.175 285.529C173.175 286.184 173.175 286.688 173.175 287.049C173.175 287.209 173.175 287.335 173.175 287.435C173.155 287.526 173.118 287.611 173.066 287.687Z" fill="#5E6965"/>
<path d="M471.685 306.234L463.303 305.235L461.333 320.976L473.597 322.564L473.781 321.598C474.569 317.28 477.461 299.607 476.941 296.591C476.363 293.231 471.685 306.234 471.685 306.234Z" fill="#141C5B"/>
<path d="M476.212 295.466C476.363 295.466 475.785 301.396 474.921 308.662C474.058 315.928 473.245 321.808 473.094 321.791C472.943 321.774 473.53 315.911 474.385 308.595C475.24 301.278 476.061 295.449 476.212 295.466Z" fill="#353E42"/>
<path d="M473.429 305.495C473.345 305.613 472.909 305.445 472.507 305.058C472.105 304.672 471.937 304.218 472.054 304.143C472.172 304.067 472.524 304.311 472.893 304.672C473.261 305.033 473.521 305.394 473.429 305.495Z" fill="#353E42"/>
<path d="M474.1 304.554C474.033 304.689 473.539 304.554 473.052 304.185C472.566 303.815 472.298 303.345 472.407 303.261C472.516 303.177 472.927 303.404 473.379 303.748C473.832 304.092 474.176 304.42 474.1 304.554Z" fill="#353E42"/>
<path d="M473.605 317.037C473.605 317.104 473.395 317.314 472.976 317.616C472.443 317.98 471.947 318.393 471.492 318.851C471.063 319.306 470.752 319.86 470.587 320.464C470.47 320.934 470.503 321.245 470.419 321.262C470.336 321.278 470.185 320.968 470.21 320.422C470.269 319.705 470.564 319.028 471.048 318.498C471.528 317.997 472.096 317.589 472.725 317.297C473.253 317.062 473.563 316.969 473.605 317.037Z" fill="#353E42"/>
<path d="M471.861 305.26C471.995 305.201 472.264 305.512 472.364 305.974C472.465 306.436 472.364 306.814 472.213 306.814C472.062 306.814 471.928 306.478 471.836 306.066C471.744 305.655 471.719 305.319 471.861 305.26Z" fill="#353E42"/>
<path d="M471.023 305.394C471.166 305.394 471.241 305.831 471.191 306.369C471.141 306.906 470.965 307.309 470.822 307.276C470.68 307.242 470.596 306.814 470.655 306.31C470.713 305.806 470.873 305.394 471.023 305.394Z" fill="#353E42"/>
<path d="M466.573 322.236L420.108 317.515L323.768 319.674L349.385 298.977L413.687 295.877L469.909 303.639L466.573 322.236Z" fill="#353E42"/>
<path d="M388.036 309.3C388.036 309.426 378.991 309.519 367.834 309.519C356.677 309.519 347.641 309.426 347.641 309.3C347.641 309.174 356.677 309.082 367.834 309.082C378.991 309.082 388.036 309.183 388.036 309.3Z" fill="#5E6965"/>
<path d="M383.543 297.33L386.846 318.154H393.183L388.363 297.095L383.543 297.33Z" fill="black"/>
<path d="M408.071 318.422L407.132 310.023L391.381 311.703L392.596 324H393.577C397.953 323.782 415.782 322.589 418.591 321.396C421.759 320.027 408.071 318.422 408.071 318.422Z" fill="#141C5B"/>
<path d="M418.918 320.514C418.918 320.665 413.05 321.446 405.799 322.261C398.548 323.076 392.647 323.614 392.63 323.462C392.613 323.311 398.498 322.538 405.74 321.724C412.983 320.909 418.901 320.396 418.918 320.514Z" fill="#353E42"/>
<path d="M408.524 320.111C408.381 320.052 408.448 319.59 408.733 319.111C409.018 318.633 409.412 318.364 409.521 318.456C409.63 318.549 409.462 318.952 409.203 319.389C408.943 319.825 408.674 320.17 408.524 320.111Z" fill="#353E42"/>
<path d="M409.604 320.514C409.462 320.514 409.479 319.968 409.73 319.405C409.982 318.842 410.351 318.49 410.476 318.565C410.602 318.641 410.476 319.094 410.225 319.615C409.973 320.136 409.747 320.59 409.604 320.514Z" fill="#353E42"/>
<path d="M397.358 322.9C397.308 322.95 397.04 322.757 396.654 322.421C396.18 321.985 395.666 321.594 395.12 321.253C394.579 320.938 393.968 320.762 393.343 320.741C392.865 320.741 392.563 320.833 392.505 320.741C392.446 320.648 392.731 320.447 393.284 320.346C394.005 320.244 394.738 320.392 395.363 320.766C395.959 321.125 396.482 321.592 396.905 322.144C397.258 322.572 397.417 322.849 397.358 322.9Z" fill="#353E42"/>
<path d="M408.406 318.523C408.498 318.641 408.255 318.968 407.828 319.178C407.4 319.388 406.989 319.372 406.989 319.229C406.989 319.086 407.249 318.876 407.626 318.691C408.004 318.506 408.322 318.397 408.406 318.523Z" fill="#353E42"/>
<path d="M408.07 317.734C408.07 317.885 407.693 318.053 407.165 318.12C406.637 318.187 406.201 318.12 406.193 317.969C406.184 317.818 406.595 317.65 407.098 317.583C407.601 317.515 408.037 317.591 408.07 317.734Z" fill="#353E42"/>
<path d="M315.913 222.336L329.325 222.093C329.509 220.539 329.769 214.482 329.769 214.482C329.769 214.482 335.385 213.953 335.796 208.392C336.207 202.832 336.031 189.963 336.031 189.963C332.953 188.406 329.516 187.701 326.075 187.919C322.635 188.138 319.314 189.273 316.457 191.206L315.619 191.794L315.913 222.336Z" fill="#B78876"/>
<path d="M334.179 199.463C334.033 199.308 333.951 199.102 333.951 198.888C333.951 198.674 334.033 198.468 334.179 198.313C334.294 198.19 334.443 198.105 334.607 198.068C334.771 198.032 334.942 198.045 335.098 198.107C335.254 198.169 335.388 198.277 335.483 198.416C335.577 198.555 335.628 198.72 335.628 198.888C335.628 199.056 335.577 199.221 335.483 199.36C335.388 199.499 335.254 199.607 335.098 199.669C334.942 199.731 334.771 199.745 334.607 199.708C334.443 199.671 334.294 199.586 334.179 199.463Z" fill="#353E42"/>
<path d="M335.595 198.271C335.503 198.363 334.983 197.91 334.22 197.859C333.458 197.809 332.871 198.17 332.795 198.069C332.72 197.968 332.854 197.851 333.106 197.683C333.448 197.467 333.85 197.367 334.254 197.397C334.656 197.422 335.039 197.579 335.344 197.842C335.595 198.052 335.654 198.229 335.595 198.271Z" fill="#353E42"/>
<path d="M326.743 198.397C326.863 198.539 326.932 198.717 326.94 198.903C326.948 199.089 326.894 199.273 326.787 199.425C326.679 199.577 326.524 199.689 326.347 199.743C326.169 199.797 325.978 199.79 325.804 199.724C325.685 199.678 325.577 199.606 325.49 199.512C325.403 199.418 325.338 199.306 325.301 199.183C325.264 199.06 325.255 198.931 325.275 198.804C325.296 198.678 325.345 198.558 325.419 198.453C325.493 198.349 325.59 198.262 325.702 198.201C325.815 198.14 325.939 198.105 326.067 198.1C326.195 198.094 326.322 198.118 326.439 198.17C326.557 198.221 326.66 198.299 326.743 198.397Z" fill="#353E42"/>
<path d="M327.213 198.43C327.121 198.523 326.601 198.069 325.83 198.019C325.059 197.968 324.489 198.329 324.405 198.229C324.321 198.128 324.464 198.01 324.723 197.842C325.065 197.626 325.467 197.526 325.87 197.556C326.273 197.587 326.656 197.746 326.962 198.01C327.213 198.212 327.288 198.397 327.213 198.43Z" fill="#353E42"/>
<path d="M329.929 204.957C330.331 204.825 330.754 204.762 331.178 204.772C331.379 204.772 331.546 204.722 331.563 204.621C331.584 204.419 331.546 204.215 331.454 204.033L330.943 202.437C330.451 201.076 330.097 199.669 329.887 198.237C330.516 199.535 331.011 200.895 331.362 202.294C331.53 202.849 331.681 203.378 331.84 203.899C331.954 204.164 331.975 204.46 331.899 204.739C331.864 204.814 331.813 204.88 331.749 204.932C331.685 204.985 331.61 205.022 331.53 205.041C331.416 205.057 331.3 205.057 331.186 205.041C330.765 205.083 330.34 205.054 329.929 204.957Z" fill="#353E42"/>
<path d="M327.389 205.654C326.618 205.125 329.51 206.956 331.077 206.973C330.792 207.36 330.384 207.64 329.92 207.766C329.456 207.893 328.963 207.859 328.521 207.67C326.894 206.956 327.389 205.654 327.389 205.654Z" fill="white"/>
<path d="M329.803 214.398C327.231 214.285 324.751 213.408 322.678 211.878C322.678 211.878 324.145 215.994 329.727 215.835L329.803 214.398Z" fill="#A36957"/>
<path d="M336.434 187.956C336.753 187.945 337.065 187.861 337.346 187.711C337.628 187.561 337.871 187.348 338.058 187.088C338.244 186.829 338.369 186.53 338.422 186.215C338.476 185.9 338.456 185.577 338.366 185.271C338.275 184.964 338.115 184.683 337.899 184.448C337.683 184.213 337.416 184.03 337.119 183.915C336.821 183.799 336.501 183.754 336.183 183.782C335.866 183.809 335.558 183.91 335.285 184.075C335.951 183.525 336.494 182.841 336.878 182.067C337.063 181.678 337.124 181.242 337.053 180.817C336.983 180.392 336.784 179.999 336.484 179.69C336.134 179.449 335.726 179.308 335.302 179.281C334.878 179.255 334.455 179.344 334.078 179.539C332.896 180.051 331.966 181.051 330.725 181.471C329.485 181.891 328.16 181.681 326.861 181.74C325.413 181.767 324.011 182.252 322.854 183.126C322.285 183.567 321.827 184.136 321.517 184.786C321.207 185.437 321.053 186.151 321.069 186.872C319.25 186.654 317.238 186.628 315.804 187.762C315.228 188.277 314.772 188.912 314.469 189.624C314.166 190.336 314.024 191.105 314.052 191.878C314.192 193.422 314.56 194.936 315.142 196.372C315.244 196.793 315.432 197.188 315.695 197.531L316.374 201.53L318.847 201.479L318.688 193.164C318.688 193.164 318.437 189.652 321.454 189.963C324.472 190.274 328.554 193.676 334.414 192.811C335.372 192.76 336.306 192.493 337.146 192.03C337.554 191.773 337.885 191.411 338.106 190.983C338.327 190.555 338.43 190.075 338.404 189.594C338.353 189.117 338.119 188.68 337.751 188.374C337.383 188.068 336.91 187.918 336.434 187.956Z" fill="#353E42"/>
<path d="M316.684 196.734C316.558 196.692 312.551 196.171 312.928 200.933C313.306 205.696 317.958 203.722 317.958 203.588C317.958 203.453 316.684 196.734 316.684 196.734Z" fill="#B78876"/>
<path d="M316.382 202.017C316.382 202.017 316.299 202.076 316.164 202.151C315.976 202.251 315.758 202.275 315.553 202.219C315.232 202.048 314.963 201.796 314.772 201.488C314.58 201.18 314.474 200.826 314.463 200.463C314.415 200.058 314.461 199.647 314.597 199.262C314.629 199.109 314.697 198.967 314.797 198.847C314.896 198.727 315.023 198.633 315.167 198.573C315.26 198.541 315.362 198.543 315.453 198.578C315.545 198.613 315.622 198.68 315.67 198.766C315.745 198.892 315.72 198.985 315.745 198.993C315.77 199.001 315.846 198.909 315.787 198.716C315.755 198.598 315.68 198.496 315.578 198.43C315.51 198.386 315.435 198.356 315.356 198.342C315.276 198.327 315.195 198.329 315.117 198.346C314.916 198.401 314.733 198.507 314.586 198.654C314.439 198.802 314.333 198.985 314.278 199.186C314.107 199.612 314.046 200.075 314.102 200.53C314.111 200.953 314.245 201.364 314.487 201.711C314.729 202.057 315.067 202.325 315.46 202.479C315.591 202.507 315.725 202.505 315.855 202.472C315.984 202.44 316.104 202.38 316.206 202.294C316.382 202.126 316.399 202.025 316.382 202.017Z" fill="#A36957"/>
<path d="M305.032 305.394C307.547 309.149 322.795 332.148 341.002 315.424C364.196 294.138 382.537 275.491 382.537 275.491L389.428 317.616L411.021 316.44C411.021 316.44 402.638 253.718 397.29 248.015C391.347 241.648 385.882 242.185 339.208 279.094L305.032 305.394Z" fill="#5E6965"/>
<path d="M382.27 233.962L402.438 219.22L403.427 220.799L383.393 235.726L382.27 233.962Z" fill="#353E42"/>
<path d="M387.257 233.508C387.257 233.508 389.956 226.452 390.61 224.949C391.264 223.445 392.244 220.824 392.63 220.749C393.016 220.673 394.424 220.917 392.63 225.402C390.836 229.888 394.81 227.149 394.81 227.149L398.691 224.361C398.691 224.361 401.759 233.55 400.015 236.322C398.644 238.392 397.105 240.345 395.413 242.16L387.257 233.508Z" fill="#B78876"/>
<path d="M387.483 232.685C387.081 231.769 361.43 254.466 356.325 255.239L341.371 235.726C341.371 235.726 338.269 230.787 331.605 222.336C327.296 216.885 315.427 218.019 312.325 224.663C307.027 235.953 306.96 248.502 304.135 272.92L302.903 289.435C302.638 292.949 302.691 296.48 303.062 299.985C303.515 304.076 304.437 308.385 306.332 307.771L340.541 279.439L341.639 266.57C348.831 273.878 351.069 275.407 354.808 274.819C364.221 273.357 397.173 243.664 397.173 243.664C397.173 243.664 387.877 233.609 387.483 232.685Z" fill="#141C5B"/>
<path d="M392.756 247.788C392.088 247.385 391.472 246.903 390.92 246.352C389.518 245.097 388.204 243.747 386.989 242.311C385.765 240.881 384.644 239.365 383.636 237.775C383.186 237.135 382.807 236.447 382.504 235.726C383.012 236.314 383.474 236.94 383.887 237.599C384.725 238.766 385.899 240.362 387.315 242.026C388.732 243.689 390.107 245.117 391.13 246.125C391.71 246.64 392.253 247.196 392.756 247.788Z" fill="#353E42"/>
<path d="M354.875 262.975C354.889 261.66 355.046 260.35 355.344 259.069C355.509 257.763 355.812 256.479 356.25 255.239C356.237 256.554 356.079 257.864 355.78 259.145C355.617 260.45 355.314 261.735 354.875 262.975Z" fill="#353E42"/>
<path d="M358.145 262.169C357.627 261.1 357.244 259.972 357.004 258.809C356.634 257.684 356.395 256.52 356.292 255.339C356.81 256.408 357.193 257.536 357.432 258.699C357.801 259.825 358.04 260.989 358.145 262.169Z" fill="#353E42"/>
<path d="M321.11 239.153C321.417 239.492 321.698 239.854 321.949 240.236L324.178 243.277C326.064 245.839 328.697 249.367 331.639 253.223L339.225 263.084L341.513 266.083C341.823 266.438 342.103 266.817 342.352 267.217C342.015 266.897 341.704 266.552 341.421 266.184C340.843 265.503 340.03 264.504 339.024 263.277C337.02 260.799 334.279 257.355 331.337 253.491C328.395 249.628 325.796 246.066 323.977 243.454C323.063 242.152 322.301 241.085 321.848 240.337C321.571 239.963 321.324 239.567 321.11 239.153Z" fill="#353E42"/>
<path d="M316.735 255.751C315.848 255.248 315.038 254.62 314.329 253.886C313.523 253.255 312.809 252.514 312.208 251.685C313.099 252.189 313.913 252.82 314.622 253.559C315.43 254.182 316.142 254.92 316.735 255.751Z" fill="#353E42"/>
<path d="M313.8 265.218C312.926 267.033 311.797 268.713 310.447 270.207C310.816 269.264 311.322 268.381 311.948 267.586C312.449 266.712 313.073 265.914 313.8 265.218Z" fill="#353E42"/>
<path d="M317.925 278.279C317.833 278.355 317.087 277.599 316.249 276.6C315.684 276.03 315.224 275.364 314.891 274.634C314.983 274.558 315.729 275.314 316.567 276.314C317.133 276.883 317.593 277.548 317.925 278.279Z" fill="#353E42"/>
<path d="M309.945 286.654C309.416 287.275 308.78 287.796 308.067 288.191C307.435 288.705 306.717 289.103 305.946 289.367C306.475 288.746 307.111 288.226 307.824 287.83C308.456 287.316 309.174 286.918 309.945 286.654Z" fill="#353E42"/>
<path d="M321.101 288.872C320.213 288.484 319.444 287.866 318.872 287.083C318.191 286.381 317.708 285.512 317.472 284.563C317.589 284.504 318.201 285.613 319.198 286.78C320.196 287.948 321.177 288.763 321.101 288.872Z" fill="#353E42"/>
<path d="M331.505 280.959C330.892 281.762 330.17 282.475 329.359 283.076C328.637 283.782 327.818 284.382 326.928 284.857C327.54 284.053 328.262 283.341 329.074 282.74C329.794 282.031 330.612 281.432 331.505 280.959Z" fill="#353E42"/>
<path d="M310.095 296.238C308.663 295.58 307.525 294.413 306.901 292.962C307.002 292.895 307.631 293.702 308.511 294.592C309.391 295.482 310.171 296.154 310.095 296.238Z" fill="#353E42"/>
<path d="M333.357 273.475C331.917 274.301 330.256 274.659 328.604 274.5C330.171 274.08 331.757 273.738 333.357 273.475Z" fill="#353E42"/>
<path d="M325.611 264.646C325.438 265.67 325.157 266.672 324.773 267.637C324.5 268.607 324.172 269.56 323.792 270.493H323.7C323.7 270.442 323.75 270.426 323.767 270.426C323.784 270.426 323.767 270.426 323.767 270.518H323.675C323.773 269.51 323.993 268.517 324.329 267.561C324.585 266.523 325.018 265.536 325.611 264.646Z" fill="#353E42"/>
<path d="M328.889 259.044C327.98 258.663 327.132 258.148 326.375 257.515C325.543 257.001 324.794 256.364 324.153 255.625C325.046 256.014 325.879 256.529 326.626 257.154C327.471 257.667 328.234 258.304 328.889 259.044Z" fill="#353E42"/>
<path d="M322.183 246.696C321.929 247.529 321.507 248.301 320.942 248.964C320.488 249.706 319.89 250.349 319.182 250.854C319.557 250.079 320.03 249.357 320.59 248.704C321.028 247.965 321.564 247.29 322.183 246.696Z" fill="#353E42"/>
<path d="M311.973 245.016C311.833 244.072 311.833 243.112 311.973 242.168C311.984 241.216 312.136 240.27 312.426 239.363C312.577 240.303 312.577 241.262 312.426 242.202C312.424 243.158 312.271 244.108 311.973 245.016Z" fill="#353E42"/>
<path d="M307.991 263.529C307.764 262.524 307.674 261.493 307.723 260.463C307.638 259.438 307.694 258.407 307.891 257.397C308.215 259.426 308.249 261.491 307.991 263.529Z" fill="#353E42"/>
<path d="M307.439 281.287C307.058 280.742 306.803 280.119 306.693 279.464C306.445 278.848 306.331 278.187 306.357 277.523C306.997 278.68 307.367 279.966 307.439 281.287Z" fill="#353E42"/>
<path d="M321.555 231.165C320.889 231.93 320.166 232.643 319.392 233.298C318.722 234.06 317.99 234.765 317.204 235.406C317.66 234.478 318.302 233.655 319.09 232.987C319.775 232.213 320.615 231.592 321.555 231.165Z" fill="#353E42"/>
<path d="M315.561 229.157C315.379 228.242 315.345 227.303 315.46 226.377C315.426 225.444 315.539 224.511 315.795 223.613C315.972 224.529 316.006 225.467 315.896 226.393C315.925 227.326 315.812 228.258 315.561 229.157Z" fill="#353E42"/>
<path d="M330.247 227.158C328.671 226.203 327.149 225.163 325.687 224.042C327.451 224.666 329.022 225.74 330.247 227.158Z" fill="#353E42"/>
<path d="M327.054 237.641C326.821 236.679 326.728 235.689 326.777 234.701C326.687 233.716 326.74 232.722 326.936 231.753C327.265 233.696 327.304 235.677 327.054 237.632V237.641Z" fill="#353E42"/>
<path d="M335.654 243.773C333.962 243.435 332.284 243.032 330.624 242.563C332.383 242.456 334.134 242.877 335.654 243.773Z" fill="#353E42"/>
<path d="M336.241 237.523C335.945 235.887 335.945 234.212 336.241 232.576C336.461 233.379 336.543 234.214 336.484 235.045C336.55 235.879 336.467 236.718 336.241 237.523Z" fill="#353E42"/>
<path d="M342.796 248.015C342.529 246.998 342.408 245.949 342.436 244.898C342.32 243.855 342.349 242.801 342.52 241.765C342.896 243.826 342.989 245.929 342.796 248.015Z" fill="#353E42"/>
<path d="M337.758 251.559C337.666 251.643 336.987 251.022 336.241 250.182C335.495 249.342 334.958 248.586 335.05 248.502C335.143 248.418 335.822 249.039 336.568 249.888C337.314 250.736 337.85 251.484 337.758 251.559Z" fill="#353E42"/>
<path d="M344.128 256.398C343.337 256.668 342.507 256.804 341.672 256.801C340.84 256.947 339.989 256.947 339.157 256.801C339.943 256.522 340.772 256.385 341.605 256.398C342.439 256.242 343.294 256.242 344.128 256.398Z" fill="#353E42"/>
<path d="M348.923 258.851C348.569 257.027 348.498 255.16 348.714 253.315C349.079 255.137 349.15 257.006 348.923 258.851Z" fill="#353E42"/>
<path d="M353.651 268.048C352.646 268.241 351.614 268.241 350.608 268.048C349.587 268.008 348.582 267.772 347.649 267.351C348.659 267.347 349.666 267.437 350.659 267.62C351.668 267.663 352.67 267.807 353.651 268.048Z" fill="#353E42"/>
<path d="M361.782 263.807C361.436 265.714 360.803 267.558 359.904 269.275C360.003 268.313 360.249 267.373 360.634 266.486C360.873 265.538 361.261 264.634 361.782 263.807Z" fill="#353E42"/>
<path d="M367.642 256.381C365.899 256.198 364.199 255.724 362.612 254.978C364.353 255.172 366.052 255.645 367.642 256.381Z" fill="#353E42"/>
<path d="M372.353 259.195C371.854 259.926 371.24 260.57 370.534 261.102C369.92 261.739 369.21 262.275 368.43 262.689C368.923 261.952 369.539 261.305 370.249 260.774C370.862 260.139 371.572 259.606 372.353 259.195Z" fill="#353E42"/>
<path d="M374.239 252.248C373.775 251.418 373.489 250.499 373.4 249.552C373.16 248.625 373.12 247.657 373.283 246.713C373.55 247.615 373.733 248.54 373.828 249.476C374.051 250.385 374.189 251.313 374.239 252.248Z" fill="#353E42"/>
<path d="M383.208 250.652C381.484 252.377 379.74 254.083 377.978 255.768C379.309 253.685 381.098 251.936 383.208 250.652Z" fill="#353E42"/>
<path d="M384.096 247.435C383.134 247.299 382.198 247.016 381.321 246.595C380.391 246.321 379.509 245.905 378.706 245.36C379.665 245.5 380.597 245.783 381.472 246.2C382.403 246.48 383.287 246.896 384.096 247.435Z" fill="#353E42"/>
<path d="M383.242 243.983C382.815 243.286 382.517 242.517 382.361 241.715C382.068 240.95 381.912 240.14 381.9 239.321C382.312 240.021 382.596 240.789 382.739 241.589C383.041 242.352 383.212 243.162 383.242 243.983Z" fill="#353E42"/>
<path d="M336.316 268.183C336.216 268.258 335.478 267.427 334.74 266.335C334.209 265.715 333.795 265.003 333.517 264.235C334.148 264.752 334.681 265.378 335.093 266.083C335.616 266.708 336.03 267.418 336.316 268.183Z" fill="#353E42"/>
<path d="M400.224 310.501C400.189 310.384 400.166 310.263 400.157 310.14C400.124 309.888 400.073 309.535 400.006 309.082C399.889 308.133 399.705 306.763 399.478 305.016C399 301.488 398.321 296.373 397.307 290.081C396.293 283.79 394.943 276.322 393.024 268.124C392.827 267.095 392.492 266.097 392.026 265.159C391.499 264.233 390.819 263.403 390.014 262.706C388.307 261.29 386.124 260.581 383.912 260.724C382.783 260.787 381.681 261.087 380.676 261.606C379.667 262.176 378.705 262.828 377.801 263.555L372.034 267.847C364.272 273.685 357.004 279.405 350.516 284.773C344.028 290.14 338.369 295.163 333.633 299.422C331.236 301.488 328.679 303.143 326.089 303.412C324.901 303.547 323.698 303.4 322.577 302.984C321.644 302.631 320.766 302.147 319.97 301.547C318.88 300.716 317.869 299.786 316.952 298.767L316.24 297.977C316.153 297.89 316.074 297.794 316.005 297.692C316.101 297.765 316.189 297.849 316.265 297.944L317.011 298.708C317.954 299.693 318.977 300.598 320.07 301.413C320.863 301.985 321.728 302.449 322.644 302.79C323.739 303.18 324.91 303.31 326.064 303.168C328.579 302.891 331.093 301.253 333.441 299.187C338.143 294.911 343.785 289.829 350.273 284.462C356.761 279.094 364.012 273.332 371.782 267.494L377.549 263.202C378.475 262.463 379.459 261.8 380.492 261.219C381.548 260.673 382.708 260.358 383.895 260.295C386.215 260.149 388.504 260.897 390.291 262.387C391.138 263.116 391.85 263.989 392.395 264.966C392.875 265.936 393.222 266.968 393.426 268.032C395.329 276.255 396.637 283.739 397.617 290.031C398.598 296.322 399.227 301.455 399.654 304.991C399.847 306.747 399.998 308.116 400.107 309.073C400.107 309.527 400.182 309.913 400.207 310.14C400.224 310.26 400.23 310.381 400.224 310.501Z" fill="#353E42"/>
<path d="M410.015 310.031C409.743 310.115 409.461 310.16 409.177 310.165C408.632 310.224 407.844 310.291 406.872 310.359C404.919 310.493 402.228 310.636 399.252 310.762L391.632 311.089L389.319 311.173C389.04 311.206 388.759 311.206 388.48 311.173C388.751 311.084 389.034 311.033 389.319 311.022C389.864 310.955 390.652 310.879 391.624 310.795C393.577 310.636 396.268 310.476 399.244 310.342L406.872 310.065L409.185 310.014C409.462 309.985 409.74 309.991 410.015 310.031Z" fill="#353E42"/>
<path d="M388.53 268.922C386.622 272.035 384.135 274.753 381.204 276.927C381.12 276.826 382.881 275.188 384.926 272.979C386.971 270.77 388.405 268.846 388.53 268.922Z" fill="#353E42"/>
<path d="M389.344 271.476C388.214 272.34 387.02 273.118 385.773 273.802C384.601 274.618 383.368 275.343 382.085 275.97C383.122 274.983 384.283 274.136 385.539 273.45C386.717 272.63 387.996 271.967 389.344 271.476Z" fill="#353E42"/>
<path d="M459.967 312.198C459.797 312.217 459.625 312.217 459.455 312.198L457.98 312.114L452.615 311.602L434.936 309.754C428.029 309.031 421.793 308.225 417.258 307.998C414.994 307.881 413.15 307.889 411.885 307.939L410.426 307.998C410.253 308.02 410.079 308.02 409.906 307.998C410.074 307.957 410.245 307.929 410.418 307.914C410.744 307.864 411.256 307.822 411.876 307.763C413.673 307.645 415.475 307.62 417.274 307.687C421.835 307.839 428.08 308.595 434.978 309.317L452.657 311.274L458.014 311.921L459.464 312.114C459.634 312.122 459.803 312.15 459.967 312.198Z" fill="#5E6965"/>
<path d="M458.902 321.589C458.785 321.589 459.162 317.389 459.741 312.173C460.319 306.957 460.906 302.799 461.023 302.815C461.14 302.832 460.763 307.015 460.185 312.223C459.606 317.431 459.02 321.598 458.902 321.589Z" fill="#5E6965"/>
</g>
<defs>
<clipPath id="clip0_74_3082">
<rect width="477" height="324" fill="white"/>
</clipPath>
</defs>
</svg>
