<svg width="43" height="42" viewBox="0 0 43 42" fill="none" xmlns="http://www.w3.org/2000/svg">
<g clip-path="url(#clip0_321_2089)">
<path d="M19.3624 42.0011C18.4316 41.7829 17.6263 41.3617 17.2368 40.4473C17.0458 39.9824 16.9391 39.4873 16.9214 38.9851C16.8756 37.8797 16.9214 36.771 16.8963 35.6646C16.8818 35.4751 16.7937 35.2988 16.6508 35.1735C16.2956 34.9039 16.0081 34.5553 15.8111 34.1553C15.6141 33.7553 15.5131 33.3148 15.516 32.8689C15.5072 32.2709 15.516 31.6686 15.516 30.9604C15.1515 31.3227 14.8612 31.6151 14.5644 31.9065C14.1487 32.3124 13.889 32.343 13.4089 32.0156C12.8316 31.6271 12.2609 31.231 11.6302 30.7989C11.4949 31.4253 11.3694 32.0047 11.245 32.5841C11.2112 32.7434 11.1905 32.9115 11.1435 33.0642C11.0399 33.4156 10.8162 33.6284 10.4332 33.6317C9.53077 33.6317 8.62835 33.6415 7.72593 33.6317C7.296 33.6262 7.07122 33.4232 6.97301 32.9682C6.81588 32.2666 6.66966 31.5639 6.50598 30.7946L4.84737 31.9305C4.21557 32.367 4.00606 32.3451 3.4681 31.8072C2.88758 31.2278 2.30489 30.6505 1.72874 30.0667C1.32172 29.6543 1.29881 29.3935 1.61962 28.9101C2.00808 28.3339 2.40309 27.7621 2.83302 27.1336C2.19359 26.9961 1.59998 26.8674 1.01073 26.743C0.108317 26.5585 0.00683594 26.4385 0.00683594 25.5186C0.00683594 24.7799 0.00683594 24.0423 0.00683594 23.3035C0.00683594 22.8081 0.194521 22.5801 0.67792 22.472C1.36974 22.3182 2.06264 22.1752 2.82102 22.0126C2.73482 21.873 2.67044 21.7628 2.60278 21.658C2.25724 21.1488 1.90988 20.6414 1.56069 20.1358C1.32609 19.7932 1.35337 19.4603 1.63926 19.169C2.30271 18.4859 2.97488 17.8105 3.66342 17.1405C3.98423 16.8306 4.26903 16.8262 4.66405 17.0914C5.26202 17.4918 5.85126 17.9065 6.50052 18.3539C6.65547 17.6304 6.79296 16.9681 6.937 16.3079C7.07667 15.6805 7.20216 15.5702 7.80995 15.4928C7.96381 14.6427 8.06529 13.7861 8.27917 12.959C9.20232 9.36899 11.2843 6.6301 14.4717 4.74997C16.4544 3.57803 18.6182 3.01934 20.9097 2.97024C20.9912 2.95984 21.0737 2.95984 21.1552 2.97024C22.0729 3.18848 22.8269 2.90804 23.4904 2.26206C23.7773 2.00904 24.0822 1.7771 24.4026 1.56806C24.8849 1.21888 25.2396 1.26471 25.6029 1.73392C26.0842 2.36354 26.5577 2.9997 27.0302 3.63587C27.2365 3.91194 27.4667 4.13454 27.8497 4.0527C28.2491 3.9665 28.3778 3.66315 28.4291 3.29978C28.5382 2.50212 28.6528 1.70337 28.7816 0.908977C28.8765 0.319733 29.1668 0.124409 29.756 0.208431C30.9858 0.383022 32.2156 0.560887 33.4464 0.72893C34.1655 0.827138 34.3827 1.11412 34.2747 1.84304C34.1655 2.59923 34.063 3.35761 33.9473 4.11381C33.8949 4.46627 33.9473 4.77725 34.2747 4.96821C34.602 5.15917 34.9021 5.02386 35.1792 4.81436C35.8012 4.34369 36.4247 3.87666 37.0495 3.41326C37.5875 3.01498 37.9225 3.06517 38.3306 3.60422C39.0806 4.59721 39.827 5.59201 40.5697 6.58863C40.98 7.13423 40.9364 7.46159 40.3962 7.86969C39.775 8.34109 39.1516 8.80812 38.5259 9.27079C38.2291 9.48903 38.0284 9.75091 38.1418 10.1437C38.251 10.5137 38.5489 10.6206 38.8959 10.6664C39.6673 10.769 40.4355 10.8956 41.2081 10.9938C41.369 11.0126 41.5239 11.0666 41.6617 11.1518C41.7995 11.237 41.917 11.3514 42.0057 11.487V12.061C41.8683 12.9208 41.7297 13.7796 41.5965 14.6405C41.5344 15.0454 41.4874 15.4524 41.4231 15.8572C41.339 16.3766 41.0182 16.6058 40.4923 16.5316C39.6804 16.4166 38.8693 16.2995 38.0589 16.1802C37.725 16.1311 37.4271 16.1737 37.2307 16.4847C37.0245 16.812 37.1216 17.1066 37.3398 17.3904C37.8185 18.0225 38.2946 18.6565 38.7682 19.2923C39.1676 19.8313 39.1174 20.1653 38.5772 20.5734C37.5828 21.3212 36.5876 22.0668 35.5917 22.8103C35.0461 23.2173 34.7188 23.1715 34.3085 22.6357C33.8371 22.0148 33.3679 21.3939 32.9052 20.7665C32.6957 20.4839 32.4469 20.2798 32.077 20.3682C31.6853 20.4621 31.5609 20.7752 31.5107 21.1321C31.4008 21.9177 31.2895 22.7019 31.1768 23.4847C31.0949 24.0532 30.8221 24.2845 30.2569 24.2103C28.9576 24.0379 27.6595 23.8535 26.3624 23.6571C25.7797 23.5676 25.5931 23.3024 25.6651 22.7143C25.7557 21.9832 25.8681 21.2532 25.9696 20.5232C25.987 20.402 26.0405 20.2646 26.0045 20.1598C25.9216 19.9176 25.8463 19.6328 25.6706 19.4691C25.4404 19.2508 25.125 19.3359 24.8773 19.5215C24.251 19.9852 23.629 20.4533 23.0048 20.9204C22.3326 21.4245 22.0478 21.3863 21.5481 20.7207C20.8257 19.759 20.1041 18.7973 19.3831 17.8356C18.9663 17.2769 19.0154 16.9451 19.5708 16.5261C20.1928 16.0569 20.8148 15.5877 21.4411 15.125C21.7292 14.9068 21.9082 14.6482 21.81 14.2848C21.7172 13.9378 21.4422 13.8058 21.1029 13.761C20.3303 13.6585 19.5599 13.5428 18.7906 13.4337C18.0955 13.3311 17.8838 13.0692 17.9788 12.3807C18.1512 11.1214 18.3331 9.86439 18.5244 8.60952C18.6149 8.01919 18.9139 7.80968 19.4944 7.89152C20.2921 8.00064 21.0909 8.10976 21.8863 8.23961C22.2301 8.29526 22.5203 8.23961 22.7124 7.93844C22.9186 7.61108 22.8215 7.31755 22.6033 7.03275C22.1308 6.41295 21.6583 5.79316 21.2054 5.16026C21.0662 4.93377 20.9437 4.69745 20.8388 4.45317C20.8541 4.40407 20.8693 4.35496 20.8835 4.30586C20.0008 4.43571 19.1049 4.50555 18.2385 4.70524C13.5704 5.78224 9.91268 9.71817 9.31471 14.467C8.7211 19.1886 10.3863 23.01 14.2251 25.858C14.7707 26.2628 15.3283 26.6742 15.7909 27.1674C16.5155 27.94 16.8614 28.9079 16.8909 29.9674C16.916 30.9091 16.8909 31.853 16.9029 32.7969C16.9149 33.7408 17.4485 34.3137 18.4 34.3246C20.1903 34.3384 21.9813 34.3384 23.773 34.3246C24.7267 34.3169 25.2614 33.7561 25.2669 32.8045C25.2669 31.9709 25.257 31.1361 25.2669 30.3024C25.2941 28.6198 25.9729 27.27 27.3499 26.2814C27.8955 25.8918 28.4269 25.4914 29.0064 25.0669L29.923 26.0915C29.4745 26.4352 29.0817 26.7997 28.6321 27.0736C27.1874 27.9466 26.5425 29.2025 26.6516 30.8819C26.6941 31.5486 26.6603 32.2208 26.657 32.8907C26.657 33.8434 26.2587 34.5963 25.5156 35.1899C25.3741 35.3178 25.288 35.4959 25.2756 35.6864C25.2538 36.6685 25.2199 37.6571 25.2756 38.6381C25.364 40.1897 24.73 41.593 22.7997 42.0077L19.3624 42.0011ZM22.5891 4.68232C23.0103 5.24756 23.4206 5.77351 23.8036 6.31911C24.335 7.07312 24.3895 7.8817 23.9127 8.66517C23.4358 9.44865 22.684 9.75637 21.7696 9.63088C21.1367 9.54577 20.5027 9.45629 19.8273 9.36245C19.6963 10.2856 19.5676 11.1836 19.4355 12.1112C20.0902 12.2083 20.7122 12.301 21.332 12.3883C21.8264 12.4412 22.2881 12.6605 22.6414 13.0103C22.8437 13.2105 23.0022 13.4504 23.107 13.7149C23.2118 13.9794 23.2607 14.2628 23.2504 14.5472C23.2401 14.8315 23.171 15.1107 23.0474 15.3669C22.9238 15.6232 22.7484 15.8511 22.5323 16.0362C21.9867 16.5065 21.3964 16.9211 20.7962 17.3827L22.4625 19.6C23.0015 19.1985 23.5046 18.8242 24.0065 18.4477C24.5085 18.0713 25.0977 17.8727 25.7372 18.0112C26.9375 18.26 27.5867 19.2836 27.3925 20.5745C27.3041 21.1637 27.2245 21.754 27.1361 22.3738L29.887 22.7634C29.9721 22.1512 30.0561 21.5871 30.1281 21.0175C30.2623 19.9677 30.8068 19.2716 31.6973 19.0293C32.5877 18.7871 33.3962 19.1035 34.0455 19.959C34.4078 20.437 34.7668 20.9171 35.1367 21.4147L37.3649 19.743C36.9677 19.2137 36.5869 18.7151 36.2159 18.2077C35.6332 17.4111 35.5721 16.5087 36.0413 15.7557C36.5105 15.0028 37.3442 14.6646 38.3186 14.813C38.9079 14.9057 39.5004 14.9799 40.1278 15.0672C40.2631 14.1331 40.3919 13.2373 40.5239 12.3207C40.0983 12.2574 39.7219 12.2039 39.3443 12.1461C39.017 12.0959 38.6896 12.0544 38.3754 11.9879C37.5482 11.8133 37.0059 11.2949 36.7931 10.4973C36.5749 9.68217 36.7866 8.94125 37.4478 8.38801C37.9989 7.92534 38.5849 7.50524 39.1763 7.0513L37.5122 4.83836C36.8891 5.29339 36.3239 5.74951 35.7172 6.14125C35.4865 6.28915 35.2285 6.38947 34.9585 6.43629C34.6885 6.48311 34.4118 6.47549 34.1448 6.41389C33.8777 6.35228 33.6257 6.23794 33.4034 6.07756C33.1812 5.91718 32.9933 5.71401 32.8506 5.47998C32.4862 4.90492 32.5156 4.2884 32.6095 3.6566C32.6859 3.13501 32.759 2.61342 32.8365 2.06564L31.4583 1.8725L30.0834 1.68154C29.9808 2.37554 29.8891 3.00952 29.7953 3.64569C29.7597 3.9455 29.6587 4.23384 29.4996 4.49043C29.3405 4.74702 29.1271 4.96561 28.8743 5.1308C27.9174 5.76369 26.7509 5.54545 26.0034 4.58521C25.604 4.07344 25.221 3.54966 24.8206 3.01934L22.5891 4.68232ZM3.03708 29.3105L4.31814 30.5949C4.73934 30.3057 5.18455 29.9914 5.63848 29.6925C6.59 29.0672 7.62663 29.4797 7.88197 30.584C8.00746 31.1296 8.11767 31.6752 8.23334 32.2109H9.89304C10.0022 31.6806 10.1113 31.1732 10.2204 30.6691C10.5052 29.4273 11.52 29.0323 12.5785 29.7557C13.004 30.0438 13.4263 30.3363 13.8879 30.6494C14.3146 30.213 14.7019 29.7852 15.1166 29.3902C15.3043 29.2112 15.3348 29.0716 15.2257 28.8304C14.7412 27.6901 13.6457 27.2264 12.7672 26.5094C11.5418 28.5936 9.49366 29.0126 8.00746 28.6285C6.30629 28.1921 4.98049 26.7386 4.8932 24.9338C4.77098 22.4153 6.15025 20.9684 8.50723 20.3835C8.33373 19.66 8.16677 18.9584 7.98673 18.2011C7.94963 18.3102 7.92453 18.3768 7.90816 18.4423C7.57426 19.7462 6.61073 20.1107 5.49772 19.3512L4.31814 18.5427L3.0338 19.827C3.32406 20.2493 3.63942 20.6923 3.9384 21.1473C4.56475 22.101 4.15664 23.1289 3.04472 23.3875C2.49912 23.5141 1.95352 23.6254 1.39592 23.7487V25.3932C1.9688 25.5176 2.48712 25.6267 3.00871 25.7445C4.16646 26.0086 4.57784 27.0419 3.91658 28.036C3.62196 28.4714 3.31642 28.9046 3.03708 29.3105ZM9.27652 27.3366C10.1626 27.2951 10.9951 26.8052 11.5342 25.8176C11.6586 25.5874 11.6313 25.4401 11.4513 25.2524C10.6013 24.364 9.88754 23.3546 9.33326 22.2571C9.06374 21.7235 9.04191 21.718 8.44612 21.8588C7.78674 22.0046 7.20381 22.3873 6.80795 22.9344C6.4121 23.4815 6.23087 24.1549 6.29865 24.8268C6.44705 26.2727 7.57971 27.3038 9.27652 27.3366ZM18.3214 38.5268C18.3127 38.6577 18.304 38.7515 18.3029 38.8465C18.2876 40.0741 18.8048 40.6022 20.0215 40.6033H22.1504C23.4773 40.6033 24.0698 39.8798 23.8298 38.53L18.3214 38.5268ZM23.8494 37.094V35.7562H18.3323V37.094H23.8494Z" fill="black"/>
<path d="M21.7724 29.4316H20.4226C20.3735 29.1163 20.3419 28.8042 20.2742 28.5009C19.9556 27.0747 19.1372 26.0206 17.8038 25.4324C16.3383 24.7853 15.0049 23.9779 13.8962 22.7983C10.5135 19.1973 10.4906 13.2231 13.8962 9.63741C14.4844 9.0187 15.1653 8.48729 15.8429 7.88058L16.622 9.11254C16.3481 9.31987 16.095 9.49991 15.8582 9.69524C14.7401 10.5928 13.872 11.7631 13.3375 13.0935C12.803 14.4239 12.6201 15.8696 12.8065 17.2912C12.9929 18.7128 13.5423 20.0624 14.4017 21.21C15.2611 22.3577 16.4015 23.2647 17.7132 23.8436C18.7466 24.3074 19.7166 24.8323 20.4412 25.7303C21.305 26.77 21.7762 28.08 21.7724 29.4316Z" fill="black"/>
<path d="M33.2002 30.6865C33.5079 30.3155 33.7851 29.9805 34.0895 29.615L38.2699 33.097C37.9665 33.4603 37.6828 33.803 37.3784 34.1685L33.2002 30.6865Z" fill="black"/>
<path d="M30.1904 31.5595H31.513V36.3946H30.1904V31.5595Z" fill="black"/>
<path d="M39.2025 25.9944V27.3333H34.3652V25.9944H39.2025Z" fill="black"/>
<path d="M20.4199 32.9027V30.872H21.773V32.9027H20.4199Z" fill="black"/>
<path d="M7.55781 7.2739L6.74815 8.40983L1.87598 4.93439L2.67909 3.79736L7.55781 7.2739Z" fill="black"/>
<path d="M9.27011 5.92626C8.79108 4.0516 8.32623 2.23149 7.85156 0.361185L9.19482 0C9.66949 1.85503 10.1387 3.68277 10.621 5.56508L9.27011 5.92626Z" fill="black"/>
<path d="M0.71582 12.0544C0.934059 11.9944 1.08901 11.9453 1.24723 11.9071L6.28526 10.6555L6.61262 11.9769C6.55322 12.0057 6.49198 12.0305 6.4293 12.0511C4.65721 12.4952 2.88402 12.9383 1.05518 13.3944L0.71582 12.0544Z" fill="black"/>
<path d="M35.5371 12.2115C35.5187 13.6759 34.9246 15.0743 33.8832 16.104C32.8419 17.1338 31.437 17.7123 29.9724 17.7143C28.5079 17.7163 27.1014 17.1417 26.0573 16.1148C25.0131 15.0879 24.4151 13.6912 24.3927 12.2268C24.3698 9.17146 26.8883 6.64317 29.9578 6.63771C30.6906 6.63584 31.4165 6.7787 32.0939 7.05808C32.7713 7.33746 33.3868 7.74787 33.9052 8.26575C34.4236 8.78362 34.8346 9.39877 35.1146 10.0759C35.3947 10.753 35.5382 11.4788 35.5371 12.2115ZM34.1426 12.2399C34.1539 11.6859 34.0549 11.1353 33.8514 10.6199C33.6479 10.1046 33.3439 9.63483 32.9571 9.23807C32.5704 8.84131 32.1085 8.52544 31.5986 8.30884C31.0886 8.09224 30.5406 7.97924 29.9865 7.97642C29.4324 7.9736 28.8834 8.08101 28.3712 8.2924C27.859 8.50379 27.394 8.81494 27.0032 9.20774C26.6124 9.60054 26.3037 10.0671 26.0949 10.5804C25.8862 11.0936 25.7816 11.6433 25.7873 12.1973C25.7807 14.4583 27.6794 16.3788 29.9491 16.3919C32.2188 16.405 34.1295 14.5172 34.1426 12.2454V12.2399Z" fill="black"/>
</g>
<defs>
<clipPath id="clip0_321_2089">
<rect width="42.0055" height="42" fill="white"/>
</clipPath>
</defs>
</svg>
