<svg width="233" height="87" viewBox="0 0 233 87" fill="none" xmlns="http://www.w3.org/2000/svg">
<path d="M2.15767 41.1688C4.00862 43.3465 5.9445 45.5141 7.92312 47.6103L8.45938 48.1803L7.31419 49.2623L6.76728 48.7003C4.77546 46.5908 2.81844 44.3992 0.951672 42.2002L0.444737 41.5985L1.62683 40.5749L2.15767 41.1688ZM14.0082 53.7351C16.1093 55.7337 18.2716 57.6769 20.4052 59.4927L21.0054 60.0019L19.987 61.2013L19.3869 60.692C17.2294 58.8576 15.0593 56.8772 12.9503 54.8812L12.3794 54.3402L13.4665 53.2022L14.0082 53.7351ZM111.869 1.11143L112.618 0.865569L113.097 2.36348L112.351 2.60406C110.88 3.08028 109.479 3.74796 108.183 4.58989C107.154 5.26009 106.187 6.02069 105.293 6.86266L104.72 7.4037L103.645 6.25577L104.215 5.72003C105.177 4.81268 106.221 3.9946 107.331 3.2759C108.743 2.35961 110.268 1.63194 111.869 1.11143ZM100.647 12.7925L100.339 13.5203C99.3161 16.0626 99.1997 18.8798 100.009 21.4987L100.208 22.2634L98.6729 22.6701L98.469 21.9027C97.5596 18.9357 97.7038 15.7463 98.8771 12.8745L99.1904 12.1493L100.647 12.7925ZM120.807 0.393877C123.763 0.832037 126.624 1.76782 129.267 3.1615L129.966 3.51476L129.257 4.91708L128.558 4.56381C126.065 3.24558 123.367 2.3581 120.578 1.93894L119.801 1.83195L120.017 0.273564L120.807 0.393877ZM27.1751 64.8807C29.5159 66.6285 31.8996 68.2783 34.26 69.7901L34.9215 70.2175L34.0725 71.5422L33.4109 71.1149C31.0215 69.5817 28.6034 67.9078 26.2254 66.1546L25.5986 65.685L26.5349 64.4243L27.1751 64.8807ZM103.752 28.9175C105.453 31.1865 107.398 33.2614 109.553 35.1047L110.148 35.6245L109.116 36.8105L108.521 36.2907C106.271 34.3727 104.243 32.209 102.475 29.8399L102.01 29.2066L103.277 28.2789L103.752 28.9175ZM136.508 8.19631C138.711 10.1582 140.699 12.348 142.44 14.7288L142.905 15.3621L141.638 16.2898L141.174 15.6565C139.497 13.3691 137.583 11.2644 135.466 9.37697L134.874 8.85182L135.918 7.67912L136.508 8.19631ZM41.6866 74.1681C44.2465 75.5482 46.8653 76.7854 49.4315 77.9163L50.1519 78.2273L49.5306 79.6671L48.8102 79.3562C46.1935 78.233 43.5431 76.9532 40.9408 75.5517L40.2418 75.1984L40.9824 73.8121L41.6866 74.1681ZM116.457 40.1353C118.895 41.6254 121.43 42.9509 124.044 44.1029L124.762 44.4191L124.13 45.8536L123.412 45.5374C120.732 44.3586 118.133 43.0009 115.634 41.4734L114.965 41.0619L115.787 39.7238L116.457 40.1353ZM146.583 21.6323L146.89 22.3392C147.366 23.3968 147.802 24.4809 148.18 25.5487C148.775 27.2463 149.228 28.9906 149.533 30.7634L149.665 31.541L148.157 31.802L148.022 31.0296C147.731 29.3415 147.296 27.6812 146.721 26.0671C146.359 25.0338 145.939 23.9976 145.479 22.9745L145.171 22.2677L146.583 21.6323ZM57.4661 80.8942C60.1888 81.7719 62.9559 82.5052 65.7558 83.0909L66.5246 83.2535L66.2132 84.7902L65.4418 84.6329C62.5841 84.0405 59.7595 83.2981 56.9797 82.4089L56.2299 82.1694L56.7082 80.6706L57.4661 80.8942ZM132.071 47.0436C134.812 47.8718 137.597 48.5495 140.412 49.0734L141.186 49.2122L140.896 50.7596L140.125 50.6156C137.253 50.0824 134.413 49.3922 131.617 48.5478L130.864 48.3137L131.324 46.8121L132.071 47.0436ZM74.2642 84.3683C77.1127 84.6245 79.9737 84.7129 82.8324 84.6329L83.6152 84.61L83.6645 86.1829L82.8765 86.2031C79.9567 86.285 77.0345 86.1945 74.1252 85.9323L73.3429 85.8624L73.4713 84.293L74.2642 84.3683ZM149.885 38.8801L149.797 39.6594C149.446 42.5996 148.716 45.4818 147.624 48.2339L147.334 48.9645L145.869 48.3903L146.159 47.6597C147.201 45.0343 147.898 42.2848 148.232 39.4798L148.32 38.7006L149.885 38.8801ZM91.3623 83.8817C94.1868 83.4756 97.0251 82.9237 99.795 82.2442L100.554 82.0568L100.936 83.5781L100.176 83.7656C97.3531 84.4581 94.4644 85.0177 91.6002 85.4103L90.825 85.5235L90.6005 83.9684L91.3623 83.8817ZM148.929 50.2156C151.785 50.441 154.651 50.5214 157.516 50.4565L158.301 50.4415L158.337 52.0143L157.552 52.0293C154.633 52.0941 151.713 52.0108 148.803 51.7797L148.015 51.7204L148.141 50.1563L148.929 50.2156ZM143.955 55.3483L143.517 56.004C141.883 58.4432 140.042 60.7381 138.016 62.8634L137.475 63.4338L136.339 62.3678L136.88 61.7974C138.848 59.741 140.638 57.5206 142.228 55.1601L142.666 54.5044L143.955 55.3483ZM108.05 79.7998C110.756 78.8392 113.412 77.7423 116.007 76.5132L116.703 76.2008L117.377 77.6174L116.667 77.9563C114.026 79.1991 111.325 80.3082 108.572 81.2793L107.818 81.5623L107.296 80.0827L108.05 79.7998ZM132.171 68.2998L131.553 68.7849C129.262 70.5974 126.863 72.2691 124.37 73.7908L123.697 74.2014L122.859 72.861L123.526 72.4477C125.966 70.9558 128.315 69.3185 130.558 67.5445L131.17 67.0567L132.171 68.2998ZM166.093 49.8487C168.928 49.4668 171.736 48.9093 174.502 48.1793L175.267 47.9813L175.664 49.5106L174.899 49.7086C172.065 50.4506 169.187 51.0131 166.283 51.393L165.505 51.4982L165.294 49.9431L166.093 49.8487ZM232.382 10.3935L231.86 10.9798C229.943 13.1404 227.942 15.2846 225.912 17.3413L225.364 17.901L224.243 16.8032L224.792 16.2435C226.803 14.1974 228.786 12.0769 230.691 9.92429L231.214 9.33795L232.382 10.3935ZM220.228 22.8526L219.643 23.4201C217.478 25.4018 215.257 27.3223 213.053 29.1182L212.444 29.614L211.451 28.3949L212.061 27.8991C214.243 26.119 216.437 24.2249 218.581 22.259L219.161 21.7286L220.228 22.8526ZM182.657 45.5116C185.256 44.5131 187.898 43.3371 190.514 42.0284L191.216 41.6789L191.921 43.085L191.219 43.4345C188.561 44.7483 185.868 45.9586 183.224 46.9808L182.486 47.2717L181.9 45.7998L182.657 45.5116ZM206.77 33.9214L206.129 34.3746C203.731 36.0927 201.321 37.6914 198.853 39.1944L198.18 39.6051L197.363 38.2621L198.036 37.8514C200.47 36.3642 202.848 34.7892 205.219 33.0975L205.854 32.6416L206.77 33.9214Z" fill="#6295AB"/>
</svg>
