<svg width="70" height="70" viewBox="0 0 70 70" fill="none" xmlns="http://www.w3.org/2000/svg">
<path d="M18.7262 0.0054748C18.9456 0.167206 19.1565 0.340206 19.358 0.523777C22.8884 4.04604 26.4188 7.57074 29.9491 11.0979C30.2632 11.4118 30.5134 11.7476 30.5298 12.2166C30.5627 13.0689 30.0003 13.6876 29.111 13.7058C27.9733 13.7295 26.8321 13.7295 25.6944 13.7058C25.2197 13.6949 25.059 13.8646 25.0608 14.3391C25.0717 18.8225 25.0717 23.3072 25.0608 27.793C25.0608 28.3405 25.2434 28.4281 25.709 28.211C26.5414 27.836 27.3064 27.3267 27.9733 26.7035C28.4846 26.2162 29.0525 26.0228 29.7154 26.3166C30.3783 26.6104 30.5627 27.1561 30.5353 27.8277C30.4805 29.191 30.643 30.5652 30.4203 31.9176C30.1336 33.6794 29.3543 35.3244 28.1724 36.6626C28.0415 36.8014 27.9395 36.9649 27.8724 37.1435C27.8053 37.3221 27.7745 37.5122 27.7816 37.7028C27.8035 39.8417 27.8327 41.9843 27.7816 44.1232C27.7104 47.7404 26.0359 50.4505 22.9773 52.3357C22.8622 52.4069 22.7417 52.4726 22.612 52.5329C22.3034 52.6825 22.2834 52.9508 22.3381 53.2318C22.4002 53.5476 22.6686 53.4946 22.886 53.4965C24.1386 53.4965 25.3913 53.5056 26.644 53.4965C29.8761 53.4746 32.4563 54.774 34.4522 57.2906C34.9817 57.9531 34.9781 57.9531 35.4839 57.3162C37.4926 54.7867 40.0874 53.4618 43.3487 53.4965C44.5557 53.5092 45.7628 53.4965 46.9698 53.4965C47.2218 53.4965 47.5505 53.6023 47.6308 53.2008C47.702 52.8358 47.5267 52.6204 47.2035 52.4452C45.045 51.2985 43.4142 49.3613 42.653 47.0396C42.3281 46.1138 42.1657 45.1389 42.1727 44.1579C42.1874 42.2684 42.1874 40.3789 42.1727 38.4894C42.1563 36.1315 42.9561 34.0729 44.4571 32.2844C44.7732 31.9294 44.9383 31.4652 44.9173 30.9905C44.8936 29.6473 44.8863 28.304 44.9173 26.9608C44.9319 26.4133 44.7347 26.2473 44.2051 26.2637C43.1351 26.2947 42.0632 26.2637 40.9931 26.2746C40.3376 26.2746 39.8263 26.052 39.5633 25.4333C39.3004 24.8146 39.4501 24.2325 39.9285 23.7507C43.5039 20.1773 47.0812 16.6045 50.6602 13.0324C51.3815 12.3133 52.1759 12.3024 52.8899 13.016C56.4738 16.5796 60.0517 20.1517 63.6234 23.7324C64.1055 24.2142 64.2826 24.7727 64.0215 25.4114C63.7604 26.0502 63.2162 26.2856 62.5369 26.2765C61.4413 26.2619 60.3456 26.2874 59.25 26.2673C58.8026 26.2673 58.6492 26.4298 58.6547 26.8696C58.673 28.3478 58.6675 29.8279 58.6547 31.308C58.6498 31.6045 58.762 31.8911 58.967 32.1055C60.6095 33.9438 61.4805 36.3437 61.3993 38.807C61.3591 40.5809 61.423 42.3584 61.3828 44.1342C61.2988 47.7513 59.628 50.4596 56.5657 52.3467C56.4306 52.4306 56.2882 52.5018 56.1512 52.584C55.8791 52.7427 55.9029 53.0019 55.9485 53.2501C55.9942 53.4983 56.2352 53.5001 56.4379 53.5019C57.7819 53.5019 59.1258 53.5019 60.4698 53.5019C62.9942 53.5063 65.414 54.5096 67.2 56.2926C68.986 58.0755 69.9928 60.4928 70 63.0157C70 64.7458 70 66.4832 70 68.206C70 69.5456 69.5453 69.9891 68.1739 69.9891H27.137C18.6641 69.9891 10.19 69.9927 1.71467 70C0.958679 70 0.381646 69.7846 0 69.1222V61.6159C0.0584338 61.3969 0.118694 61.1779 0.182606 60.9571C1.27824 56.4694 5.03443 53.5184 9.66166 53.5092C10.9143 53.5092 12.167 53.5092 13.4197 53.5092C13.6534 53.5092 13.9529 53.5877 14.0223 53.2282C14.0862 52.9052 14.0058 52.6423 13.6735 52.4982C13.59 52.4611 13.5094 52.4178 13.4325 52.3686C10.3282 50.4888 8.6555 47.7641 8.57881 44.1177C8.54229 42.2927 8.59524 40.4677 8.56603 38.6555C8.5295 36.1717 9.36218 34.0181 10.9673 32.1512C11.1987 31.9004 11.3221 31.5687 11.3106 31.2277C11.296 30.182 11.3106 29.1344 11.3106 28.0869C11.3106 27.0393 11.8474 26.459 12.7386 26.4663C13.6297 26.4736 14.1264 27.0703 14.1373 28.1179C14.1373 28.5048 14.1483 28.8917 14.1373 29.2786C14.1373 29.6308 14.256 29.7221 14.592 29.598C15.0175 29.441 15.4521 29.3005 15.8922 29.1837C17.6853 28.711 19.5169 28.9866 21.332 28.9245C22.245 28.8953 22.245 28.9245 22.245 28.0339V13.0762C22.245 11.1909 22.5463 10.8862 24.4089 10.8862H25.6871C23.1836 8.39504 20.8426 6.07363 18.518 3.73032C18.1199 3.33064 17.93 3.65549 17.6963 3.88909C15.505 6.0791 13.3138 8.26911 11.1225 10.4591C11.0221 10.5595 10.8413 10.6307 10.8979 10.888H11.7653C12.083 10.888 12.4026 10.8789 12.7203 10.888C13.5256 10.9263 14.0844 11.4209 14.1063 12.1965C14.1404 13.3572 14.1404 14.5179 14.1063 15.6786C14.1023 15.856 14.063 16.0308 13.9907 16.1928C13.9184 16.3548 13.8146 16.5008 13.6852 16.6223C13.5559 16.7437 13.4036 16.8382 13.2373 16.9003C13.071 16.9623 12.894 16.9906 12.7166 16.9835C12.3593 16.9984 12.0106 16.8715 11.7466 16.6305C11.4825 16.3895 11.3245 16.0539 11.3069 15.6969C11.2768 15.2424 11.2768 14.7863 11.3069 14.3318C11.3362 13.8482 11.1353 13.6949 10.6678 13.704C9.52836 13.7259 8.39072 13.704 7.25127 13.704C6.97514 13.7187 6.70138 13.6462 6.46871 13.4969C6.23604 13.3475 6.05625 13.1289 5.95477 12.8718C5.8379 12.6221 5.79773 12.3433 5.83933 12.0708C5.88093 11.7982 6.00244 11.5441 6.1885 11.3406C6.30741 11.2026 6.43359 11.071 6.56649 10.9464C9.99583 7.5166 13.427 4.08862 16.86 0.662477C17.0992 0.423401 17.3767 0.220826 17.636 0L18.7262 0.0054748ZM24.964 41.8949C24.964 41.1448 24.9512 40.3929 24.964 39.6428C24.9768 39.2048 24.8179 39.1336 24.4363 39.2906C23.5952 39.6458 22.7012 39.8598 21.7903 39.9239C18.3954 40.1633 15.027 39.1799 12.2948 37.1517C11.6228 36.6662 11.6174 36.6699 11.5115 37.5295C11.2668 39.4804 11.4128 41.4386 11.3982 43.3932C11.3727 46.6782 12.7678 49.0781 15.8867 50.3501C16.1917 50.454 16.4531 50.6569 16.6295 50.9264C16.8059 51.1959 16.887 51.5166 16.86 51.8375C16.8472 52.5201 16.86 53.2026 16.86 53.8852C16.86 54.2502 17.7858 55.42 18.1072 55.4912C18.266 55.5277 18.361 55.4255 18.4596 55.3361C19.0878 54.763 19.7196 54.2082 19.5059 53.2063C19.4347 52.8796 19.4931 52.5256 19.495 52.1843C19.495 50.9414 19.6611 50.7133 20.7732 50.2242C22.822 49.3263 24.1514 47.8006 24.7102 45.6288C25.0334 44.3988 24.9677 43.1468 24.964 41.8949ZM58.6018 43.3969C58.7606 42.8256 58.4392 42.5136 57.7435 42.3019C56.314 41.8604 55.0906 40.9207 54.2959 39.6538C53.9672 39.1428 53.8047 39.2632 53.4614 39.6008C51.3752 41.6135 48.5781 42.7213 45.6788 42.6833C45.3556 42.6742 45.0323 42.6468 45.0159 43.1377C44.9246 45.8916 45.8285 48.5835 48.668 49.9158C50.1563 50.6148 50.7169 51.4798 50.4941 53.0037C50.4941 53.0493 50.4941 53.0968 50.4941 53.1406C50.2987 54.0951 50.7936 54.7247 51.4674 55.2977C51.7267 55.5186 51.8837 55.5386 52.1521 55.3069C52.8186 54.7338 53.308 54.117 53.1437 53.1515C53.0725 52.7318 53.1437 52.2883 53.1309 51.8576C53.109 51.102 53.4614 50.6202 54.1535 50.3374C57.1774 49.0891 58.5251 46.7385 58.6018 43.3969ZM59.1952 23.455C59.1331 23.3481 59.0635 23.2456 58.9871 23.1484C56.7191 20.8799 54.4438 18.6206 52.1868 16.3393C51.8326 15.9743 51.639 16.1312 51.3596 16.4068C49.1465 18.6333 46.9284 20.8544 44.7055 23.0699C44.6178 23.1575 44.4663 23.2232 44.532 23.4532C45.0141 23.4532 45.5089 23.4532 46.0038 23.4532C47.282 23.4532 47.7459 23.9186 47.7495 25.1687C47.7495 26.4644 47.7678 27.762 47.7495 29.0578C47.7495 29.5724 47.8079 29.7513 48.3886 29.5305C50.5958 28.6672 53.0474 28.6672 55.2546 29.5305C55.7787 29.7294 55.8773 29.598 55.87 29.0943C55.8481 27.7073 55.8517 26.3203 55.87 24.9333C55.8809 23.9879 56.4178 23.4732 57.3637 23.4513C57.9316 23.444 58.5214 23.455 59.1952 23.455ZM10.9216 67.1676C11.6046 67.1676 12.2875 67.1457 12.9686 67.1676C13.5311 67.1931 13.6772 67.0088 13.5585 66.4376C12.9686 63.6143 12.4172 60.7801 11.8474 57.9549C11.5096 56.2851 11.5041 56.2869 9.79131 56.3252C6.34554 56.4 3.62837 58.5152 2.97099 61.7053C2.62769 63.3661 2.81212 65.0597 2.78839 66.7387C2.78839 67.0763 2.98925 67.1585 3.27777 67.1548C3.77811 67.1548 4.28027 67.1274 4.77879 67.1548C5.30834 67.1931 5.43982 66.9522 5.42886 66.4686C5.4033 65.401 5.41425 64.3315 5.42886 63.2639C5.42886 62.2802 5.97668 61.6944 6.8331 61.6907C7.68952 61.6871 8.24281 62.2729 8.25377 63.2475C8.26473 64.3607 8.26655 65.4758 8.25377 66.5891C8.25377 66.9997 8.40351 67.1639 8.81619 67.153C9.51192 67.1548 10.2168 67.1676 10.9216 67.1676ZM44.5631 67.1676C45.2003 67.1676 45.8413 67.1676 46.4731 67.1676C47.2985 67.1676 47.3094 67.153 47.1542 66.3719C46.593 63.565 46.0312 60.7582 45.4688 57.9513C45.1346 56.2942 45.1291 56.296 43.4017 56.338C39.9669 56.4201 37.3173 58.4879 36.6051 61.667C36.3458 62.8295 36.4042 64.0176 36.4061 65.1984C36.4061 67.2351 36.4061 67.2205 38.4147 67.1785C38.8877 67.1676 39.0575 67.0161 39.0484 66.5416C39.0246 65.4466 39.0338 64.3516 39.0484 63.2675C39.0575 62.293 39.5962 61.7072 40.4672 61.7108C41.3382 61.7145 41.8623 62.3003 41.8714 63.284C41.8806 64.306 41.9134 65.3316 41.8605 66.3518C41.824 67.0344 42.0796 67.2296 42.7206 67.1785C43.3232 67.1311 43.9477 67.1694 44.5631 67.1694V67.1676ZM25.3712 67.1676C26.0779 67.1676 26.7828 67.1475 27.4876 67.1676C27.9679 67.1877 28.1267 66.9997 28.1158 66.5307C28.0939 65.4174 28.0993 64.3023 28.1158 63.1872C28.1286 62.2747 28.6965 61.6962 29.5364 61.7035C30.3764 61.7108 30.9206 62.2857 30.937 63.211C30.9498 63.8935 30.937 64.5761 30.937 65.2586C30.937 67.226 30.937 67.2132 32.9457 67.1712C33.415 67.1603 33.5921 67.0143 33.5812 66.538C33.5556 65.443 33.5976 64.3479 33.5647 63.2639C33.5045 61.1943 32.7923 59.4168 31.2055 58.0152C29.4652 56.4785 27.3707 56.2577 25.1959 56.3343C24.8179 56.3471 24.785 56.6245 24.7303 56.8946C24.0826 60.1249 23.4319 63.3539 22.7782 66.5818C22.6924 67.0088 22.822 67.1731 23.253 67.1639C23.967 67.1566 24.6664 67.1676 25.3712 67.1676ZM59.0309 67.1676C59.7357 67.1676 60.4424 67.1512 61.1473 67.1676C61.5947 67.1822 61.7481 66.9997 61.7407 66.5635C61.7207 65.4503 61.7261 64.3352 61.7407 63.2219C61.7517 62.2893 62.2886 61.7126 63.1286 61.7035C63.9959 61.6926 64.5529 62.2802 64.562 63.2456C64.5748 64.3406 64.5803 65.4357 64.562 66.5197C64.5529 66.9778 64.688 67.1986 65.1792 67.1676C65.6567 67.1411 66.1352 67.1411 66.6127 67.1676C67.0546 67.1895 67.2189 67.0161 67.2116 66.5726C67.1915 65.4594 67.2335 64.3425 67.1952 63.231C67.1404 61.6506 66.7222 60.1906 65.7106 58.9259C63.9357 56.7048 61.5216 56.2066 58.8611 56.3307C58.4959 56.3489 58.4265 56.5771 58.368 56.8636C57.718 60.1158 57.0636 63.3667 56.405 66.6164C56.3265 67.0052 56.4507 67.1639 56.8506 67.1639C57.5755 67.1603 58.2968 67.1676 59.0272 67.1676H59.0309ZM45.0177 38.88C45.0177 39.8545 45.0433 39.8892 45.8449 39.8381C49.0862 39.6337 51.5568 38.1846 53.1619 35.3249C53.6039 34.5401 54.1736 34.2554 54.8839 34.4123C55.5212 34.5602 55.8755 35.0182 55.9595 35.8851C56.1001 37.3634 56.7374 38.5259 58.0375 39.2942C58.4027 39.5059 58.6401 39.5333 58.5853 38.9949C58.5488 38.588 58.5269 38.1792 58.4831 37.774C58.381 36.8235 58.0765 35.9059 57.5901 35.0828C57.1036 34.2598 56.4464 33.5503 55.6628 33.0023C54.8791 32.4542 53.9871 32.0802 53.0468 31.9053C52.1064 31.7305 51.1395 31.759 50.211 31.9887C47.0428 32.7625 45.0506 35.4106 45.0177 38.8781V38.88ZM27.5899 30.5452C27.4073 30.6182 27.2813 30.662 27.1607 30.7185C25.6341 31.445 23.9572 31.8002 22.2669 31.7551C21.0161 31.7223 19.7634 31.7369 18.5107 31.7551C16.6244 31.777 14.9317 32.3227 13.5201 33.6276C13.1841 33.9397 13.1001 34.1568 13.5201 34.4799C16.0218 36.4107 18.8157 37.367 21.9875 36.9893C25.0626 36.6188 27.6191 33.7006 27.5899 30.5433V30.5452ZM18.1729 67.1676C18.4454 67.153 18.7185 67.153 18.991 67.1676C19.5114 67.2242 19.7579 67.038 19.8638 66.4942C20.4829 63.3077 21.1421 60.1285 21.7739 56.9457C21.8122 56.7632 21.9273 56.515 21.6844 56.3982C21.4835 56.3015 21.3594 56.5095 21.2352 56.63C20.5869 57.2687 19.957 57.9239 19.2996 58.5536C18.5692 59.2562 17.7986 59.2598 17.07 58.5627C16.429 57.9495 15.8155 57.3071 15.18 56.6902C15.0303 56.5442 14.8878 56.254 14.6322 56.4219C14.4368 56.5515 14.5719 56.7979 14.6103 56.995C15.1855 59.8895 15.7388 62.7894 16.3468 65.6766C16.7157 67.4486 16.3213 67.1329 18.1729 67.1676ZM51.7997 67.1676C52.0722 67.153 52.3453 67.153 52.6178 67.1676C53.14 67.226 53.3847 67.0344 53.4888 66.4923C54.1078 63.3059 54.7671 60.1267 55.4007 56.9439C55.439 56.7614 55.5523 56.5114 55.3076 56.3964C55.1085 56.3033 54.9825 56.5095 54.8584 56.6318C54.2119 57.2706 53.5801 57.9257 52.9227 58.5536C52.1923 59.2562 51.4217 59.258 50.6931 58.5536C50.0522 57.9403 49.4404 57.2998 48.805 56.6811C48.6552 56.5351 48.511 56.2449 48.2572 56.4165C48.0654 56.5442 48.1987 56.7924 48.2371 56.9877C48.8141 59.884 49.3656 62.7839 49.9737 65.6711C50.3407 67.4486 49.9463 67.1329 51.7997 67.1676Z" fill="#141C5B"/>
<path d="M12.4861 22.999C12.1902 22.9964 11.9018 22.9062 11.657 22.74C11.4123 22.5738 11.2222 22.3389 11.1107 22.0649C10.9991 21.7909 10.9711 21.49 11.0302 21.2001C11.0893 20.9102 11.2328 20.6443 11.4427 20.4358C11.6525 20.2273 11.9194 20.0855 12.2097 20.0283C12.5 19.9711 12.8007 20.001 13.074 20.1143C13.3473 20.2276 13.581 20.4192 13.7456 20.665C13.9103 20.9108 13.9986 21.1998 13.9993 21.4956C14.0053 21.6955 13.9702 21.8945 13.8961 22.0802C13.8221 22.266 13.7107 22.4345 13.5688 22.5755C13.4269 22.7164 13.2576 22.8268 13.0714 22.8996C12.8851 22.9725 12.6859 23.0063 12.4861 22.999Z" fill="#141C5B"/>
</svg>
