<svg width="389" height="304" viewBox="0 0 389 304" fill="none" xmlns="http://www.w3.org/2000/svg">
<g clip-path="url(#clip0_153_37975)">
<path d="M389 0H0V304H389V0Z" fill="#FAFAFA"/>
<path d="M232.073 164.888C232.966 162.839 233.527 160.69 233.739 158.504L238.65 156.855L237.7 151.915L236.751 146.975L231.498 146.823C230.48 144.82 229.148 142.952 227.539 141.273L229.68 137.066L225.028 134.161L220.383 131.266L216.552 134.418C214.217 133.635 211.767 133.143 209.276 132.956L207.389 128.65L201.758 129.481L196.127 130.314L195.954 134.923C193.671 135.815 191.541 136.984 189.628 138.396L184.833 136.517L181.532 140.6L178.221 144.683L181.816 148.048C180.923 150.097 180.361 152.246 180.148 154.432L175.239 156.081L176.189 161.021L177.136 165.961L182.39 166.113C183.408 168.116 184.74 169.984 186.349 171.663L184.207 175.87L188.861 178.775L193.513 181.68L197.342 178.527C199.677 179.31 202.127 179.803 204.618 179.989L206.497 184.295L212.127 183.464L217.758 182.631L217.932 178.022C220.215 177.13 222.344 175.961 224.257 174.549L229.046 176.411L232.355 172.33L235.666 168.247L232.073 164.888ZM198.826 166.472C196.57 165.064 194.84 163.1 193.856 160.829C192.872 158.558 192.677 156.083 193.297 153.715C193.916 151.347 195.322 149.194 197.337 147.527C199.352 145.86 201.884 144.755 204.615 144.351C207.345 143.947 210.151 144.263 212.677 145.258C215.204 146.253 217.337 147.883 218.807 149.941C220.277 152 221.019 154.395 220.938 156.823C220.856 159.252 219.956 161.604 218.351 163.584C216.198 166.238 212.932 168.034 209.27 168.575C205.609 169.117 201.852 168.36 198.826 166.472Z" fill="url(#paint0_linear_153_37975)"/>
<path d="M188.943 126.692C189.42 125.602 189.719 124.458 189.832 123.295L192.445 122.416L191.941 119.787L191.435 117.156L188.638 117.078C188.097 116.011 187.387 115.017 186.53 114.123L187.67 111.883L185.192 110.337L182.717 108.789L180.677 110.461C179.434 110.044 178.13 109.782 176.803 109.682L175.804 107.39L172.804 107.832L169.807 108.276L169.719 110.73C168.503 111.205 167.369 111.827 166.351 112.579L163.797 111.579L162.033 113.752L160.271 115.926L162.177 117.715C161.705 118.808 161.411 119.954 161.302 121.12L158.688 121.997L159.193 124.628L159.698 127.257L162.496 127.335C163.034 128.402 163.74 129.397 164.594 130.291L163.454 132.53L165.93 134.078L168.405 135.624L170.445 133.952C171.688 134.368 172.991 134.63 174.317 134.73L175.318 137.023L178.316 136.58L181.315 136.137L181.403 133.682C182.619 133.208 183.753 132.586 184.771 131.834L187.325 132.834L189.089 130.661L190.851 128.487L188.943 126.692ZM171.242 127.536C170.042 126.786 169.123 125.741 168.6 124.532C168.077 123.324 167.974 122.007 168.304 120.748C168.634 119.488 169.383 118.343 170.455 117.456C171.527 116.57 172.874 115.982 174.327 115.767C175.779 115.553 177.272 115.72 178.616 116.25C179.96 116.779 181.095 117.646 181.877 118.741C182.659 119.836 183.054 121.11 183.012 122.402C182.969 123.694 182.491 124.945 181.637 125.999C181.07 126.699 180.351 127.294 179.521 127.75C178.692 128.207 177.768 128.515 176.802 128.658C175.837 128.8 174.849 128.775 173.895 128.582C172.941 128.39 172.039 128.034 171.242 127.536Z" fill="url(#paint1_linear_153_37975)"/>
<path d="M152.081 207.234C179.322 183.335 179.322 144.587 152.081 120.688C124.84 96.7896 80.6737 96.7896 53.4326 120.688C26.1916 144.587 26.1916 183.335 53.4326 207.234C80.6736 231.132 124.84 231.132 152.081 207.234Z" fill="#FAFAFA"/>
<path d="M301.018 71.3366C325.794 88.8546 347.624 73.8781 347.624 73.8781C340.069 73.3172 334.221 67.8878 323.836 64.6228C313.451 61.3578 295.989 67.7798 301.018 71.3366Z" fill="#97A43C"/>
<path d="M330.633 56.0819L324.994 63.6367L325.154 63.7286L330.793 56.1738L330.633 56.0819Z" fill="#97A43C"/>
<path d="M339.776 60.7118C337.434 61.9446 333.366 63.495 327.236 63.8902C321.345 64.2702 316.816 64.7733 312.965 65.474C308.192 66.3419 304.52 67.5123 301.741 69.0475L301.842 69.1889C308.185 65.6838 318.752 64.6046 327.25 64.0574C333.416 63.6591 337.524 62.0935 339.884 60.8502C342.448 59.4989 343.569 58.2221 343.579 58.2084L343.427 58.1081C343.416 58.1202 342.313 59.3773 339.776 60.7118Z" fill="#97A43C"/>
<path d="M343.526 58.0777C338.265 56.9407 333.303 56.4634 328.716 56.6474C326.429 56.732 324.156 57.0017 321.926 57.453C321.752 57.4879 321.579 57.5259 321.406 57.5639C320.334 57.799 319.276 58.081 318.237 58.409C316.715 58.8882 315.238 59.4711 313.819 60.1525C312.43 60.8173 311.103 61.5756 309.848 62.4203C309.397 62.7243 308.956 63.038 308.522 63.3612C308.247 63.5649 307.977 63.7762 307.71 63.9905C307.081 64.4966 306.497 65.0104 305.943 65.5242C305.814 65.6442 305.69 65.7643 305.565 65.8844C304.79 66.6343 304.058 67.4181 303.373 68.2328C303.287 68.3362 303.2 68.438 303.119 68.5368C302.963 68.7283 302.81 68.9183 302.665 69.1038C302.159 69.7543 301.715 70.373 301.336 70.943C301.223 71.1117 301.116 71.2743 301.015 71.4339C300.915 71.5935 300.828 71.7273 300.743 71.8671C299.966 73.0971 299.316 74.3856 298.801 75.7173L298.642 76.1733L298.967 75.7933C298.979 75.7781 300.161 74.4253 303.557 73.0679L303.656 73.0299C303.95 72.9124 304.268 72.7943 304.61 72.6758C305.293 72.4341 306.073 72.1909 306.953 71.9568C307.462 71.82 308.007 71.6868 308.588 71.5571C310.34 71.1734 312.116 70.8806 313.907 70.68C316.715 70.3662 319.543 70.2078 322.374 70.2058C324.229 70.2052 326.08 70.0674 327.908 69.7939C328.702 69.6733 329.471 69.5253 330.216 69.35C331.385 69.0786 332.527 68.7253 333.631 68.2936C336.088 67.347 338.276 65.9369 340.041 64.1638C342.961 61.2013 343.584 58.2038 343.591 58.1734L343.605 58.0974L343.526 58.0777ZM339.903 64.0528C338.711 65.255 337.313 66.2863 335.758 67.1095C335.701 67.1415 335.644 67.1703 335.585 67.2007C333.832 68.1054 331.94 68.7866 329.968 69.2239C329.309 69.3759 328.616 69.5086 327.889 69.6221C326.069 69.8975 324.225 70.0363 322.378 70.0371C319.546 70.0393 316.718 70.1962 313.909 70.5067C312.824 70.6314 311.78 70.7798 310.777 70.9521C310.025 71.0813 309.295 71.2242 308.593 71.3823C308.039 71.5039 307.5 71.6361 306.979 71.7759C306.116 72.0039 305.298 72.2573 304.525 72.5359C304.196 72.6515 303.876 72.7705 303.564 72.8931L303.391 72.9661C300.965 73.9511 299.685 74.9102 299.148 75.3875C299.646 74.2073 300.24 73.0603 300.927 71.9553C301.007 71.8231 301.1 71.6878 301.182 71.5479C301.305 71.3564 301.433 71.1588 301.571 70.9551C301.918 70.4368 302.318 69.879 302.77 69.2968C303.002 68.9928 303.252 68.6888 303.514 68.3742C303.597 68.2739 303.687 68.1735 303.77 68.0702C304.456 67.2707 305.187 66.5021 305.962 65.7674C306.04 65.6929 306.119 65.6154 306.201 65.5455C306.721 65.0666 307.265 64.5894 307.85 64.1197C308.072 63.9403 308.303 63.762 308.543 63.5846C308.919 63.3004 309.311 63.0162 309.723 62.735C311.021 61.8496 312.398 61.0566 313.84 60.3638C315.221 59.7013 316.657 59.1312 318.136 58.6583C319.425 58.2431 320.742 57.8999 322.08 57.6308C324.207 57.203 326.373 56.94 328.553 56.845C328.776 56.8343 329.001 56.8252 329.227 56.8176H329.461C329.89 56.8034 330.327 56.7968 330.77 56.7978C332.67 56.8 334.567 56.9015 336.453 57.1018L336.644 57.1231C338.902 57.3721 341.142 57.736 343.352 58.213L343.411 58.2266C343.397 58.2814 343.375 58.365 343.344 58.4744C342.693 60.5383 341.516 62.4457 339.903 64.0528Z" fill="#97A43C"/>
<path d="M336.441 56.9933L334.857 62.6685L335.043 62.7083L336.627 57.033L336.441 56.9933Z" fill="#97A43C"/>
<path d="M330.804 63.557L330.684 63.6866L335.686 67.2669L335.806 67.1373L330.804 63.557Z" fill="#97A43C"/>
<path d="M290.997 28.5471C290.997 28.5471 295.247 37.2202 291.488 44.577C283.509 60.1829 289.557 58.1719 289.557 58.1719C289.557 58.1719 294.677 68.6022 302.846 55.8402C311.015 43.0783 290.997 28.5471 290.997 28.5471Z" fill="#BBD070"/>
<path d="M308.6 77.289C308.6 77.289 304.771 66.649 322.327 44.9981C339.883 23.3472 324.37 9.43768 324.37 9.43768C279.089 43.3109 308.6 77.289 308.6 77.289Z" fill="#97A43C"/>
<path d="M313.249 42.5372C300.416 50.2892 294.411 73.1561 303.2 71.0296C346.528 60.5568 344.955 26.2352 344.955 26.2352C337.993 33.3762 326.07 34.7806 313.249 42.5372Z" fill="#48753A"/>
<path d="M299.189 125.205C326.43 101.307 326.43 62.5589 299.189 38.6601C271.947 14.7613 227.781 14.7613 200.54 38.6601C173.299 62.5589 173.299 101.307 200.54 125.205C227.781 149.104 271.947 149.104 299.189 125.205Z" fill="#FAFAFA"/>
<path d="M255.048 148.7H252.604V156.068H255.048V148.7Z" fill="url(#paint2_linear_153_37975)"/>
<path d="M169.792 201.345L168.854 203.326L176.611 206.15L177.548 204.169L169.792 201.345Z" fill="url(#paint3_linear_153_37975)"/>
<path d="M307.126 78.736C306.071 77.5094 305.383 76.8345 305.376 76.8284L305.896 76.415C305.923 76.4423 306.608 77.1126 307.684 78.3636L307.126 78.736Z" fill="#C2C2C2"/>
<path d="M148.022 251.218C146.252 250.993 144.384 250.672 142.478 250.265L142.651 249.657C144.54 250.06 146.383 250.376 148.133 250.598L148.022 251.218ZM137.047 248.909C135.279 248.405 133.495 247.835 131.745 247.213L132.01 246.638C133.742 247.254 135.511 247.819 137.265 248.321L137.047 248.909ZM126.587 245.202C124.88 244.475 123.203 243.696 121.602 242.884L121.949 242.347C123.538 243.151 125.199 243.924 126.89 244.646L126.587 245.202ZM116.824 240.244C115.239 239.289 113.721 238.287 112.319 237.266L112.768 236.789C114.154 237.798 115.661 238.789 117.229 239.733L116.824 240.244ZM108.147 233.916C106.824 232.735 105.589 231.481 104.448 230.161L105.01 229.788C106.132 231.085 107.348 232.32 108.648 233.483L108.147 233.916ZM101.382 225.986C100.483 224.524 99.7398 222.993 99.1604 221.412L99.8344 221.225C100.4 222.769 101.126 224.265 102.004 225.693L101.382 225.986ZM97.9961 216.547C97.8992 215.728 97.8506 214.906 97.8506 214.083C97.8512 213.244 97.901 212.406 97.9996 211.572L98.6926 211.636C98.5975 212.449 98.5495 213.266 98.5488 214.083C98.5488 214.885 98.5956 215.686 98.6891 216.483L97.9961 216.547ZM99.7963 206.872L99.1188 206.696C99.6683 205.107 100.358 203.559 101.182 202.064L101.82 202.332C101.011 203.797 100.335 205.315 99.7963 206.872ZM104.415 197.997L103.802 197.693C104.751 196.226 105.746 194.805 106.747 193.482L107.336 193.826C106.34 195.136 105.356 196.536 104.414 197.995L104.415 197.997ZM110.627 189.863L110.074 189.479C111.266 188.162 112.515 186.91 113.79 185.753L114.298 186.183C113.038 187.323 111.803 188.562 110.625 189.862L110.627 189.863ZM118.375 182.856L117.922 182.38C119.37 181.322 120.887 180.339 122.465 179.436L122.85 179.954C121.295 180.845 119.801 181.814 118.375 182.856ZM127.691 177.536L127.379 176.98C129.068 176.251 130.803 175.609 132.576 175.057L132.812 175.641C131.065 176.185 129.355 176.818 127.691 177.536ZM220.167 177.451C218.928 177.451 217.595 177.437 216.286 177.407L216.303 176.787C217.609 176.817 218.942 176.838 220.167 176.832C220.745 176.832 221.326 176.832 221.899 176.822L221.91 177.442C221.329 177.45 220.747 177.454 220.165 177.454L220.167 177.451ZM227.542 177.267L227.5 176.648C229.392 176.551 231.269 176.413 233.078 176.238L233.154 176.855C231.333 177.033 229.443 177.173 227.54 177.27L227.542 177.267ZM210.663 177.194C208.875 177.103 206.987 176.983 205.053 176.837L205.112 176.22C207.041 176.372 208.924 176.484 210.705 176.577L210.663 177.194ZM199.454 176.367C197.585 176.194 195.722 176.01 193.866 175.815L193.949 175.207C195.797 175.4 197.657 175.584 199.528 175.759L199.454 176.367ZM238.734 176.174L238.618 175.566C240.469 175.293 242.314 174.969 244.1 174.604L244.261 175.212C242.458 175.575 240.599 175.902 238.733 176.177L238.734 176.174ZM188.286 175.213L182.71 174.605L182.798 173.997L188.374 174.615L188.286 175.213ZM138.164 174.256L137.991 173.648C139.765 173.274 141.629 172.962 143.535 172.719L143.637 173.327C141.761 173.584 139.916 173.888 138.162 174.259L138.164 174.256ZM177.147 174.001C175.276 173.808 173.417 173.629 171.57 173.462L171.642 172.854C173.491 173.019 175.353 173.198 177.23 173.393L177.147 174.001ZM249.714 173.926L249.509 173.333C251.294 172.857 253.075 172.325 254.801 171.751L255.052 172.33C253.302 172.912 251.505 173.45 249.705 173.929L249.714 173.926ZM165.98 173.028C164.004 172.895 162.169 172.801 160.389 172.737L160.417 172.119C162.212 172.183 164.056 172.271 166.034 172.411L165.98 173.028ZM149.204 172.83L149.157 172.211C150.949 172.104 152.842 172.044 154.786 172.032V172.651C152.86 172.663 150.98 172.724 149.2 172.824L149.204 172.83ZM260.232 170.419L259.938 169.857C260.44 169.654 260.943 169.445 261.447 169.229C262.645 168.723 263.818 168.211 264.967 167.694L265.286 168.246C264.131 168.761 262.955 169.274 261.757 169.787C261.254 170.003 260.746 170.214 260.232 170.419ZM270.262 165.952L269.926 165.406C271.581 164.619 273.218 163.807 274.807 162.997L275.163 163.532C273.573 164.345 271.931 165.16 270.269 165.952H270.262ZM279.964 160.976L279.588 160.451C281.188 159.57 282.764 158.664 284.266 157.761L284.665 158.273C283.17 159.181 281.586 160.089 279.984 160.976H279.964ZM289.253 155.408L288.83 154.911C290.349 153.918 291.833 152.901 293.239 151.889L293.686 152.368C292.285 153.386 290.795 154.409 289.268 155.408H289.253ZM297.947 149.138L297.47 148.682C298.867 147.563 300.22 146.416 301.488 145.272L301.994 145.704C300.731 146.855 299.369 148.012 297.962 149.138H297.947ZM305.799 142.05L305.26 141.649C306.485 140.384 307.647 139.091 308.716 137.802L309.288 138.166C308.214 139.468 307.039 140.775 305.799 142.05ZM312.414 134.047L311.809 133.727C312.783 132.316 313.679 130.87 314.474 129.43L315.11 129.699C314.311 131.158 313.403 132.62 312.419 134.047H312.414ZM317.307 125.137L316.643 124.924C317.278 123.392 317.817 121.831 318.258 120.247L318.951 120.399C318.502 122.003 317.955 123.585 317.312 125.137H317.307ZM319.978 115.52L319.285 115.441C319.52 113.824 319.65 112.196 319.677 110.566L320.384 110.575C320.354 112.229 320.219 113.88 319.978 115.52ZM319.441 105.683C319.263 104.058 318.987 102.443 318.616 100.844L319.309 100.721C319.684 102.341 319.963 103.977 320.144 105.622L319.441 105.683ZM317.239 96.1066C316.705 94.5729 316.073 93.021 315.361 91.4964L316.014 91.2608C316.733 92.8036 317.374 94.3738 317.92 95.9257L317.239 96.1066ZM313.025 87.0458C312.18 85.5973 311.255 84.1578 310.274 82.7807L310.875 82.4539C311.863 83.8493 312.798 85.2994 313.647 86.7631L313.025 87.0458Z" fill="#C2C2C2"/>
<path d="M153.793 251.613V250.993C154.719 250.996 155.645 250.952 156.565 250.861L156.647 251.469C155.699 251.564 154.746 251.612 153.793 251.613Z" fill="#C2C2C2"/>
<path d="M175.44 253.601L159.493 252.895L163.646 250.783L175.44 253.601Z" fill="#D6D6D6"/>
<path d="M175.44 253.601L168.537 249.847L165.27 251.171L175.44 253.601Z" fill="#E8E8E8"/>
<path d="M163.159 253.057L163.688 254.547L175.44 253.601L163.159 253.057Z" fill="#C2C2C2"/>
<path d="M192.043 37.015L176.097 36.3082L180.25 34.1954L192.043 37.015Z" fill="#D6D6D6"/>
<path d="M192.043 37.015L185.141 33.2591L181.873 34.5846L192.043 37.015Z" fill="#E8E8E8"/>
<path d="M179.763 36.4709L180.291 37.9605L192.043 37.015L179.763 36.4709Z" fill="#C2C2C2"/>
<path d="M219.222 186.864L218.529 186.734C218.88 185.123 219.111 183.495 219.222 181.859L219.928 181.901C219.815 183.567 219.58 185.225 219.222 186.864ZM219.332 176.934C219.278 175.276 219.131 173.622 218.897 172.021L219.59 171.942C219.831 173.593 219.978 175.253 220.03 176.916L219.332 176.934ZM217.878 167.18C217.435 165.588 216.883 164.022 216.225 162.488L216.885 162.271C217.552 163.83 218.111 165.423 218.559 167.042L217.878 167.18ZM213.914 158.012C213.028 156.57 212.026 155.186 210.916 153.87L211.483 153.502C212.614 154.841 213.634 156.25 214.536 157.717L213.914 158.012ZM207.269 150.153C205.953 148.995 204.545 147.918 203.058 146.932L203.484 146.438C204.999 147.442 206.431 148.539 207.77 149.72L207.269 150.153ZM198.38 144.236C196.754 143.426 195.076 142.698 193.355 142.056L193.632 141.486C195.377 142.138 197.077 142.876 198.726 143.698L198.38 144.236ZM188.099 140.354C187.513 140.193 186.916 140.037 186.307 139.886C185.105 139.588 183.895 139.28 182.679 138.961L182.882 138.367C184.095 138.684 185.3 138.991 186.498 139.288C187.114 139.44 187.71 139.592 188.312 139.764L188.099 140.354ZM177.273 137.484C175.468 136.97 173.663 136.437 171.902 135.896L172.136 135.312C173.886 135.85 175.686 136.376 177.487 136.894L177.273 137.484ZM166.59 134.192C164.818 133.6 163.049 132.986 161.33 132.368L161.599 131.795C163.312 132.413 165.074 133.024 166.842 133.619L166.59 134.192ZM156.126 130.416C154.393 129.734 152.661 129.028 150.989 128.32L151.297 127.762C152.957 128.469 154.679 129.171 156.413 129.849L156.126 130.416ZM145.93 126.073C144.244 125.292 142.575 124.482 140.971 123.669L141.317 123.132C142.913 123.942 144.575 124.748 146.252 125.525L145.93 126.073ZM136.125 121.091C134.51 120.189 132.925 119.259 131.416 118.326L131.823 117.82C133.323 118.747 134.898 119.671 136.501 120.568L136.125 121.091ZM126.868 115.356C125.359 114.312 123.895 113.238 122.519 112.164L122.987 111.708C124.354 112.772 125.806 113.836 127.306 114.876L126.868 115.356ZM118.408 108.738C117.06 107.532 115.774 106.295 114.596 105.058L115.137 104.658C116.311 105.883 117.585 107.11 118.919 108.306L118.408 108.738ZM111.119 101.11C110.015 99.7348 108.989 98.3212 108.073 96.9091L108.686 96.6051C109.592 98.0005 110.606 99.3974 111.696 100.756L111.119 101.11ZM105.514 92.4586C104.754 90.9385 104.09 89.3827 103.527 87.7982L104.201 87.6128C104.756 89.1756 105.41 90.7101 106.16 92.2093L105.514 92.4586ZM102.149 82.9662C101.798 81.3339 101.552 79.6857 101.411 78.0292L102.116 77.9836C102.254 79.6157 102.497 81.2396 102.844 82.8476L102.149 82.9662ZM102.011 73.0664L101.304 73.0451C101.372 71.3832 101.536 69.7253 101.794 68.0778L102.487 68.1629C102.237 69.7894 102.08 71.426 102.018 73.0664H102.011ZM103.52 63.3217L102.827 63.1788C103.261 61.561 103.8 59.966 104.44 58.4014L105.103 58.6112C104.477 60.1542 103.951 61.7268 103.527 63.3217H103.52ZM107.331 54.1105L106.704 53.8262C107.57 52.345 108.554 50.9192 109.649 49.5596L110.226 49.9183C109.153 51.2545 108.189 52.6559 107.342 54.112L107.331 54.1105ZM113.789 46.1411L113.279 45.7125C114.595 44.5093 116.009 43.3917 117.51 42.3685L117.943 42.8579C116.473 43.8628 115.088 44.9601 113.799 46.1411H113.789ZM122.6 40.128L122.254 39.5914C123.898 38.7559 125.598 38.0077 127.344 37.351L127.621 37.921C125.898 38.5669 124.222 39.3039 122.6 40.128ZM132.888 36.2307L132.681 35.6379C134.439 35.1622 136.291 34.7442 138.183 34.393L138.329 35.001C136.452 35.3461 134.621 35.7595 132.888 36.2307ZM171.904 34.8779C171.19 34.7548 169.222 34.4402 166.341 34.1468L166.422 33.5312C169.328 33.8261 171.319 34.1392 172.039 34.2699L171.904 34.8779ZM143.873 34.1757L143.781 33.5677C145.612 33.3579 147.515 33.2014 149.433 33.0995L149.476 33.7182C147.569 33.8124 145.683 33.969 143.868 34.1757H143.873ZM160.733 33.7197C158.849 33.6224 156.956 33.5677 155.103 33.5677V32.9475C156.969 32.9475 158.875 33.0007 160.772 33.0995L160.733 33.7197Z" fill="#C2C2C2"/>
<path d="M303.15 265.335C330.391 241.436 330.391 202.688 303.15 178.79C275.909 154.891 231.743 154.891 204.502 178.79C177.261 202.688 177.261 241.436 204.502 265.335C231.743 289.234 275.909 289.234 303.15 265.335Z" fill="#FAFAFA"/>
<path d="M217.449 190.226C217.449 190.226 221.395 191.92 220.419 196.525C219.444 201.131 219.012 201.753 220.104 203.552C221.195 205.352 222.483 213.028 221.5 214.484C220.518 215.94 209.345 208.09 207.796 201.503C206.247 194.917 208.778 191.988 209.672 190.897C210.566 189.805 213.972 188.676 217.449 190.226Z" fill="#0E2D3D"/>
<path d="M218.543 206.854C218.543 206.854 220.551 207.211 221.679 208.669C222.462 209.681 222.526 211.932 222.639 212.356C222.751 212.78 224.25 217.576 224.25 217.576L220.068 220.035L218.543 206.854Z" fill="#285173"/>
<path d="M232.083 283.354C230.827 283.016 229.592 282.645 228.362 282.247C227.693 281.053 226.891 279.542 226.09 277.937C224.185 274.118 222.305 269.774 222.305 267.943C222.305 263.05 218.179 256.658 217.644 255.568C212.705 245.396 213.676 242.286 213.032 241.628C212.387 240.97 212.327 242.033 211.954 243.498C211.582 244.963 210.768 257.61 210.282 259.215C209.797 260.82 210.175 266.249 209.91 268.982C209.91 269.06 209.891 269.143 209.886 269.238C209.802 270.068 209.671 271.484 209.513 273.123C207.69 271.893 205.918 270.587 204.215 269.21C204.189 269.187 204.158 269.166 204.132 269.143C204.05 268.28 204 267.566 203.993 267.085C203.993 266.813 203.981 266.53 203.974 266.237C203.974 265.656 203.955 265.048 203.95 264.434C203.905 261.744 203.855 258.978 203.777 257.932C202.78 244.434 200.332 242.508 204.192 232.957C211.416 215.075 221.608 231.618 221.608 231.618C221.608 231.618 223.956 241.174 224.491 243.582C225.027 245.989 226.536 257.649 226.698 259.63C226.861 261.61 229.14 269.083 229.034 269.791C228.97 270.216 230.2 275.512 231.196 279.68C231.541 281.124 231.862 282.43 232.083 283.354Z" fill="#EEA886"/>
<path d="M205.876 228.942C205.876 228.942 199.202 237.137 202.076 254.568C202.076 254.568 217.905 256.456 226.384 252.382C226.384 252.382 222.878 234.411 221.608 231.615C220.338 228.818 205.876 228.942 205.876 228.942Z" fill="#1D3B54"/>
<path d="M214.839 205.656C214.839 205.656 217.299 206.674 218.152 206.823C219.004 206.972 222.318 210.748 222.899 212.127C223.479 213.505 222.899 215.571 221.703 217.998C220.508 220.426 221.636 221.233 221.088 223.66C220.541 226.088 220.064 231.225 220.167 232.572C220.269 233.919 206.354 234.176 203.187 231.719C203.187 231.719 206.38 227.524 206.789 226.925C207.198 226.326 206.857 223.062 206.483 222.222C206.108 221.383 203.607 214.25 203.607 214.25C203.607 214.25 201.56 208.778 203.409 207.513C205.013 206.419 209.388 206.03 210.166 205.79C210.944 205.55 213.228 205.449 214.839 205.656Z" fill="#EDDAD3"/>
<path d="M215.619 210.467L217.112 208.932L215.814 204.891C215.814 204.891 215.38 207.141 215.619 210.467Z" fill="#D6C5BE"/>
<path d="M216.006 203.169C216.006 203.169 215.939 203.71 215.859 204.458C215.824 204.79 215.786 205.162 215.752 205.545C215.651 206.635 215.578 207.814 215.618 208.415C215.618 208.415 213.063 210.661 210.157 205.793C210.157 205.793 211.38 203.786 210.459 201.052C209.537 198.317 216.006 203.169 216.006 203.169Z" fill="#EEA886"/>
<path d="M215.618 208.415V210.467L212.678 208.539L215.618 208.415Z" fill="#EEA886"/>
<path d="M215.619 210.467L214.397 209.141L210.286 205.545L208.955 206.67L215.619 210.467Z" fill="#D6C5BE"/>
<path d="M209.714 205.89C209.714 205.89 213.165 210.484 213.33 212.507C213.494 214.53 212.048 229.655 210.888 234.518C209.729 239.38 201.359 233.969 201.359 233.969C201.359 233.969 206.988 225.978 204.825 219.579C202.661 213.18 201.879 210.622 201.879 210.622C201.879 210.622 202.622 207.059 205.256 206.557C207.562 206.112 209.714 205.89 209.714 205.89Z" fill="#285173"/>
<path d="M223.119 212.744C223.119 212.744 223.741 214.676 221.317 218.947C221.317 218.947 221.355 224.419 221.423 226.12C221.49 227.821 222.868 233.968 222.868 233.968L219.555 235.516C219.446 235.572 219.322 235.6 219.196 235.597C219.07 235.594 218.948 235.56 218.842 235.5C218.737 235.439 218.653 235.354 218.6 235.254C218.547 235.154 218.526 235.042 218.541 234.933C219.22 230.019 221.43 211.373 216.656 206.367L218.573 206.863C218.573 206.863 221.974 209.304 223.119 212.744Z" fill="#285173"/>
<path d="M217.112 208.932L218.995 209.389L215.814 204.891L217.112 208.932Z" fill="#FAE6DE"/>
<path d="M214.397 209.141L212.678 211.119L209.147 205.955L210.286 205.545L214.397 209.141Z" fill="#FAE6DE"/>
<path d="M217.374 216.794L216.887 217.133L221.455 222.197L221.943 221.858L217.374 216.794Z" fill="#EB4747"/>
<path d="M216.604 221.628C216.86 221.63 217.111 221.566 217.327 221.446C217.822 221.119 218.001 220.312 218.876 220.37C219.751 220.427 220.156 222.835 219.936 223.29C219.716 223.744 218.503 223.974 216.708 223.659C214.913 223.344 216.604 221.628 216.604 221.628Z" fill="#EEA886"/>
<path d="M218.576 220.386C219.465 220.129 220.369 219.912 221.284 219.736C222.555 219.494 224.077 219.415 224.229 219.608C224.402 219.824 222.99 220.011 221.743 220.321C220.594 220.607 220.876 220.713 220.876 220.713C220.876 220.713 220.802 220.678 222.112 220.572C223.522 220.456 224.974 220.458 225.116 220.706C225.187 220.826 225.137 220.906 224.629 221.02C224.936 221.008 224.976 221.076 224.99 221.184C225.05 221.742 222.994 222.184 222.178 222.361C222.805 222.229 223.28 222.189 223.054 222.561C222.794 222.989 219.861 223.505 218.827 223.777C217.683 224.069 218.576 220.386 218.576 220.386Z" fill="#EEA886"/>
<path d="M205.74 206.639C204.874 206.393 202.338 207.184 201.908 209.467C201.478 211.75 201.309 214.284 200.908 215.513C200.508 216.743 199.488 222.191 200.345 222.642C201.203 223.093 202.828 223.507 205.106 223.507C207.461 223.507 216.586 223.866 216.586 223.866L217.158 221.022C217.158 221.022 213.693 220.87 211.896 220.625C210.299 220.414 208.085 219.816 205.474 219.561C205.474 219.561 206.026 216.187 206.427 215.234C206.827 214.28 209.63 207.743 205.74 206.639Z" fill="#285173"/>
<path d="M222.433 221.241L222.861 222.156L221.944 221.58L222.433 221.241Z" fill="#EEA886"/>
<path d="M217.404 226.01L226.596 224.411L233.413 211.613L223.602 212.517L217.404 226.01Z" fill="url(#paint4_linear_153_37975)"/>
<path d="M227.743 222.239C228.096 221.939 228.415 221.609 228.696 221.254C229.144 220.68 230.612 218.485 230.479 218.348C230.345 218.211 228.164 218.164 227.769 218.476C227.374 218.787 228.157 218.91 228.157 218.91C228.157 218.91 226.965 219.018 227.05 219.313C227.135 219.608 227.854 219.526 227.854 219.526C227.854 219.526 226.894 219.689 227.039 219.947C227.185 220.205 227.646 220.204 227.646 220.204C227.646 220.204 226.795 220.297 226.901 220.581C227.006 220.865 228.351 221.131 228.171 221.367C228 221.646 227.857 221.938 227.743 222.239Z" fill="#EEA886"/>
<path d="M216.878 190.737C216.878 190.737 222.606 192.316 219.496 200.99C216.386 209.663 208.563 199.985 209.381 194.7C210.199 189.415 216.878 190.737 216.878 190.737Z" fill="#EEA987"/>
<path d="M220.082 195.797C220.082 195.797 217.235 198.249 212.472 198.555C212.472 198.555 210.641 200.438 210.5 201.177C210.5 201.177 206.25 194.821 211.474 191.011C216.698 187.2 222.003 194.227 220.082 195.797Z" fill="#0E2D3D"/>
<path d="M212.529 198.728C212.493 198.096 212.049 196.659 210.981 197.056C209.912 197.453 211.045 200.383 211.755 200.204C211.755 200.21 212.616 200.22 212.529 198.728Z" fill="#EEA987"/>
<path d="M215.86 204.458C215.825 204.79 215.787 205.162 215.752 205.545C212.439 204.11 211.94 202.049 211.918 201.978C214.276 204.653 215.86 204.458 215.86 204.458Z" fill="#A77860"/>
<path d="M269.049 242.147H287.646V241.178H269.049V242.147Z" fill="#E2D2CA"/>
<path d="M285.156 244.667V280.072C284.614 280.3 284.072 280.528 283.522 280.732V244.667H285.156Z" fill="#F2E2D9"/>
<path d="M259.035 242.286H271.962V240.903H259.035V242.286Z" fill="#CCBDB7"/>
<path d="M263.051 242.147H267.945V229.102H263.051V242.147Z" fill="#CCBDB7"/>
<path d="M222.694 244.667H294.318V242.162H222.694V244.667Z" fill="#948A84"/>
<path d="M308.065 227.004C308.065 227.004 308.848 236.643 306.701 237.796C305.357 238.52 299.996 240.956 300.156 241.414C300.315 241.872 303.183 245.48 303.183 245.48C303.183 245.48 313.481 239.531 313.812 237.657C314.138 235.823 313.306 223.545 311.891 222.979C310.83 222.555 310.271 222.905 308.935 223.776C307.06 224.995 308.065 227.004 308.065 227.004Z" fill="#FEB755"/>
<path d="M289.296 229.756L288.39 229.462C288.39 229.462 289.521 227.131 290.015 227.182C290.446 227.239 290.873 227.316 291.295 227.413L289.296 229.756Z" fill="#EAD8CF"/>
<path d="M289.09 230.158C289.206 230.082 291.018 227.03 291.018 227.03L294.894 227.486L292.804 231.107L289.09 230.158Z" fill="#DA9B5B"/>
<path d="M309.957 258.64C309.323 259.406 308.534 260.063 307.628 260.577C304.575 262.259 300.871 261.501 296.628 260.937C291.235 260.216 285.942 261.899 278.53 261.738L278.183 279.137L278.114 282.614C276.069 283.249 273.99 283.8 271.877 284.267C271.807 283.326 271.703 282.214 271.599 280.986C270.785 272.037 269.174 256.897 270.527 256.178C272.488 255.137 288.17 251.71 291.06 251.314C293.95 250.917 306.758 249.017 306.758 249.017C309.51 249.748 309.894 255.857 309.938 257.944C309.957 258.38 309.957 258.64 309.957 258.64Z" fill="#292C47"/>
<path d="M312.47 251.446L308.421 259.697L307.607 261.356C307.316 261.385 307.046 261.417 306.793 261.446C304.755 261.666 303.57 261.8 300.729 261.738L300.59 267.079L300.476 271.478C299.796 271.977 299.103 272.462 298.397 272.934C298.258 273.028 298.118 273.123 297.979 273.211C297.31 273.664 296.63 274.103 295.937 274.527C295.084 275.053 294.226 275.568 293.357 276.055C293.242 274.849 293.123 273.598 293.01 272.348C292.317 264.611 291.756 256.692 292.728 256.178C294.563 255.208 308.207 252.192 312.47 251.446Z" fill="#292C47"/>
<path d="M300.861 206.902C300.861 206.902 296.167 205.764 294.376 208.962C292.584 212.16 293.397 218.219 295.762 218.79C298.127 219.362 301.531 218.704 302.519 216.714C303.506 214.724 304.284 211.896 304.049 210.066C303.813 208.235 302.108 207.34 300.861 206.902Z" fill="#EEA886"/>
<path d="M296.988 218.152C296.988 218.152 297.04 220.584 296.735 221.102C296.431 221.621 303.273 221.49 303.273 221.49C303.273 221.49 302.193 218.57 302.805 216.083C303.411 213.621 296.988 218.152 296.988 218.152Z" fill="#EEA886"/>
<path d="M303.174 215.162C303.174 215.162 302.809 215.814 301.038 215.709C299.267 215.604 296.93 213.733 296.187 213.562C295.443 213.39 295.391 213.019 295.391 213.019L294.993 213.639L294.222 213.742C294.222 213.742 294.742 211.864 293.605 211.202C292.468 210.541 294.125 205.212 299.894 206.49C299.894 206.49 304.302 207.199 304.361 209.357C304.42 211.516 304.03 214.016 303.174 215.162Z" fill="#3A3F47"/>
<path d="M296.375 221.04C296.375 221.04 296.394 220.049 296.905 219.953C297.416 219.857 302.276 219.272 302.912 219.488L303.182 220.795C303.182 220.795 301.973 221.449 296.375 221.04Z" fill="#FEB755"/>
<path d="M294.966 212.577C295.098 211.765 296.15 210.832 296.753 212.096C297.356 213.361 296.346 215.202 295.67 215.103C294.994 215.004 294.788 213.677 294.966 212.577Z" fill="#EEA886"/>
<path d="M275.999 232.741C275.964 232.753 275.959 232.755 275.999 232.741V232.741Z" fill="#323657"/>
<path d="M302.229 207.48C302.229 207.48 307.947 207.244 303.229 215.08L302.229 207.48Z" fill="#3A3F47"/>
<path d="M298.002 265.501V273.211C297.333 273.664 296.652 274.103 295.959 274.527V265.501H298.002Z" fill="#918783"/>
<path d="M290.942 265.603H303.002V264.592H290.942V265.603Z" fill="#5E5854"/>
<path d="M311.052 262.021C310.264 262.895 309.437 263.753 308.585 264.594H284.76C284.189 264.593 283.641 264.393 283.238 264.039C282.834 263.684 282.608 263.203 282.608 262.702V262.656C282.609 262.156 282.836 261.676 283.24 261.323C283.643 260.969 284.19 260.77 284.76 260.77H309.027C309.47 260.77 309.902 260.89 310.265 261.114C310.627 261.338 310.902 261.655 311.052 262.021Z" fill="#E2D2CA"/>
<path d="M233.49 244.667V283.731C233.022 283.608 232.549 283.486 232.083 283.358C232.007 283.337 231.938 283.32 231.861 283.298V244.667H233.49Z" fill="#F2E2D9"/>
<path d="M246.514 235.386H284.483C285.67 235.386 286.633 234.541 286.633 233.499V211.111C286.633 210.069 285.67 209.225 284.483 209.225H246.514C245.326 209.225 244.363 210.069 244.363 211.111V233.499C244.363 234.541 245.326 235.386 246.514 235.386Z" fill="#F2E2D9"/>
<path d="M246.018 231.286H284.977V210.639H246.018V231.286Z" fill="#F5F7FF"/>
<path d="M256.746 242.197V241.73C256.746 241.73 257.493 238.842 262.77 238.842C268.048 238.842 267.94 242.204 267.94 242.204L256.746 242.197Z" fill="#1D3B54"/>
<path d="M268.003 239.265C268.003 239.265 266.858 239.187 266.444 238.961C266.029 238.734 263.512 237.255 262.921 237.492C262.33 237.73 258.403 238.786 258.54 239.289C258.676 239.792 259.04 239.745 259.316 239.655C259.591 239.566 262.447 239.047 262.698 239.129C262.698 239.129 259.896 240.026 259.884 240.681C259.872 241.336 260.471 241.495 260.737 241.745C261.002 241.996 261.322 242.607 262.043 242.657C262.764 242.708 266.288 241.628 267.014 241.58C267.739 241.531 269.08 241.619 269.172 241.516C269.264 241.412 268.003 239.265 268.003 239.265Z" fill="#EEA886"/>
<path d="M288.873 222.412C292.529 221.849 296.375 221.044 296.375 221.044L303.183 220.801C303.183 220.801 309.43 222.008 311.891 222.984C312.124 223.075 312.124 227.872 312.757 229.131L310.718 232.907C310.718 232.907 309.538 240.385 309.293 243.711C309.183 245.231 309.612 258.468 309.612 258.468C309.612 258.468 309.001 258.733 304.354 259.183C299.707 259.633 288.101 259.02 288.028 258.538C287.955 258.056 290.28 240.613 290.377 239.71C290.537 238.324 289.922 231.917 289.922 231.917C289.047 232.949 286.815 237.606 284.488 239.821C283.121 241.125 276.345 241.925 275.068 241.963C272.296 242.043 267.218 242.528 267.069 242.293C266.951 242.15 266.627 238.341 266.946 238.249C267.225 238.169 276.648 237.693 279.053 236.57C279.935 236.159 282.574 231.111 282.574 231.111C282.574 231.111 286.857 223.206 288.873 222.412Z" fill="#FEB755"/>
<path d="M317.852 237.771V253.123C316.799 254.801 315.652 256.434 314.413 258.022C314.185 258.059 313.952 258.077 313.72 258.076H302.297C301.754 258.077 301.215 257.983 300.713 257.801C300.211 257.619 299.755 257.351 299.37 257.014C298.986 256.677 298.681 256.277 298.473 255.836C298.265 255.396 298.158 254.923 298.158 254.447V237.771C298.158 237.294 298.264 236.821 298.472 236.38C298.68 235.94 298.985 235.539 299.369 235.202C299.754 234.865 300.21 234.598 300.713 234.415C301.215 234.233 301.754 234.14 302.297 234.141H313.72C314.263 234.141 314.801 234.235 315.303 234.417C315.804 234.6 316.26 234.867 316.644 235.204C317.028 235.541 317.332 235.942 317.539 236.382C317.747 236.822 317.853 237.294 317.852 237.771Z" fill="#E2D2CA"/>
<path d="M301.64 263.639C304.544 263.639 306.9 262.784 308.643 261.095C312.581 257.28 311.874 250.574 311.841 250.289C311.832 250.16 311.793 250.034 311.727 249.919C311.661 249.803 311.569 249.701 311.457 249.617C311.345 249.533 311.214 249.47 311.074 249.432C310.933 249.393 310.785 249.38 310.639 249.393C310.492 249.405 310.35 249.444 310.221 249.506C310.091 249.568 309.978 249.652 309.886 249.754C309.795 249.855 309.728 249.972 309.689 250.096C309.65 250.221 309.64 250.351 309.66 250.479C309.66 250.555 310.296 256.634 307.015 259.808C305.686 261.092 303.929 261.715 301.644 261.715C301.353 261.715 301.074 261.816 300.868 261.997C300.662 262.177 300.547 262.422 300.547 262.677C300.547 262.932 300.662 263.177 300.868 263.358C301.074 263.538 301.353 263.639 301.644 263.639H301.64Z" fill="#E2D2CA"/>
<path d="M271.111 213.375H281.906C282.077 213.375 282.215 213.253 282.215 213.104V212.554C282.215 212.404 282.077 212.283 281.906 212.283H271.111C270.94 212.283 270.802 212.404 270.802 212.554V213.104C270.802 213.253 270.94 213.375 271.111 213.375Z" fill="#DFE1E8"/>
<path d="M271.111 215.714H281.906C282.077 215.714 282.215 215.593 282.215 215.443V214.893C282.215 214.744 282.077 214.622 281.906 214.622H271.111C270.94 214.622 270.802 214.744 270.802 214.893V215.443C270.802 215.593 270.94 215.714 271.111 215.714Z" fill="#DFE1E8"/>
<path d="M271.838 229.642H281.179C281.751 229.642 282.215 229.235 282.215 228.733V218.216C282.215 217.714 281.751 217.307 281.179 217.307H271.838C271.266 217.307 270.802 217.714 270.802 218.216V228.733C270.802 229.235 271.266 229.642 271.838 229.642Z" fill="#DFE1E8"/>
<path d="M249.816 229.642H266.857C267.763 229.642 268.498 228.997 268.498 228.202V213.723C268.498 212.928 267.763 212.283 266.857 212.283H249.816C248.91 212.283 248.175 212.928 248.175 213.723V228.202C248.175 228.997 248.91 229.642 249.816 229.642Z" fill="#DFE1E8"/>
<path d="M253.822 157.899C213.411 157.899 180.687 186.598 180.687 222.066C180.687 257.409 213.304 286.227 253.822 286.227C294.262 286.227 326.955 257.499 326.955 222.066C326.961 186.615 294.253 157.899 253.822 157.899ZM253.822 283.006C215.612 283.006 184.346 255.751 184.346 222.066C184.346 188.457 215.508 161.114 253.822 161.114C292.136 161.114 323.298 188.451 323.298 222.066C323.298 255.88 291.905 283.006 253.822 283.006Z" fill="url(#paint5_linear_153_37975)"/>
<path d="M248.875 200.217C248.607 200.217 248.351 200.124 248.161 199.958C247.972 199.792 247.864 199.568 247.863 199.333V199.201C247.57 199.117 247.315 198.954 247.134 198.736C246.952 198.518 246.854 198.255 246.853 197.985L246.839 195.323H247.44C247.208 192.012 244.375 187.38 244.348 187.332C243.548 186.266 243.092 185.029 243.028 183.754C242.965 182.478 243.296 181.211 243.986 180.087C244.677 178.964 245.701 178.025 246.951 177.37C248.2 176.716 249.629 176.37 251.084 176.37C252.539 176.37 253.967 176.716 255.217 177.37C256.466 178.025 257.491 178.964 258.181 180.087C258.872 181.211 259.203 182.478 259.139 183.754C259.076 185.029 258.62 186.266 257.82 187.332C257.709 187.516 254.98 192.011 254.734 195.284H255.318L255.334 197.945C255.334 198.214 255.238 198.476 255.059 198.694C254.88 198.912 254.628 199.076 254.338 199.161V199.295C254.338 199.53 254.232 199.756 254.043 199.923C253.854 200.091 253.598 200.185 253.329 200.187L248.88 200.207L248.875 200.217ZM247.075 195.533L247.089 197.986C247.09 198.223 247.181 198.454 247.348 198.641C247.514 198.828 247.747 198.962 248.009 199.021L248.097 199.041V199.331C248.099 199.512 248.182 199.684 248.328 199.811C248.474 199.938 248.671 200.009 248.877 200.009L253.326 199.989C253.532 199.988 253.728 199.916 253.873 199.787C254.018 199.659 254.099 199.486 254.099 199.305V199.015L254.187 198.994C254.448 198.933 254.679 198.798 254.843 198.609C255.008 198.421 255.096 198.19 255.095 197.953L255.081 195.499H254.483V195.39C254.675 192.063 257.489 187.43 257.602 187.235C258.381 186.2 258.827 185 258.891 183.761C258.956 182.522 258.636 181.291 257.967 180.198C257.298 179.106 256.305 178.193 255.092 177.556C253.879 176.919 252.492 176.582 251.078 176.581C249.664 176.58 248.277 176.915 247.062 177.55C245.848 178.185 244.853 179.097 244.182 180.189C243.511 181.28 243.189 182.511 243.252 183.75C243.314 184.989 243.757 186.19 244.535 187.226C244.563 187.259 247.48 192.055 247.669 195.42V195.53L247.075 195.533ZM251.172 190.526H251.079C250.847 190.529 250.616 190.519 250.386 190.497L250.406 190.29C250.858 190.327 251.312 190.327 251.763 190.29L251.784 190.497C251.581 190.516 251.377 190.525 251.172 190.526Z" fill="url(#paint6_linear_153_37975)"/>
<path d="M253.295 195.325H248.828V195.533H253.295V195.325Z" fill="url(#paint7_linear_153_37975)"/>
<path d="M251.299 170.606H250.824V174.159H251.299V170.606Z" fill="url(#paint8_linear_153_37975)"/>
<path d="M258.84 172.235L255.977 174.747L256.311 175.041L259.174 172.529L258.84 172.235Z" fill="url(#paint9_linear_153_37975)"/>
<path d="M243.282 172.236L242.947 172.53L245.81 175.041L246.145 174.748L243.282 172.236Z" fill="url(#paint10_linear_153_37975)"/>
<path d="M247.841 187.706L247.61 187.754L248.701 191.832L248.932 191.785L247.841 187.706Z" fill="url(#paint11_linear_153_37975)"/>
<path d="M254.26 187.675L253.169 191.753L253.4 191.8L254.491 187.722L254.26 187.675Z" fill="url(#paint12_linear_153_37975)"/>
<path d="M260.113 183.496H259.886C259.883 181.446 258.953 179.48 257.301 178.03C255.648 176.58 253.407 175.765 251.07 175.762V175.56C253.468 175.564 255.765 176.402 257.46 177.889C259.155 179.377 260.108 181.393 260.113 183.496Z" fill="url(#paint13_linear_153_37975)"/>
<path d="M258.087 183.496H257.852C257.866 182.706 257.701 181.921 257.366 181.187C257.032 180.454 256.534 179.786 255.902 179.222C255.27 178.659 254.517 178.212 253.686 177.906C252.855 177.601 251.963 177.444 251.063 177.444C250.162 177.444 249.27 177.601 248.439 177.906C247.608 178.212 246.855 178.659 246.223 179.222C245.591 179.786 245.094 180.454 244.759 181.187C244.424 181.921 244.259 182.706 244.273 183.496H244.036C244.036 181.861 244.776 180.294 246.094 179.138C247.411 177.982 249.198 177.332 251.062 177.332C252.925 177.332 254.712 177.982 256.03 179.138C257.347 180.294 258.087 181.861 258.087 183.496Z" fill="url(#paint14_linear_153_37975)"/>
<path d="M151.081 207.699C150.93 209.132 150.784 210.71 150.653 212.447C149.024 213.698 147.347 214.866 145.618 215.966C144.968 216.381 144.306 216.792 143.637 217.182C143.606 215.942 143.53 214.913 143.365 214.326C143.295 214.046 143.24 213.764 143.203 213.479C142.66 209.8 141.884 197.57 141.505 196.025C141.082 194.326 141.019 193.081 140.292 193.85C139.564 194.619 140.657 198.238 135.144 210.076C134.709 211.017 132.111 215.273 130.761 219.728C130.366 220.975 130.106 222.251 129.985 223.54C128.781 223.972 127.559 224.366 126.326 224.73C125.092 225.095 123.822 225.445 122.554 225.753C122.727 224.913 123.046 223.601 123.42 222.151C124.113 219.368 124.96 216.092 125.061 214.808C125.234 212.501 126.922 198.93 127.521 196.126C128.12 193.321 130.731 182.196 130.731 182.196C130.731 182.196 142.111 162.938 150.166 183.756C153.958 193.532 152.293 196.448 151.081 207.699Z" fill="#EEA886"/>
<path d="M148.284 179.08C148.284 179.08 155.734 188.62 152.525 208.913C152.525 208.913 134.865 211.111 125.403 206.369C125.403 206.369 129.315 185.446 130.734 182.192C132.153 178.937 148.284 179.08 148.284 179.08Z" fill="#3F446E"/>
<path d="M139.458 136.78C139.458 136.78 134.471 141.188 136.166 146.861C137.86 152.534 140.592 152.567 143.6 150.126C146.608 147.685 148.379 145.117 148.775 142.264C149.172 139.411 144.009 132.848 139.458 136.78Z" fill="#EEA886"/>
<path d="M138.482 155.706C138.978 154.679 139.397 153.625 139.739 152.55C139.83 152.255 139.912 151.954 139.988 151.655C140.241 150.605 140.347 149.57 140.071 148.858C139.276 146.797 145.058 148.224 145.058 148.224C145.058 148.224 143.938 153.677 145.058 155.52C146.177 157.364 138.482 155.706 138.482 155.706Z" fill="#EEA886"/>
<path d="M153.133 158.302C152.224 156.709 151.543 156.197 149.784 155.709C148.8 155.437 144.403 154.432 144.403 154.432L139.125 154.262C139.125 154.262 135.487 154.792 132.675 155.648C129.863 156.504 126.164 161.188 126.164 161.188C126.164 161.188 131.26 171.676 132.228 174.692C133.197 177.708 132.554 182.364 132.554 182.364C138.659 185.28 148.45 182.078 148.45 182.078C147.769 179.777 147.639 177.377 148.067 175.03C148.114 174.8 148.166 174.574 148.223 174.376C148.28 174.178 148.348 173.92 148.431 173.616C148.436 173.603 148.44 173.59 148.443 173.576C152.326 173.924 155.968 174.067 156.066 173.383C156.496 170.308 154.386 160.492 153.133 158.302ZM150.443 170.266C150.287 170.246 149.954 170.245 149.602 170.216C150.034 169.161 150.514 168.226 150.514 168.226C150.789 168.899 151.836 170.45 150.443 170.266Z" fill="#EDDAD3"/>
<path d="M141.083 139.951C141.083 139.951 143.468 143.751 144.95 145.119C146.431 146.487 146.256 147.565 146.256 147.565C146.256 147.565 152.031 141.316 147.912 137.543C143.794 133.771 138.482 135.292 136.928 138.589C135.374 141.886 135.944 145.912 135.944 145.912C135.944 145.912 135.989 142.042 141.083 139.951Z" fill="#E8734D"/>
<path d="M142.656 135.969C142.656 135.969 142.081 133.184 147.058 132.076C152.036 130.968 154.271 135.999 153.658 139.068C153.044 142.137 148.789 149.921 151.097 150.934C153.405 151.948 154.307 149.763 154.307 149.763C154.307 149.763 153.587 153.591 150.376 152.705C147.166 151.819 147.604 145.598 148.082 143.119C148.561 140.64 142.656 135.969 142.656 135.969Z" fill="#E8734D"/>
<path d="M144.26 149.568C144.241 149.608 142.982 152.152 139.738 152.544C139.83 152.249 139.912 151.948 139.988 151.649C139.991 151.655 141.765 151.97 144.26 149.568Z" fill="#A77860"/>
<path d="M150.443 168.264C150.443 168.264 150.205 168.703 149.554 170.435C148.89 165.571 149.237 163.04 149.237 163.04C149.31 165.637 150.443 168.264 150.443 168.264Z" fill="#CFBEB8"/>
<path d="M143.433 135.383C143.433 135.383 146.965 135.979 148.727 138.504C148.727 138.504 148.37 136.224 146.612 135.558C144.853 134.892 143.433 135.383 143.433 135.383Z" fill="#EDDAD3"/>
<path d="M148.434 173.619C148.351 173.923 148.278 174.187 148.226 174.379C148.174 174.57 148.117 174.803 148.07 175.033C145.882 173.988 144.311 173.174 144.311 173.174C144.9 173.28 148.434 173.619 148.434 173.619Z" fill="#CFBEB8"/>
<path d="M144.699 154.499L138.482 158.946L139.122 154.262C139.122 154.262 142.748 153.575 144.699 154.499Z" fill="#EEA886"/>
<path d="M140.279 158.191L138.482 158.945L144.588 153.635L140.279 158.191Z" fill="#D6C5BE"/>
<path d="M148.802 173.234C147.946 176.346 151.111 183.347 151.111 183.347L144.843 185.068C144.629 185.126 144.405 185.145 144.183 185.124C143.961 185.102 143.746 185.039 143.553 184.941C143.36 184.842 143.192 184.709 143.061 184.55C142.93 184.391 142.838 184.211 142.791 184.019C141.951 180.593 139.981 172.163 139.745 167.471C139.446 161.489 144.41 154.432 144.41 154.432C153.235 155.76 150.82 167.471 150.82 167.471C150.82 167.471 150.5 168.209 150.072 169.361C149.964 169.65 149.85 169.969 149.725 170.304C149.418 171.17 149.093 172.176 148.802 173.234Z" fill="#494F80"/>
<path d="M138.498 154.517L138.606 154.262C138.606 154.262 134.087 154.87 131.792 155.871C129.496 156.873 125.092 162.076 125.092 162.076L130.842 168.737C130.842 173.855 129.903 182.956 129.903 182.956L132.542 184.285C132.703 184.366 132.886 184.41 133.073 184.41C133.259 184.411 133.442 184.369 133.605 184.289C133.767 184.209 133.903 184.092 133.998 183.952C134.094 183.812 134.146 183.652 134.15 183.488C134.224 180.027 134.401 171.81 134.496 167.832C134.607 162.71 138.779 154.432 138.779 154.432C138.679 154.459 138.589 154.488 138.498 154.517Z" fill="#494F80"/>
<path d="M130.305 178.518C130.305 178.518 134.636 178.67 135.314 178.518C135.991 178.366 140.489 176.659 140.757 174.967C141.026 173.275 130.305 176.487 130.305 176.487V178.518Z" fill="#EEA886"/>
<path d="M143.758 173.234L126.16 171.429L134.109 177.101L143.758 173.234Z" fill="#6A77BF"/>
<path d="M134.109 177.101L143.758 174.218V173.234L133.785 176.042L134.109 177.101Z" fill="#323657"/>
<path d="M138.645 170.4C138.645 170.4 137.19 170.4 136.375 170.248C135.745 170.134 134.177 170.29 133.777 170.6C133.376 170.91 132.106 173.075 131.871 173.206C131.635 173.336 131.994 173.643 132.415 173.49C132.415 173.49 132.803 174.437 133.759 174.083C134.716 173.728 135.364 172.955 135.864 172.818C136.365 172.681 139.281 171.994 139.281 171.994C139.281 171.994 139.397 170.17 138.645 170.4Z" fill="#EEA886"/>
<path d="M139.455 153.398L136.106 158.051L134.489 158.945L138.256 154.312L139.455 153.398Z" fill="#FAE6DE"/>
<path d="M136.105 158.051L138.483 158.945L139.122 154.262L139.455 153.398L136.105 158.051Z" fill="#D6C5BE"/>
<path d="M130.834 176.341C130.834 176.341 130.66 178.307 130.834 178.719C130.834 178.719 119.983 177.767 118.971 176.439C117.959 175.11 117.995 173.491 117.995 173.491L130.834 176.341Z" fill="#494F80"/>
<path d="M134.109 177.101L128.979 160.365L109.469 158.557L114.815 173.964L134.109 177.101Z" fill="#252740"/>
<path d="M144.588 153.635L140.279 158.191L142.637 160.036L145.182 154.582L144.588 153.635Z" fill="#FAE6DE"/>
<path d="M150.214 168.977L150.068 169.363C149.961 169.652 149.846 169.971 149.722 170.305C148.888 170.535 141.681 170.071 141.681 170.071C141.681 170.071 147.712 168.828 150.214 168.977Z" fill="#3D426B"/>
<path d="M149.789 170.182C148.627 170.105 146.726 169.997 145.168 169.991C142.743 169.982 138.605 170.217 138.605 170.217L139.099 172.488C139.099 172.488 146.437 173.534 150.442 173.78C150.442 173.78 155.73 174.312 156.123 173.628C156.517 172.944 155.994 168.492 155.134 164.488C154.275 160.485 153.389 158.177 152.338 156.942C151.286 155.706 145.732 154.736 145.732 154.736L150.444 168.264C150.444 168.264 151.12 169.471 151.085 169.992C151.073 170.144 150.948 170.225 150.78 170.254C150.661 170.245 150.401 170.225 150.04 170.2L149.789 170.182Z" fill="#494F80"/>
<path d="M107.016 147.575C107.016 147.575 109.9 146.954 110.134 147.054C110.368 147.154 110.396 147.293 110.134 147.358C109.873 147.423 107.362 148.028 107.362 148.028C107.362 148.028 110.916 147.797 111.127 147.841C111.25 147.869 111.325 148.135 111.184 148.183C111.044 148.232 107.546 148.639 107.546 148.639C107.546 148.639 110.864 148.428 111.027 148.512C111.064 148.535 111.093 148.568 111.109 148.606C111.125 148.644 111.128 148.685 111.117 148.725C111.105 148.764 111.081 148.799 111.046 148.826C111.012 148.853 110.968 148.87 110.923 148.875C110.678 148.905 107.61 149.253 107.61 149.253C107.61 149.253 110.035 149.234 110.127 149.376C110.183 149.463 110.259 149.69 109.632 149.68C109.005 149.671 107.525 149.776 107.525 149.776L107.016 147.575Z" fill="#EEA886"/>
<path opacity="0.16" d="M118.334 125.687C118.302 119.727 111.782 114.923 103.772 114.958C95.7625 114.993 89.2983 119.852 89.3312 125.813C89.3423 127.35 89.7825 128.861 90.6133 130.214C90.6133 130.221 95.085 137.79 95.7521 144.984C95.7711 148.349 99.4511 151.064 103.973 151.042C108.495 151.021 112.146 148.279 112.127 144.914C112.712 137.709 117.099 130.098 117.099 130.098C117.916 128.739 118.34 127.224 118.334 125.687Z" fill="#6395BF"/>
<path d="M98.0973 128.981L97.5645 129.041L99.9131 145.305L100.446 145.246L98.0973 128.981Z" fill="#D88A51"/>
<path d="M107.438 145.218L107.972 145.272L110.129 128.987L109.596 128.933L107.438 145.218Z" fill="#D88A51"/>
<path d="M107.812 131.495L105.785 129.735L103.812 131.483L101.852 129.782L99.9464 131.471L97.8223 129.626L98.0822 129.396L99.9447 131.012L101.85 129.323L103.81 131.026L105.782 129.276L107.809 131.036L109.67 129.388L109.931 129.616L107.812 131.495Z" fill="#D88A51"/>
<path d="M109.62 150.497H96.6045V155.338H109.62V150.497Z" fill="#315496"/>
<path d="M112.514 145.068L95.3154 145.142L95.3588 152.936L112.558 152.862L112.514 145.068Z" fill="#4373CF"/>
<path d="M63.1489 194.241C62.7331 195.457 61.6675 198.053 60.5188 200.777C60.2676 201.385 60.0077 201.993 59.7496 202.601C58.3046 206 56.9359 209.147 56.747 209.593C56.728 209.631 56.7211 209.648 56.7211 209.648C56.2931 210.506 55.756 211.546 55.1513 212.688C55.1202 212.671 55.089 212.642 55.0561 212.621C53.6827 211.579 52.3457 210.489 51.0452 209.35C48.3496 206.989 45.8674 204.448 43.6211 201.75C43.6835 201.478 43.7147 201.329 43.7147 201.329C43.7147 201.329 44.075 199.818 44.8131 197.565C46.0432 193.802 48.3267 187.963 51.7694 183.581C53.145 181.81 63.1489 194.241 63.1489 194.241Z" fill="#292C47"/>
<path d="M92.2233 216.167C92.1038 216.643 91.1578 219.901 90.0161 223.881C89.7319 224.893 89.4287 225.95 89.1255 227.018C86.2264 226.545 83.3634 225.915 80.5528 225.132C80.3899 225.086 80.2253 225.038 80.0607 224.98C80.2184 223.84 80.383 222.733 80.5476 221.704C80.9374 219.236 81.3238 217.193 81.6703 216.164C83.02 212.113 76.5471 209.458 72.8065 207.991C69.0658 206.524 50.1358 198.552 50.4702 195.32C50.7041 193.084 51.0454 190.98 51.0454 190.98C51.0454 190.98 53.3099 186.741 69.0156 191.556C69.0156 191.556 89.5795 205.662 91.7122 208.246C93.845 210.83 92.5456 214.91 92.2233 216.167Z" fill="#292C47"/>
<path d="M62.1641 158.668C62.1641 158.668 65.3295 163.768 65.9481 166.858C66.5666 169.948 65.0956 179.734 65.2013 181.485C65.4872 186.206 69.013 191.553 69.013 191.553L50.2285 197.752C49.1684 194.223 48.312 190.649 47.6625 187.044C46.6074 181.148 47.245 176.031 47.7942 172.626C49.5129 161.945 57.0357 156.7 57.0357 156.7L62.1641 158.668Z" fill="#CFBEB6"/>
<path d="M68.4747 143.935C68.4747 143.935 70.7859 146.519 70.0045 147.098C69.3565 147.572 71.4633 150.138 71.7579 150.564C72.0524 150.989 70.6109 151.55 70.3493 151.892C70.0877 152.234 69.8468 155.996 68.6289 156.3C67.4109 156.604 61.4924 155.733 59.7009 154.575C57.9094 153.417 55.4353 147.338 55.9343 144.543C56.4333 141.748 64.4048 139.417 68.4747 143.935Z" fill="#EEA886"/>
<path d="M64.7534 156.077C64.7534 156.077 64.6599 156.39 64.5265 156.873C64.471 157.077 64.4086 157.309 64.3428 157.562C64.2926 157.755 64.2389 157.958 64.1869 158.17C63.856 159.492 63.5112 161.091 63.5649 161.853C63.6619 163.272 57.7764 156.622 57.7764 156.622C58.6303 153.471 59.2289 150.271 59.5678 147.046C60.0772 141.916 64.7534 156.077 64.7534 156.077Z" fill="#EEA886"/>
<path d="M68.946 144.5C68.946 144.5 70.1329 141.156 66.4356 139.355C62.7382 137.554 57.5215 142.471 56.8787 142.728C56.2359 142.985 52.5092 143.763 55.5342 149.405C58.2284 154.421 58.4034 154.099 58.4034 154.099C58.4034 154.099 59.1293 151.281 59.7444 150.728C60.7059 149.863 63.1454 149.664 63.1454 149.664C63.1454 149.664 61.4769 147.165 63.1956 146.516C64.9144 145.867 67.016 144.183 68.946 144.5Z" fill="#323657"/>
<path d="M60.936 148.423C60.7073 148.081 59.8965 146.583 58.5278 147.739C57.159 148.896 60.2499 151.489 60.5254 151.488C60.8009 151.486 62.8696 151.308 60.936 148.423Z" fill="#EEA886"/>
<path d="M64.798 156.048C64.6892 156.318 64.5967 156.594 64.5207 156.873C64.4653 157.077 64.4029 157.309 64.3371 157.562C60.9759 156.067 59.9935 154.766 59.9658 154.725C61.5355 155.4 64.798 156.048 64.798 156.048Z" fill="#A77860"/>
<path d="M69.0169 191.553C69.0169 191.553 68.1749 190.152 67.9774 189.792L49.6416 195.738L50.2237 197.75C50.2237 197.75 63.6546 193.476 69.0169 191.553Z" fill="#23263D"/>
<path d="M46.8784 178.55C46.8784 178.55 47.9076 188.345 42.2594 198.95C41.5664 200.245 53.1555 200.041 53.1555 200.041L46.8784 178.55Z" fill="#323657"/>
<path d="M94.8407 152.033C94.8407 152.033 95.4558 151.904 95.7573 151.541C96.277 150.913 96.1038 149.699 97.3616 149.504C98.6195 149.31 100.442 152.626 100.375 153.35C100.307 154.073 98.7252 154.786 96.0431 154.911C93.3611 155.035 94.8407 152.033 94.8407 152.033Z" fill="#EEA886"/>
<path d="M96.9492 149.623C98.0609 148.968 99.2125 148.367 100.399 147.823C102.053 147.063 104.228 146.338 104.45 146.7C104.786 147.252 102.925 147.673 101.341 148.524C99.8842 149.3 100.323 149.364 100.323 149.364C100.323 149.364 100.198 149.34 101.977 148.767C103.883 148.15 105.972 147.551 106.16 147.855C106.393 148.22 106.387 148.282 105.735 148.615C106.156 148.499 106.255 148.585 106.326 148.735C106.702 149.515 104.056 150.808 103.005 151.319C103.815 150.93 104.458 150.72 104.337 151.328C104.198 152.023 100.362 153.701 99.056 154.42C97.6301 155.192 96.9492 149.623 96.9492 149.623Z" fill="#EEA886"/>
<path d="M63.9474 161.286C63.9474 161.286 64.552 163.395 64.2939 164.203C64.1951 164.507 63.1504 163.783 63.1504 163.783L63.9474 161.286Z" fill="#548AD1"/>
<path d="M57.9665 155.914C57.9665 155.914 61.5911 159.849 63.9473 160.904L63.9214 163.783L57.0361 156.698L57.9665 155.914Z" fill="#EDDAD3"/>
<path d="M64.9715 169.305C64.7463 170.397 64.5488 171.499 64.3807 172.599C64.0082 175.022 63.7674 177.451 63.6201 179.805C63.5682 180.646 63.5301 181.477 63.4989 182.294C63.1524 192.037 58.7551 199.809 58.7551 199.809C58.7551 199.809 50.0247 200.502 47.7775 199.553C47.7775 199.553 46.2182 188.627 46.9268 177.773C46.9823 176.936 47.0499 176.101 47.1347 175.265C48.0236 166.467 50.6276 158.282 57.0381 156.698C57.1888 156.812 66.1584 163.567 64.9715 169.305Z" fill="#323657"/>
<path d="M64.1056 164.148C64.1056 164.148 61.6037 173.14 52.5926 173.029C44.5223 172.93 32.5243 175.51 28.4666 177.908L23.4248 181.1L25.0465 176.463C25.0465 176.463 29.2047 169.243 52.5944 172.094C52.5944 172.094 59.6684 173.862 63.1821 163.081C63.189 163.076 64.3117 163.713 64.1056 164.148Z" fill="#548AD1"/>
<path d="M56.9237 161.974C56.9237 161.974 70.54 162.339 76.857 160.728C78.8373 160.222 94.2329 152.064 95.0074 151.889C95.7818 151.714 99.7061 155.993 99.7061 155.993C99.7061 155.993 80.7968 165.663 79.6533 166.204C78.5098 166.746 58.8919 170.188 56.6639 169.751C54.4358 169.313 51.4471 168.18 51.6602 166.045C51.9599 163.053 56.9237 161.974 56.9237 161.974Z" fill="#323657"/>
<path d="M242.054 105.184C242.054 105.184 237.062 94.9787 236.461 92.4677C236.189 91.3292 235.44 88.499 234.966 86.1749C234.808 85.4149 234.678 84.6214 234.565 83.8493C234.12 80.7682 234.006 77.9562 234.006 77.9562C234.006 77.9562 231.357 69.9854 237.036 69.499C237.036 69.499 239.06 70.1146 239.127 70.259C240.084 72.2182 240.46 77.216 240.494 78.2967C240.52 79.1753 241.989 88.0354 242.012 88.3485C242.054 88.9565 243.571 92.1485 244.373 94.5212C246.141 99.6892 247.071 103.752 247.071 103.752L242.054 105.184Z" fill="#323657"/>
<path d="M256.339 87.473H230.738V107.119H256.339V87.473Z" fill="#E2E3ED"/>
<path d="M248.778 97.5962H247.352V103.638H248.778V97.5962Z" fill="#AAB1E0"/>
<path d="M250.758 99.1846H249.332V103.638H250.758V99.1846Z" fill="#AAB1E0"/>
<path d="M252.729 96.8422H251.303V103.638H252.729V96.8422Z" fill="#AAB1E0"/>
<path d="M250.457 105.904C250.457 105.904 250.31 108.551 248.687 109.01C247.063 109.469 245.299 109.06 244.553 108.659C243.806 108.257 241.926 107.092 242.628 106.359C244.878 104.006 250.457 105.904 250.457 105.904Z" fill="#EEA886"/>
<path d="M249.629 108.355C249.629 108.355 251.656 108.484 251.547 107.73C251.438 106.976 249.988 107.274 249.988 107.274L249.629 108.355Z" fill="#EEA886"/>
<path d="M242.587 99.0386H241.161V103.638H242.587V99.0386Z" fill="#AAB1E0"/>
<path d="M244.614 98.575H243.188V103.638H244.614V98.575Z" fill="#AAB1E0"/>
<path d="M246.667 99.5387H245.243V103.638H246.667V99.5387Z" fill="#AAB1E0"/>
<path d="M240.489 99.5387H239.063V103.638H240.489V99.5387Z" fill="#AAB1E0"/>
<path d="M234.042 96.5094C234.054 96.5268 234.067 96.5435 234.08 96.5595L234.023 96.593L232.497 97.4958L232.457 97.4457L233.985 96.5428L234.042 96.5094Z" fill="#AAB1E0"/>
<path d="M239.548 96.7678C239.546 96.7875 239.546 96.8073 239.548 96.827H239.479L235.109 96.368L235.04 96.3604C235.042 96.3402 235.042 96.3198 235.04 96.2996L235.108 96.3072L239.481 96.7632L239.548 96.7678Z" fill="#AAB1E0"/>
<path d="M243.842 93.898L243.791 93.939L240.546 96.523L240.496 96.5626L240.449 96.5185L240.501 96.4774L243.745 93.8934L243.795 93.8524L243.842 93.898Z" fill="#AAB1E0"/>
<path d="M249.144 93.5606V93.591H244.752C244.753 93.5808 244.753 93.5707 244.752 93.5606C244.753 93.5504 244.753 93.5403 244.752 93.5302H249.144V93.5606Z" fill="#AAB1E0"/>
<path d="M252.924 90.5008L250.112 93.1912L250.066 93.2353L250.014 93.1942L250.06 93.1502L252.874 90.4598L252.924 90.5008Z" fill="#AAB1E0"/>
<path d="M234.505 95.7402C234.344 95.7402 234.19 95.7963 234.076 95.8961C233.962 95.9958 233.898 96.1311 233.898 96.2722C233.898 96.3677 233.928 96.4614 233.985 96.5428C233.997 96.5602 234.009 96.577 234.023 96.593C234.093 96.6777 234.19 96.7425 234.302 96.779C234.414 96.8155 234.536 96.8221 234.652 96.7981C234.768 96.774 234.873 96.7203 234.955 96.6438C235.036 96.5673 235.09 96.4713 235.109 96.368C235.111 96.3478 235.111 96.3274 235.109 96.3072C235.11 96.2966 235.11 96.2859 235.109 96.2753C235.11 96.2053 235.095 96.1359 235.064 96.0711C235.034 96.0063 234.99 95.9474 234.934 95.8977C234.878 95.848 234.811 95.8085 234.737 95.7815C234.664 95.7544 234.585 95.7404 234.505 95.7402ZM235.025 96.3574C235.006 96.4468 234.958 96.5296 234.887 96.5957C234.816 96.6618 234.725 96.7084 234.624 96.7298C234.523 96.7512 234.418 96.7465 234.32 96.7162C234.222 96.686 234.137 96.6316 234.073 96.5595C234.06 96.5435 234.047 96.5268 234.035 96.5094C233.987 96.4376 233.961 96.3557 233.961 96.2722C233.957 96.2082 233.967 96.1441 233.993 96.0839C234.018 96.0236 234.056 95.9685 234.107 95.9219C234.157 95.8753 234.217 95.8381 234.284 95.8128C234.352 95.7874 234.424 95.7743 234.497 95.7743C234.57 95.7743 234.642 95.7874 234.71 95.8128C234.777 95.8381 234.837 95.8753 234.887 95.9219C234.938 95.9685 234.976 96.0236 235.002 96.0839C235.027 96.1441 235.037 96.2082 235.033 96.2722V96.2966C235.034 96.3168 235.034 96.3372 235.032 96.3574H235.025Z" fill="#AAB1E0"/>
<path d="M240.546 96.52C240.533 96.5038 240.518 96.4886 240.501 96.4744C240.422 96.4069 240.324 96.3595 240.217 96.3372C240.11 96.315 239.998 96.3187 239.893 96.3481C239.788 96.3775 239.694 96.4314 239.622 96.504C239.549 96.5765 239.5 96.6651 239.481 96.7602C239.479 96.7799 239.479 96.7997 239.481 96.8194C239.48 96.8306 239.48 96.8417 239.481 96.8529C239.481 96.994 239.545 97.1293 239.658 97.2291C239.772 97.3288 239.926 97.3849 240.087 97.3849C240.248 97.3849 240.402 97.3288 240.516 97.2291C240.63 97.1293 240.694 96.994 240.694 96.8529C240.691 96.7302 240.638 96.6124 240.546 96.52ZM240.077 97.3226C240.006 97.3228 239.937 97.3108 239.871 97.2873C239.806 97.2637 239.747 97.2292 239.697 97.1855C239.647 97.1419 239.608 97.0901 239.581 97.033C239.554 96.9759 239.54 96.9147 239.54 96.8529C239.539 96.8443 239.539 96.8356 239.54 96.827C239.538 96.8073 239.538 96.7875 239.54 96.7678C239.557 96.6838 239.6 96.6056 239.664 96.5416C239.728 96.4775 239.811 96.4299 239.904 96.404C239.996 96.378 240.095 96.3747 240.19 96.3943C240.284 96.414 240.371 96.4558 240.441 96.5154L240.487 96.5595C240.549 96.6289 240.587 96.7119 240.597 96.7992C240.608 96.8865 240.59 96.9746 240.546 97.0536C240.503 97.1326 240.435 97.1994 240.35 97.2464C240.266 97.2934 240.168 97.3187 240.068 97.3195L240.077 97.3226Z" fill="#AAB1E0"/>
<path d="M244.812 93.5302C244.806 93.4468 244.778 93.3658 244.73 93.2937C244.682 93.2217 244.615 93.1606 244.535 93.1155C244.455 93.0704 244.364 93.0425 244.269 93.0341C244.174 93.0257 244.079 93.037 243.99 93.0672C243.901 93.0973 243.822 93.1454 243.758 93.2076C243.695 93.2697 243.649 93.3442 243.624 93.4248C243.599 93.5055 243.597 93.5901 243.617 93.6718C243.636 93.7535 243.678 93.83 243.738 93.895C243.752 93.9107 243.767 93.9255 243.784 93.939C243.867 94.0111 243.972 94.0607 244.086 94.0817C244.2 94.1027 244.318 94.0943 244.427 94.0575C244.536 94.0207 244.63 93.957 244.698 93.8742C244.766 93.7914 244.806 93.693 244.812 93.591C244.813 93.5808 244.813 93.5707 244.812 93.5606C244.813 93.5504 244.813 93.5403 244.812 93.5302ZM244.209 94.0318C244.069 94.0315 243.935 93.9835 243.835 93.898L243.788 93.8539C243.736 93.7962 243.7 93.7286 243.684 93.6566C243.667 93.5845 243.67 93.5101 243.692 93.4392C243.714 93.3684 243.755 93.303 243.811 93.2485C243.867 93.194 243.937 93.1518 244.015 93.1253C244.094 93.0988 244.178 93.0887 244.261 93.0959C244.344 93.1032 244.425 93.1274 244.495 93.1668C244.566 93.2062 244.625 93.2596 244.668 93.3227C244.711 93.3858 244.737 93.4569 244.743 93.5302C244.743 93.5403 244.743 93.5504 244.743 93.5606C244.743 93.5707 244.743 93.5808 244.743 93.591C244.734 93.7092 244.675 93.8202 244.578 93.902C244.48 93.9837 244.351 94.0301 244.216 94.0318H244.209Z" fill="#AAB1E0"/>
<path d="M250.112 93.1912C250.096 93.1763 250.078 93.1626 250.06 93.1502C249.973 93.0884 249.869 93.0488 249.759 93.0356C249.649 93.0224 249.536 93.0363 249.434 93.0756C249.332 93.1149 249.245 93.1781 249.181 93.2583C249.118 93.3385 249.08 93.4326 249.074 93.5302C249.073 93.5403 249.073 93.5504 249.074 93.5606C249.073 93.5707 249.073 93.5808 249.074 93.591C249.08 93.6762 249.109 93.759 249.159 93.8322C249.21 93.9054 249.279 93.9669 249.362 94.0114C249.445 94.056 249.539 94.0822 249.637 94.088C249.734 94.0938 249.831 94.0789 249.92 94.0446C250.009 94.0103 250.088 93.9576 250.149 93.891C250.21 93.8244 250.252 93.7459 250.271 93.6621C250.29 93.5783 250.285 93.4918 250.258 93.4098C250.23 93.3278 250.181 93.2528 250.113 93.1912H250.112ZM249.677 94.0318C249.541 94.0316 249.409 93.986 249.31 93.9041C249.211 93.8223 249.15 93.7103 249.141 93.591V93.5302C249.151 93.4111 249.211 93.2995 249.31 93.2179C249.41 93.1364 249.541 93.091 249.677 93.0909C249.799 93.0902 249.918 93.1267 250.013 93.1942L250.065 93.2353C250.138 93.302 250.186 93.3859 250.205 93.4767C250.224 93.5674 250.212 93.661 250.17 93.7458C250.129 93.8306 250.06 93.9029 249.972 93.9537C249.885 94.0045 249.782 94.0317 249.677 94.0318Z" fill="#AAB1E0"/>
<path d="M201.626 105.556C201.626 105.556 200.746 106.903 199.701 106.876C198.814 106.853 197.622 107.353 197.262 107.505C196.773 107.71 195.009 107.887 195.293 108.39C195.578 108.893 198.222 108.215 198.805 108.163C199.389 108.112 197.868 109.91 197.898 110.411C197.927 110.913 201.605 112.729 202.478 111.401C203.352 110.072 203.241 108.209 203.45 107.993C203.699 107.69 203.927 107.373 204.133 107.046L201.626 105.556Z" fill="#EEA886"/>
<path d="M198.014 110.063C198.014 110.063 195.659 114.269 195.784 114.651C195.909 115.032 196.188 115.116 196.427 114.73C196.666 114.344 198.852 110.717 198.852 110.717C198.852 110.717 197.066 116.055 197.084 116.388C197.094 116.582 197.624 116.774 197.777 116.576C197.929 116.379 200.062 111.162 200.062 111.162C200.062 111.162 198.405 116.149 198.522 116.421C198.562 116.486 198.624 116.539 198.698 116.574C198.772 116.609 198.856 116.624 198.939 116.619C199.023 116.613 199.104 116.586 199.171 116.542C199.238 116.498 199.289 116.437 199.319 116.368C199.473 116.005 201.325 111.44 201.325 111.44C201.325 111.44 200.394 115.125 200.658 115.304C200.821 115.414 201.268 115.596 201.472 114.64C201.677 113.684 202.446 111.462 202.446 111.462L198.014 110.063Z" fill="#EEA886"/>
<path d="M242.237 145.751C239.556 145.51 236.893 145.139 234.259 144.639C234.094 143.455 233.929 142.308 233.772 141.225C233.275 137.815 232.821 135.043 232.505 133.882C231.438 129.913 227.481 112.84 226.512 113.926C225.544 115.011 224.336 133.848 223.61 136.975C223.548 137.251 223.472 137.7 223.383 138.28C223.264 139.138 223.118 140.29 222.967 141.634C219.969 140.595 217.052 139.382 214.237 138.004C214.249 137.832 214.261 137.666 214.275 137.511C214.306 137.09 214.225 135.896 214.091 134.152C213.523 126.598 212.047 108.867 215.348 100.826C217.486 95.6019 237.443 103.682 237.443 103.682C237.443 103.682 239.248 119.034 240.181 124.28C241.279 130.422 241.652 135.502 241.953 138.679C242.029 139.448 242.093 140.807 242.149 142.503C242.182 143.488 242.213 144.584 242.237 145.751Z" fill="#292C47"/>
<path d="M202.286 105.841C202.286 105.841 203.641 107.209 204.913 107.008C206.184 106.807 211.509 92.568 211.559 89.7165C211.597 87.4046 213.038 81.3033 213.038 81.3033C213.038 81.3068 213.038 81.3104 213.038 81.3139C213.038 81.3139 213.038 81.3139 213.038 81.3246C213.182 81.7806 215.128 88.1129 215.196 91.1559C215.267 94.313 214.981 105.175 214.981 105.175L219.801 106.307L235.196 106.433L238.71 105.175C238.71 105.175 238.327 101.679 238.19 99.2302C238.102 97.6706 237.755 94.8784 237.844 92.1591C237.844 92.1591 237.786 89.2939 238.112 88.0551C238.147 82.6074 238.523 77.2114 238.523 77.2114C238.731 74.7419 238.876 72.4305 238.958 70.2772C238.28 69.9626 237.463 69.5932 236.809 69.3211C234.786 68.476 231.969 67.3375 230.161 66.6094C229.101 66.1838 228.065 65.8722 228.065 65.8722C228.065 65.8722 220.838 65.2642 220.251 65.2962C220.066 65.3068 219.163 65.5819 217.978 65.9786C215.416 66.8314 210.476 68.5626 209.689 69.0642C208.534 69.7893 206.096 87.0109 205.985 88.2162C205.786 90.399 202.286 105.841 202.286 105.841Z" fill="#DBD8E3"/>
<path d="M238.251 104.027C238.251 104.027 227.682 104.818 218.413 104.027V106.695C218.413 106.695 232.206 107.85 238.715 106.186L238.251 104.027Z" fill="#1D2033"/>
<path d="M229.231 66.272C229.231 66.272 230.952 69.8166 232.243 77.7419C232.738 80.7819 233.658 85.9104 234.322 91.1392C234.842 95.263 236.054 99.4992 236.434 102.649C236.829 105.918 238.021 115.549 238.021 115.549L240.914 113.95C241.327 113.614 241.907 113.179 241.739 112.708C240.944 110.455 239.421 103.006 238.521 96.5139C238.521 96.5139 238.521 96.5048 238.521 96.5002C238.479 96.1871 238.437 95.8765 238.395 95.5685V95.5198C238.222 94.2218 238.085 92.9769 237.984 91.8369C237.919 90.9816 237.962 90.1226 238.113 89.2757C238.516 83.448 238.717 77.3042 238.717 77.3042C238.929 74.7886 239.05 72.4402 239.131 70.2483C239.128 70.2483 230.054 66.4848 229.231 66.272Z" fill="#323657"/>
<path d="M211.779 89.8457C211.556 92.4905 206.041 107.934 205.31 107.859C204.023 107.742 199.698 106.546 199.698 106.546C199.698 106.546 205.024 90.8519 205.211 89.1982C205.348 87.9943 207.533 69.9367 208.687 69.2117C209.352 68.7922 214.288 67.257 216.71 66.4194C217.154 66.2674 218.616 65.7841 219.011 65.6518C219.531 66.1534 223.117 69.5658 224.368 82.5238C224.578 84.7066 223.912 89.3304 223.469 93.1046C222.994 97.131 222.469 100.273 222.083 103.64C221.324 110.274 220.794 115.552 220.794 115.552L213.268 112.612C212.055 112.079 210.364 109.885 210.821 108.761C212.554 104.486 214.752 97.1827 214.754 93.4314C214.754 93.4314 213.916 84.246 213.25 82.2274C213.252 82.232 212.067 86.488 211.779 89.8457Z" fill="#323657"/>
<path d="M224.726 49.1918C224.726 49.1918 232.271 46.743 231.798 55.5393C231.325 64.3355 229.56 65.2278 224.596 63.9996C219.632 62.7714 219.225 57.2204 218.572 54.5498C217.919 51.8791 222.259 49.5763 224.726 49.1918Z" fill="#EEA886"/>
<path d="M219.62 58.9122C219.62 58.9122 219.6 56.5622 220.714 56.3464C221.828 56.1306 222.4 57.4879 222.4 57.4879L223.297 57.4469C223.297 57.4469 222.495 55.065 223.557 54.5194C224.619 53.9737 230.97 54.4525 231.767 53.6514C232.564 52.8504 231.409 48.0882 229.676 47.6216C227.944 47.155 223.209 46.2065 220.203 48.5549C220.203 48.5549 217.588 48.599 217.484 50.467C217.38 52.3351 218.714 57.6384 219.62 58.9122Z" fill="#434343"/>
<path d="M221.973 55.3493C221.641 54.5741 219.759 54.6714 219.951 55.901C220.144 57.1307 221.699 59.0216 222.323 58.672C222.947 58.3224 222.432 56.4178 221.973 55.3493Z" fill="#EEA886"/>
<path d="M220.92 65.9817C220.92 65.9817 221.585 65.4998 220.631 61.0964C220.374 59.9169 227.713 62.5024 227.713 62.5024C227.713 62.5024 227.654 63.4691 227.661 64.4374C227.661 64.8706 227.68 65.3038 227.72 65.6534C227.774 65.9449 227.864 66.2303 227.989 66.5046C228.322 67.1734 223.633 67.6841 220.92 65.9817Z" fill="#EEA987"/>
<path d="M227.72 65.6518C223.316 65.6017 221.901 62.665 221.857 62.5723C224.177 64.635 227.662 64.4374 227.662 64.4374C227.66 64.8706 227.681 65.3038 227.72 65.6518Z" fill="#A77860"/>
<path d="M225.948 68.2617L227.284 69.8364C227.284 69.8364 226.501 70.7484 225.111 70.0766L225.948 68.2617Z" fill="#E8734D"/>
<path d="M226.901 69.8987C226.901 69.8987 231.854 86.6294 230.834 99.6512L229.167 102.228L227.608 99.5296C227.608 99.5296 227.18 76.2341 225.821 69.8577L226.901 69.8987Z" fill="#E8734D"/>
<path d="M227.378 66.7949L225.948 68.2617C225.948 68.2617 223.653 67.871 222.98 66.8207C222.308 65.7704 227.378 66.7949 227.378 66.7949Z" fill="#EEA987"/>
<path d="M227.705 65.512C227.705 65.512 227.532 66.6307 225.948 68.2632L227.681 70.3106L228.62 66.0622L227.705 65.512Z" fill="#C4C1CC"/>
<path d="M221.133 64.3659C221.133 64.3659 223.628 67.4576 225.948 68.2617L224.868 70.6025L219.938 65.3752L221.133 64.3659Z" fill="#C4C1CC"/>
<path d="M290.899 49.7435C293.151 50.5339 291.864 54.5969 292.085 62.0008C292.307 69.4047 298.525 70.7469 298.525 70.7469C298.525 70.7469 295.786 67.9121 295.233 65.3159C294.681 62.7198 300.821 56.1625 298.137 51.0142C296.058 47.0364 290.623 49.5961 290.623 49.5961L290.899 49.7435Z" fill="#754836"/>
<path d="M255.142 89.376C255.142 89.376 256.249 89.0401 256.9 89.1465C257.552 89.2529 255.668 86.3056 255.668 86.3056L255.142 89.376Z" fill="#EEA886"/>
<path d="M255.669 86.2995C255.669 86.2995 253.926 84.9574 253.654 84.7598C253.382 84.5622 252.396 84.477 251.256 84.4649C250.116 84.4527 248.572 84.8859 248.461 85.0288C248.35 85.1717 248.163 85.2705 248.17 85.7128C248.185 86.0016 248.284 86.2822 248.458 86.5275C248.458 86.5275 248.174 87.0747 248.56 87.5094C248.495 87.6764 248.488 87.8566 248.54 88.027C248.591 88.1975 248.7 88.3507 248.851 88.467C248.851 88.467 248.631 88.9869 249.049 89.2696C249.049 89.2696 250.034 89.3562 250.388 89.4809C250.741 89.6055 252.813 89.6618 254.799 89.449C254.799 89.449 257.004 89.2909 255.669 86.2995Z" fill="#EEA886"/>
<path d="M252.303 86.7099C252.303 86.7099 252.747 87.6538 253.026 87.8636C253.305 88.0734 251.262 89.2559 251.262 89.2559C251.262 89.2559 251.009 87.2146 252.303 86.7099Z" fill="#CF8C6C"/>
<path d="M248.761 85.0227C248.761 85.0227 251.647 85.1124 251.689 85.5213C251.709 85.6276 251.698 85.7366 251.658 85.8385C251.618 85.9404 251.55 86.032 251.46 86.105L252.629 86.6142C252.629 86.6142 253.187 87.3362 252.129 87.6569C252.129 87.6569 252.728 88.2831 251.664 88.4868C251.664 88.4868 251.85 89.0553 251.377 89.2255C250.904 89.3958 249.048 89.2696 249.048 89.2696C249.048 89.2696 248.577 89.1176 248.757 88.4868C248.607 88.3664 248.5 88.2098 248.45 88.0366C248.4 87.8634 248.409 87.6811 248.476 87.5125C248.476 87.5125 248.1 87.1386 248.374 86.523C248.374 86.523 247.693 85.649 248.461 85.0288C248.461 85.0288 248.638 85.0182 248.761 85.0227Z" fill="#DB9C7C"/>
<path d="M251.699 85.497C251.699 85.497 251.223 83.141 251.37 82.1119C251.405 81.8794 251.396 81.7912 251.654 81.7319C251.912 81.6726 252.347 82.4798 252.63 83.1911C252.912 83.9025 253.681 84.781 253.681 84.781C253.681 84.781 253.707 85.5137 251.699 85.497Z" fill="#EEA886"/>
<path d="M301.734 122.431C301.609 124.324 301.521 125.762 301.533 126.344C301.533 126.593 301.571 126.902 301.621 127.256L301.576 127.295C299.975 128.7 298.312 130.031 296.586 131.29C295.813 131.861 295.024 132.412 294.221 132.945C294.076 131.833 293.963 130.992 293.925 130.77C293.906 130.659 293.752 130.139 293.49 129.32C292.002 124.594 287.208 109.923 287.208 107.09C287.208 103.77 289.497 90.0661 297.711 95.491C297.711 95.491 301.117 99.37 302.042 103.98C302.732 107.423 302.087 116.888 301.734 122.431Z" fill="#1D3B54"/>
<path d="M281.227 129.309C280.824 130.3 281.789 133.029 282.395 135.774C282.653 136.975 282.849 138.18 282.818 139.243C280.497 140.277 278.113 141.197 275.676 142C275.007 142.22 274.339 142.432 273.665 142.635L273.462 139.255L273.115 133.283C273.115 133.283 272.473 125.281 272.408 124.806C272.344 124.33 273.677 120.937 274.345 118.341C275.014 115.745 280.604 97.0125 280.604 97.0125C297.855 91.5739 290.949 110.715 290.949 110.715C290.949 110.715 281.834 127.832 281.227 129.309Z" fill="#1D3B54"/>
<path d="M282.178 68.9259C282.178 68.9259 278.713 69.2846 277.258 71.0402C275.803 72.7958 275.317 75.4802 274.993 76.3678C274.669 77.2555 270.189 85.6292 269.894 85.839C269.6 86.0487 265.508 85.9074 263.049 85.9682C259.596 86.0533 255.479 85.9803 255.479 85.9803L255.984 90.3169C255.984 90.3169 272.41 90.6543 273.545 89.5234C276.05 87.0261 281.711 78.3226 281.711 78.3226C281.711 78.3226 287.607 71.2652 282.178 68.9259Z" fill="#285173"/>
<path d="M286.24 67.5959C286.24 67.5959 283.341 68.7952 282.335 68.973C281.328 69.1509 277.425 73.5984 276.74 75.2233C276.056 76.8482 276.74 79.2847 278.149 82.1454C279.558 85.006 278.229 85.959 278.873 88.8197C279.518 91.6803 280.086 97.7375 279.959 99.3259C279.833 100.914 296.246 101.215 299.984 98.3197C299.984 98.3197 296.223 93.3751 295.74 92.6683C295.256 91.9615 295.658 88.1083 296.102 87.1249C296.545 86.1414 301.178 78.1797 301.178 78.1797C301.178 78.1797 301.902 71.2682 299.725 69.7847C297.833 68.4958 292.676 68.0367 291.755 67.754C290.833 67.4713 288.127 67.3482 286.24 67.5959Z" fill="#EDDAD3"/>
<path d="M285.313 73.264L283.553 71.4537L285.083 66.6915C285.083 66.6915 285.595 69.3439 285.313 73.264Z" fill="#D6C5BE"/>
<path d="M284.855 64.6608C284.855 64.6608 285.434 69.3257 285.313 70.8442C285.313 70.8442 288.326 73.492 291.751 67.754C291.751 67.754 290.31 65.3889 291.394 62.165C292.479 58.941 284.855 64.6608 284.855 64.6608Z" fill="#EEA886"/>
<path d="M285.314 70.8442V73.264L288.78 70.9916L285.314 70.8442Z" fill="#EEA886"/>
<path d="M285.314 73.264L286.752 71.6999L291.6 67.4622L293.168 68.7876L285.314 73.264Z" fill="#D6C5BE"/>
<path d="M290.888 101.615C292.255 107.347 302.127 100.968 302.127 100.968C302.127 100.968 295.716 91.5314 298.267 83.9891C298.287 83.9283 298.307 83.869 298.327 83.8098C298.49 83.3325 298.653 82.8795 298.814 82.4418C301.151 76.2098 303.251 74.746 303.251 74.746C303.251 74.746 300.283 69.0202 297.534 68.6493C294.784 68.2784 292.275 67.8619 292.275 67.8619C292.275 67.8619 288.207 73.2777 288.013 75.661C287.819 78.0444 289.522 95.8831 290.888 101.615Z" fill="#285173"/>
<path d="M276.123 75.889C276.123 75.889 276.78 81.2972 278.029 83.9815C278.029 83.9815 278.549 89.7028 278.472 91.7153C278.396 93.7278 277.849 101.338 277.849 101.338L280.675 102.792C280.803 102.858 280.95 102.891 281.098 102.888C281.247 102.885 281.392 102.845 281.516 102.774C281.641 102.702 281.74 102.601 281.802 102.483C281.865 102.364 281.888 102.233 281.87 102.103C281.07 96.3102 278.465 74.3371 284.091 68.4319L281.839 69.0156C281.839 69.0156 277.185 72.8171 276.123 75.889Z" fill="#285173"/>
<path d="M283.552 71.4537L281.333 71.9918L285.082 66.69L283.552 71.4537Z" fill="#FAE6DE"/>
<path d="M286.752 71.6999L288.779 74.0316L292.922 67.9729L291.6 67.4622L286.752 71.6999Z" fill="#FAE6DE"/>
<path d="M277.013 84.6427C277.013 84.6427 275.7 80.9947 276.471 78.429C276.471 78.429 276.367 80.6998 277.916 83.6958L277.013 84.6427Z" fill="#1D3B54"/>
<path d="M286.95 49.6052C284.829 49.4258 280.065 50.1691 279.072 55.0772C279.136 55.8859 279.273 56.689 279.481 57.4788C279.794 58.5428 278.557 61.5828 278.829 61.747C279.101 61.9111 280.241 62.1528 280.241 62.1528C280.241 62.1528 281.3 65.5774 282.651 65.6032C284.003 65.629 289.161 64.9177 291.793 60.8228C294.424 56.7279 295.516 50.3257 286.95 49.6052Z" fill="#EEA886"/>
<path d="M279.072 55.0818C279.072 55.0818 282.411 57.2888 285.813 57.8482C289.216 58.4075 291.056 63.5983 291.056 63.5983C291.056 63.5983 296.774 56.0667 292.808 51.2574C288.842 46.4482 278.637 49.2936 279.072 55.0818Z" fill="#754836"/>
<path d="M287.245 57.7691C287.295 57.187 288.08 56.3449 289.123 57.1854C290.166 58.026 288.556 60.7301 287.681 60.4215C286.806 60.113 287.193 58.368 287.245 57.7691Z" fill="#EEA886"/>
<path d="M284.849 65.3342C284.927 65.6974 285.005 66.1215 285.07 66.5699C287.924 65.1411 289.419 63.3232 289.419 63.3232C287.768 64.5134 284.849 65.3342 284.849 65.3342Z" fill="#A77860"/>
<path d="M282.224 90.0266L294.237 108.282L307.592 101.516L296.102 82.9966L282.224 90.0266Z" fill="url(#paint15_linear_153_37975)"/>
<path d="M288.18 102.144C288.446 102.148 288.711 102.114 288.965 102.045C288.965 102.045 289.386 101.831 289.695 101.696C289.773 101.659 289.854 101.627 289.937 101.598C290.411 101.497 290.864 101.329 291.277 101.101C291.808 100.779 293.69 98.8684 293.69 98.8684L292.801 97.6828L292.15 96.4668C292.15 96.4668 288.199 96.6902 287.664 96.941C287.613 96.9643 287.564 96.9908 287.517 97.0201C287.089 97.2709 286.89 97.6159 286.682 97.7694C286.605 97.8272 285.893 98.4382 285.918 98.6982C285.92 98.8434 285.965 98.9855 286.048 99.1113C286.131 99.2371 286.249 99.3423 286.391 99.4171C286.391 99.4171 286.493 100.122 286.89 100.451C286.89 100.451 286.959 101.104 287.583 101.39C287.586 101.399 287.742 102.054 288.18 102.144Z" fill="#EEA886"/>
<path d="M295.986 68.5611C295.986 68.5611 299.971 68.1158 302.06 71.6422C304.149 75.1686 304.139 76.6749 304.42 78.397C304.683 80.0234 305.873 84.4618 305.995 84.9209C306.116 85.3799 308.812 90.8489 307.576 92.758C306.341 94.6671 293.706 100.332 293.785 100.756C293.865 101.18 291.592 96.4805 291.592 96.4805C291.592 96.4805 296.701 93.9831 297.538 93.214C298.898 91.963 301.765 90.6178 301.176 89.0674C300.483 87.2434 298.404 81.1026 297.923 80.2043C297.441 79.306 292.91 69.7072 295.986 68.5611Z" fill="#285173"/>
<path d="M296.326 76.5199C296.475 79.9079 298.327 83.8158 298.327 83.8158C298.49 83.3386 298.653 82.8856 298.814 82.4478C297.771 79.8897 296.326 76.5199 296.326 76.5199Z" fill="#1D3B54"/>
<path d="M296.616 43.2334C296.616 41.765 294.921 40.5733 292.832 40.5733C292.376 40.5721 291.922 40.6305 291.486 40.7466C291.189 40.1436 290.694 39.6313 290.066 39.2745C289.437 38.9177 288.702 38.7323 287.953 38.7417C286.172 38.7417 284.677 39.7693 284.275 41.1525C283.956 41.0495 283.619 40.998 283.28 41.0005C281.797 41.0005 280.595 42.0022 280.595 43.2394L296.616 43.2334Z" fill="#EBEBEB"/>
<path d="M249.864 146.096C290.274 146.096 322.997 117.397 322.997 81.9295C322.997 46.5865 290.38 17.7688 249.864 17.7688C209.424 17.7688 176.73 46.4968 176.73 81.9295C176.73 117.38 209.438 146.096 249.864 146.096ZM249.864 20.9897C288.074 20.9897 319.34 48.2448 319.34 81.9295C319.34 115.538 288.18 142.881 249.864 142.881C211.548 142.881 180.388 115.543 180.388 81.9295C180.395 48.1156 211.784 20.9897 249.864 20.9897Z" fill="url(#paint16_linear_153_37975)"/>
<path d="M328.678 56.4862C328.678 54.0436 325.862 52.0646 322.388 52.0646C321.629 52.0628 320.874 52.1602 320.148 52.3534C319.232 50.4017 316.955 49.02 314.289 49.02C311.328 49.02 308.843 50.727 308.176 53.0267C307.647 52.8511 307.087 52.7615 306.521 52.7622C304.056 52.7622 302.057 54.4342 302.057 56.4862H328.678Z" fill="#EBEBEB"/>
<path d="M102.757 99.7971C62.3465 99.7971 29.627 128.498 29.627 163.964C29.627 199.308 62.2443 228.125 102.76 228.125C143.2 228.125 175.894 199.397 175.894 163.964C175.89 128.513 143.183 99.7971 102.757 99.7971ZM102.757 224.904C64.5469 224.904 33.2809 197.649 33.2809 163.964C33.2809 130.355 64.4412 103.012 102.757 103.012C141.073 103.012 172.233 130.349 172.233 163.964C172.226 197.778 140.837 224.904 102.757 224.904Z" fill="url(#paint17_linear_153_37975)"/>
</g>
<defs>
<linearGradient id="paint0_linear_153_37975" x1="244.636" y1="199.041" x2="194.761" y2="125.843" gradientUnits="userSpaceOnUse">
<stop stop-color="#BADDFF"/>
<stop offset="1" stop-color="#80B3FF"/>
</linearGradient>
<linearGradient id="paint1_linear_153_37975" x1="195.633" y1="144.877" x2="169.078" y2="105.903" gradientUnits="userSpaceOnUse">
<stop stop-color="#BADDFF"/>
<stop offset="1" stop-color="#80B3FF"/>
</linearGradient>
<linearGradient id="paint2_linear_153_37975" x1="253.825" y1="125.669" x2="253.825" y2="159.602" gradientUnits="userSpaceOnUse">
<stop stop-color="#40CDE6"/>
<stop offset="0.99" stop-color="#A7D4F0"/>
</linearGradient>
<linearGradient id="paint3_linear_153_37975" x1="145.099" y1="193.503" x2="179.316" y2="209.69" gradientUnits="userSpaceOnUse">
<stop stop-color="#40CDE6"/>
<stop offset="0.99" stop-color="#A7D4F0"/>
</linearGradient>
<linearGradient id="paint4_linear_153_37975" x1="203.022" y1="222.166" x2="230.278" y2="216.287" gradientUnits="userSpaceOnUse">
<stop stop-color="#FF9F55"/>
<stop offset="1" stop-color="#FFD255"/>
</linearGradient>
<linearGradient id="paint5_linear_153_37975" x1="223.701" y1="313.374" x2="293.761" y2="37.4623" gradientUnits="userSpaceOnUse">
<stop stop-color="#40CDE6"/>
<stop offset="0.99" stop-color="#5680DB"/>
</linearGradient>
<linearGradient id="paint6_linear_153_37975" x1="251.086" y1="178.667" x2="251.086" y2="203.343" gradientUnits="userSpaceOnUse">
<stop stop-color="#97F2FC"/>
<stop offset="1" stop-color="#5577FF"/>
</linearGradient>
<linearGradient id="paint7_linear_153_37975" x1="251.061" y1="178.648" x2="251.061" y2="203.352" gradientUnits="userSpaceOnUse">
<stop stop-color="#97F2FC"/>
<stop offset="1" stop-color="#5577FF"/>
</linearGradient>
<linearGradient id="paint8_linear_153_37975" x1="251.062" y1="178.667" x2="251.062" y2="203.343" gradientUnits="userSpaceOnUse">
<stop stop-color="#97F2FC"/>
<stop offset="1" stop-color="#5577FF"/>
</linearGradient>
<linearGradient id="paint9_linear_153_37975" x1="257.576" y1="178.666" x2="257.576" y2="203.342" gradientUnits="userSpaceOnUse">
<stop stop-color="#97F2FC"/>
<stop offset="1" stop-color="#5577FF"/>
</linearGradient>
<linearGradient id="paint10_linear_153_37975" x1="244.547" y1="178.667" x2="244.547" y2="203.341" gradientUnits="userSpaceOnUse">
<stop stop-color="#97F2FC"/>
<stop offset="1" stop-color="#5577FF"/>
</linearGradient>
<linearGradient id="paint11_linear_153_37975" x1="248.286" y1="178.668" x2="248.286" y2="203.346" gradientUnits="userSpaceOnUse">
<stop stop-color="#97F2FC"/>
<stop offset="1" stop-color="#5577FF"/>
</linearGradient>
<linearGradient id="paint12_linear_153_37975" x1="253.818" y1="178.665" x2="253.818" y2="203.342" gradientUnits="userSpaceOnUse">
<stop stop-color="#97F2FC"/>
<stop offset="1" stop-color="#5577FF"/>
</linearGradient>
<linearGradient id="paint13_linear_153_37975" x1="255.587" y1="178.667" x2="255.587" y2="203.343" gradientUnits="userSpaceOnUse">
<stop stop-color="#97F2FC"/>
<stop offset="1" stop-color="#5577FF"/>
</linearGradient>
<linearGradient id="paint14_linear_153_37975" x1="251.062" y1="178.667" x2="251.062" y2="203.342" gradientUnits="userSpaceOnUse">
<stop stop-color="#97F2FC"/>
<stop offset="1" stop-color="#5577FF"/>
</linearGradient>
<linearGradient id="paint15_linear_153_37975" x1="299.418" y1="108.011" x2="292.213" y2="82.6086" gradientUnits="userSpaceOnUse">
<stop stop-color="#FF9F55"/>
<stop offset="1" stop-color="#FFD255"/>
</linearGradient>
<linearGradient id="paint16_linear_153_37975" x1="279.99" y1="-9.37687" x2="209.929" y2="266.535" gradientUnits="userSpaceOnUse">
<stop stop-color="#40CDE6"/>
<stop offset="0.99" stop-color="#5680DB"/>
</linearGradient>
<linearGradient id="paint17_linear_153_37975" x1="72.6328" y1="255.272" x2="142.692" y2="-20.6395" gradientUnits="userSpaceOnUse">
<stop stop-color="#40CDE6"/>
<stop offset="0.99" stop-color="#5680DB"/>
</linearGradient>
<clipPath id="clip0_153_37975">
<rect width="389" height="304" rx="10" fill="white"/>
</clipPath>
</defs>
</svg>
