<svg width="389" height="304" viewBox="0 0 389 304" fill="none" xmlns="http://www.w3.org/2000/svg">
<path d="M389 0H0V304H389V0Z" fill="#FCFCFC"/>
<path d="M335.795 198.542C337.662 195.435 339.082 192.081 340.014 188.577L347.475 187.147L347.557 178.876L347.633 170.605L340.196 169.034C339.325 165.521 337.968 162.147 336.164 159.011L340.43 152.715L334.642 146.812L328.873 140.921L322.506 145.071C319.405 143.201 316.056 141.778 312.558 140.845L311.13 133.371L302.873 133.295L294.616 133.213L293.053 140.681C289.545 141.554 286.175 142.913 283.041 144.72L276.791 140.435L270.893 146.226L265.006 152.018L269.149 158.395C267.282 161.502 265.862 164.856 264.93 168.36L257.469 169.79L257.392 178.061L257.311 186.332L264.748 187.903C265.618 191.418 266.976 194.794 268.78 197.932L264.502 204.21L270.284 210.113L276.066 216.016L282.432 211.86C285.534 213.73 288.883 215.152 292.381 216.086L293.762 223.56L302.018 223.642L310.275 223.718L311.861 216.297C315.365 215.417 318.727 214.047 321.85 212.229L328.135 216.502L334.028 210.705L339.921 204.914L335.795 198.542ZM288.009 192.68C285.203 189.818 283.307 186.187 282.561 182.245C281.816 178.304 282.253 174.229 283.82 170.537C285.386 166.845 288.01 163.701 291.36 161.503C294.71 159.305 298.636 158.151 302.641 158.188C306.645 158.225 310.549 159.451 313.859 161.71C317.168 163.97 319.734 167.161 321.232 170.882C322.73 174.602 323.093 178.684 322.275 182.611C321.457 186.538 319.495 190.134 316.636 192.944C312.804 196.71 307.635 198.797 302.267 198.746C296.899 198.696 291.77 196.512 288.009 192.674V192.68Z" fill="url(#paint0_linear_152_37608)"/>
<path d="M139.718 131.765C140.865 129.318 141.665 126.721 142.094 124.051L147.53 122.416L146.945 116.267L146.36 110.118L140.713 109.532C139.803 106.986 138.538 104.583 136.956 102.392L139.642 97.3865L134.896 93.4474L130.15 89.5025L125.744 93.0722C123.298 91.9353 120.706 91.1461 118.043 90.7275L116.451 85.241L110.313 85.8272L104.174 86.4133L103.577 92.0289C101.037 92.9424 98.6376 94.2092 96.4496 95.7921L91.458 93.1015L87.5021 97.8906L83.5639 102.644L87.1335 107.064C85.9839 109.509 85.1841 112.104 84.7576 114.772L79.3213 116.408L79.9065 122.557L80.4917 128.706L86.1328 129.292C87.0495 131.835 88.3159 134.238 89.8955 136.431L87.2037 141.431L91.9495 145.37L96.6954 149.315L101.108 145.746C103.551 146.894 106.143 147.696 108.809 148.125L110.441 153.565L116.58 152.979L122.718 152.393L123.304 146.736C125.836 145.837 128.231 144.588 130.419 143.026L135.411 145.716L139.349 140.962L143.282 136.209L139.718 131.765ZM103.776 131.056C101.475 129.144 99.7915 126.592 98.9386 123.722C98.0857 120.852 98.1016 117.793 98.9843 114.932C99.867 112.07 101.577 109.536 103.898 107.648C106.219 105.76 109.046 104.605 112.023 104.327C115 104.049 117.992 104.661 120.621 106.087C123.25 107.512 125.398 109.687 126.793 112.335C128.189 114.984 128.769 117.987 128.46 120.966C128.151 123.944 126.968 126.764 125.059 129.069C123.792 130.6 122.237 131.866 120.481 132.794C118.726 133.723 116.805 134.295 114.829 134.48C112.852 134.665 110.859 134.457 108.962 133.87C107.066 133.282 105.303 132.326 103.776 131.056Z" fill="url(#paint1_linear_152_37608)"/>
<path d="M321.891 256.157H321.376V219.287C321.371 215.344 319.806 211.564 317.022 208.776C314.239 205.988 310.466 204.42 306.53 204.415H268.68C264.607 204.411 260.702 202.788 257.821 199.904C254.941 197.019 253.32 193.108 253.313 189.028V120.165C253.309 116.223 251.744 112.444 248.962 109.657C246.18 106.869 242.408 105.3 238.473 105.294H141.959V104.778H238.473C242.546 104.783 246.45 106.405 249.33 109.29C252.21 112.175 253.829 116.086 253.834 120.165V189.028C253.839 192.971 255.404 196.751 258.188 199.539C260.971 202.327 264.744 203.895 268.68 203.9H306.53C310.602 203.904 314.507 205.527 317.387 208.411C320.266 211.296 321.886 215.207 321.891 219.287V256.157Z" fill="#64A4FF"/>
<path d="M166.7 81.4191C166.7 81.4191 172.552 104.719 158.508 111.085C144.463 117.451 147.173 105.81 147.173 105.81C147.173 105.81 141.421 104.209 157.074 95.3173C164.436 91.1144 166.7 81.4191 166.7 81.4191Z" fill="#BBD070"/>
<path d="M203.427 83.4532C203.427 83.4532 206.3 103.752 179.762 112.545C153.224 121.337 149.438 132.475 149.438 132.475C149.438 132.475 148.636 87.4391 203.427 83.4532Z" fill="#97A43C"/>
<path d="M149.321 124.18C141.45 121.173 160.159 105.042 174.531 105.476C188.903 105.909 198.652 111.244 208.284 108.993C208.284 108.987 188.072 138.999 149.321 124.18Z" fill="#48753A"/>
<path d="M175.76 137.662C176.216 131.539 176.532 125.808 176.708 120.47C175.233 119.684 173.46 118.77 172.026 118.096C167.632 115.997 161.493 113.178 157.584 111.372C155.284 110.317 153.031 109.544 153.031 109.544C153.031 109.544 137.337 108.037 136.061 108.119C134.381 108.571 132.733 109.135 131.128 109.807C125.563 111.923 114.831 116.255 113.122 117.463C110.617 119.256 101.652 163.278 101.418 166.267C101.184 169.257 113.614 173.143 125.118 176.191C125.118 180.652 125.019 186.906 124.919 192.604C124.919 193.583 124.884 194.538 124.867 195.465H175.192C175.122 194.486 175.064 193.518 175.011 192.604C175.011 192.481 175.011 192.364 175.011 192.246C174.824 188.378 174.069 181.455 174.262 174.714C174.262 174.714 174.139 167.604 174.847 164.544C174.97 151.039 175.76 137.662 175.76 137.662ZM111.916 163.542C111.998 157.809 119.617 147.129 119.617 147.129C119.734 147.078 119.853 147.033 119.974 146.994C119.974 146.994 120.367 146.941 120.367 146.947C120.367 146.953 121.537 145.822 121.537 145.822C121.812 146.842 124.34 161.238 124.954 169.62C117.827 168.231 111.876 166.279 111.916 163.542Z" fill="#DBD8E3"/>
<path d="M176.725 192.61C176.391 190.224 176.075 187.838 175.794 185.5C175.707 184.72 175.613 183.952 175.525 183.155C175.522 183.116 175.522 183.077 175.525 183.038C175.156 179.82 174.852 176.731 174.63 173.905C174.49 171.785 174.585 169.656 174.911 167.557C175.788 153.102 176.221 137.867 176.221 137.867C176.684 131.631 176.947 125.798 177.123 120.364C177.123 120.364 157.414 111.038 155.629 110.505C155.629 110.505 159.368 119.298 162.171 138.952C163.248 146.496 165.243 159.204 166.695 172.17C167.479 179.169 168.948 186.297 170.065 192.604C170.235 193.583 170.399 194.533 170.551 195.465H177.146C176.959 194.521 176.824 193.565 176.725 192.61Z" fill="#323657"/>
<path d="M143.879 169.403C144.657 162.094 145.354 154.802 145.02 150.81C142.299 118.682 134.61 110.183 133.492 108.94C132.632 109.268 129.349 110.499 128.389 110.88C123.123 112.961 112.408 116.742 110.962 117.809C108.458 119.602 98.58 165.752 98.2816 168.735C98.0826 170.757 110.974 174.972 124.123 178.735C124.006 182.346 124.346 187.44 123.146 192.762C122.842 193.666 122.646 194.603 122.561 195.552L140.895 195.476C141.006 194.527 141.123 193.577 141.24 192.616C141.591 189.749 141.954 186.807 142.317 183.683C147.817 185.107 151.557 186.027 151.557 186.027C151.557 186.027 156.718 177.282 158.216 173.718C158.491 173.126 151.843 171.525 143.879 169.403ZM120.173 158.348C119.998 151.771 120.027 147.211 120.027 147.211C120.677 149.462 121.578 155.904 122.368 162.305C119.705 160.922 120.203 159.667 120.173 158.342V158.348Z" fill="#323657"/>
<path d="M135.259 108.617C135.259 108.617 137.254 104.843 136.704 94.1156C136.546 91.1437 152.288 101.15 152.288 101.15C152.288 101.15 152.229 102.175 152.2 103.559C152.2 104.145 152.2 104.76 152.2 105.411V105.95C152.2 106.243 152.2 106.537 152.2 106.824C152.2 107.111 152.2 107.533 152.241 107.873C152.282 108.213 152.282 108.629 152.317 108.963C152.433 109.684 152.629 110.39 152.902 111.068C153.604 112.744 141.152 112.844 135.259 108.617Z" fill="#EEA987"/>
<path d="M148.449 115.441L151.375 119.344C151.375 119.344 149.678 121.625 146.658 119.931L148.449 115.441Z" fill="#E8734D"/>
<path d="M150.573 119.503C150.573 119.503 161.2 145.499 158.935 178.524L155.582 184.644L151.802 179.456C151.802 179.456 151.217 135.599 148.18 119.432L150.573 119.503Z" fill="#E8734D"/>
<path d="M151.562 111.806L148.455 115.441C148.455 115.441 143.475 114.473 142.018 111.871C140.561 109.268 151.562 111.806 151.562 111.806Z" fill="#EEA987"/>
<path d="M152.27 108.617C152.27 108.617 151.908 111.396 148.449 115.441L152.224 120.523L154.266 109.972L152.27 108.617Z" fill="#C4C1CC"/>
<path d="M136.207 105.282C136.207 105.282 143.41 113.448 148.449 115.441L146.108 121.249L134.592 108.541L136.207 105.282Z" fill="#C4C1CC"/>
<path d="M210.286 179.151C210.286 179.151 200.718 169.861 194.451 168.313C191.525 167.598 187.727 163.589 184.099 158.87C182.928 157.322 181.729 155.693 180.588 154.081C176.134 147.633 172.641 141.467 172.641 141.467C172.641 141.467 159.48 126.015 170.043 119.128C170.043 119.128 174.572 119.028 177.065 120.382C179.558 121.736 185.064 133.155 185.989 135.171C186.913 137.187 196.914 155.91 197.581 156.332C198.248 156.754 199.372 158.295 203.375 160.435C208.273 163.079 215.974 170.81 215.974 170.81L210.286 179.151Z" fill="#323657"/>
<path d="M164.372 189.919C163.721 189.902 163.077 189.781 162.464 189.562C162.464 189.562 161.464 188.917 160.709 188.501C160.475 188.372 160.264 188.266 160.124 188.208C158.977 187.873 157.892 187.355 156.911 186.672C155.653 185.717 151.557 181.871 151.557 181.871L154.202 177.768L155.431 173.723C155.431 173.723 165.022 174.679 166.28 175.441C166.401 175.515 166.518 175.595 166.631 175.681C167.649 176.426 168.094 177.44 168.585 177.862C168.761 178.032 170.429 179.82 170.341 180.541C170.316 180.946 170.189 181.339 169.971 181.681C169.753 182.024 169.451 182.305 169.095 182.498C169.095 182.498 168.755 184.456 167.743 185.33C167.657 185.865 167.448 186.373 167.133 186.815C166.819 187.256 166.406 187.618 165.929 187.874C165.929 187.874 165.461 189.685 164.372 189.919Z" fill="#EFAA88"/>
<path d="M149.152 66.4366C149.152 66.4366 166.432 62.2631 162.792 84.18C159.152 106.097 155.003 107.873 144.482 103.524C133.96 99.1743 134.686 85.1413 134.06 78.2831C133.434 71.4249 143.622 66.759 149.152 66.4366Z" fill="#EEA886"/>
<path d="M140.069 81.6126C139.818 79.6899 135.973 79.0393 135.739 81.935C135.505 84.8307 137.582 89.8717 139.016 89.35C140.45 88.8284 140.444 84.2679 140.069 81.6126Z" fill="#EEA886"/>
<path d="M135.066 89.4614C135.066 89.4614 135.411 82.568 137.921 82.316C140.432 82.0639 140.847 84.8307 140.847 84.8307L143.393 85.2762C143.393 85.2762 142.503 79.2503 144.996 78.16C147.489 77.0698 161.288 81.2433 163.272 79.4438C165.255 77.6442 164.132 65.4108 160.469 63.7871C156.805 62.1634 146.699 58.5585 139.402 63.664C139.402 63.664 133.65 63.0779 132.865 67.7672C132.081 72.4566 133.456 86.0323 135.066 89.4614Z" fill="#16202E"/>
<path d="M158.708 173.729L151.574 186.039C151.574 186.039 132.673 181.156 128.261 179.913L138.343 167.891C138.343 167.891 153.207 171.279 158.708 173.729Z" fill="#323657"/>
<path d="M152.224 107.885C149.588 107.667 147.043 106.819 144.803 105.411C142.563 104.004 140.692 102.078 139.35 99.7956C142.761 103.221 147.338 105.231 152.165 105.423V105.962C152.165 106.255 152.165 106.548 152.165 106.836C152.165 107.123 152.206 107.545 152.224 107.885Z" fill="#A77860"/>
<path d="M280.209 216.801C279.9 216.39 279.486 216.071 279.009 215.878C278.533 215.685 278.014 215.627 277.507 215.708C277 215.79 276.524 216.008 276.132 216.34C275.74 216.672 275.446 217.105 275.281 217.593C275.191 217.873 275.141 218.165 275.135 218.46C275.13 218.804 275.188 219.145 275.305 219.468C275.492 219.967 275.812 220.404 276.229 220.734C276.653 221.067 277.162 221.27 277.698 221.321H277.92H278.108C278.383 221.303 278.655 221.248 278.915 221.156C279.33 221.006 279.704 220.76 280.007 220.439C280.309 220.117 280.533 219.729 280.658 219.305C280.784 218.882 280.809 218.435 280.731 218C280.653 217.565 280.474 217.154 280.209 216.801ZM278.675 220.488C278.487 220.557 278.29 220.599 278.09 220.611H277.95C277.751 220.608 277.554 220.577 277.365 220.518C277.113 220.448 276.878 220.329 276.674 220.166C276.598 220.11 276.528 220.047 276.463 219.978C276.269 219.778 276.118 219.542 276.017 219.282C275.917 219.022 275.869 218.744 275.878 218.466C275.878 218.316 275.895 218.166 275.931 218.02C276.04 217.549 276.307 217.128 276.686 216.829C277.066 216.53 277.537 216.369 278.02 216.373C278.513 216.381 278.988 216.562 279.362 216.885C279.736 217.207 279.986 217.65 280.068 218.137C280.15 218.625 280.059 219.125 279.811 219.553C279.563 219.98 279.174 220.307 278.71 220.476L278.675 220.488Z" fill="#4DA8F2"/>
<path d="M172.12 163.641C182.858 174.714 197.055 188.665 197.055 188.665L202.602 178.114C202.602 178.114 189.997 163.313 181.448 153.436C178.832 154.749 174.022 157.791 172.12 163.641Z" fill="#EEA886"/>
<path d="M165.483 178.536C166.738 179.122 167.952 179.792 169.117 180.541C169.872 181.162 172.933 183.472 173.676 183.999C174.419 184.527 172.558 186.074 167.087 183.7C161.615 181.326 165.483 178.536 165.483 178.536Z" fill="#EEA886"/>
<path d="M165.736 146.83L160.697 193.771H227.039L232.084 146.83H165.736Z" fill="#FFC955"/>
<path d="M230.825 191.608H163.962L169.059 144.128H235.922L230.825 191.608ZM164.535 191.092H230.363L235.348 144.667H169.521L164.535 191.092Z" fill="#FFC955"/>
<path d="M155.419 193.776H166.502V189.55H155.419V193.776Z" fill="#FFC955"/>
<path d="M51.5892 193.677H48.8154V196.537H51.5892V193.677Z" fill="#96CBFF"/>
<path d="M54.3626 193.677H51.5889V196.537H54.3626V193.677Z" fill="#95CAFF"/>
<path d="M57.137 193.677H54.3633V196.537H57.137V193.677Z" fill="#94C9FF"/>
<path d="M59.9105 193.677H57.1367V196.537H59.9105V193.677Z" fill="#93C9FF"/>
<path d="M62.6839 193.677H59.9102V196.537H62.6839V193.677Z" fill="#92C8FF"/>
<path d="M65.4583 193.677H62.6846V196.537H65.4583V193.677Z" fill="#91C7FF"/>
<path d="M68.2318 193.677H65.458V196.537H68.2318V193.677Z" fill="#90C6FF"/>
<path d="M71.0052 193.677H68.2314V196.537H71.0052V193.677Z" fill="#8FC6FF"/>
<path d="M73.7796 193.677H71.0059V196.537H73.7796V193.677Z" fill="#8EC5FF"/>
<path d="M76.5531 193.677H73.7793V196.537H76.5531V193.677Z" fill="#8DC4FF"/>
<path d="M79.3265 193.677H76.5527V196.537H79.3265V193.677Z" fill="#8CC3FF"/>
<path d="M82.1009 193.677H79.3271V196.537H82.1009V193.677Z" fill="#8BC2FF"/>
<path d="M84.8743 193.677H82.1006V196.537H84.8743V193.677Z" fill="#8AC2FF"/>
<path d="M87.6478 193.677H84.874V196.537H87.6478V193.677Z" fill="#89C1FF"/>
<path d="M90.4222 193.677H87.6484V196.537H90.4222V193.677Z" fill="#88C0FF"/>
<path d="M93.1956 193.677H90.4219V196.537H93.1956V193.677Z" fill="#87BFFF"/>
<path d="M95.9691 193.677H93.1953V196.537H95.9691V193.677Z" fill="#86BFFF"/>
<path d="M98.7435 193.677H95.9697V196.537H98.7435V193.677Z" fill="#85BEFF"/>
<path d="M101.517 193.677H98.7432V196.537H101.517V193.677Z" fill="#84BDFF"/>
<path d="M104.29 193.677H101.517V196.537H104.29V193.677Z" fill="#83BCFF"/>
<path d="M107.065 193.677H104.291V196.537H107.065V193.677Z" fill="#82BBFF"/>
<path d="M109.838 193.677H107.064V196.537H109.838V193.677Z" fill="#81BBFF"/>
<path d="M112.618 193.677H109.844V196.537H112.618V193.677Z" fill="#80BAFF"/>
<path d="M115.392 193.677H112.618V196.537H115.392V193.677Z" fill="#7FB9FF"/>
<path d="M118.165 193.677H115.392V196.537H118.165V193.677Z" fill="#7EB8FF"/>
<path d="M120.939 193.677H118.165V196.537H120.939V193.677Z" fill="#7DB7FF"/>
<path d="M123.713 193.677H120.939V196.537H123.713V193.677Z" fill="#7CB7FF"/>
<path d="M126.487 193.677H123.713V196.537H126.487V193.677Z" fill="#7BB6FF"/>
<path d="M129.26 193.677H126.486V196.537H129.26V193.677Z" fill="#7AB5FF"/>
<path d="M132.034 193.677H129.261V196.537H132.034V193.677Z" fill="#79B4FF"/>
<path d="M134.808 193.677H132.034V196.537H134.808V193.677Z" fill="#78B4FF"/>
<path d="M137.581 193.677H134.808V196.537H137.581V193.677Z" fill="#77B3FF"/>
<path d="M140.356 193.677H137.582V196.537H140.356V193.677Z" fill="#76B2FF"/>
<path d="M143.129 193.677H140.355V196.537H143.129V193.677Z" fill="#74B1FF"/>
<path d="M145.903 193.677H143.129V196.537H145.903V193.677Z" fill="#73B0FF"/>
<path d="M148.677 193.677H145.903V196.537H148.677V193.677Z" fill="#72B0FF"/>
<path d="M151.451 193.677H148.677V196.537H151.451V193.677Z" fill="#71AFFF"/>
<path d="M154.224 193.677H151.45V196.537H154.224V193.677Z" fill="#70AEFF"/>
<path d="M156.998 193.677H154.225V196.537H156.998V193.677Z" fill="#6FADFF"/>
<path d="M159.772 193.677H156.998V196.537H159.772V193.677Z" fill="#6EADFF"/>
<path d="M162.545 193.677H159.771V196.537H162.545V193.677Z" fill="#6DACFF"/>
<path d="M165.32 193.677H162.546V196.537H165.32V193.677Z" fill="#6CABFF"/>
<path d="M168.093 193.677H165.319V196.537H168.093V193.677Z" fill="#6BAAFF"/>
<path d="M170.867 193.677H168.093V196.537H170.867V193.677Z" fill="#6AA9FF"/>
<path d="M173.641 193.677H170.867V196.537H173.641V193.677Z" fill="#69A9FF"/>
<path d="M176.414 193.677H173.641V196.537H176.414V193.677Z" fill="#68A8FF"/>
<path d="M179.188 193.677H176.414V196.537H179.188V193.677Z" fill="#67A7FF"/>
<path d="M181.962 193.677H179.188V196.537H181.962V193.677Z" fill="#66A6FF"/>
<path d="M184.736 193.677H181.962V196.537H184.736V193.677Z" fill="#65A6FF"/>
<path d="M187.509 193.677H184.735V196.537H187.509V193.677Z" fill="#64A5FF"/>
<path d="M190.284 193.677H187.51V196.537H190.284V193.677Z" fill="#63A4FF"/>
<path d="M193.057 193.677H190.283V196.537H193.057V193.677Z" fill="#62A3FF"/>
<path d="M195.83 193.677H193.057V196.537H195.83V193.677Z" fill="#61A2FF"/>
<path d="M198.611 193.677H195.837V196.537H198.611V193.677Z" fill="#60A2FF"/>
<path d="M201.384 193.677H198.61V196.537H201.384V193.677Z" fill="#5FA1FF"/>
<path d="M204.158 193.677H201.384V196.537H204.158V193.677Z" fill="#5EA0FF"/>
<path d="M206.932 193.677H204.158V196.537H206.932V193.677Z" fill="#5D9FFF"/>
<path d="M209.705 193.677H206.932V196.537H209.705V193.677Z" fill="#5C9EFF"/>
<path d="M212.479 193.677H209.705V196.537H212.479V193.677Z" fill="#5B9EFF"/>
<path d="M215.253 193.677H212.479V196.537H215.253V193.677Z" fill="#5A9DFF"/>
<path d="M218.027 193.677H215.253V196.537H218.027V193.677Z" fill="#599CFF"/>
<path d="M220.8 193.677H218.026V196.537H220.8V193.677Z" fill="#589BFF"/>
<path d="M223.575 193.677H220.801V196.537H223.575V193.677Z" fill="#579BFF"/>
<path d="M226.348 193.677H223.574V196.537H226.348V193.677Z" fill="#569AFF"/>
<path d="M229.121 193.677H226.348V196.537H229.121V193.677Z" fill="#5599FF"/>
<path d="M339.306 254.703H183.086V257.564H339.306V254.703Z" fill="#FFC955"/>
<path d="M192.707 169.55C192.168 172.164 193.385 174.62 195.422 175.037C197.458 175.453 199.518 173.671 200.074 171.056C200.63 168.442 199.389 165.986 197.353 165.57C195.316 165.154 193.239 166.936 192.707 169.55Z" fill="#CFA345"/>
<path d="M319.235 150.939C319.235 150.939 320.768 153.542 321.412 153.964C322.289 154.55 321.739 155.136 321.324 155.136C320.908 155.136 318.778 155.288 318.31 154.755C317.842 154.222 317.608 152.627 317.175 152.211C316.742 151.795 316.291 150.13 317.386 149.726C318.339 149.356 319.235 150.939 319.235 150.939Z" fill="#6069A8"/>
<path d="M318.573 149.796C318.573 149.796 320.329 152.844 320.627 153.313C320.926 153.782 320.042 153.764 319.521 153.547C319.001 153.331 317.625 151.156 317.426 150.757C317.294 150.433 317.28 150.072 317.385 149.737L318.573 149.796Z" fill="#202338"/>
<path d="M316.8 151.437L317.204 154.556L317.414 154.567L317.35 152.322L316.8 151.437Z" fill="#6069A8"/>
<path d="M304.061 150.939C304.061 150.939 305.589 153.542 306.238 153.964C307.116 154.55 306.566 155.136 306.15 155.136C305.735 155.136 303.605 155.288 303.137 154.755C302.668 154.222 302.434 152.627 302.001 152.211C301.568 151.795 301.1 150.089 302.212 149.726C303.189 149.397 304.061 150.939 304.061 150.939Z" fill="#6069A8"/>
<path d="M303.487 149.802C303.487 149.802 305.149 152.844 305.453 153.29C305.757 153.735 304.868 153.741 304.341 153.524C303.815 153.307 302.445 151.132 302.252 150.734C302.116 150.41 302.102 150.048 302.211 149.714L303.487 149.802Z" fill="#202338"/>
<path d="M301.62 151.437L302.03 154.556L302.24 154.567L302.176 152.322L301.62 151.437Z" fill="#6069A8"/>
<path d="M297.272 127.293L311.118 133.612C311.582 133.785 311.989 134.085 312.293 134.478C312.597 134.87 312.786 135.34 312.838 135.833C313.377 141.203 317.385 149.714 317.385 149.714C318.673 150.347 318.556 149.796 318.556 149.796C317.748 147.193 316.759 136.455 316.408 132.135C316.332 131.22 316.285 130.599 316.279 130.376C316.273 130.153 316.121 130.065 315.864 129.854C313.962 128.313 306.144 125.118 306.144 125.118C300.292 124.983 297.272 127.293 297.272 127.293Z" fill="#202338"/>
<path d="M294.663 130.007C295.09 133.752 300.432 133.325 300.432 133.325H306.91C305.919 135.579 305.135 137.92 304.57 140.318C303.873 143.712 302.229 149.696 302.229 149.696C302.229 149.696 302.334 149.902 303.505 149.79C303.505 149.79 308.59 139.638 310.527 137.088C311.418 135.428 312.035 133.635 312.353 131.777C312.417 131.191 312.353 130.722 312.154 130.534C311.697 130.181 311.22 129.854 310.726 129.556C308.695 128.272 305.172 126.296 303.212 125.857C300.579 125.271 296.424 124.157 296.424 124.157C295.717 124.941 295.193 125.872 294.888 126.884C294.584 127.895 294.507 128.962 294.663 130.007Z" fill="#202338"/>
<path d="M299.069 101.126C298.494 99.9442 298.319 98.6065 298.572 97.3161C299.046 95.3524 300.86 93.4005 303.522 94.2973C306.185 95.1942 308.338 97.2692 306.741 99.6608C305.143 102.052 308.186 103.143 307.414 104.28C306.641 105.417 306.934 106.625 307.262 106.877C307.589 107.129 308.648 108.084 308.531 109.221C308.414 110.358 303.364 105.962 303.364 105.962C303.364 105.962 300.614 100.405 299.069 101.126Z" fill="#464240"/>
<path d="M307.185 124.684C307.185 124.684 306.782 126.636 296.441 124.174C296.441 124.174 299.906 123.02 307.185 124.684Z" fill="#EB4747"/>
<path d="M296.319 124.72C296.161 125.024 296.003 125.306 295.839 125.64L307.185 125.968C306.6 123.963 306.782 121.249 306.881 119.186C307.01 116.666 308.403 114.913 308.25 112.369C308.999 112.492 309.128 112.516 309.877 112.627C308.736 109.356 308.338 107.738 304.78 106.478C303.77 106.094 302.682 105.961 301.609 106.091C297.512 106.431 296.243 106.484 294.218 110.194C297.389 110.698 296.869 111.841 297.828 114.995C298.296 116.537 298.782 118.254 298.536 119.878C298.291 121.502 296.319 123.26 296.319 124.72Z" fill="#5F8CC9"/>
<path d="M302.902 107.269C301.211 106.953 301.574 106.015 301.574 106.015C301.574 106.015 301.65 105.481 301.679 104.813C301.679 104.643 301.679 104.462 301.679 104.274C301.681 103.998 301.666 103.722 301.632 103.447C301.498 102.31 304.699 102.99 304.699 102.99C304.699 102.99 304.511 105.282 304.95 105.968C305.389 106.654 304.587 107.592 302.902 107.269Z" fill="#EEA886"/>
<path d="M299.684 106.009C299.684 106.009 303.084 109.942 304.365 110.857C304.365 110.857 305.81 109.55 304.921 106.091C304.88 106.097 303.253 105.27 299.684 106.009Z" fill="#EEA886"/>
<path d="M299.771 96.5365C299.771 96.5365 298.016 99.948 299.771 103.178C301.527 106.408 304.968 101.771 305.19 101.226C305.413 100.681 306.595 97.6033 304.242 96.6713C301.89 95.7393 300.275 95.6103 299.771 96.5365Z" fill="#EEA886"/>
<path d="M300.362 97.744C300.362 97.744 299.145 99.3443 298.999 100.528C298.756 99.0071 299.072 97.4491 299.888 96.1438C301.258 93.9984 304.734 96.0441 305.202 96.8999C305.67 97.7557 307.034 98.5119 304.74 102.205C304.74 102.205 300.614 99.3325 300.362 97.744Z" fill="#464240"/>
<path d="M303.183 103.518C302.826 104.094 302.301 104.546 301.679 104.813C301.679 104.643 301.679 104.462 301.679 104.274C302.245 104.181 302.77 103.917 303.183 103.518Z" fill="#A77860"/>
<path d="M285.33 121.654C285.33 121.654 284.487 122.023 284.089 121.853C283.699 121.719 283.29 121.652 282.878 121.654C282.62 121.654 281.807 121.361 281.818 121.654C281.83 121.947 283.141 122.199 283.41 122.293C283.679 122.387 282.608 122.985 282.509 123.242C282.41 123.5 283.615 125.224 284.294 124.731C284.973 124.239 285.341 123.266 285.464 123.207C285.639 123.105 285.809 122.993 285.973 122.873L285.33 121.654Z" fill="#EEA886"/>
<path d="M282.643 123.096C282.643 123.096 280.671 124.737 280.642 124.954C280.612 125.171 280.718 125.282 280.905 125.136L282.859 123.612C282.859 123.612 280.887 125.956 280.817 126.121C280.747 126.285 280.969 126.431 281.08 126.361C281.192 126.291 283.292 124.098 283.292 124.098C283.292 124.098 281.449 126.279 281.443 126.443C281.444 126.484 281.457 126.524 281.48 126.557C281.504 126.591 281.536 126.617 281.574 126.633C281.612 126.649 281.653 126.653 281.694 126.645C281.734 126.637 281.771 126.618 281.8 126.589C281.952 126.437 283.778 124.509 283.778 124.509C283.778 124.509 282.549 126.185 282.608 126.332C282.666 126.478 282.813 126.613 283.111 126.167C283.409 125.722 284.246 124.761 284.246 124.761L282.643 123.096Z" fill="#EEA886"/>
<path d="M306.232 133.325H300.433C300.433 133.325 295.09 133.752 294.663 130.007C294.509 128.965 294.586 127.902 294.89 126.894C295.193 125.886 295.715 124.957 296.419 124.174C296.419 124.174 299.239 124.925 301.685 125.523C303.151 125.217 304.648 125.087 306.144 125.136C306.144 125.136 316.59 128.594 316.28 130.411C316.297 130.411 311.903 128.072 306.232 133.325Z" fill="#FFC955"/>
<path d="M302.457 126.836L313.517 126.672L307.934 129.509L302.457 126.836Z" fill="#5E5853"/>
<path d="M305.892 125.441C304.098 126.025 302.169 126.058 300.356 125.534L300.21 124.362L306.489 124.714L305.892 125.441Z" fill="#5F8CC9"/>
<path d="M307.934 129.509L302.457 127.387V126.836L308.367 128.969L307.934 129.509Z" fill="#91887F"/>
<path d="M305.857 125.945C305.85 126.038 305.867 126.132 305.906 126.217C305.945 126.302 306.006 126.375 306.081 126.43C306.157 126.485 306.246 126.519 306.339 126.53C306.432 126.54 306.526 126.526 306.612 126.49L307.256 126.214C307.349 126.174 307.427 126.104 307.477 126.015C307.527 125.926 307.546 125.823 307.531 125.722C307.262 124.046 306.688 117.516 307.531 116.402C307.79 116.072 307.997 115.704 308.145 115.312C308.695 116.742 309.386 118.582 309.661 119.573L314.887 126.531L316.642 126.976C315.535 124.189 314.217 121.49 312.698 118.905C312.359 117.99 311.375 115.2 310.509 112.721C309.959 111.156 309.456 109.714 309.187 108.94C309.052 108.547 308.782 108.215 308.426 108.002C307.613 107.515 306.267 106.753 305.044 106.156L304.927 106.097C307.267 109.614 306.343 119.579 305.886 125.939L305.857 125.945Z" fill="#EDDAD3"/>
<path d="M297.226 106.39C296.477 106.507 294.633 108.307 293.65 110.118C292.532 112.187 291.391 114.544 290.537 115.317C288.969 116.742 284.574 121.765 284.363 121.654C284.778 122.215 285.236 122.742 285.733 123.231C285.815 123.266 292.954 117.07 293.644 116.126C294.335 115.183 296.032 111.472 296.57 111.554C297.072 112.679 297.498 113.837 297.846 115.018C297.852 115.053 297.862 115.086 297.875 115.118C298.249 116.634 298.301 118.212 298.027 119.749C297.684 121.303 297.106 122.795 296.313 124.174C296.247 124.348 296.247 124.54 296.313 124.714C296.346 124.81 296.415 124.89 296.506 124.936L298.601 125.716L299.098 125.898C299.249 125.953 299.41 125.973 299.57 125.957C299.73 125.941 299.884 125.89 300.022 125.807C300.159 125.724 300.276 125.611 300.365 125.476C300.453 125.342 300.51 125.19 300.532 125.03C301 121.437 301.591 117.768 302.059 116.384C302.677 114.655 302.924 112.815 302.785 110.985C302.646 109.154 302.123 107.372 301.252 105.757C299.9 105.899 298.556 106.11 297.226 106.39Z" fill="#EDDAD3"/>
<path d="M307.935 129.509L311.223 120.511L321.827 120.687L318.69 128.975L307.935 129.509Z" fill="#6E6760"/>
<path d="M314.617 124.491C314.29 125.142 314.389 125.845 314.834 126.068C315.279 126.291 315.899 125.945 316.221 125.3C316.543 124.655 316.449 123.946 316.004 123.723C315.559 123.5 314.939 123.846 314.617 124.491Z" fill="#807066"/>
<path d="M303.435 99.9304C303.623 100.223 303.727 100.562 303.737 100.911C303.746 101.259 303.66 101.603 303.487 101.906C302.861 102.82 303.645 103.717 303.78 104.678C303.915 105.64 301.164 108.195 304.231 109.508C307.297 110.822 308.268 108.664 307.484 107.486C306.633 106.395 306.144 105.065 306.086 103.682C306.015 101.994 305.465 99.3911 303.435 99.9304Z" fill="#464240"/>
<path d="M288.46 95.5341H294.85V100.177V101.156L293.873 100.177H288.46V95.5341Z" fill="#FFCB55"/>
<path d="M252.564 166.772C252.564 166.772 238.631 180.054 245.407 190.4C252.184 200.746 255.356 191.684 255.356 191.684C255.356 191.684 259.938 193.067 253.138 180.318C249.937 174.304 252.564 166.772 252.564 166.772Z" fill="#BBD070"/>
<path d="M226.799 152.369C226.799 152.369 216.155 164.902 230.386 182.264C244.618 199.626 242.412 208.788 242.412 208.788C242.412 208.788 262.226 178.612 226.799 152.369Z" fill="#97A43C"/>
<path d="M245.624 203.542C252.243 204.884 246.888 185.593 236.952 179.714C227.016 173.835 218.138 173.266 212.573 167.592C212.573 167.592 213.006 196.953 245.624 203.542Z" fill="#48753A"/>
<path d="M202.339 212.006L202.69 211.139C202.885 210.929 203.122 210.763 203.386 210.652C203.69 210.502 204.024 210.422 204.364 210.418C204.412 210.432 204.456 210.458 204.493 210.492C204.529 210.527 204.557 210.57 204.574 210.617C204.624 210.721 204.644 210.837 204.633 210.951C204.686 210.994 204.727 211.05 204.753 211.114C204.778 211.178 204.787 211.247 204.779 211.315C204.829 211.364 204.863 211.427 204.876 211.496C204.89 211.565 204.883 211.637 204.855 211.702C204.899 211.741 204.93 211.793 204.945 211.85C204.96 211.908 204.957 211.968 204.937 212.024C204.801 212.106 204.673 212.203 204.557 212.311C204.13 212.601 203.665 212.83 203.176 212.991C203.176 212.991 202.473 213.003 202.339 212.006Z" fill="#EEA886"/>
<path d="M203.415 211.608C203.421 211.783 203.405 211.958 203.368 212.129C203.309 212.247 204.193 212.499 204.193 212.499C204.193 212.499 203.912 211.608 203.415 211.608Z" fill="#CF8C6C"/>
<path d="M186.96 251.479L187.346 250.277L188.973 250.541L188.733 251.626L186.96 251.479Z" fill="#3B3F66"/>
<path d="M200.313 251.338L200.407 251.995L202.192 251.702L202.092 250.711L200.313 251.338Z" fill="#555C94"/>
<path d="M196.452 232.833C196.452 232.833 196.188 234.269 195.866 235.858L195.708 236.702C195.41 238.232 195.123 239.709 194.995 240.014C194.743 240.705 189.283 250.729 189.283 250.729C189.283 250.729 187.048 250.559 186.942 250.272C186.942 250.272 191.519 239.386 191.495 238.994C191.472 238.601 192.051 227.44 192.051 227.44C192.051 227.44 196.335 232.188 196.452 232.833Z" fill="#354C70"/>
<path d="M198.962 226.801C198.962 226.801 201.098 237.763 201.303 238.601C201.508 239.439 202.292 250.664 202.292 250.664C202.292 250.664 201.812 251.661 200.039 251.286C200.039 251.286 197.622 239.222 197.417 238.818C196.627 237.247 192.736 229.65 192.367 228.566C192.138 227.807 192.049 227.012 192.104 226.221C192.104 226.221 194.954 224.591 198.962 226.801Z" fill="#354C70"/>
<path d="M198.049 212.604C198.049 212.604 198.985 214.949 199.219 214.879C199.453 214.808 202.145 211.637 202.145 211.637C202.145 211.637 203.38 213.179 203.21 213.355C203.041 213.53 199.804 218.9 199.366 218.806C198.927 218.712 196.972 215.471 196.972 215.471C196.972 215.471 196.867 213.026 198.049 212.604Z" fill="#DEB135"/>
<path d="M194.041 208.138C195.119 208.948 196.155 209.815 197.142 210.734C197.815 211.473 199.664 214.533 199.53 215.453C199.073 218.414 198.817 221.402 198.763 224.398C198.763 226.496 199.413 227.036 198.997 227.065C198.582 227.094 192.408 229.322 191.501 229.591C191.501 229.591 192.086 222.206 192.396 221.35C192.706 220.494 191.431 211.567 194.041 208.138Z" fill="#F2C344"/>
<path d="M209.694 204.609L210.239 207.358L210.783 210.113C208.612 209.521 206.336 209.427 204.123 209.838L203.883 208.624L203.644 207.405C205.843 206.936 207.911 205.981 209.694 204.609Z" fill="#D9D0C4"/>
<path d="M200.407 252.001C200.407 252.001 201.753 251.737 201.8 251.696C201.847 251.655 202.134 251.11 202.344 251.215C202.555 251.321 202.555 251.954 202.76 252.065C202.965 252.177 204.568 253.238 204.767 253.46C204.966 253.683 206.177 253.542 206.318 253.888C206.458 254.234 206.47 255.061 204.656 254.85C202.842 254.639 200.764 254.955 200.378 254.744C199.992 254.533 200.279 252.522 200.407 252.001Z" fill="#84BDFF"/>
<path d="M186.942 251.467C186.942 251.467 188.312 251.426 188.364 251.391C188.417 251.356 188.786 250.881 188.979 251.004C189.172 251.127 189.067 251.772 189.248 251.913C189.429 252.054 190.846 253.384 191.004 253.613C191.162 253.841 192.385 253.918 192.467 254.281C192.549 254.644 192.431 255.453 190.67 254.967C188.909 254.48 186.82 254.445 186.468 254.17C186.117 253.894 186.732 251.948 186.942 251.467Z" fill="#84BDFF"/>
<path d="M197.587 227.311C197.587 227.311 197.751 227.974 198.008 228.12C198.266 228.267 196.785 229.691 196.785 229.691C196.562 229.218 196.367 228.733 196.2 228.237C196.633 227.887 197.097 227.577 197.587 227.311Z" fill="#EEA987"/>
<path d="M192.964 211.022C192.964 211.022 191.208 219.333 191.074 220.183C190.939 221.033 196.188 228.677 196.188 228.677L197.944 227.64C197.944 227.64 193.695 219.925 193.695 219.574C193.695 219.222 195.726 212.54 195.726 212.54C195.925 212.171 195.969 211.739 195.849 211.338C195.73 210.936 195.456 210.599 195.088 210.4C194.72 210.201 194.289 210.157 193.888 210.277C193.488 210.396 193.151 210.671 192.952 211.039L192.964 211.022Z" fill="#FFD255"/>
<path d="M198.605 227.88C198.863 229.098 199.041 230.331 199.138 231.573C199.103 232.44 195.884 230.213 196.048 229.351L198.605 227.88Z" fill="#3C5780"/>
<path d="M194.041 208.138C194.041 208.138 198.471 212.979 198.196 212.44C197.224 210.529 196.546 210.207 196.557 209.849C196.569 209.492 196.674 208.777 196.692 208.513C196.727 208.003 196.768 207.592 196.768 207.592C196.768 207.592 194.568 204.497 194.667 205.553C194.64 206.448 194.427 207.329 194.041 208.138Z" fill="#EEA886"/>
<path d="M198.26 202.434C198.514 203.002 198.719 203.59 198.874 204.193C198.853 204.519 198.853 204.846 198.874 205.172C199.016 205.655 199.131 206.147 199.219 206.643C199.173 206.924 198.582 206.778 198.5 207.229C198.418 207.68 197.991 208.554 197.78 208.571C197.23 208.618 195.129 207.762 195 207.323C194.872 206.883 194.105 204.433 193.865 203.964C193.625 203.495 197.563 200.939 197.92 201.678L198.26 202.434Z" fill="#EEA886"/>
<path d="M192.911 203.495C192.631 202.282 194.023 202.135 194.023 202.135C194.023 202.135 194.93 201.074 197.101 201.203C199.272 201.332 198.962 204.163 198.962 204.163C198.248 204.048 197.522 204.029 196.803 204.105C196.766 204.608 196.766 205.114 196.803 205.617L195.984 205.547C195.984 205.547 196.071 204.468 195.679 204.415C195.287 204.363 195.159 206.696 194.421 207.206C194.413 207.093 194.381 206.983 194.328 206.883C194.106 206.506 193.911 206.115 193.742 205.711C193.401 204.998 193.123 204.257 192.911 203.495Z" fill="#16202E"/>
<path d="M196.205 204.679C196.176 204.576 196.12 204.483 196.044 204.407C195.968 204.332 195.874 204.277 195.771 204.247C195.668 204.218 195.56 204.215 195.456 204.24C195.351 204.264 195.255 204.314 195.176 204.386C194.655 204.779 195.176 206.145 195.702 206.145C196.229 206.145 196.422 205.394 196.205 204.679Z" fill="#EEA886"/>
<path d="M194.866 206.954C194.908 207.146 194.986 207.328 195.094 207.493C195.572 207.882 196.123 208.171 196.715 208.343L196.621 209.204C196.621 209.204 194.76 208.483 194.866 206.954Z" fill="#C48A6F"/>
<path d="M202.754 209.691H202.719V212.985H202.754V209.691Z" fill="#96CBFF"/>
<path d="M202.789 209.691H202.754V212.985H202.789V209.691Z" fill="#95CAFF"/>
<path d="M202.824 209.691H202.789V212.985H202.824V209.691Z" fill="#94C9FF"/>
<path d="M202.859 209.691H202.824V212.985H202.859V209.691Z" fill="#93C9FF"/>
<path d="M202.889 209.691H202.854V212.985H202.889V209.691Z" fill="#92C8FF"/>
<path d="M202.924 209.691H202.889V212.985H202.924V209.691Z" fill="#91C7FF"/>
<path d="M202.959 209.691H202.924V212.985H202.959V209.691Z" fill="#90C6FF"/>
<path d="M202.994 209.691H202.959V212.985H202.994V209.691Z" fill="#8FC6FF"/>
<path d="M203.029 209.691H202.994V212.985H203.029V209.691Z" fill="#8EC5FF"/>
<path d="M203.059 209.691H203.023V212.985H203.059V209.691Z" fill="#8DC4FF"/>
<path d="M203.094 209.691H203.059V212.985H203.094V209.691Z" fill="#8CC3FF"/>
<path d="M203.128 209.691H203.093V212.985H203.128V209.691Z" fill="#8BC2FF"/>
<path d="M203.163 209.691H203.128V212.985H203.163V209.691Z" fill="#8AC2FF"/>
<path d="M203.198 209.691H203.163V212.985H203.198V209.691Z" fill="#89C1FF"/>
<path d="M203.233 209.691H203.198V212.985H203.233V209.691Z" fill="#88C0FF"/>
<path d="M203.263 209.691H203.228V212.985H203.263V209.691Z" fill="#87BFFF"/>
<path d="M203.298 209.691H203.263V212.985H203.298V209.691Z" fill="#86BFFF"/>
<path d="M203.333 209.691H203.298V212.985H203.333V209.691Z" fill="#85BEFF"/>
<path d="M203.368 209.691H203.333V212.985H203.368V209.691Z" fill="#84BDFF"/>
<path d="M203.403 209.691H203.368V212.985H203.403V209.691Z" fill="#83BCFF"/>
<path d="M203.433 209.691H203.397V212.985H203.433V209.691Z" fill="#82BBFF"/>
<path d="M203.468 209.691H203.433V212.985H203.468V209.691Z" fill="#81BBFF"/>
<path d="M203.503 209.691H203.468V212.985H203.503V209.691Z" fill="#80BAFF"/>
<path d="M203.538 209.691H203.503V212.985H203.538V209.691Z" fill="#7FB9FF"/>
<path d="M203.573 209.691H203.538V212.985H203.573V209.691Z" fill="#7EB8FF"/>
<path d="M203.602 209.691H203.567V212.985H203.602V209.691Z" fill="#7DB7FF"/>
<path d="M203.638 209.691H203.603V212.985H203.638V209.691Z" fill="#7CB7FF"/>
<path d="M203.673 209.691H203.638V212.985H203.673V209.691Z" fill="#7BB6FF"/>
<path d="M203.708 209.691H203.673V212.985H203.708V209.691Z" fill="#7AB5FF"/>
<path d="M203.743 209.691H203.708V212.985H203.743V209.691Z" fill="#79B4FF"/>
<path d="M203.772 209.691H203.737V212.985H203.772V209.691Z" fill="#78B4FF"/>
<path d="M203.808 209.691H203.772V212.985H203.808V209.691Z" fill="#77B3FF"/>
<path d="M203.843 209.691H203.808V212.985H203.843V209.691Z" fill="#76B2FF"/>
<path d="M203.877 209.691H203.842V212.985H203.877V209.691Z" fill="#74B1FF"/>
<path d="M203.912 209.691H203.877V212.985H203.912V209.691Z" fill="#73B0FF"/>
<path d="M203.947 209.691H203.912V212.985H203.947V209.691Z" fill="#72B0FF"/>
<path d="M203.977 209.691H203.941V212.985H203.977V209.691Z" fill="#71AFFF"/>
<path d="M204.012 209.691H203.977V212.985H204.012V209.691Z" fill="#70AEFF"/>
<path d="M204.047 209.691H204.012V212.985H204.047V209.691Z" fill="#6FADFF"/>
<path d="M204.082 209.691H204.047V212.985H204.082V209.691Z" fill="#6EADFF"/>
<path d="M204.117 209.691H204.082V212.985H204.117V209.691Z" fill="#6DACFF"/>
<path d="M204.146 209.691H204.111V212.985H204.146V209.691Z" fill="#6CABFF"/>
<path d="M204.182 209.691H204.146V212.985H204.182V209.691Z" fill="#6BAAFF"/>
<path d="M204.217 209.691H204.182V212.985H204.217V209.691Z" fill="#6AA9FF"/>
<path d="M204.252 209.691H204.217V212.985H204.252V209.691Z" fill="#69A9FF"/>
<path d="M204.287 209.691H204.252V212.985H204.287V209.691Z" fill="#68A8FF"/>
<path d="M204.316 209.691H204.281V212.985H204.316V209.691Z" fill="#67A7FF"/>
<path d="M204.352 209.691H204.316V212.985H204.352V209.691Z" fill="#66A6FF"/>
<path d="M204.387 209.691H204.352V212.985H204.387V209.691Z" fill="#65A6FF"/>
<path d="M204.422 209.691H204.387V212.985H204.422V209.691Z" fill="#64A5FF"/>
<path d="M204.457 209.691H204.422V212.985H204.457V209.691Z" fill="#63A4FF"/>
<path d="M204.486 209.691H204.451V212.985H204.486V209.691Z" fill="#62A3FF"/>
<path d="M204.521 209.691H204.486V212.985H204.521V209.691Z" fill="#61A2FF"/>
<path d="M204.557 209.691H204.521V212.985H204.557V209.691Z" fill="#60A2FF"/>
<path d="M204.592 209.691H204.557V212.985H204.592V209.691Z" fill="#5FA1FF"/>
<path d="M204.627 209.691H204.592V212.985H204.627V209.691Z" fill="#5EA0FF"/>
<path d="M204.655 209.691H204.62V212.985H204.655V209.691Z" fill="#5D9FFF"/>
<path d="M204.69 209.691H204.655V212.985H204.69V209.691Z" fill="#5C9EFF"/>
<path d="M204.726 209.691H204.69V212.985H204.726V209.691Z" fill="#5B9EFF"/>
<path d="M204.761 209.691H204.726V212.985H204.761V209.691Z" fill="#5A9DFF"/>
<path d="M204.796 209.691H204.761V212.985H204.796V209.691Z" fill="#599CFF"/>
<path d="M204.831 209.691H204.796V212.985H204.831V209.691Z" fill="#589BFF"/>
<path d="M204.86 209.691H204.825V212.985H204.86V209.691Z" fill="#579BFF"/>
<path d="M204.895 209.691H204.86V212.985H204.895V209.691Z" fill="#569AFF"/>
<path d="M204.931 209.691H204.896V212.985H204.931V209.691Z" fill="#5599FF"/>
<path d="M204.27 210.435C204.27 210.435 203.381 210.922 203.445 211.074C203.458 211.116 203.48 211.154 203.511 211.184C203.541 211.215 203.579 211.238 203.621 211.25L203.345 211.614C203.345 211.614 203.299 211.959 203.691 211.907C203.691 211.907 203.615 212.223 203.983 212.129C203.983 212.129 204.024 212.364 204.206 212.346C204.463 212.261 204.708 212.145 204.937 212C204.937 212 205.025 211.871 204.855 211.678C204.883 211.613 204.89 211.542 204.876 211.473C204.863 211.404 204.829 211.341 204.779 211.291C204.789 211.223 204.78 211.154 204.755 211.09C204.729 211.026 204.687 210.97 204.633 210.928C204.633 210.928 204.715 210.494 204.364 210.394L204.27 210.435Z" fill="#DB9C7C"/>
<path d="M201.244 207.194H201.191V210.342H201.244V207.194Z" fill="#96CBFF"/>
<path d="M201.297 207.194H201.244V210.342H201.297V207.194Z" fill="#95CAFF"/>
<path d="M201.361 207.194H201.303V210.342H201.361V207.194Z" fill="#94C9FF"/>
<path d="M201.408 207.194H201.355V210.342H201.408V207.194Z" fill="#93C9FF"/>
<path d="M201.467 207.194H201.414V210.342H201.467V207.194Z" fill="#92C8FF"/>
<path d="M201.519 207.194H201.467V210.342H201.519V207.194Z" fill="#91C7FF"/>
<path d="M201.578 207.194H201.525V210.342H201.578V207.194Z" fill="#90C6FF"/>
<path d="M201.63 207.194H201.577V210.342H201.63V207.194Z" fill="#8FC6FF"/>
<path d="M201.688 207.194H201.636V210.342H201.688V207.194Z" fill="#8EC5FF"/>
<path d="M201.741 207.194H201.688V210.342H201.741V207.194Z" fill="#8DC4FF"/>
<path d="M201.806 207.194H201.747V210.342H201.806V207.194Z" fill="#8CC3FF"/>
<path d="M201.852 207.194H201.8V210.342H201.852V207.194Z" fill="#8BC2FF"/>
<path d="M201.911 207.194H201.858V210.342H201.911V207.194Z" fill="#8AC2FF"/>
<path d="M201.964 207.194H201.911V210.342H201.964V207.194Z" fill="#89C1FF"/>
<path d="M202.022 207.194H201.97V210.342H202.022V207.194Z" fill="#88C0FF"/>
<path d="M202.075 207.194H202.022V210.342H202.075V207.194Z" fill="#87BFFF"/>
<path d="M202.134 207.194H202.081V210.342H202.134V207.194Z" fill="#86BFFF"/>
<path d="M202.186 207.194H202.134V210.342H202.186V207.194Z" fill="#85BEFF"/>
<path d="M202.251 207.194H202.192V210.342H202.251V207.194Z" fill="#84BDFF"/>
<path d="M202.298 207.194H202.245V210.342H202.298V207.194Z" fill="#83BCFF"/>
<path d="M202.356 207.194H202.304V210.342H202.356V207.194Z" fill="#82BBFF"/>
<path d="M202.408 207.194H202.355V210.342H202.408V207.194Z" fill="#81BBFF"/>
<path d="M202.467 207.194H202.414V210.342H202.467V207.194Z" fill="#80BAFF"/>
<path d="M202.519 207.194H202.467V210.342H202.519V207.194Z" fill="#7FB9FF"/>
<path d="M202.572 207.194H202.52V210.342H202.572V207.194Z" fill="#7EB8FF"/>
<path d="M202.631 207.194H202.578V210.342H202.631V207.194Z" fill="#7DB7FF"/>
<path d="M202.684 207.194H202.631V210.342H202.684V207.194Z" fill="#7CB7FF"/>
<path d="M202.742 207.194H202.689V210.342H202.742V207.194Z" fill="#7BB6FF"/>
<path d="M202.795 207.194H202.742V210.342H202.795V207.194Z" fill="#7AB5FF"/>
<path d="M202.859 207.194H202.801V210.342H202.859V207.194Z" fill="#79B4FF"/>
<path d="M202.906 207.194H202.854V210.342H202.906V207.194Z" fill="#78B4FF"/>
<path d="M202.965 207.194H202.912V210.342H202.965V207.194Z" fill="#77B3FF"/>
<path d="M203.018 207.194H202.965V210.342H203.018V207.194Z" fill="#76B2FF"/>
<path d="M203.076 207.194H203.023V210.342H203.076V207.194Z" fill="#74B1FF"/>
<path d="M203.129 207.194H203.076V210.342H203.129V207.194Z" fill="#73B0FF"/>
<path d="M203.186 207.194H203.134V210.342H203.186V207.194Z" fill="#72B0FF"/>
<path d="M203.239 207.194H203.187V210.342H203.239V207.194Z" fill="#71AFFF"/>
<path d="M203.304 207.194H203.245V210.342H203.304V207.194Z" fill="#70AEFF"/>
<path d="M203.35 207.194H203.298V210.342H203.35V207.194Z" fill="#6FADFF"/>
<path d="M203.409 207.194H203.356V210.342H203.409V207.194Z" fill="#6EADFF"/>
<path d="M203.462 207.194H203.409V210.342H203.462V207.194Z" fill="#6DACFF"/>
<path d="M203.52 207.194H203.468V210.342H203.52V207.194Z" fill="#6CABFF"/>
<path d="M203.573 207.194H203.521V210.342H203.573V207.194Z" fill="#6BAAFF"/>
<path d="M203.632 207.194H203.579V210.342H203.632V207.194Z" fill="#6AA9FF"/>
<path d="M203.685 207.194H203.632V210.342H203.685V207.194Z" fill="#69A9FF"/>
<path d="M203.743 207.194H203.69V210.342H203.743V207.194Z" fill="#68A8FF"/>
<path d="M203.802 207.194H203.743V210.342H203.802V207.194Z" fill="#67A7FF"/>
<path d="M203.854 207.194H203.802V210.342H203.854V207.194Z" fill="#66A6FF"/>
<path d="M203.906 207.194H203.854V210.342H203.906V207.194Z" fill="#65A6FF"/>
<path d="M203.965 207.194H203.912V210.342H203.965V207.194Z" fill="#64A5FF"/>
<path d="M204.018 207.194H203.965V210.342H204.018V207.194Z" fill="#63A4FF"/>
<path d="M204.076 207.194H204.023V210.342H204.076V207.194Z" fill="#62A3FF"/>
<path d="M204.129 207.194H204.076V210.342H204.129V207.194Z" fill="#61A2FF"/>
<path d="M204.182 207.194H204.129V210.342H204.182V207.194Z" fill="#60A2FF"/>
<path d="M204.246 207.194H204.188V210.342H204.246V207.194Z" fill="#5FA1FF"/>
<path d="M204.299 207.194H204.246V210.342H204.299V207.194Z" fill="#5EA0FF"/>
<path d="M204.351 207.194H204.299V210.342H204.351V207.194Z" fill="#5D9FFF"/>
<path d="M204.404 207.194H204.352V210.342H204.404V207.194Z" fill="#5C9EFF"/>
<path d="M204.463 207.194H204.41V210.342H204.463V207.194Z" fill="#5B9EFF"/>
<path d="M204.516 207.194H204.463V210.342H204.516V207.194Z" fill="#5A9DFF"/>
<path d="M204.574 207.194H204.521V210.342H204.574V207.194Z" fill="#599CFF"/>
<path d="M204.627 207.194H204.574V210.342H204.627V207.194Z" fill="#589BFF"/>
<path d="M204.684 207.194H204.632V210.342H204.684V207.194Z" fill="#579BFF"/>
<path d="M204.743 207.194H204.685V210.342H204.743V207.194Z" fill="#569AFF"/>
<path d="M204.796 207.194H204.743V210.342H204.796V207.194Z" fill="#5599FF"/>
<path d="M202.718 211.121C203.082 211.107 203.446 211.153 203.795 211.256C203.883 211.291 203.959 211.338 203.959 211.438C203.959 211.537 203.825 211.649 203.52 211.672C203.288 211.704 203.061 211.77 202.847 211.866C202.847 211.866 202.531 211.795 202.718 211.121Z" fill="#EEA886"/>
<path d="M195.884 235.858L195.726 236.702L193.971 232.012C194.181 232.47 195.884 235.858 195.884 235.858Z" fill="#293B57"/>
<path d="M98.2813 128.049H70.2979C68.2295 128.049 66.5527 129.729 66.5527 131.801V176.08C66.5527 178.152 68.2295 179.831 70.2979 179.831H98.2813C100.35 179.831 102.026 178.152 102.026 176.08V131.801C102.026 129.729 100.35 128.049 98.2813 128.049Z" fill="#FFC955"/>
<path d="M98.2584 161.49H96.4209V175.5H98.2584V161.49Z" fill="#E3F2FF"/>
<path d="M94.6236 163.061H92.7861V175.5H94.6236V163.061Z" fill="#E3F2FF"/>
<path d="M90.6802 165.101H88.8428V175.5H90.6802V165.101Z" fill="#E3F2FF"/>
<path d="M86.6304 167.674H84.793V175.5H86.6304V167.674Z" fill="#E3F2FF"/>
<path d="M73.8266 166.015L73.4229 165.875L76.893 156.132L84.4067 154.145L87.1103 143.454L92.9094 140.892L94.2085 132.58L94.624 132.645L93.2898 141.185L87.4672 143.758L84.7578 154.491L77.2148 156.49L73.8266 166.015Z" fill="#E3F2FF"/>
<path d="M85.4362 153.577C85.5783 153.75 85.6658 153.961 85.6879 154.184C85.7099 154.407 85.6654 154.631 85.56 154.829C85.4546 155.026 85.293 155.188 85.0958 155.293C84.8985 155.399 84.6745 155.443 84.452 155.421C84.2295 155.399 84.0186 155.311 83.846 155.169C83.6734 155.026 83.5469 154.836 83.4825 154.621C83.418 154.407 83.4186 154.178 83.4841 153.964C83.5496 153.75 83.6771 153.56 83.8504 153.419C83.9647 153.324 84.0965 153.253 84.2382 153.21C84.38 153.167 84.5288 153.153 84.6762 153.167C84.8236 153.182 84.9666 153.226 85.097 153.296C85.2275 153.366 85.3428 153.462 85.4362 153.577Z" fill="#FFC955"/>
<path d="M85.4362 155.335C85.2313 155.504 84.981 155.608 84.7172 155.634C84.4533 155.66 84.1877 155.606 83.9539 155.481C83.7201 155.356 83.5287 155.164 83.4039 154.93C83.2791 154.695 83.2264 154.429 83.2527 154.165C83.2789 153.901 83.3828 153.65 83.5512 153.445C83.7196 153.24 83.945 153.089 84.1988 153.013C84.4526 152.936 84.7235 152.936 84.9771 153.014C85.2307 153.091 85.4556 153.242 85.6235 153.448C85.8483 153.723 85.9548 154.077 85.9197 154.43C85.8845 154.784 85.7107 155.11 85.4362 155.335ZM84.0084 153.577C83.869 153.692 83.7667 153.845 83.7144 154.018C83.6621 154.191 83.662 154.375 83.7143 154.548C83.7666 154.721 83.8689 154.875 84.0082 154.99C84.1475 155.104 84.3177 155.175 84.4972 155.193C84.6767 155.211 84.8574 155.175 85.0167 155.091C85.1759 155.006 85.3065 154.876 85.392 154.716C85.4774 154.557 85.5139 154.376 85.4968 154.196C85.4796 154.017 85.4097 153.846 85.2958 153.706C85.2177 153.614 85.1222 153.538 85.0148 153.483C84.9074 153.428 84.7902 153.395 84.6699 153.386C84.5497 153.377 84.4288 153.391 84.3142 153.429C84.1997 153.467 84.0937 153.527 84.0025 153.606L84.0084 153.577Z" fill="#E3F2FF"/>
<path d="M88.1931 142.955C88.3351 143.128 88.4227 143.34 88.4447 143.563C88.4668 143.785 88.4223 144.01 88.3169 144.207C88.2114 144.405 88.0499 144.567 87.8526 144.672C87.6554 144.778 87.4313 144.822 87.2088 144.8C86.9864 144.778 86.7755 144.69 86.6029 144.547C86.4303 144.405 86.3037 144.214 86.2393 144C86.1749 143.786 86.1755 143.557 86.241 143.343C86.3065 143.128 86.4339 142.939 86.6072 142.797C86.8387 142.608 87.1356 142.519 87.4328 142.548C87.73 142.578 88.0034 142.724 88.1931 142.955Z" fill="#FFC955"/>
<path d="M88.1637 144.708C87.9588 144.874 87.7094 144.975 87.4471 144.999C87.1847 145.023 86.9212 144.969 86.6896 144.843C86.458 144.717 86.2687 144.526 86.1457 144.293C86.0226 144.059 85.9713 143.795 85.9982 143.532C86.025 143.27 86.1289 143.021 86.2966 142.817C86.4643 142.614 86.6884 142.465 86.9407 142.389C87.193 142.313 87.462 142.313 87.7141 142.39C87.9661 142.467 88.1897 142.617 88.3569 142.821C88.5809 143.097 88.6865 143.45 88.6503 143.804C88.6141 144.158 88.4391 144.483 88.1637 144.708ZM86.7417 142.95C86.6024 143.064 86.5001 143.218 86.4477 143.391C86.3954 143.564 86.3954 143.748 86.4477 143.921C86.5 144.094 86.6022 144.248 86.7416 144.362C86.8809 144.477 87.051 144.548 87.2305 144.566C87.41 144.584 87.5908 144.548 87.75 144.463C87.9093 144.378 88.0399 144.248 88.1253 144.089C88.2108 143.93 88.2472 143.749 88.2301 143.569C88.213 143.389 88.1431 143.219 88.0291 143.078C87.8733 142.893 87.6506 142.777 87.4095 142.755C87.1685 142.733 86.9285 142.807 86.7417 142.961V142.95Z" fill="#E3F2FF"/>
<path d="M93.904 140.318C94.046 140.491 94.1336 140.702 94.1557 140.925C94.1777 141.148 94.1332 141.372 94.0278 141.57C93.9224 141.767 93.7608 141.929 93.5636 142.034C93.3663 142.14 93.1423 142.184 92.9198 142.162C92.6973 142.14 92.4864 142.052 92.3138 141.91C92.1412 141.767 92.0147 141.577 91.9502 141.362C91.8858 141.148 91.8864 140.919 91.9519 140.705C92.0174 140.491 92.1449 140.301 92.3182 140.159C92.5497 139.97 92.8465 139.881 93.1437 139.91C93.4409 139.94 93.7143 140.087 93.904 140.318Z" fill="#FFC955"/>
<path d="M93.8747 142.07C93.6697 142.236 93.4204 142.337 93.158 142.361C92.8957 142.386 92.6321 142.331 92.4005 142.205C92.1689 142.08 91.9797 141.888 91.8566 141.655C91.7336 141.421 91.6822 141.157 91.7091 140.894C91.736 140.632 91.8398 140.383 92.0075 140.18C92.1753 139.976 92.3994 139.827 92.6516 139.751C92.9039 139.675 93.173 139.675 93.425 139.752C93.677 139.829 93.9007 139.979 94.0678 140.183C94.2919 140.459 94.3974 140.813 94.3612 141.167C94.325 141.52 94.15 141.846 93.8747 142.07ZM92.4468 140.312C92.3063 140.427 92.2031 140.582 92.1502 140.756C92.0973 140.93 92.0971 141.116 92.1497 141.29C92.2023 141.464 92.3053 141.619 92.4456 141.734C92.5859 141.85 92.7573 141.921 92.9381 141.939C93.1189 141.957 93.301 141.921 93.4613 141.836C93.6216 141.75 93.753 141.619 93.8389 141.458C93.9247 141.298 93.9611 141.116 93.9436 140.935C93.926 140.753 93.8552 140.582 93.7401 140.441C93.5835 140.258 93.3622 140.144 93.123 140.122C92.8838 140.1 92.6455 140.172 92.4585 140.323L92.4468 140.312Z" fill="#E3F2FF"/>
<path d="M77.9694 155.693C78.1115 155.866 78.199 156.077 78.2211 156.3C78.2431 156.523 78.1986 156.747 78.0932 156.945C77.9878 157.142 77.8262 157.304 77.629 157.41C77.4318 157.515 77.2077 157.559 76.9852 157.537C76.7627 157.515 76.5518 157.427 76.3792 157.285C76.2066 157.142 76.0801 156.952 76.0157 156.738C75.9513 156.523 75.9518 156.294 76.0173 156.08C76.0828 155.866 76.2103 155.676 76.3836 155.535C76.6151 155.346 76.9119 155.256 77.2091 155.286C77.5064 155.315 77.7797 155.462 77.9694 155.693Z" fill="#FFC955"/>
<path d="M77.9401 157.446C77.7352 157.611 77.4858 157.713 77.2235 157.737C76.9611 157.761 76.6975 157.707 76.4659 157.581C76.2343 157.455 76.0451 157.263 75.922 157.03C75.799 156.797 75.7477 156.532 75.7745 156.27C75.8014 156.007 75.9052 155.758 76.073 155.555C76.2407 155.351 76.4648 155.202 76.7171 155.126C76.9693 155.05 77.2384 155.05 77.4904 155.127C77.7424 155.204 77.9661 155.354 78.1332 155.558C78.3558 155.835 78.4604 156.188 78.4242 156.542C78.3881 156.895 78.2141 157.22 77.9401 157.446ZM76.5123 155.687C76.3717 155.802 76.2685 155.957 76.2156 156.131C76.1627 156.305 76.1626 156.491 76.2151 156.665C76.2677 156.839 76.3707 156.994 76.511 157.11C76.6514 157.225 76.8228 157.297 77.0035 157.315C77.1843 157.333 77.3664 157.297 77.5267 157.211C77.6871 157.125 77.8185 156.994 77.9043 156.834C77.9901 156.673 78.0266 156.491 78.009 156.31C77.9914 156.129 77.9206 155.957 77.8055 155.816C77.6486 155.63 77.4249 155.514 77.1829 155.492C76.9409 155.47 76.7 155.544 76.5123 155.699V155.687Z" fill="#E3F2FF"/>
<path d="M80.8077 142.744H71.1288C70.6828 142.744 70.3213 143.107 70.3213 143.553V144.28C70.3213 144.727 70.6828 145.089 71.1288 145.089H80.8077C81.2537 145.089 81.6153 144.727 81.6153 144.28V143.553C81.6153 143.107 81.2537 142.744 80.8077 142.744Z" fill="#EBEBEB"/>
<path d="M80.8077 138.647H71.1288C70.6828 138.647 70.3213 139.009 70.3213 139.456V140.183C70.3213 140.63 70.6828 140.992 71.1288 140.992H80.8077C81.2537 140.992 81.6153 140.63 81.6153 140.183V139.456C81.6153 139.009 81.2537 138.647 80.8077 138.647Z" fill="#EBEBEB"/>
<path d="M62.2169 146.977C62.2169 146.977 61.8892 150.206 62.4861 151.021C62.4861 151.021 60.9061 150.675 60.5433 150.13C60.1805 149.585 62.2169 146.977 62.2169 146.977Z" fill="#16202E"/>
<path d="M72.0771 157.305L72.7383 156.859C72.9776 156.809 73.2247 156.809 73.464 156.859C73.7483 156.898 74.0203 157 74.2598 157.158C74.2876 157.191 74.3073 157.23 74.3175 157.272C74.3277 157.313 74.3279 157.357 74.3183 157.399C74.3001 157.496 74.2579 157.586 74.1954 157.662C74.2131 157.719 74.2159 157.778 74.2036 157.836C74.1913 157.893 74.1643 157.947 74.1252 157.991C74.1365 158.049 74.1304 158.11 74.1075 158.165C74.0846 158.221 74.046 158.268 73.9965 158.301C73.9965 158.301 74.0374 158.489 73.9028 158.565C73.7684 158.555 73.6335 158.555 73.4991 158.565C73.06 158.567 72.6228 158.508 72.2 158.389C72.2 158.389 71.5504 158.266 72.0771 157.305Z" fill="#EEA886"/>
<path d="M73.0546 157.569C72.9827 157.701 72.8942 157.823 72.7913 157.932C72.6977 157.991 73.2302 158.565 73.2302 158.565C73.2302 158.565 73.4175 157.791 73.0546 157.569Z" fill="#CF8C6C"/>
<path d="M71.7375 157.358C71.9376 157.335 72.1341 157.288 72.3227 157.217C72.5451 157.111 72.2817 158.342 72.2817 158.342C72.0144 158.151 71.7091 158.019 71.3864 157.955C71.0353 157.944 71.7375 157.358 71.7375 157.358Z" fill="#EEA886"/>
<path d="M56.8034 190.048C57.2674 190.745 57.7736 191.413 58.3191 192.047C58.3191 192.047 59.1091 192.458 59.1325 192.786C59.1793 193.401 59.2085 193.765 58.1786 193.794C57.1487 193.823 56.4933 193.794 56.306 193.161C56.1843 192.767 56.0112 192.39 55.7911 192.041L55.7091 193.677H55.4809C55.4809 193.677 55.3756 192.041 55.358 191.807C55.3405 191.572 55.1942 190.676 55.6857 190.277C55.8443 190.16 56.0264 190.079 56.2195 190.039C56.4125 190 56.6117 190.003 56.8034 190.048Z" fill="#162D40"/>
<path d="M58.4719 192.135C58.0701 192.233 57.6506 192.233 57.2488 192.135C56.5817 191.965 55.9439 190.377 55.7507 190.242L55.5752 189.597H56.8743C56.8898 189.904 56.9654 190.205 57.0967 190.482C57.5156 191.065 57.9752 191.617 58.4719 192.135Z" fill="#162D40"/>
<path d="M64.1184 189.433C64.2498 189.722 64.4127 189.995 64.6041 190.248C64.8382 190.552 65.5697 191.807 65.8857 191.895C66.2017 191.983 67.1965 192.159 67.2843 192.715C67.372 193.272 67.4189 193.665 66.4416 193.706C65.4644 193.747 64.8265 193.806 64.3584 193.12C64.023 192.664 63.6136 192.268 63.147 191.948V193.735H62.7725C62.7218 193.066 62.628 192.4 62.4916 191.742C62.3597 191.346 62.3402 190.921 62.4353 190.514C62.5303 190.108 62.7362 189.735 63.03 189.439C63.937 188.688 64.1184 189.433 64.1184 189.433Z" fill="#162D40"/>
<path d="M65.8857 191.895C65.8857 191.895 65.0138 192.118 64.6802 191.895C64.3467 191.672 63.2056 189.749 62.8252 189.632C62.8252 189.632 63.1939 188.894 64.1184 189.433C64.1184 189.433 65.6399 191.578 65.8857 191.895Z" fill="#162D40"/>
<path d="M56.3065 162.633C55.5405 163.681 55.0059 164.88 54.7382 166.15C54.4047 168.055 54.9372 174.444 54.9196 175.388C54.9021 176.332 54.0945 179.257 54.2701 181.027C54.4456 182.797 55.3585 190.201 55.3585 190.201L57.4944 190.16C57.4944 190.16 57.0673 182.176 57.1726 181.432C57.2779 180.687 57.6349 177.522 57.6758 177.217C57.7168 176.912 60.1102 168.806 60.1102 167.434C60.1102 166.062 59.2792 160.394 56.3065 162.633Z" fill="#1D3B54"/>
<path d="M62.4979 163.26C62.4979 163.26 64.5226 171.004 64.7625 172.053C65.0024 173.102 65.4823 174.527 65.4647 174.72C65.4472 174.913 65.2072 178.237 65.2072 178.237L64.6221 189.486H62.4979C62.4979 189.486 61.8132 182.328 61.702 180.881C61.5908 179.433 62.492 177.205 62.2872 176.596C62.0824 175.986 58.7761 168.911 58.7761 168.911C58.7761 168.911 56.254 161.015 62.4979 163.26Z" fill="#1D3B54"/>
<path d="M61.8715 151.678C62.4137 151.756 62.9142 152.014 63.2935 152.41C63.8278 153.034 64.2801 153.723 64.6394 154.462C64.7974 154.814 67.0445 158.055 67.1615 158.131C67.2785 158.208 68.2617 157.944 69.0458 157.879C70.1366 157.729 71.2105 157.473 72.2526 157.117L72.5335 158.571C72.5335 158.571 67.8111 160.095 66.7226 159.825C65.3884 159.497 62.322 155.558 62.322 155.558C62.322 155.558 60.034 152.873 61.8715 151.678Z" fill="#EDDAD3"/>
<path d="M60.4556 151.103C60.9141 151.33 61.3872 151.526 61.8718 151.689C62.2346 151.76 63.6273 153.6 63.8965 154.268C64.1657 154.937 63.8965 155.945 63.3874 157.129C62.8783 158.313 63.3874 158.706 63.1241 159.89C62.9303 161.569 62.8677 163.26 62.9368 164.949C62.9778 165.605 56.1897 166.842 54.8379 165.646C54.8379 165.646 55.7508 162.616 56.8392 161.478C57.0733 161.232 57.0499 159.597 56.8919 159.186C56.7339 158.776 54.9198 155.728 54.9198 155.728C54.9198 155.728 54.7911 152.633 55.5752 152.023C56.2599 151.49 58.1266 151.302 58.466 151.185C59.1193 151.042 59.7927 151.014 60.4556 151.103Z" fill="#EDDAD3"/>
<path d="M60.7944 153.448L61.444 152.698L60.8588 150.734C60.7414 151.634 60.7198 152.543 60.7944 153.448Z" fill="#D1C0BA"/>
<path d="M56.7981 151.678C56.3805 151.584 55.9434 151.641 55.5635 151.838C55.1836 152.035 54.8852 152.36 54.7208 152.756C53.96 154.216 54.1356 155.001 53.9776 155.658C53.8196 156.314 53.0998 160.705 53.0588 160.898C53.0179 161.092 52.3449 163.319 52.4327 164.005C52.5205 164.691 53.1466 169.867 53.1174 170.06C53.0881 170.253 54.3228 169.89 54.3228 169.89C54.3228 169.89 54.276 164.614 54.3228 164.151C54.3696 163.688 54.4106 161.414 54.7383 160.822C55.066 160.23 55.8736 156.619 56.0491 156.25C56.2247 155.88 57.9334 152.147 56.7981 151.678Z" fill="#EEA886"/>
<path d="M60.9587 149.896C60.8591 150.744 60.8044 151.597 60.7948 152.451C60.7948 152.451 59.7005 153.542 58.4541 151.173C58.7769 150.445 58.8227 149.624 58.5828 148.864C58.2025 147.533 60.9587 149.896 60.9587 149.896Z" fill="#EEA886"/>
<path d="M60.7944 152.445V153.448L59.624 152.41L60.7944 152.445Z" fill="#EEA886"/>
<path d="M60.795 153.448L60.2742 152.803L58.5187 151.05L57.8633 151.343L60.795 153.448Z" fill="#D1C0BA"/>
<path d="M61.4329 152.698L62.2346 152.92L60.877 150.734L61.4329 152.698Z" fill="#FAE6DE"/>
<path d="M60.2742 152.803L59.5369 153.981L57.834 151.302L58.5655 150.927L60.2742 152.803Z" fill="#FAE6DE"/>
<path d="M64.0071 157.551C64.1562 156.621 64.1562 155.673 64.0071 154.743C64.0071 154.743 63.855 155.599 63.4805 156.936L64.0071 157.551Z" fill="#D1C0BA"/>
<path d="M55.8613 157.322L56.6279 154.784C56.61 155.893 56.5003 156.999 56.3002 158.09C56.3002 158.09 56.0369 157.621 55.8613 157.322Z" fill="#D1C0BA"/>
<path d="M82.8739 145.277L71.4629 159.679L71.8608 159.99L82.8739 145.277Z" fill="#54281A"/>
<path d="M74.1722 157.141C74.1722 157.141 73.3178 157.059 73.2886 157.193C73.2781 157.228 73.2764 157.265 73.2835 157.301C73.2906 157.337 73.3064 157.37 73.3295 157.399L72.9609 157.528C72.9609 157.528 72.7678 157.75 73.0662 157.897C73.0662 157.897 72.8614 158.084 73.1657 158.196C73.1657 158.196 73.0838 158.378 73.2183 158.454C73.4415 158.517 73.6714 158.552 73.903 158.559C73.903 158.559 74.0259 158.512 73.9966 158.295C74.0473 158.263 74.0869 158.216 74.1099 158.161C74.133 158.105 74.1384 158.044 74.1254 157.985C74.1661 157.942 74.1941 157.888 74.2065 157.831C74.2189 157.773 74.2151 157.712 74.1956 157.657C74.1956 157.657 74.4648 157.393 74.26 157.152L74.1722 157.141Z" fill="#DB9C7C"/>
<path d="M72.767 156.859C73.0265 157.02 73.2611 157.217 73.4634 157.446C73.5044 157.516 73.5336 157.586 73.4634 157.651C73.3932 157.715 73.2644 157.739 73.0421 157.61C72.8563 157.521 72.6595 157.458 72.4569 157.422C72.4569 157.422 72.3106 157.252 72.767 156.859Z" fill="#EEA886"/>
<path d="M60.0746 143.336C60.0746 143.336 62.0057 143.284 62.3626 145.576C62.7196 147.868 61.8945 149.872 61.5726 150.195C61.2508 150.517 59.3197 150.277 58.8632 149.087C58.4068 147.897 57.7455 147.029 57.845 146.009C57.9445 144.989 57.6987 143.295 60.0746 143.336Z" fill="#EEA886"/>
<path d="M62.445 146.437C62.445 146.437 62.96 143.583 60.3969 143.073C57.8338 142.563 56.9326 144.315 56.6927 145.365C56.4527 146.414 56.7336 149.351 56.7336 149.351C57.5625 150.093 58.4805 150.729 59.4664 151.244C59.4664 151.244 58.6121 148.108 58.9339 145.863C60.0814 146.047 61.2507 146.047 62.3982 145.863C62.3982 145.863 62.4392 146.32 62.445 146.437Z" fill="#16202E"/>
<path d="M60.912 150.324C60.3434 150.269 59.7987 150.067 59.332 149.737C59.7426 150.23 60.2725 150.61 60.8711 150.839C60.8952 150.668 60.9089 150.496 60.912 150.324Z" fill="#A77860"/>
<path d="M57.0846 165.649L49.6055 166.86L50.4996 172.402L57.9788 171.191L57.0846 165.649Z" fill="#366E9C"/>
<path d="M52.8593 171.748C52.8004 171.656 52.7569 171.555 52.7306 171.449C52.7306 171.449 52.7306 171.25 52.7306 171.109C52.7344 171.074 52.7344 171.039 52.7306 171.004C52.6695 170.814 52.6398 170.616 52.6428 170.417C52.7419 169.95 52.867 169.488 53.0173 169.034H53.6786L54.2988 168.97C54.5947 169.511 54.8509 170.073 55.0654 170.652V170.722C55.0397 170.884 54.9985 171.043 54.9425 171.197C54.9425 171.232 54.8431 171.631 54.7377 171.684C54.6787 171.716 54.6122 171.734 54.5446 171.734C54.4771 171.734 54.4106 171.716 54.3515 171.684C54.1883 171.757 54.008 171.783 53.8307 171.76C53.7498 171.8 53.6607 171.821 53.5703 171.821C53.4799 171.821 53.3908 171.8 53.3099 171.76C53.3099 171.76 52.988 171.848 52.8593 171.748Z" fill="#EEA886"/>
<path d="M56.7981 151.678C56.3805 151.584 55.9433 151.641 55.5634 151.838C55.1835 152.035 54.8851 152.36 54.7207 152.756C54.2246 153.61 53.9229 154.562 53.837 155.546C53.7434 156.22 52.8188 160.236 52.7778 160.406C52.7369 160.576 52.4267 163.096 52.4092 164.005C52.4092 164.696 52.5555 169.228 52.5262 169.403C52.497 169.579 54.6153 169.099 54.6153 169.099C54.6153 169.099 54.3812 164.919 54.4281 164.48C54.4694 163.387 54.5847 162.298 54.7733 161.22C55.0249 160.464 56.0198 156.672 56.1895 156.297C56.3592 155.921 57.9333 152.147 56.7981 151.678Z" fill="#EDDAD3"/>
<path d="M125.124 190.963L125.258 189.679C124.582 189.657 123.906 189.704 123.239 189.82C123.239 189.82 123.397 190.898 123.415 191.057C123.432 191.215 125.124 190.963 125.124 190.963Z" fill="#5C544D"/>
<path d="M122.051 193.647C124.199 193.647 125.235 193.776 125.469 193.425C125.703 193.073 125.135 190.846 125.135 190.846C124.561 190.987 123.964 191.013 123.38 190.922C123.078 191.285 122.723 191.599 122.327 191.854C121.806 192.135 120.992 192.246 120.688 192.54C120.384 192.833 119.904 193.665 122.051 193.647Z" fill="#3C4145"/>
<path d="M113.022 190.963L113.162 189.679C112.486 189.657 111.81 189.704 111.144 189.82C111.144 189.82 111.296 190.898 111.319 191.057C111.343 191.215 113.022 190.963 113.022 190.963Z" fill="#5C544D"/>
<path d="M109.956 193.647C112.104 193.589 113.14 193.776 113.368 193.425C113.596 193.073 113.034 190.846 113.034 190.846C112.462 190.999 111.862 191.025 111.279 190.922C110.977 191.285 110.622 191.599 110.225 191.854C109.705 192.135 107.803 192.37 107.498 192.663C107.194 192.956 106.931 193.724 109.956 193.647Z" fill="#3C4145"/>
<path d="M122.642 162C123.162 163.609 123.425 165.291 123.42 166.983C123.303 169.286 123.889 171.807 124.123 174.216C124.392 176.895 125.474 183.249 125.515 184.685C125.556 186.121 125.346 190.699 125.346 190.699L123.169 190.752C123.169 190.752 121.343 179.65 120.869 178.513C120.395 177.375 118.048 169.304 117.943 168.395C117.838 167.487 122.642 162 122.642 162Z" fill="#DBD8E3"/>
<path d="M113.491 162.481C113.491 162.481 112.32 168.794 112.139 170.206C111.958 171.619 111.876 177.03 111.8 177.909C111.723 178.788 111.273 189.445 110.852 190.752H113.631C113.631 190.752 115.767 183.008 115.767 179.345C115.767 175.681 117.417 171.379 118.482 168.964C119.547 166.549 121.993 166.49 122.643 162C122.643 162 114.38 161.056 113.491 162.481Z" fill="#DBD8E3"/>
<path d="M119.149 140.898C119.149 140.898 116.954 140.077 115.942 141.748C114.929 143.418 115.029 146.771 116.135 147.182C117.241 147.592 118.897 147.375 119.465 146.332C120.078 145.236 120.438 144.016 120.518 142.762C120.485 142.354 120.34 141.964 120.098 141.635C119.856 141.306 119.527 141.05 119.149 140.898Z" fill="#EEA886"/>
<path d="M116.504 147.076C116.553 147.364 116.533 147.659 116.446 147.938C116.299 148.219 119.202 148.231 119.202 148.231C119.356 147.265 119.585 146.312 119.887 145.382C120.331 144.081 116.504 147.076 116.504 147.076Z" fill="#EEA886"/>
<path d="M119.886 145.37C119.886 145.37 119.688 145.699 118.868 145.576C118.049 145.452 117.048 144.356 116.709 144.233C116.37 144.11 116.364 143.911 116.364 143.911L116.147 144.227H115.784C115.784 144.227 116.118 143.248 115.62 142.85C115.123 142.451 116.135 139.696 118.763 140.611C118.763 140.611 120.641 140.986 120.758 142.129C120.828 143.276 120.522 144.414 119.886 145.37Z" fill="#FCCCA2"/>
<path d="M116.27 147.903C116.27 147.903 116.27 147.363 116.527 147.316C117.523 147.171 118.529 147.114 119.535 147.146V147.774C119.535 147.774 118.956 148.125 116.27 147.903Z" fill="#E2D2CA"/>
<path d="M116.416 143.506C116.463 143.313 116.954 142.762 117.142 143.354C117.329 143.946 116.855 144.737 116.592 144.667C116.328 144.597 116.299 143.993 116.416 143.506Z" fill="#EEA886"/>
<path d="M116.27 147.903C116.27 147.903 114.924 148.389 113.344 149.075C112.806 149.3 112.337 149.666 111.987 150.134C111.638 150.602 111.419 151.155 111.355 151.736C111.249 152.791 110.126 158.395 109.915 158.87C109.704 159.345 107.217 166.959 107.13 167.117C107.042 167.276 109.16 168.161 109.301 168.09C109.441 168.02 111.712 161.138 111.94 160.628C111.94 160.628 113.245 156.525 113.28 155.892C113.28 155.892 113.321 157.651 113.391 158.137C113.461 158.624 112.221 168.178 112.262 168.442C112.303 168.706 117.862 169.028 120.091 168.794C121.449 168.642 122.793 168.387 124.112 168.032C124.112 168.032 122.356 160.499 122.415 159.661C122.532 157.838 123.14 154.386 123.14 154.386L124.954 157.809L122.614 163.8L123.146 165.623C123.146 165.623 127.465 159.081 127.605 158.489C127.649 157.841 127.496 157.196 127.166 156.637C126.938 156.144 125.411 152.404 125.089 151.877C124.767 151.349 124.147 149.239 122.713 148.653C121.668 148.275 120.596 147.975 119.506 147.756L116.27 147.903Z" fill="#63A4FF"/>
<path d="M115.128 163.444L104.953 160.831L103.134 167.94L113.309 170.553L115.128 163.444Z" fill="#F25F54"/>
<path d="M106.257 168.653C106.257 168.653 105.965 169.128 105.859 169.239C105.754 169.351 106.123 169.456 106.275 169.321C106.427 169.187 106.257 168.653 106.257 168.653Z" fill="#C98462"/>
<path d="M108.376 170.265C108.46 170.176 108.531 170.076 108.587 169.966C108.587 169.966 108.633 169.755 108.68 169.603C108.68 169.556 108.709 169.515 108.721 169.491C108.83 169.297 108.909 169.088 108.955 168.87C108.996 168.577 109.125 167.276 109.125 167.276L108.335 167.076L107.703 166.941C107.177 167.444 106.695 167.991 106.263 168.577V168.653C106.247 168.834 106.247 169.017 106.263 169.198C106.263 169.239 106.263 169.697 106.375 169.784C106.43 169.836 106.499 169.872 106.572 169.889C106.646 169.907 106.723 169.905 106.796 169.884C106.951 170.004 107.139 170.075 107.334 170.089C107.417 170.151 107.513 170.193 107.614 170.212C107.716 170.23 107.82 170.224 107.919 170.195C107.919 170.195 108.2 170.376 108.376 170.265Z" fill="#DE9D7D"/>
<path d="M111.453 162.018C111.453 162.018 109.645 167.493 109.312 168.073C108.53 167.897 107.792 167.567 107.141 167.1L109.124 161.197L111.453 162.018Z" fill="#63A4FF"/>
<path d="M274.357 170.576C274.357 170.576 281.058 150.886 268.266 144.784C255.473 138.682 244.607 147.481 242.564 152.258C240.522 157.035 241.055 165.74 242.804 171.772C244.554 177.803 244.302 187.012 240.499 190.125C236.695 193.237 231.984 198.331 232.218 208.747C232.365 215.195 257.615 192.211 257.615 192.211L274.357 170.576Z" fill="#252E3B"/>
<path d="M256.38 193.982C256.38 193.982 245.846 196.326 241.697 198.759C237.549 201.191 228.238 212.44 228.238 217.27C228.238 222.1 268.768 226.62 268.768 226.62L276.446 254.709C276.446 254.709 296.927 249.703 299.373 245.547C301.819 241.391 291.59 211.631 289.84 205.611C288.056 199.462 280.717 195.177 272.18 193.982C266.937 193.269 261.622 193.269 256.38 193.982Z" fill="#FFD255"/>
<path d="M271.466 193.888C271.466 193.888 271.232 206.684 261.096 207.065C250.961 207.446 253.073 194.79 253.073 194.79C253.073 194.79 260.482 191.778 271.466 193.888Z" fill="#EEA886"/>
<path d="M275.756 155.259C275.756 155.259 279.343 175.845 269.132 190.717C258.557 206.121 275.756 155.259 275.756 155.259Z" fill="#252E3B"/>
<path d="M269.295 184.837C269.295 184.837 268.587 190.957 269.763 194.767C270.939 198.577 254.267 198.677 254.279 195.547C254.279 191.989 255.982 189.017 254.384 182.921C252.787 176.824 269.295 184.837 269.295 184.837Z" fill="#EEA886"/>
<path d="M256.362 185.617C256.362 185.617 261.629 191.109 268.353 186.203C268.353 186.203 267.797 189.72 262.957 190.166C258.118 190.611 256.362 185.617 256.362 185.617Z" fill="#A77860"/>
<path d="M262.952 148.12C262.952 148.12 276.259 152.064 274.357 170.558C272.455 189.052 263.765 188.102 262.952 188.237C262.139 188.372 251.834 189.052 248.562 166.613C245.291 144.175 262.952 148.12 262.952 148.12Z" fill="#EEA886"/>
<path d="M259.517 156.367C259.517 156.367 266.75 167.885 274.357 170.558C274.357 170.558 278.512 151.215 261.355 147.182C244.197 143.149 246.883 166.701 248.159 172.973C250.808 166.738 254.669 161.093 259.517 156.367Z" fill="#252E3B"/>
<path d="M249.82 154.632C249.82 154.632 253.63 147.252 260.055 146.918C266.48 146.584 270.302 152.193 270.302 152.193C269.394 150.258 267.941 148.631 266.121 147.513C264.301 146.396 262.195 145.836 260.061 145.904C252.331 145.886 249.82 154.632 249.82 154.632Z" fill="#88C0FF"/>
<path d="M275.984 212.692L280.496 254.703H221.111L216.6 212.692H275.984Z" fill="#5FA0FF"/>
<path d="M279.061 253.261H219.162L214.592 210.728H274.497L279.061 253.261ZM219.624 252.745H278.488L274.029 211.25H215.171L219.624 252.745Z" fill="#5FA0FF"/>
<path d="M252.213 233.021C252.746 235.635 251.529 238.091 249.492 238.507C247.456 238.923 245.396 237.141 244.846 234.527C244.296 231.913 245.531 229.457 247.561 229.04C249.592 228.624 251.698 230.406 252.213 233.021Z" fill="#5189DB"/>
<path d="M274.878 254.703H285.961V250.477H274.878V254.703Z" fill="#5FA0FF"/>
<path d="M240.428 128.553C238.619 128.554 236.851 128.018 235.347 127.013C233.843 126.007 232.671 124.577 231.978 122.904C231.286 121.23 231.104 119.389 231.457 117.612C231.809 115.836 232.68 114.204 233.958 112.923C235.237 111.642 236.866 110.77 238.64 110.417C240.414 110.064 242.252 110.246 243.922 110.939C245.593 111.633 247.02 112.807 248.024 114.314C249.028 115.821 249.564 117.592 249.562 119.403C249.559 121.829 248.596 124.154 246.883 125.87C245.171 127.585 242.849 128.55 240.428 128.553ZM240.428 110.769C238.723 110.768 237.055 111.273 235.637 112.221C234.219 113.169 233.113 114.517 232.46 116.095C231.807 117.672 231.635 119.409 231.967 121.084C232.299 122.759 233.119 124.298 234.325 125.506C235.53 126.714 237.066 127.537 238.738 127.871C240.41 128.205 242.144 128.034 243.719 127.381C245.294 126.727 246.641 125.621 247.588 124.201C248.536 122.781 249.042 121.111 249.042 119.403C249.034 117.118 248.123 114.929 246.509 113.315C244.895 111.7 242.709 110.791 240.428 110.786V110.769Z" fill="#64A4FF"/>
<path d="M79.3154 221.573V220.811C80.8661 220.811 82.4285 220.752 83.9559 220.682L83.991 221.455C82.4461 221.532 80.8778 221.573 79.3154 221.573ZM74.6339 221.526C73.1007 221.485 71.5266 221.414 69.9524 221.315L69.9993 220.535C71.5558 220.635 73.1183 220.705 74.6456 220.752L74.6339 221.526ZM88.6373 221.133L88.5729 220.359C90.1061 220.224 91.6569 220.06 93.1842 219.861L93.2837 220.635C91.7563 220.846 90.1939 220.986 88.649 221.145L88.6373 221.133ZM65.3061 220.94C63.7144 220.781 62.152 220.582 60.6656 220.353L60.7885 219.586C62.2573 219.826 63.808 220.025 65.3822 220.172L65.3061 220.94ZM97.9066 219.949L97.7779 219.187C99.2759 218.935 100.809 218.648 102.342 218.331L102.5 219.093C100.967 219.421 99.4222 219.709 97.9183 219.961L97.9066 219.949ZM56.0719 219.41C54.5095 219.035 52.9939 218.589 51.566 218.102L51.8235 217.364C53.2221 217.845 54.7143 218.284 56.2533 218.653L56.0719 219.41ZM107.088 218.085L106.907 217.329C108.329 216.983 109.833 216.608 111.413 216.156L111.612 216.907C109.979 217.364 108.498 217.739 107.088 218.085ZM47.2474 216.326C45.8299 215.653 44.4612 214.881 43.1511 214.017L43.5841 213.366C44.8654 214.211 46.2027 214.967 47.5868 215.629L47.2474 216.326ZM116.088 215.711L115.866 214.949L117.797 214.398L120.354 213.677L120.559 214.427L118.019 215.125L116.088 215.711ZM156.577 215.06C155.143 214.386 153.71 213.782 152.311 213.302L152.574 212.569C153.996 213.079 155.453 213.689 156.911 214.374L156.577 215.06ZM125.059 213.231L124.872 212.481C126.54 212.053 128.032 211.702 129.425 211.414L129.577 212.176C128.201 212.446 126.721 212.78 125.059 213.214V213.231ZM147.881 211.977C146.385 211.632 144.868 211.381 143.34 211.227L143.416 210.453C144.978 210.611 146.528 210.867 148.057 211.221L147.881 211.977ZM134.135 211.391L134.036 210.623C135.589 210.419 137.151 210.297 138.717 210.26V211.039C137.187 211.075 135.659 211.19 134.141 211.385L134.135 211.391ZM39.4118 211.121C38.2572 210.046 37.2016 208.869 36.2576 207.604L36.8838 207.141C37.7995 208.368 38.8238 209.51 39.9443 210.553L39.4118 211.121ZM33.7999 203.571C33.1078 202.152 32.54 200.675 32.1028 199.157L32.846 198.941C33.2835 200.412 33.8454 201.844 34.5255 203.22L33.7999 203.571ZM31.1373 194.538C30.9333 192.984 30.8278 191.417 30.8213 189.849H31.5996C31.6032 191.39 31.7068 192.929 31.9097 194.456L31.1373 194.538ZM31.8337 185.23L31.0612 185.148C31.2134 183.624 31.4533 182.059 31.7576 180.494L32.5183 180.646C32.214 182.164 31.9858 183.706 31.8337 185.23ZM33.5892 176.144L32.8402 175.927C33.2637 174.411 33.7737 172.919 34.3675 171.461L35.1107 171.748C34.532 173.177 34.0319 174.637 33.6126 176.121L33.5892 176.144Z" fill="#C2BEBC"/>
<path d="M280.372 81.7064C280.372 81.7064 279.062 80.534 276.738 78.8166L277.206 78.1893C279.547 79.9479 280.876 81.1202 280.887 81.1202L280.372 81.7064ZM272.941 76.1319C271.665 75.2819 270.342 74.4437 269.014 73.6407L269.418 72.9724C270.752 73.7813 272.086 74.6254 273.374 75.4871L272.941 76.1319ZM264.982 71.337C263.619 70.5984 262.226 69.8892 260.845 69.2268L261.178 68.5234C262.571 69.1916 263.976 69.9068 265.351 70.6512L264.982 71.337ZM256.608 67.3217C255.169 66.7356 253.717 66.1494 252.278 65.6453L252.541 64.9126C253.986 65.4284 255.467 65.997 256.906 66.6066L256.608 67.3217ZM197.592 66.3721V65.5925C199.128 65.5562 200.659 65.4133 202.174 65.1646L202.297 65.9325C200.741 66.1887 199.169 66.3356 197.592 66.3721ZM192.911 66.1259C191.353 65.9313 189.81 65.6277 188.294 65.2174L188.493 64.4671C189.975 64.8654 191.482 65.163 193.005 65.3581L192.911 66.1259ZM206.885 64.8715L206.663 64.1271C207.166 63.9806 207.669 63.8164 208.178 63.6464C209.144 63.3241 210.139 63.0192 211.104 62.7379L211.315 63.4882C210.349 63.7637 209.372 64.0743 208.389 64.385C207.892 64.5609 207.377 64.725 206.868 64.8715H206.885ZM247.883 64.2033C246.397 63.7637 244.887 63.3651 243.4 63.031L243.576 62.2748C245.074 62.6206 246.601 63.0251 248.105 63.4471L247.883 64.2033ZM183.835 63.7461C182.465 63.2127 181.061 62.5738 179.545 61.8586L179.885 61.1552C181.383 61.8821 182.77 62.4917 184.116 63.0192L183.835 63.7461ZM215.827 62.4038L215.675 61.6417C217.196 61.3369 218.753 61.0556 220.303 60.8914L220.397 61.6652C218.858 61.8528 217.313 62.099 215.809 62.4038H215.827ZM238.854 62.1165C237.326 61.8645 235.776 61.6593 234.26 61.5304L234.336 60.7566C235.869 60.9032 237.432 61.1142 238.982 61.3428L238.854 62.1165ZM102.348 61.378L101.927 60.7215C103.255 59.8598 104.589 59.0216 105.888 58.242L106.286 58.9102C104.999 59.6839 103.671 60.5163 102.348 61.378ZM224.991 61.2725L224.956 60.4987C226.5 60.4225 228.075 60.4108 229.637 60.4518V61.2256C228.069 61.1845 226.518 61.2021 224.991 61.2725ZM175.373 59.7015C174.056 58.9864 172.751 58.2478 171.277 57.433L171.657 56.7531C173.103 57.5737 174.407 58.3064 175.718 59.0216L175.373 59.7015ZM110.307 56.5772L109.932 55.8973C111.325 55.1294 112.718 54.3967 114.075 53.7226L114.42 54.4201C113.074 55.1001 111.693 55.8152 110.307 56.5772ZM167.239 55.1587C165.718 54.3205 164.377 53.6112 163.143 52.9899L163.488 52.2923C164.74 52.9195 166.098 53.6346 167.625 54.4729L167.239 55.1587ZM118.622 52.4564L118.312 51.7413C119.775 51.1024 121.238 50.5162 122.66 49.9828L122.923 50.7097C121.519 51.2431 120.073 51.8234 118.622 52.4564ZM158.924 51.0379C157.437 50.4107 155.998 49.8656 154.599 49.4084L154.839 48.6522C156.284 49.127 157.718 49.6663 159.228 50.3052L158.924 51.0379ZM127.324 49.2794L127.113 48.535C128.64 48.0895 130.174 47.7143 131.666 47.4095L131.818 48.1715C130.349 48.4763 128.839 48.8515 127.324 49.2853V49.2794ZM150.146 48.1891C148.642 47.8697 147.122 47.6329 145.593 47.4799L145.681 46.7061C147.236 46.8747 148.781 47.1271 150.31 47.4623L150.146 48.1891ZM136.382 47.4799L136.3 46.7061C137.875 46.542 139.449 46.4541 140.982 46.4482V47.2278C139.445 47.2311 137.91 47.3152 136.382 47.4799Z" fill="#C2BEBC"/>
<path d="M183.601 223.583L164.079 217.897L169.931 216.127L183.601 223.583Z" fill="#D6D6D6"/>
<path d="M183.601 223.583L176.304 216.238L171.815 217.153L183.601 223.583Z" fill="#E8E8E8"/>
<path d="M168.567 219.204L168.725 221.467L183.601 223.583L168.567 219.204Z" fill="#C2C2C2"/>
<path d="M85.3486 74.3089L102.559 64.6722L96.6426 64.2795L85.3486 74.3089Z" fill="#D6D6D6"/>
<path d="M85.3486 74.3089L90.6445 65.7801L95.0861 65.6629L85.3486 74.3089Z" fill="#E8E8E8"/>
<path d="M98.5972 66.888L98.9424 69.0568L85.3486 74.3089L98.5972 66.888Z" fill="#C2C2C2"/>
<defs>
<linearGradient id="paint0_linear_152_37608" x1="257.281" y1="178.466" x2="347.633" y2="178.466" gradientUnits="userSpaceOnUse">
<stop stop-color="#D4D4D4"/>
<stop offset="1" stop-color="#A4A4A4"/>
</linearGradient>
<linearGradient id="paint1_linear_152_37608" x1="79.0069" y1="120.265" x2="145.8" y2="113.529" gradientUnits="userSpaceOnUse">
<stop stop-color="#CBCBCB"/>
<stop offset="1" stop-color="#A9A9A9"/>
</linearGradient>
</defs>
</svg>
