<svg width="444" height="280" viewBox="0 0 444 280" fill="none" xmlns="http://www.w3.org/2000/svg">
<g clip-path="url(#clip0_152_37503)">
<path d="M119.853 57.3213C119.181 55.9143 118.955 54.3346 119.206 52.7948C119.456 51.2551 120.17 49.8291 121.253 48.7088C122.335 47.5886 123.734 46.8277 125.261 46.5286C126.787 46.2295 128.369 46.4065 129.792 47.0359C129.708 40.7791 134.196 35.3773 139.208 31.6272C141.791 29.6841 144.697 28.0195 147.9 27.6632C152.117 27.1839 156.334 29.1206 159.479 31.9769C162.624 34.8333 164.865 38.5446 166.932 42.2624C167.6 41.1851 168.645 40.3968 169.862 40.0518C171.079 39.7069 172.381 39.8301 173.512 40.3975C174.644 40.9648 175.523 41.9353 175.978 43.1189C176.433 44.3025 176.432 45.6139 175.973 46.7962C180.978 45.9672 186.209 50.2161 186.429 55.2941" fill="white"/>
<path d="M283.486 29.412C284.044 28.2337 284.23 26.9124 284.019 25.6251C283.808 24.3379 283.209 23.1461 282.303 22.2097C281.398 21.2732 280.228 20.6367 278.952 20.3855C277.675 20.1342 276.353 20.2803 275.162 20.8041C275.233 15.5642 271.474 11.0238 267.276 7.90194C265.113 6.29564 262.678 4.88366 259.998 4.57924C256.466 4.18415 252.94 5.80339 250.311 8.19988C247.683 10.5964 245.791 13.6924 244.073 16.8078C243.526 15.8847 242.651 15.2027 241.625 14.8982C240.598 14.5937 239.495 14.6891 238.535 15.1654C237.575 15.6417 236.83 16.4637 236.449 17.4671C236.068 18.4705 236.078 19.5813 236.478 20.5774C232.293 19.8844 227.908 23.4467 227.728 27.7021" fill="white"/>
<path d="M75.403 94.5187C75.8476 93.5869 75.9971 92.5409 75.8314 91.5214C75.6657 90.5018 75.1928 89.5576 74.4762 88.8156C73.7596 88.0737 72.8337 87.5695 71.823 87.3709C70.8122 87.1723 69.7651 87.2889 68.8223 87.7049C68.8805 83.5596 65.9098 79.9714 62.5904 77.5036C60.8725 76.2082 58.9545 75.1136 56.8298 74.874C54.04 74.5631 51.2501 75.8455 49.1642 77.7368C47.0783 79.6281 45.5994 82.0829 44.2303 84.5441C43.8016 83.8071 43.1101 83.2607 42.2953 83.0154C41.4805 82.77 40.6032 82.8439 39.8407 83.2222C39.0782 83.6005 38.4872 84.2549 38.1872 85.0533C37.8871 85.8517 37.9004 86.7346 38.2244 87.5235C37.3987 87.4239 36.5616 87.4916 35.7626 87.7225C34.9635 87.9534 34.2188 88.3428 33.5726 88.8677C32.9264 89.3926 32.3918 90.0423 32.0006 90.7782C31.6093 91.5141 31.3694 92.3214 31.2949 93.152" fill="white"/>
<path d="M370.469 94.5187C370.913 93.5869 371.063 92.5409 370.897 91.5214C370.732 90.5018 370.259 89.5576 369.542 88.8156C368.825 88.0737 367.899 87.5695 366.889 87.3709C365.878 87.1723 364.831 87.2889 363.888 87.7049C363.946 83.5596 360.976 79.9714 357.656 77.5036C355.938 76.2082 354.02 75.1136 351.902 74.874C349.106 74.5631 346.316 75.8455 344.23 77.7368C342.144 79.6281 340.665 82.0829 339.296 84.5441C338.867 83.8071 338.176 83.2607 337.361 83.0154C336.546 82.77 335.669 82.8439 334.907 83.2222C334.144 83.6005 333.553 84.2549 333.253 85.0533C332.953 85.8517 332.966 86.7346 333.29 87.5235C332.465 87.4258 331.629 87.4948 330.831 87.7265C330.033 87.9582 329.29 88.3478 328.644 88.8725C327.999 89.3971 327.465 90.0461 327.074 90.7811C326.683 91.5161 326.443 92.3223 326.367 93.152" fill="white"/>
<path d="M322.834 115.012C322.834 114.415 322.658 113.831 322.327 113.335C321.996 112.839 321.526 112.452 320.977 112.223C320.427 111.995 319.822 111.935 319.238 112.052C318.654 112.168 318.118 112.456 317.697 112.878C317.276 113.3 316.989 113.838 316.873 114.423C316.757 115.009 316.817 115.615 317.045 116.167C317.272 116.718 317.658 117.19 318.153 117.521C318.648 117.853 319.23 118.03 319.825 118.03C320.22 118.031 320.612 117.954 320.978 117.802C321.343 117.651 321.675 117.428 321.955 117.148C322.234 116.868 322.456 116.534 322.607 116.168C322.758 115.801 322.835 115.408 322.834 115.012Z" fill="white"/>
<path d="M155.753 88.3072C155.753 87.7948 155.602 87.2939 155.318 86.8679C155.034 86.4418 154.631 86.1097 154.159 85.9136C153.687 85.7175 153.167 85.6662 152.666 85.7662C152.165 85.8662 151.705 86.1129 151.344 86.4753C150.982 86.8376 150.736 87.2992 150.637 87.8018C150.537 88.3044 150.588 88.8253 150.784 89.2987C150.979 89.7721 151.31 90.1767 151.735 90.4614C152.16 90.7461 152.659 90.898 153.17 90.898C153.855 90.898 154.512 90.6251 154.997 90.1392C155.481 89.6533 155.753 88.9944 155.753 88.3072Z" fill="white"/>
<path d="M174.21 60.3137C174.212 59.7162 174.036 59.1317 173.706 58.6344C173.376 58.137 172.906 57.7492 172.355 57.5199C171.805 57.2907 171.2 57.2304 170.615 57.3466C170.031 57.4629 169.494 57.7505 169.073 58.173C168.652 58.5955 168.365 59.1339 168.249 59.72C168.133 60.3061 168.193 60.9135 168.422 61.4653C168.65 62.017 169.037 62.4884 169.533 62.8195C170.029 63.1507 170.612 63.3268 171.207 63.3255C172.003 63.3238 172.766 63.0059 173.329 62.4415C173.892 61.877 174.209 61.1119 174.21 60.3137Z" fill="white"/>
<path d="M162.198 55.1321C162.198 54.9618 162.148 54.7952 162.054 54.6535C161.959 54.5119 161.825 54.4015 161.668 54.3363C161.511 54.2711 161.338 54.254 161.172 54.2872C161.005 54.3205 160.852 54.4025 160.732 54.523C160.612 54.6435 160.53 54.797 160.497 54.9641C160.464 55.1312 160.481 55.3044 160.546 55.4618C160.611 55.6192 160.721 55.7537 160.862 55.8484C161.003 55.943 161.17 55.9936 161.339 55.9936C161.567 55.9936 161.786 55.9028 161.947 55.7413C162.108 55.5797 162.198 55.3606 162.198 55.1321Z" fill="white"/>
<path d="M256.259 65.4824C257.447 65.4824 258.409 64.5167 258.409 63.3255C258.409 62.1343 257.447 61.1687 256.259 61.1687C255.071 61.1687 254.108 62.1343 254.108 63.3255C254.108 64.5167 255.071 65.4824 256.259 65.4824Z" fill="white"/>
<path d="M396.282 224C396.282 223.403 396.105 222.82 395.774 222.323C395.444 221.827 394.974 221.44 394.424 221.212C393.874 220.983 393.269 220.923 392.685 221.04C392.101 221.156 391.565 221.444 391.144 221.866C390.723 222.288 390.437 222.826 390.321 223.411C390.204 223.997 390.264 224.604 390.492 225.155C390.72 225.707 391.105 226.178 391.6 226.51C392.095 226.841 392.677 227.018 393.272 227.018C394.07 227.018 394.836 226.7 395.4 226.134C395.965 225.568 396.282 224.801 396.282 224Z" fill="white"/>
<path d="M78.4444 158.524C78.4444 158.183 78.3437 157.85 78.1549 157.567C77.9662 157.284 77.6979 157.063 77.384 156.932C77.0701 156.802 76.7247 156.768 76.3915 156.834C76.0583 156.901 75.7522 157.065 75.5119 157.306C75.2717 157.547 75.1081 157.854 75.0418 158.188C74.9755 158.522 75.0095 158.869 75.1396 159.184C75.2696 159.498 75.4897 159.767 75.7722 159.957C76.0547 160.146 76.3869 160.247 76.7266 160.247C77.1822 160.247 77.6191 160.066 77.9413 159.742C78.2634 159.419 78.4444 158.981 78.4444 158.524Z" fill="white"/>
<path d="M75.8684 119.753C75.8684 118.901 75.6166 118.068 75.1447 117.36C74.6728 116.652 74.002 116.1 73.2173 115.774C72.4326 115.448 71.5691 115.362 70.736 115.529C69.903 115.695 69.1378 116.105 68.5371 116.707C67.9365 117.31 67.5275 118.077 67.3618 118.913C67.1961 119.748 67.2812 120.614 67.6062 121.401C67.9313 122.188 68.4817 122.861 69.1879 123.334C69.8942 123.808 70.7245 124.06 71.5739 124.06C72.7129 124.06 73.8052 123.606 74.6106 122.799C75.416 121.991 75.8684 120.895 75.8684 119.753Z" fill="white"/>
<g style="mix-blend-mode:multiply">
<g style="mix-blend-mode:multiply" opacity="0.68">
<g style="mix-blend-mode:multiply" opacity="0.68">
<path d="M3.56443 280C-1.0595 274.747 -1.00137 259.533 2.67323 253.574C4.58039 250.623 7.3554 248.34 10.6138 247.042C13.8721 245.743 17.4526 245.493 20.8589 246.326C17.6816 233.929 20.2906 220.781 24.1461 208.578C27.0069 199.511 30.6945 190.443 37.1395 183.487C47.0526 172.767 62.5194 168.408 77.0564 169.548C91.5933 170.688 105.329 176.757 117.858 184.238C126.176 151.853 135.495 117.635 159.59 94.4863C190.317 64.9642 241.47 61.5249 277.771 83.7669C314.071 106.009 334.265 150.616 330.726 193.137C344.043 191.809 358.296 193.83 368.912 201.998C379.529 210.165 385.251 225.509 379.62 237.686C407.312 231.319 438.252 251.242 444 279.139" fill="#A5CDF2"/>
</g>
</g>
<g style="mix-blend-mode:screen" opacity="0.24">
<g style="mix-blend-mode:screen" opacity="0.24">
<path d="M3.56443 280C-1.0595 275.686 -1.00137 263.218 2.67323 258.328C6.34782 253.438 14.1103 250.905 20.8589 252.382C17.6816 242.213 20.2906 231.429 24.1461 221.422C27.0069 213.993 30.6945 206.558 37.1395 200.845C47.0526 192.049 62.5194 188.474 77.0564 189.413C91.5933 190.352 105.329 195.32 117.858 201.454C126.176 174.898 135.495 146.833 159.59 127.843C190.317 103.632 241.47 100.814 277.771 119.053C314.071 137.293 334.265 173.881 330.726 208.76C344.043 207.665 358.296 209.323 368.912 216.027C379.529 222.731 385.251 235.309 379.62 245.29C407.312 240.069 438.252 256.417 444 279.301" fill="#A5CDF2"/>
</g>
</g>
</g>
<g opacity="0.28">
<path opacity="0.28" d="M174.087 209.744C171.547 214.861 168.94 219.939 166.267 224.978C163.232 230.699 160.102 236.369 156.877 241.987C161.417 254.132 165.039 266.603 167.713 279.294L198.163 279.229C191.411 255.643 183.374 232.447 174.087 209.744Z" fill="#4F6AFF"/>
<path opacity="0.28" d="M153.241 232.776C154.184 235.048 155.099 237.332 155.986 239.629C161.949 229.201 167.58 218.596 172.88 207.814C172.94 207.682 173.031 207.566 173.145 207.477C172.331 205.534 171.5 203.591 170.652 201.648C164.521 211.782 158.746 222.115 153.325 232.647C153.3 232.692 153.272 232.735 153.241 232.776Z" fill="#4F6AFF"/>
<path opacity="0.28" d="M118.8 244.979C121.849 250.53 124.936 256.081 127.396 261.923C129.553 267.04 131.439 272.61 131.381 278.238C134.717 273.579 137.946 268.851 141.068 264.054C145.803 256.769 150.354 249.351 154.72 241.799C148.351 224.954 140.269 208.812 130.599 193.629C124.782 184.495 118.397 175.736 111.484 167.404H111.387C106.733 167.892 102.096 168.51 97.4761 169.257C93.8424 169.852 90.2238 170.53 86.6202 171.29C87.5347 174.439 88.9265 177.427 90.7469 180.151C103.211 198.422 86.0649 191.635 76.3649 196.499C75.7162 196.826 75.1 197.214 74.5244 197.658C81.7961 200.54 87.9054 205.521 93.4463 210.962C103.637 220.982 111.942 232.491 118.8 244.979Z" fill="#4F6AFF"/>
<path opacity="0.28" d="M159.118 254.371C158.029 250.942 156.862 247.54 155.618 244.163C148.605 256.243 141.101 268.037 132.957 279.378L165.731 279.301C163.948 270.884 161.741 262.563 159.118 254.371Z" fill="#4F6AFF"/>
<path opacity="0.28" d="M110.018 165.623C103.147 157.485 95.7752 149.786 87.9449 142.571C84.6061 150.681 83.9732 160.707 86.1237 169.406C94.024 167.769 101.989 166.508 110.018 165.623Z" fill="#4F6AFF"/>
<path opacity="0.28" d="M102.888 128.154C102.571 130.945 105.032 133.879 107.97 133.439C110.631 133.044 112.368 130.013 111.632 127.493C111.608 127.411 111.592 127.326 111.587 127.24C108.669 126.879 105.708 127.099 102.875 127.888C102.888 127.976 102.893 128.065 102.888 128.154Z" fill="#4F6AFF"/>
<path opacity="0.28" d="M124.445 260.032C121.926 254.565 118.962 249.319 116.05 244.053C112.679 237.915 108.844 232.045 104.58 226.494C100.366 221.005 95.737 215.849 90.7343 211.072C85.7746 206.344 80.2724 202.004 73.8402 199.491C73.6812 199.439 73.5383 199.347 73.4252 199.223C73.3121 199.099 73.2326 198.949 73.1944 198.785C66.3683 205.191 60.5496 220.69 76.3394 234.026C94.5574 249.416 90.7214 251.339 87.8476 262.875C84.9738 274.41 89.5138 279.475 89.5138 279.475L129.347 279.385C129.786 272.681 127.196 266.01 124.445 260.032Z" fill="#4F6AFF"/>
<path opacity="0.28" d="M88.8231 140.745C98.1516 149.288 106.834 158.515 114.797 168.35C129.029 185.92 140.941 205.258 150.239 225.885C150.923 227.407 151.595 228.929 152.247 230.464C157.517 220.295 163.114 210.312 169.038 200.515C169.126 200.355 169.26 200.226 169.422 200.144C169.585 200.062 169.768 200.031 169.948 200.055C154.792 165.552 134.882 131.904 113.641 127.571C114.287 131.055 111.807 134.851 108.217 135.343C104.342 135.9 100.732 132.351 100.893 128.529C95.5007 130.719 91.4516 135.155 88.7715 140.687L88.8231 140.745Z" fill="#4F6AFF"/>
<path opacity="0.28" d="M147.087 279.883C147.087 279.883 133.428 259.157 118.704 240.704C114.549 245.696 110.541 250.802 106.679 256.022L106.621 256.087C112.786 263.328 118.599 270.852 124.058 278.659C124.138 278.758 124.178 278.884 124.17 279.012C124.161 279.139 124.105 279.258 124.012 279.346L147.087 279.883Z" fill="white"/>
<path opacity="0.28" d="M105.82 255.122C109.695 249.871 113.731 244.733 117.929 239.707C115.721 236.961 113.499 234.279 111.303 231.734C107.848 238.12 104.69 244.688 102.869 251.735C103.864 252.857 104.847 253.986 105.82 255.122Z" fill="white"/>
<path opacity="0.28" d="M123.011 279.275C120.738 276.023 118.403 272.819 116.004 269.663C115.303 268.743 114.594 267.825 113.88 266.91H113.738C104.277 266.91 94.7383 266.729 85.413 268.536C84.6315 268.685 84.3022 267.493 85.0836 267.338C94.254 265.563 103.612 265.647 112.918 265.666C106.14 257.066 98.8915 248.849 91.2058 241.054C91.1682 241.495 91.0239 241.92 90.7853 242.293C90.5467 242.665 90.2211 242.974 89.8367 243.191C82.5262 247.466 81.9192 232.18 69.1259 238.301C56.3326 244.422 94.1312 278.646 94.1312 278.646L123.076 279.294L123.011 279.275Z" fill="white"/>
<path opacity="0.28" d="M97.5673 245.905C99.0268 247.464 100.465 249.038 101.881 250.627C103.819 243.632 106.977 237.103 110.432 230.736C100.829 219.725 91.768 211.577 86.7889 212.665C75.3453 215.159 89.5142 231.112 91.0964 239.221C93.2878 241.41 95.4448 243.638 97.5673 245.905Z" fill="white"/>
</g>
<g opacity="0.28">
<path opacity="0.28" d="M260.463 209.744C263.003 214.861 265.61 219.939 268.284 224.978C271.319 230.699 274.449 236.369 277.674 241.987C273.131 254.131 269.508 266.603 266.837 279.294L236.388 279.229C243.139 255.643 251.176 232.447 260.463 209.744Z" fill="#4F6AFF"/>
<path opacity="0.28" d="M281.31 232.776C280.363 235.048 279.448 237.332 278.565 239.629C272.607 229.201 266.975 218.596 261.671 207.814C261.611 207.682 261.52 207.566 261.406 207.477C262.22 205.534 263.051 203.591 263.899 201.648C270.03 211.782 275.805 222.115 281.226 232.647C281.251 232.692 281.279 232.735 281.31 232.776Z" fill="#4F6AFF"/>
<path opacity="0.28" d="M315.75 244.979C312.702 250.53 309.615 256.081 307.155 261.923C304.998 267.04 303.112 272.61 303.17 278.238C299.829 273.579 296.6 268.851 293.483 264.054C288.747 256.769 284.197 249.351 279.831 241.799C286.197 224.953 294.28 208.81 303.952 193.629C309.765 184.493 316.147 175.734 323.061 167.404H323.164C327.814 167.892 332.451 168.51 337.075 169.257C340.713 169.852 344.331 170.53 347.931 171.29C347.016 174.439 345.624 177.427 343.804 180.151C331.34 198.422 348.486 191.635 358.186 196.499C358.832 196.826 359.447 197.214 360.02 197.658C352.748 200.54 346.639 205.521 341.104 210.962C330.914 220.982 322.609 232.491 315.75 244.979Z" fill="#4F6AFF"/>
<path opacity="0.28" d="M275.426 254.371C276.524 250.942 277.693 247.54 278.933 244.163C285.946 256.242 293.45 268.037 301.594 279.378L268.819 279.301C270.604 270.885 272.809 262.564 275.426 254.371Z" fill="#4F6AFF"/>
<path opacity="0.28" d="M324.533 165.623C331.413 157.482 338.796 149.783 346.639 142.571C349.978 150.681 350.611 160.707 348.46 169.406C340.538 167.769 332.563 166.508 324.533 165.623Z" fill="#4F6AFF"/>
<path opacity="0.28" d="M331.663 128.154C331.979 130.945 329.519 133.879 326.58 133.439C323.913 133.044 322.176 130.013 322.919 127.493C322.944 127.411 322.957 127.326 322.957 127.24C325.878 126.878 328.84 127.099 331.676 127.888C331.656 127.975 331.652 128.065 331.663 128.154Z" fill="#4F6AFF"/>
<path opacity="0.28" d="M310.106 260.032C312.618 254.565 315.589 249.319 318.501 244.053C321.87 237.914 325.705 232.043 329.971 226.494C334.183 221.003 338.812 215.847 343.817 211.072C348.776 206.344 354.279 202.004 360.711 199.491C360.87 199.439 361.013 199.347 361.126 199.223C361.239 199.099 361.318 198.949 361.357 198.785C368.183 205.191 374.001 220.69 358.212 234.026C339.948 249.442 343.784 251.339 346.639 262.875C349.493 274.41 344.973 279.475 344.973 279.475L305.14 279.385C304.765 272.681 307.355 266.01 310.106 260.032Z" fill="#4F6AFF"/>
<path opacity="0.28" d="M345.728 140.745C336.395 149.287 327.709 158.515 319.741 168.35C305.51 185.921 293.596 205.259 284.293 225.885C283.609 227.407 282.943 228.929 282.285 230.464C277.019 220.295 271.422 210.312 265.494 200.515C265.408 200.355 265.275 200.225 265.113 200.143C264.952 200.061 264.769 200.03 264.59 200.055C279.747 165.552 299.657 131.904 320.897 127.571C320.251 131.055 322.731 134.851 326.322 135.343C330.197 135.9 333.807 132.351 333.645 128.529C339.038 130.719 343.087 135.155 345.767 140.687L345.728 140.745Z" fill="#4F6AFF"/>
<path opacity="0.28" d="M287.451 279.883C287.451 279.883 301.11 259.157 315.834 240.704C319.989 245.696 323.997 250.802 327.859 256.022L327.91 256.087C321.75 263.315 315.937 270.835 310.474 278.646C310.394 278.745 310.354 278.871 310.362 278.999C310.37 279.126 310.427 279.245 310.519 279.333L287.451 279.883Z" fill="white"/>
<path opacity="0.28" d="M328.731 255.122C324.856 249.871 320.82 244.733 316.622 239.707C318.831 236.961 321.052 234.279 323.248 231.734C326.703 238.12 329.861 244.688 331.682 251.735C330.688 252.857 329.704 253.986 328.731 255.122Z" fill="white"/>
<path opacity="0.28" d="M311.539 279.275C313.812 276.023 316.148 272.819 318.546 269.663C319.248 268.743 319.956 267.826 320.671 266.91H320.813C330.267 266.91 339.812 266.729 349.138 268.536C349.919 268.685 350.248 267.493 349.467 267.338C340.297 265.563 330.939 265.647 321.633 265.667C328.411 257.066 335.659 248.849 343.345 241.054C343.382 241.495 343.527 241.92 343.765 242.293C344.004 242.665 344.329 242.974 344.714 243.191C352.024 247.466 352.631 232.18 365.425 238.301C378.218 244.422 340.445 278.627 340.445 278.627L311.507 279.275H311.539Z" fill="white"/>
<path opacity="0.28" d="M343.454 239.202C345.037 231.112 359.205 215.159 347.755 212.646C342.776 211.558 333.722 219.732 324.119 230.717C327.568 237.084 330.758 243.612 332.67 250.608C334.09 249.018 335.528 247.445 336.983 245.886C339.115 243.632 341.272 241.404 343.454 239.202Z" fill="white"/>
</g>
<g opacity="0.61">
<path opacity="0.61" d="M31.7275 280C33.5552 270.66 47.2655 261.353 56.5069 263.542C59.174 252.913 73.6076 247.395 82.6553 253.548C85.6066 242.246 89.2683 229.907 99.0457 223.54C110.173 216.286 125.678 219.835 135.953 228.268C146.228 236.701 152.447 248.995 158.382 260.88C159.318 257.881 163.548 257.104 166.28 258.652C169.012 260.2 170.549 263.186 171.879 266.036C179.312 262.238 185.682 256.637 190.408 249.743C195.135 242.849 198.069 234.879 198.944 226.558L226.636 220.677C229.297 232.129 232.332 244.267 240.805 252.415C249.278 260.563 265.107 262.013 271.687 252.279C273.14 250.122 274.206 247.44 276.557 246.326C281.168 244.131 285.598 249.565 287.864 254.144C291.952 246.119 304.849 244.804 310.467 251.845C315.117 235.866 332.186 224.551 348.667 226.52C365.147 228.489 379.084 243.509 379.865 260.135C390.766 255.932 409.036 267.908 412.271 279.165" fill="white"/>
</g>
<g opacity="0.79">
<path opacity="0.79" d="M200.824 233.418C199.809 235.717 199.191 238.172 198.996 240.678C198.943 241.056 198.976 241.442 199.093 241.805C199.308 242.195 199.658 242.493 200.077 242.642C200.495 242.791 200.954 242.781 201.366 242.615C202.184 242.256 202.897 241.694 203.439 240.983C203.685 245.25 204.78 249.426 206.66 253.262C208.54 257.099 211.167 260.519 214.385 263.322C214.495 263.486 214.644 263.621 214.818 263.714C214.992 263.807 215.186 263.856 215.383 263.856C215.58 263.856 215.775 263.807 215.949 263.714C216.123 263.621 216.271 263.486 216.381 263.322C219.414 260.291 221.756 256.638 223.247 252.613C224.737 248.587 225.341 244.286 225.015 240.005C226.52 240.989 228.606 239.357 228.748 237.543C228.89 235.73 227.812 234.091 226.778 232.601" fill="white"/>
</g>
<path d="M234.424 218.669V205.035H194.992V218.566C189.825 221.927 187.326 227.809 187.326 234.441H242.096C242.096 227.809 239.591 222.031 234.424 218.669Z" fill="#18004C"/>
<path d="M207.851 208.293C216.485 211.836 234.425 218.618 234.425 218.618V205.016H199.875C202.51 206.175 205.209 207.205 207.851 208.293Z" fill="#0A0A0A"/>
<path d="M250.621 154.23L265.526 171.718C267.32 173.822 268.654 176.28 269.443 178.932C270.232 181.585 270.457 184.374 270.105 187.12L266.049 218.728C265.982 219.255 265.808 219.762 265.539 220.22C265.27 220.678 264.911 221.076 264.484 221.391C264.058 221.705 263.572 221.93 263.056 222.051C262.54 222.173 262.005 222.188 261.484 222.096C260.542 221.927 259.695 221.419 259.1 220.668C258.506 219.916 258.205 218.973 258.255 218.015L259.017 203.766C259.241 199.526 257.942 195.346 255.355 191.985C252.768 188.624 249.065 186.305 244.919 185.449L250.621 154.23Z" fill="#FF3040"/>
<path d="M179.726 154.23L164.815 171.718C163.023 173.823 161.691 176.281 160.903 178.934C160.116 181.586 159.891 184.375 160.242 187.12L164.298 218.728C164.366 219.255 164.54 219.762 164.809 220.22C165.078 220.678 165.436 221.076 165.863 221.391C166.29 221.705 166.776 221.93 167.291 222.051C167.807 222.173 168.342 222.188 168.864 222.096C169.805 221.927 170.653 221.419 171.247 220.668C171.842 219.916 172.142 218.973 172.093 218.015L171.331 203.766C171.106 199.526 172.405 195.346 174.992 191.985C177.579 188.624 181.282 186.305 185.428 185.449L179.726 154.23Z" fill="#FF3040"/>
<path d="M260.153 165.416L250.621 154.23L244.919 185.449C246.567 185.794 248.158 186.369 249.646 187.159C252.998 179.846 256.479 172.579 260.153 165.416Z" fill="#CF0019"/>
<path d="M171.743 174.244C174.972 178.441 178.298 182.58 181.604 186.725C182.825 186.147 184.108 185.712 185.428 185.43L179.725 154.23L167.688 168.363C169.179 170.422 170.516 172.657 171.743 174.244Z" fill="#CF0019"/>
<path d="M187.056 200.398C187.056 200.398 177.847 176.653 178.286 151.594C178.725 126.534 172.59 71.1368 190.123 35.0535C200.585 13.5758 207.147 4.74122 210.737 1.11411C211.12 0.728992 211.58 0.431043 212.088 0.240551C212.595 0.0500597 213.138 -0.0284995 213.678 0.0102234C214.219 0.0489462 214.745 0.20404 215.22 0.464947C215.696 0.725853 216.109 1.08644 216.433 1.52216C221.948 8.92535 236.15 28.3887 239.682 36.8412C244.067 47.3922 254.148 67.6198 250.661 154.23C250.661 154.23 248.904 186.33 242.769 200.398H187.056Z" fill="white"/>
<path opacity="0.37" d="M187.592 63.591C190.143 46.3752 194.315 28.5311 204.66 14.204C205.052 13.6489 205.559 13.185 206.146 12.8439C208.768 8.57554 211.474 4.35902 214.063 0.0777383C213.467 -0.0348222 212.852 0.000769751 212.272 0.181409C211.692 0.362049 211.165 0.682246 210.737 1.11405C207.147 4.74117 200.585 13.5758 190.123 35.0535C172.59 71.1108 178.725 126.508 178.286 151.568C177.847 176.627 187.056 200.372 187.056 200.372L243.189 200.113C188.522 199.569 184.105 150.344 183.381 123.14C182.858 103.269 184.679 83.2487 187.592 63.591Z" fill="#95A1E6"/>
<path d="M232.559 35.5393C234.935 35.915 237.303 36.3467 239.663 36.8347C236.149 28.3822 221.948 8.91888 216.414 1.51569C216.09 1.07998 215.676 0.719385 215.201 0.458478C214.725 0.197572 214.2 0.0424764 213.659 0.00375355C213.118 -0.0349693 212.576 0.0435911 212.068 0.234083C211.561 0.424574 211.1 0.722523 210.718 1.10764C207.147 4.74123 200.585 13.5758 190.123 35.0535C189.897 35.5199 189.697 35.9927 189.478 36.459C203.498 32.9809 218.351 33.2918 232.559 35.5393Z" fill="#FF3040"/>
<path d="M205.022 19.2367C209.168 13.7378 213.043 8.03801 217.195 2.54553C216.93 2.18281 216.672 1.83953 216.433 1.52216C216.109 1.08644 215.696 0.725853 215.22 0.464947C214.745 0.20404 214.219 0.0489462 213.678 0.0102234C213.138 -0.0284995 212.595 0.0500597 212.088 0.240551C211.58 0.431043 211.12 0.728992 210.737 1.11411C207.147 4.74122 200.585 13.5758 190.123 35.0535C189.897 35.5198 189.697 35.9927 189.478 36.459C191.46 35.9668 193.456 35.5587 195.464 35.209C197.673 29.4121 201.263 24.2175 205.022 19.2367Z" fill="#CF0019"/>
<path d="M240.799 207.633H189.419C188.87 207.633 188.325 207.524 187.818 207.313C187.31 207.102 186.849 206.793 186.46 206.403C186.071 206.014 185.763 205.551 185.553 205.042C185.343 204.533 185.234 203.987 185.234 203.436C185.236 202.324 185.678 201.258 186.462 200.472C187.247 199.686 188.31 199.245 189.419 199.245H240.799C241.908 199.245 242.971 199.686 243.756 200.472C244.54 201.258 244.982 202.324 244.984 203.436C244.984 203.987 244.875 204.533 244.665 205.042C244.455 205.551 244.147 206.014 243.758 206.403C243.369 206.793 242.908 207.102 242.4 207.313C241.893 207.524 241.348 207.633 240.799 207.633Z" fill="#18004C"/>
<path d="M213.914 54.8277C209.542 54.8277 205.268 56.128 201.633 58.5641C197.998 61.0003 195.164 64.4629 193.491 68.5141C191.818 72.5652 191.38 77.023 192.233 81.3237C193.086 85.6244 195.192 89.5748 198.283 92.6755C201.375 95.7761 205.314 97.8877 209.602 98.7431C213.89 99.5986 218.335 99.1595 222.374 97.4815C226.413 95.8034 229.866 92.9618 232.295 89.3158C234.724 85.6699 236.02 81.3834 236.02 76.9984C236.018 71.1189 233.689 65.4807 229.544 61.3232C225.398 57.1658 219.777 54.8294 213.914 54.8277ZM213.914 92.7116C210.816 92.7116 207.787 91.79 205.21 90.0634C202.634 88.3368 200.626 85.8828 199.44 83.0116C198.254 80.1404 197.944 76.981 198.548 73.9329C199.153 70.8849 200.645 68.0851 202.836 65.8875C205.027 63.69 207.819 62.1935 210.858 61.5872C213.897 60.9809 217.047 61.2921 219.91 62.4813C222.773 63.6706 225.22 65.6846 226.941 68.2686C228.663 70.8527 229.581 73.8906 229.581 76.9984C229.578 81.1636 227.926 85.1569 224.988 88.1009C222.05 91.0449 218.067 92.6986 213.914 92.6986V92.7116Z" fill="#18004C"/>
<path opacity="0.37" d="M217.434 92.3171C225.865 90.3679 231.125 81.9325 229.181 73.4761C227.238 65.0197 218.827 59.7446 210.396 61.6938C201.964 63.643 196.704 72.0784 198.648 80.5348C200.591 88.9912 209.002 94.2663 217.434 92.3171Z" fill="#95A1E6"/>
<g opacity="0.6">
<path opacity="0.6" d="M198.306 78.093C198.453 80.3823 199.101 82.6109 200.203 84.6209C201.306 86.6308 202.836 88.3726 204.685 89.7228C206.534 91.0729 208.657 91.9983 210.903 92.4331C213.149 92.8679 215.462 92.8016 217.68 92.2388C211.153 87.6142 204.695 82.8989 198.306 78.093Z" fill="#FCFAF5"/>
<path opacity="0.6" d="M225.875 87.1154C227.257 85.4667 228.287 83.5501 228.899 81.4851C229.512 79.42 229.694 77.2507 229.434 75.1121C229.174 72.9735 228.479 70.9113 227.39 69.054C226.302 67.1966 224.844 65.5838 223.107 64.316C221.37 63.0481 219.392 62.1523 217.295 61.6843C215.198 61.2163 213.028 61.1862 210.919 61.5957C208.81 62.0053 206.808 62.8457 205.037 64.0648C203.265 65.2839 201.763 66.8556 200.624 68.6819C208.942 74.9776 217.359 81.1221 225.875 87.1154Z" fill="#FCFAF5"/>
</g>
<path d="M215.406 58.1245C215.406 57.8286 215.319 57.5393 215.155 57.2932C214.991 57.0472 214.758 56.8554 214.486 56.7422C214.213 56.6289 213.913 56.5993 213.624 56.657C213.334 56.7148 213.068 56.8573 212.86 57.0665C212.651 57.2758 212.509 57.5424 212.452 57.8326C212.394 58.1228 212.423 58.4237 212.536 58.697C212.649 58.9704 212.841 59.2041 213.086 59.3685C213.331 59.5329 213.62 59.6207 213.915 59.6207C214.111 59.6215 214.305 59.5834 214.487 59.5085C214.668 59.4336 214.833 59.3235 214.971 59.1844C215.11 59.0453 215.22 58.88 215.295 58.6981C215.369 58.5161 215.407 58.3212 215.406 58.1245V58.1245Z" stroke="#4F6AFF" stroke-width="0.35" stroke-miterlimit="10"/>
<path d="M215.406 95.8723C215.405 95.5767 215.317 95.2881 215.152 95.0429C214.987 94.7977 214.754 94.6069 214.481 94.4947C214.208 94.3824 213.909 94.3537 213.62 94.4122C213.331 94.4706 213.065 94.6136 212.858 94.8231C212.65 95.0326 212.508 95.2992 212.451 95.5893C212.394 95.8794 212.424 96.1799 212.537 96.4529C212.65 96.7259 212.841 96.9592 213.087 97.1233C213.332 97.2874 213.62 97.375 213.915 97.375C214.111 97.375 214.306 97.3361 214.487 97.2605C214.668 97.1849 214.833 97.0741 214.972 96.9345C215.11 96.7949 215.22 96.6292 215.295 96.4469C215.369 96.2646 215.407 96.0694 215.406 95.8723V95.8723Z" stroke="#4F6AFF" stroke-width="0.35" stroke-miterlimit="10"/>
<path d="M228.277 64.7116C228.486 64.5022 228.627 64.2356 228.685 63.9455C228.742 63.6553 228.712 63.3546 228.599 63.0814C228.486 62.8082 228.295 62.5747 228.05 62.4104C227.805 62.2461 227.516 62.1584 227.221 62.1584C226.926 62.1584 226.638 62.2461 226.393 62.4104C226.148 62.5747 225.956 62.8082 225.843 63.0814C225.73 63.3546 225.701 63.6553 225.758 63.9455C225.815 64.2356 225.957 64.5022 226.165 64.7116C226.304 64.8516 226.468 64.9627 226.649 65.0386C226.83 65.1145 227.025 65.1535 227.221 65.1535C227.418 65.1535 227.612 65.1145 227.793 65.0386C227.975 64.9627 228.139 64.8516 228.277 64.7116V64.7116Z" stroke="#4F6AFF" stroke-width="0.35" stroke-miterlimit="10"/>
<path d="M200.604 91.8437C201.428 91.8437 202.096 91.1738 202.096 90.3475C202.096 89.5212 201.428 88.8513 200.604 88.8513C199.78 88.8513 199.112 89.5212 199.112 90.3475C199.112 91.1738 199.78 91.8437 200.604 91.8437Z" stroke="#4F6AFF" stroke-width="0.35" stroke-miterlimit="10"/>
<path d="M232.733 78.4946C233.028 78.4946 233.316 78.4069 233.562 78.2425C233.807 78.0781 233.998 77.8444 234.111 77.571C234.224 77.2976 234.254 76.9968 234.196 76.7065C234.139 76.4163 233.996 76.1497 233.788 75.9405C233.579 75.7312 233.313 75.5887 233.024 75.531C232.735 75.4733 232.435 75.5029 232.162 75.6161C231.89 75.7294 231.657 75.9212 231.493 76.1672C231.329 76.4133 231.241 76.7025 231.241 76.9984C231.241 77.3952 231.398 77.7758 231.678 78.0564C231.958 78.337 232.337 78.4946 232.733 78.4946Z" stroke="#4F6AFF" stroke-width="0.35" stroke-miterlimit="10"/>
<path d="M195.096 78.4946C195.391 78.4933 195.678 78.4045 195.923 78.2393C196.167 78.0741 196.358 77.84 196.47 77.5665C196.581 77.293 196.61 76.9924 196.552 76.7026C196.494 76.4128 196.351 76.1468 196.142 75.9382C195.933 75.7296 195.667 75.5877 195.378 75.5305C195.089 75.4733 194.789 75.5033 194.517 75.6168C194.245 75.7302 194.012 75.922 193.849 76.1679C193.685 76.4138 193.598 76.7028 193.598 76.9984C193.597 77.1957 193.635 77.3912 193.71 77.5735C193.785 77.7559 193.896 77.9214 194.035 78.0606C194.174 78.1998 194.34 78.3099 194.522 78.3844C194.704 78.4589 194.899 78.4963 195.096 78.4946V78.4946Z" stroke="#4F6AFF" stroke-width="0.35" stroke-miterlimit="10"/>
<path d="M226.165 91.4032C226.374 91.6122 226.64 91.7544 226.929 91.8119C227.218 91.8694 227.518 91.8396 227.791 91.7263C228.063 91.6129 228.296 91.4212 228.46 91.1752C228.623 90.9292 228.711 90.6401 228.711 90.3443C228.711 90.0485 228.623 89.7593 228.46 89.5133C228.296 89.2673 228.063 89.0756 227.791 88.9622C227.518 88.8489 227.218 88.8191 226.929 88.8766C226.64 88.9341 226.374 89.0763 226.165 89.2853C226.026 89.4238 225.915 89.5887 225.839 89.7705C225.764 89.9523 225.725 90.1473 225.725 90.3443C225.725 90.5412 225.764 90.7362 225.839 90.918C225.915 91.0998 226.026 91.2647 226.165 91.4032V91.4032Z" stroke="#4F6AFF" stroke-width="0.35" stroke-miterlimit="10"/>
<path d="M200.604 65.152C201.428 65.152 202.096 64.4822 202.096 63.6559C202.096 62.8295 201.428 62.1597 200.604 62.1597C199.78 62.1597 199.112 62.8295 199.112 63.6559C199.112 64.4822 199.78 65.152 200.604 65.152Z" stroke="#4F6AFF" stroke-width="0.35" stroke-miterlimit="10"/>
<path d="M178.085 108.762C178.085 108.762 215.128 96.1768 249.769 108.159" stroke="#4F6AFF" stroke-width="0.7" stroke-miterlimit="10" stroke-dasharray="5.56 5.56"/>
<path d="M182.605 54.7046C192.938 51.9713 219.526 46.5436 245.629 54.1087" stroke="#4F6AFF" stroke-width="0.7" stroke-miterlimit="10" stroke-dasharray="5.56 5.56"/>
<path d="M178.085 117.745C178.085 117.745 215.128 105.16 249.769 117.149" stroke="#4F6AFF" stroke-width="0.7" stroke-miterlimit="10" stroke-dasharray="5.56 5.56"/>
<g opacity="0.79">
<path opacity="0.79" d="M228.561 244.221C229.413 247.242 230.682 250.128 232.332 252.797C235.591 258.106 240.4 262.281 246.107 264.753C248.976 266 252.003 266.841 255.103 267.253C251.908 267.347 248.726 266.817 245.732 265.692C239.614 263.474 234.526 259.072 231.441 253.328C229.902 250.508 228.924 247.415 228.561 244.221Z" fill="white"/>
</g>
<g opacity="0.79">
<path opacity="0.79" d="M201.418 247.272C201.071 250.113 200.289 252.883 199.1 255.485C197.919 258.104 196.399 260.556 194.579 262.778C192.753 264.992 190.64 266.953 188.296 268.607C185.968 270.282 183.395 271.584 180.669 272.467C183.138 271.139 185.479 269.584 187.663 267.823C191.977 264.3 195.553 259.955 198.183 255.038C199.501 252.556 200.584 249.956 201.418 247.272Z" fill="white"/>
</g>
<g opacity="0.79">
<path opacity="0.79" d="M203.962 262.344C203.767 263.301 203.488 264.24 203.129 265.148C202.78 266.055 202.399 266.936 201.967 267.797C201.534 268.659 201.062 269.501 200.552 270.323C200.039 271.158 199.456 271.946 198.809 272.681C199.008 271.722 199.289 270.781 199.648 269.87C199.997 268.963 200.378 268.082 200.811 267.221C201.243 266.359 201.715 265.517 202.225 264.701C202.735 263.866 203.316 263.078 203.962 262.344Z" fill="white"/>
</g>
<g opacity="0.79">
<path opacity="0.79" d="M215.542 268.801C215.845 269.162 216.085 269.572 216.252 270.013C216.419 270.429 216.538 270.864 216.607 271.308C216.677 271.736 216.703 272.17 216.685 272.603C216.665 273.074 216.569 273.537 216.4 273.976C216.093 273.618 215.851 273.208 215.684 272.765C215.515 272.349 215.398 271.914 215.335 271.47C215.262 271.042 215.236 270.608 215.257 270.175C215.273 269.704 215.369 269.24 215.542 268.801Z" fill="white"/>
</g>
<g opacity="0.79">
<path opacity="0.79" d="M224.208 261.884L225.932 264.675C226.507 265.576 227.114 266.45 227.734 267.305C228.354 268.16 229.026 268.996 229.704 269.812L231.841 272.292C230.807 271.857 229.846 271.263 228.993 270.531C228.131 269.806 227.36 268.979 226.694 268.069C226.029 267.16 225.474 266.176 225.041 265.135C224.594 264.103 224.313 263.005 224.208 261.884Z" fill="white"/>
</g>
<path d="M159.163 85.8136H170.206L173.816 90.0755V79.8483C173.816 76.5515 171.821 73.883 169.354 73.883H159.163C156.703 73.883 154.707 76.5515 154.707 79.8483C154.707 83.1386 156.703 85.8136 159.163 85.8136Z" fill="#FF3040"/>
<path d="M165.027 78.2614H163.154V82.6463H165.027V78.2614Z" fill="white"/>
<path d="M162.38 79.6863H160.507V82.6398H162.38V79.6863Z" fill="white"/>
<path d="M167.888 76.9466H166.016V82.6399H167.888V76.9466Z" fill="white"/>
<path d="M282.892 112.836C282.892 110.793 282.083 108.834 280.643 107.39C279.203 105.946 277.25 105.134 275.214 105.134C273.177 105.134 271.224 105.946 269.784 107.39C268.344 108.834 267.535 110.793 267.535 112.836C267.535 117.091 274.846 123.769 274.846 123.769C274.846 123.769 282.892 117.091 282.892 112.836Z" fill="#4F6AFF"/>
<path d="M274.846 123.788C274.846 123.788 282.892 117.11 282.892 112.855C282.895 111.842 282.698 110.839 282.313 109.902C281.929 108.965 281.364 108.114 280.65 107.397C279.937 106.68 279.09 106.111 278.157 105.723C277.224 105.334 276.224 105.134 275.214 105.134" fill="#18004C"/>
<path d="M273.018 120.291C273.018 120.291 274.006 112.214 272.895 112.712C271.784 113.211 271.158 114.455 272.398 114.701C273.638 114.947 278.591 114.701 278.591 114.701C278.591 114.701 279.037 113.289 278.223 112.965C276.983 112.466 276.983 117.188 276.731 120.543" stroke="white" stroke-width="0.32" stroke-miterlimit="10"/>
<path d="M277.938 122.033H271.726C271.612 122.033 271.498 122.01 271.393 121.966C271.288 121.922 271.192 121.858 271.112 121.776C271.031 121.695 270.967 121.599 270.924 121.493C270.881 121.387 270.86 121.273 270.86 121.158C270.86 120.928 270.952 120.708 271.114 120.545C271.276 120.382 271.496 120.291 271.726 120.291H277.919C278.148 120.291 278.369 120.382 278.531 120.545C278.693 120.708 278.784 120.928 278.784 121.158C278.786 121.386 278.698 121.606 278.54 121.77C278.382 121.933 278.166 122.028 277.938 122.033Z" fill="#18293D"/>
<path d="M274.955 126.003C274.003 126.003 273.089 125.624 272.416 124.949C271.743 124.273 271.364 123.357 271.364 122.402V121.754H278.546V122.402C278.546 123.357 278.167 124.273 277.494 124.949C276.821 125.624 275.907 126.003 274.955 126.003Z" fill="#18293D" stroke="#EAEBEC" stroke-width="0.43" stroke-miterlimit="10"/>
<path d="M261.367 112.887H264.861" stroke="white" stroke-width="0.81" stroke-miterlimit="10" stroke-linecap="round"/>
<path d="M285.805 112.887H289.292" stroke="white" stroke-width="0.81" stroke-miterlimit="10" stroke-linecap="round"/>
<path d="M265.462 102.984L267.929 105.465" stroke="white" stroke-width="0.81" stroke-miterlimit="10" stroke-linecap="round"/>
<path d="M282.737 120.316L285.204 122.791" stroke="white" stroke-width="0.81" stroke-miterlimit="10" stroke-linecap="round"/>
<path d="M275.33 98.8842V102.388" stroke="white" stroke-width="0.81" stroke-miterlimit="10" stroke-linecap="round"/>
<path d="M285.204 102.984L282.737 105.465" stroke="white" stroke-width="0.81" stroke-miterlimit="10" stroke-linecap="round"/>
<path d="M267.929 120.316L265.462 122.791" stroke="white" stroke-width="0.81" stroke-miterlimit="10" stroke-linecap="round"/>
<rect x="3" y="279" width="441" height="1" rx="0.5" fill="#575555"/>
</g>
<defs>
<clipPath id="clip0_152_37503">
<rect width="444" height="280" fill="white"/>
</clipPath>
</defs>
</svg>
