<svg width="38" height="42" viewBox="0 0 38 42" fill="none" xmlns="http://www.w3.org/2000/svg">
<g clip-path="url(#clip0_321_2083)">
<path d="M16.4844 42C16.3584 41.9551 16.2345 41.9058 16.1063 41.8663C15.5187 41.6924 15.0005 41.3386 14.6244 40.8548C14.2484 40.3711 14.0334 39.7816 14.0098 39.1692C13.9747 38.5958 13.9846 38.0205 14.0394 37.4487C14.1753 36.2881 15.1474 35.2809 16.3058 35.0256L16.7189 34.9368C16.8493 33.282 17.1672 31.6677 17.9025 30.1882C18.4661 29.052 19.1157 27.9606 19.8456 26.9234C21.2517 24.93 21.8697 22.7118 21.9815 20.3151C21.9815 20.234 21.9815 20.1518 21.9815 20.0696C21.9699 20.0276 21.9533 19.9871 21.9322 19.949C21.6692 19.949 21.3843 19.949 21.1026 19.949C19.2395 19.9326 17.8368 18.5605 17.8466 16.7708C17.8565 14.9944 19.2494 13.6354 21.0873 13.6113C21.1815 13.6113 21.2769 13.6113 21.4544 13.6113C20.5481 12.2907 20.1689 10.8869 20.4582 9.35257C20.5855 8.61507 20.8681 7.91307 21.2874 7.29314C21.7066 6.67321 22.2529 6.14953 22.89 5.75686C23.8844 5.12451 25.0587 4.83568 26.2329 4.93466C27.4072 5.03363 28.5166 5.51495 29.391 6.30482C30.4091 7.20328 31.0425 8.45901 31.1599 9.81176C31.2969 11.1817 30.9253 12.4299 30.0848 13.6135C31.2629 13.5521 32.2262 13.8787 32.9594 14.7368C33.4188 15.278 33.6828 15.958 33.7091 16.6674C33.7353 17.3769 33.5222 18.0745 33.104 18.6482C32.7062 19.1961 32.1988 19.6279 31.5412 19.7791C30.9111 19.9227 30.2524 19.949 29.5182 20.0378C29.6168 20.8367 29.6935 21.674 29.8283 22.5014C30.102 24.1258 30.7653 25.6597 31.7615 26.9717C33.1303 28.8183 34.143 30.8249 34.5736 33.0979C34.6832 33.6995 34.76 34.3099 34.8553 34.9434C35.023 34.9828 35.2104 35.0179 35.3923 35.0694C35.9823 35.2342 36.5065 35.5784 36.8922 36.0544C37.2778 36.5304 37.5059 37.1145 37.5447 37.7259C37.5924 38.2706 37.5858 38.8187 37.525 39.3621C37.3628 40.6838 36.5079 41.6033 35.217 41.9288C35.1554 41.9481 35.0953 41.9719 35.0372 42H16.4844ZM32.6503 34.9237C32.657 34.809 32.657 34.6941 32.6503 34.5795C32.6152 34.2957 32.5758 34.0108 32.5276 33.7291C32.1725 31.6469 31.2366 29.8331 29.9916 28.152C28.5549 26.2188 27.7866 24.0269 27.5488 21.6334C27.494 21.0855 27.4447 20.5288 27.3932 19.9731H24.1416C24.1306 20.1266 24.1262 20.2603 24.1098 20.3929C23.986 21.354 23.9005 22.3217 23.7273 23.274C23.3547 25.3223 22.3728 27.0933 21.1508 28.7481C20.3663 29.787 19.7753 30.9586 19.4061 32.2069C19.1552 33.0836 18.9962 33.9954 18.788 34.9237H32.6503ZM25.7646 39.8695C28.6513 39.8695 31.5372 39.8695 34.4224 39.8695C35.1041 39.8695 35.423 39.5408 35.4328 38.8624C35.4328 38.6432 35.4328 38.424 35.4328 38.2048C35.4328 37.3621 35.1446 37.0771 34.2964 37.0771H17.2691C17.1595 37.0771 17.0499 37.0771 16.9403 37.0771C16.4866 37.1133 16.1732 37.4059 16.1359 37.8563C16.1118 38.1555 16.1206 38.4569 16.1216 38.7583C16.1216 39.5857 16.4044 39.8662 17.2296 39.8662L25.7646 39.8695ZM29.0469 10.3455C29.0515 9.69508 28.8626 9.05801 28.5042 8.51523C28.1458 7.97245 27.6342 7.54846 27.0343 7.29715C26.4344 7.04584 25.7733 6.97856 25.1351 7.10385C24.4968 7.22914 23.9103 7.54134 23.4499 8.00079C22.9895 8.46024 22.6761 9.04619 22.5495 9.68417C22.423 10.3221 22.4889 10.9834 22.739 11.5838C22.9891 12.1842 23.4121 12.6967 23.9541 13.0561C24.4962 13.4156 25.1329 13.6058 25.7833 13.6025C26.6469 13.6 27.4745 13.2562 28.0858 12.6461C28.6971 12.036 29.0426 11.2091 29.0469 10.3455ZM25.8008 17.8218C27.345 17.8218 28.8891 17.8273 30.4333 17.8218C31.1478 17.8218 31.5938 17.4032 31.5906 16.7752C31.5873 16.1473 31.1292 15.7429 30.4201 15.7396C29.2716 15.7396 28.1242 15.7396 26.9756 15.7396C25.0205 15.7396 23.0654 15.7396 21.1114 15.7396C20.6083 15.7396 20.2281 15.9248 20.0297 16.3971C19.7283 17.1117 20.2489 17.8218 21.0851 17.8218C22.6533 17.8295 24.2293 17.8218 25.8008 17.8218Z" fill="black"/>
<path d="M10.4116 15.5511C9.02087 16.2481 7.58851 16.2624 6.14628 16.2569C5.85426 16.2651 5.57278 16.3677 5.34407 16.5495C3.99828 17.6651 2.07494 17.5917 0.888061 16.3457C-0.29882 15.0996 -0.294436 13.1784 0.915459 11.8973C1.39328 11.391 1.9259 10.9252 2.34015 10.3718C2.76597 9.80469 3.12868 9.19284 3.42183 8.54709C4.13152 6.93865 5.23695 5.53611 6.63506 4.47026C6.75159 4.39286 6.84474 4.28507 6.90443 4.15855C6.96411 4.03203 6.98807 3.89159 6.9737 3.75244C6.95726 2.8757 6.96164 1.99897 6.9737 1.12223C6.98137 0.442759 7.41207 -0.0361579 8.06195 -0.0054721C10.1442 0.0909688 12.061 0.663039 13.4155 2.32774C13.9457 3.01351 14.657 3.53736 15.4693 3.84011C16.894 4.38807 17.9975 5.39193 18.7833 6.7169C19.134 7.30651 19.0025 7.94104 18.4852 8.26105C17.968 8.58106 17.3433 8.42325 16.9772 7.82926C16.1794 6.53498 15.0232 5.74701 13.5569 5.41823C12.9432 5.28234 12.564 4.97987 12.2823 4.4067C11.6544 3.12228 10.4828 2.57213 9.10417 2.24884C9.10417 3.05982 9.08882 3.82038 9.10965 4.58095C9.12499 5.11467 8.91238 5.4818 8.46744 5.77112C7.15233 6.62594 6.12546 7.75364 5.4975 9.19149C4.89033 10.6156 3.99478 11.8984 2.86729 12.9593C2.74674 13.0689 2.63276 13.1883 2.51879 13.3067C2.03658 13.813 2.00042 14.4289 2.42454 14.8793C2.84866 15.3297 3.4832 15.3484 3.99718 14.8793C4.27785 14.6181 4.60791 14.4157 4.96795 14.284C5.32799 14.1523 5.71073 14.0938 6.09368 14.1122C6.463 14.1209 6.83233 14.1122 7.20165 14.1122C7.87307 14.1356 8.54227 14.0228 9.16892 13.7806C9.79556 13.5383 10.3667 13.1717 10.8478 12.7028C11.2116 12.3576 11.6149 12.2305 12.084 12.4332C12.553 12.636 12.7185 13.0228 12.7229 13.5291C12.7481 16.6131 11.7366 19.3101 9.73103 21.6477C9.06325 22.4244 8.42323 23.2247 7.81098 24.0489C6.50355 25.8023 5.94792 27.8177 5.82627 30.0271H6.28546C8.93905 30.0271 11.5923 30.0271 14.2451 30.0271C14.861 30.0271 15.2851 30.3088 15.4189 30.7943C15.615 31.4989 15.1241 32.1477 14.3624 32.1576C13.2961 32.1707 12.2297 32.1576 11.1623 32.1576C9.08444 32.1576 7.00585 32.1576 4.92652 32.1576C4.16815 32.1576 3.87115 32.4666 3.86567 33.2371C3.86567 33.4562 3.86567 33.6754 3.86567 33.8946C3.87334 34.6322 4.18349 34.9489 4.91228 34.95C7.00548 34.95 9.09796 34.95 11.1897 34.95C11.7826 34.95 12.153 35.1801 12.3284 35.6426C12.3913 35.7994 12.4151 35.9691 12.3976 36.1371C12.3801 36.3051 12.3218 36.4663 12.2278 36.6067C12.1339 36.7471 12.0071 36.8625 11.8585 36.9427C11.7098 37.023 11.5438 37.0657 11.3749 37.0673C9.07348 37.087 6.77863 37.1122 4.48268 37.0542C3.09305 37.018 1.96206 35.9034 1.79329 34.5116C1.72334 33.8872 1.72077 33.2571 1.78562 32.6321C1.89521 31.5921 2.47057 30.848 3.38018 30.3395C3.51607 30.2638 3.6717 30.0775 3.67827 29.9351C3.82293 26.6966 4.99337 23.8845 7.11836 21.4461C7.71016 20.7666 8.26579 20.0531 8.80608 19.332C9.64014 18.2207 10.1912 16.923 10.4116 15.5511Z" fill="black"/>
</g>
<defs>
<clipPath id="clip0_321_2083">
<rect width="37.5758" height="42" fill="white"/>
</clipPath>
</defs>
</svg>
