<svg width="309" height="315" viewBox="0 0 309 315" fill="none" xmlns="http://www.w3.org/2000/svg">
<path d="M7.1581 202.101C9.00905 204.279 10.9449 206.446 12.9235 208.543L13.4598 209.113L12.3146 210.195L11.7677 209.633C9.77589 207.523 7.81887 205.332 5.9521 203.132L5.44516 202.531L6.62726 201.507L7.1581 202.101ZM19.0086 214.667C21.1097 216.666 23.272 218.609 25.4056 220.425L26.0058 220.934L24.9875 222.134L24.3873 221.624C22.2299 219.79 20.0597 217.81 17.9507 215.814L17.3799 215.273L18.4669 214.135L19.0086 214.667ZM116.869 162.044L117.618 161.798L118.098 163.296L117.351 163.536C115.881 164.013 114.479 164.68 113.183 165.522C112.154 166.192 111.187 166.953 110.293 167.795L109.72 168.336L108.645 167.188L109.215 166.652C110.178 165.745 111.221 164.927 112.332 164.208C113.743 163.292 115.269 162.564 116.869 162.044ZM105.647 173.725L105.339 174.453C104.316 176.995 104.2 179.812 105.01 182.431L105.208 183.196L103.673 183.602L103.469 182.835C102.56 179.868 102.704 176.679 103.877 173.807L104.191 173.082L105.647 173.725ZM125.808 161.326C128.764 161.764 131.624 162.7 134.267 164.094L134.966 164.447L134.258 165.849L133.559 165.496C131.065 164.178 128.367 163.29 125.578 162.871L124.802 162.764L125.017 161.206L125.808 161.326ZM32.1755 225.813C34.5164 227.561 36.9 229.211 39.2604 230.722L39.9219 231.15L39.0729 232.475L38.4114 232.047C36.0219 230.514 33.6038 228.84 31.2259 227.087L30.599 226.617L31.5353 225.357L32.1755 225.813ZM108.752 189.85C110.453 192.119 112.398 194.194 114.553 196.037L115.148 196.557L114.117 197.743L113.522 197.223C111.272 195.305 109.244 193.141 107.475 190.772L107.011 190.139L108.277 189.211L108.752 189.85ZM141.508 169.129C143.711 171.091 145.7 173.28 147.441 175.661L147.905 176.294L146.638 177.222L146.174 176.589C144.497 174.301 142.584 172.197 140.466 170.309L139.874 169.784L140.919 168.611L141.508 169.129ZM46.6871 235.1C49.2469 236.481 51.8658 237.718 54.432 238.849L55.1523 239.16L54.531 240.599L53.8106 240.288C51.194 239.165 48.5435 237.886 45.9412 236.484L45.2423 236.131L45.9828 234.744L46.6871 235.1ZM121.457 201.068C123.895 202.558 126.43 203.883 129.045 205.035L129.763 205.351L129.131 206.786L128.413 206.47C125.732 205.291 123.133 203.933 120.635 202.406L119.965 201.994L120.788 200.656L121.457 201.068ZM151.583 182.565L151.891 183.271C152.367 184.329 152.803 185.413 153.18 186.481C153.776 188.179 154.228 189.923 154.533 191.696L154.666 192.473L153.158 192.734L153.023 191.962C152.732 190.274 152.296 188.614 151.722 186.999C151.36 185.966 150.94 184.93 150.479 183.907L150.172 183.2L151.583 182.565ZM62.4665 241.827C65.1892 242.704 67.9563 243.437 70.7563 244.023L71.525 244.186L71.2137 245.723L70.4423 245.565C67.5846 244.973 64.76 244.23 61.9802 243.341L61.2303 243.102L61.7086 241.603L62.4665 241.827ZM137.072 207.976C139.813 208.804 142.597 209.482 145.412 210.006L146.187 210.145L145.896 211.692L145.125 211.548C142.253 211.015 139.413 210.324 136.617 209.48L135.865 209.246L136.324 207.744L137.072 207.976ZM79.2647 245.301C82.1131 245.557 84.9742 245.645 87.8329 245.565L88.6156 245.542L88.6649 247.115L87.8769 247.135C84.9571 247.217 82.035 247.127 79.1257 246.865L78.3433 246.795L78.4717 245.225L79.2647 245.301ZM154.885 199.812L154.797 200.592C154.447 203.532 153.716 206.414 152.624 209.166L152.335 209.897L150.87 209.323L151.159 208.592C152.201 205.967 152.898 203.217 153.233 200.412L153.321 199.633L154.885 199.812ZM96.3627 244.814C99.1872 244.408 102.026 243.856 104.795 243.177L105.555 242.989L105.936 244.51L105.177 244.698C102.354 245.39 99.4648 245.95 96.6006 246.343L95.8255 246.456L95.601 244.901L96.3627 244.814ZM153.929 211.148C156.786 211.373 159.652 211.454 162.516 211.389L163.302 211.374L163.338 212.947L162.552 212.962C159.634 213.026 156.714 212.943 153.804 212.712L153.016 212.653L153.142 211.089L153.929 211.148ZM148.955 216.281L148.518 216.936C146.883 219.376 145.043 221.67 143.017 223.796L142.476 224.366L141.339 223.3L141.88 222.73C143.849 220.673 145.638 218.453 147.229 216.092L147.667 215.437L148.955 216.281ZM113.051 240.732C115.757 239.771 118.412 238.675 121.007 237.446L121.704 237.133L122.377 238.55L121.667 238.889C119.027 240.131 116.325 241.241 113.573 242.212L112.818 242.495L112.296 241.015L113.051 240.732ZM137.171 229.232L136.554 229.717C134.263 231.53 131.864 233.201 129.37 234.723L128.697 235.134L127.859 233.793L128.527 233.38C130.967 231.888 133.315 230.251 135.558 228.477L136.171 227.989L137.171 229.232ZM171.093 210.781C173.928 210.399 176.737 209.842 179.502 209.112L180.267 208.914L180.664 210.443L179.899 210.641C177.066 211.383 174.188 211.945 171.283 212.325L170.506 212.43L170.294 210.875L171.093 210.781ZM237.383 171.326L236.86 171.912C234.944 174.073 232.943 176.217 230.913 178.274L230.364 178.833L229.244 177.736L229.792 177.176C231.804 175.13 233.786 173.009 235.692 170.857L236.214 170.27L237.383 171.326ZM225.229 183.785L224.643 184.352C222.478 186.334 220.258 188.255 218.054 190.051L217.444 190.546L216.451 189.327L217.061 188.831C219.244 187.051 221.437 185.157 223.581 183.191L224.162 182.661L225.229 183.785ZM187.658 206.444C190.256 205.445 192.898 204.269 195.514 202.961L196.216 202.611L196.921 204.017L196.22 204.367C193.561 205.681 190.869 206.891 188.225 207.913L187.486 208.204L186.9 206.732L187.658 206.444ZM211.77 194.854L211.129 195.307C208.732 197.025 206.322 198.624 203.854 200.127L203.181 200.537L202.364 199.194L203.037 198.784C205.47 197.297 207.848 195.722 210.219 194.03L210.855 193.574L211.77 194.854Z" fill="#6295AB"/>
<path d="M247.995 167.243L250.55 152.822C250.55 152.822 288.858 123.799 289.253 123.175C289.649 122.551 304.358 99.3391 304.358 99.3391L276.977 113.688L237.449 145.862L247.995 167.243Z" fill="#F59A3A"/>
<path d="M214.941 130.587L304.358 99.339L237.465 145.87L214.941 130.587Z" fill="#FBC26B"/>
<path d="M250.571 152.833L274.396 169.199L304.358 99.3391L250.571 152.833Z" fill="#FBC26B"/>
</svg>
