<svg width="323" height="75" viewBox="0 0 323 75" fill="none" xmlns="http://www.w3.org/2000/svg">
<g clip-path="url(#clip0_83_5210)">
<path d="M190.4 1.00897C191.336 1.13586 192.191 1.6013 192.799 2.31517C193.407 3.02904 193.726 3.94056 193.693 4.87321C193.693 8.72873 193.693 12.593 193.693 16.4485C193.693 17.19 193.393 17.4255 192.704 17.4255C190.162 17.4255 190.524 17.8616 190.533 15.4715C190.533 12.4447 190.533 9.42657 190.533 6.39972C190.533 4.33239 190.083 3.92244 187.938 3.96605C185.361 4.02711 182.792 4.11434 180.224 4.21029C178.538 4.27135 177.885 4.92555 177.876 6.61779C177.876 10.0197 177.876 13.4304 177.876 16.8323C177.876 17.7046 177.646 17.9663 176.755 17.9663C174.769 17.9663 174.787 17.9663 174.743 15.9775C174.663 12.436 174.743 8.89449 174.743 5.35299C174.798 4.27271 175.258 3.25138 176.033 2.48733C176.807 1.72327 177.842 1.27101 178.935 1.21833C180.189 1.26107 181.442 1.1319 182.66 0.834518H185.202C186.49 0.947831 187.784 0.982784 189.077 0.939189C189.519 0.889472 189.966 0.913059 190.4 1.00897Z" fill="#616161"/>
<path d="M190.4 1.00897C188.688 0.956636 186.967 1.25322 185.272 0.834518H190.347C190.37 0.890995 190.388 0.949377 190.4 1.00897Z" fill="#8C8C8C"/>
<path d="M145.933 43.4546C145.933 39.8869 145.933 36.3105 145.933 32.7341C145.933 30.8238 146.066 28.9135 146.092 27.0032C146.092 26.3054 146.348 26.0175 147.081 26.0001C150.611 25.907 154.171 25.782 157.761 25.625C158.696 25.5814 158.89 26.0001 158.846 26.8113C158.59 31.4257 158.37 36.0401 158.123 40.6546C157.87 45.4463 157.605 50.2352 157.328 55.0212C157.222 56.9315 157.09 58.8331 157.019 60.7434C157.019 61.4848 156.693 61.7727 155.951 61.8425C151.803 62.1972 147.66 62.5781 143.524 62.9852C142.738 63.0637 142.579 62.5665 142.368 62.0431L136.013 45.7923C135.841 45.2703 135.572 44.785 135.218 44.3618C135.121 45.8098 135.015 47.2665 134.927 48.7232C134.644 53.2679 134.353 57.8038 134.106 62.3571C134.062 63.1334 133.85 63.4475 132.994 63.4388C129.614 63.3951 126.224 63.4388 122.835 63.4388C122.111 63.4388 121.873 63.2381 121.899 62.488C122.164 51.9565 122.417 41.428 122.658 30.9023C122.658 29.4805 122.791 28.0587 122.791 26.6281C122.791 25.8779 123.082 25.5639 123.832 25.5378C125.527 25.468 127.213 25.3546 128.907 25.2761C130.876 25.1888 132.853 25.1888 134.821 24.9969C135.314 24.9064 135.824 25.0011 136.25 25.2625C136.676 25.5239 136.988 25.9332 137.125 26.41C139.773 31.888 142.421 37.3224 145.068 42.7742C145.192 43.0185 145.333 43.254 145.457 43.4982L145.933 43.4546Z" fill="#8E8E8E"/>
<path d="M53.9012 24.7876C58.182 24.6132 62.0744 25.2412 65.5255 27.5092C67.2742 28.573 68.7186 30.0611 69.7212 31.8322C70.7238 33.6032 71.2514 35.5983 71.2538 37.6277C71.3332 41.1169 70.7507 44.4141 68.244 47.1269C67.4642 47.9777 66.5738 48.7228 65.5961 49.3426C64.8723 49.7962 64.9076 50.2149 65.2872 50.8516C67.0966 53.957 68.8177 57.0972 70.6448 60.2026C71.1037 60.9789 71.0949 61.2668 70.0887 61.4412C66.6817 62.0431 63.3013 62.7148 59.9208 63.4126C59.1705 63.5609 58.8616 63.3428 58.6145 62.645C57.5288 59.5658 56.3461 56.539 55.2781 53.4249C55.2457 53.2239 55.172 53.0316 55.0616 52.8598C54.9511 52.6881 54.8063 52.5404 54.636 52.426C54.4657 52.3116 54.2735 52.2329 54.0712 52.1947C53.8689 52.1564 53.6609 52.1595 53.4599 52.2037C51.624 52.3607 51.5711 52.2909 51.4563 54.0878C51.2975 56.7919 51.1651 59.5047 51.1033 62.2088C51.1033 63.1509 50.7855 63.4649 49.8146 63.4475C46.7872 63.3864 43.7509 63.3864 40.7235 63.4475C39.7261 63.4475 39.3731 63.2032 39.3996 62.1652C39.5937 54.4978 39.7261 46.8216 39.885 39.1455C39.9556 35.8134 39.9821 32.4725 40.1233 29.1403C40.2204 26.5758 40.0439 27.0643 42.3299 26.3316C44.2471 25.7294 46.2186 25.3117 48.2171 25.0842C50.1022 24.8516 52.0018 24.7525 53.9012 24.7876Z" fill="#8E8E8E"/>
<path d="M203.26 43.0359C203.26 49.8456 203.26 56.6582 203.26 63.4736C203.26 66.4307 202.219 67.5124 199.227 67.6083C190.171 67.9049 181.115 68.1957 172.059 68.4806C170.592 68.6321 169.113 68.6321 167.646 68.4806C166.987 68.444 166.365 68.1652 165.903 67.6987C165.441 67.2323 165.172 66.6121 165.148 65.9597C165.088 65.4414 165.058 64.92 165.06 64.3983C165.06 53.6633 165.06 42.9196 165.06 32.1672C165.06 29.3584 165.113 26.5409 165.139 23.7234C165.166 20.9059 166.225 19.9028 168.952 19.8068C175.713 19.5713 182.474 19.3707 189.253 19.1526L198.547 18.8298H199.289C202.219 18.8298 203.181 19.6236 203.349 22.5109C203.49 25.1278 203.349 27.7447 203.349 30.3615C203.287 34.6009 203.349 38.8489 203.349 43.0882L203.26 43.0359Z" fill="#616161"/>
<path d="M102.676 25.6948C103.558 25.4418 103.973 25.9041 104.229 26.7939C107.506 38.0231 110.805 49.2379 114.123 60.4381C114.388 61.3104 114.123 61.5895 113.241 61.6942C109.392 62.1565 105.544 62.6537 101.705 63.1596C101.06 63.2469 100.822 62.9677 100.69 62.4095C100.319 60.9615 99.8864 59.5309 99.5334 58.048C99.5174 57.9124 99.4736 57.7814 99.4046 57.6631C99.3356 57.5448 99.2429 57.4416 99.1322 57.36C99.0215 57.2783 98.8951 57.2198 98.7607 57.1882C98.6263 57.1565 98.4867 57.1523 98.3506 57.1757C96.9473 57.1757 95.535 57.1757 94.1228 57.1757C93.9885 57.1508 93.8504 57.1542 93.7175 57.1856C93.5847 57.2171 93.46 57.2759 93.3517 57.3582C93.2434 57.4405 93.1539 57.5445 93.089 57.6634C93.0242 57.7823 92.9855 57.9133 92.9754 58.048C92.6929 59.4437 92.3399 60.8306 92.0928 62.2263C91.9515 62.9328 91.6691 63.2207 90.8835 63.0986C86.9911 62.6799 83.1076 62.2699 79.2063 61.9471C78.1472 61.8599 78.1119 61.4761 78.3678 60.63C81.6394 49.8834 84.9022 39.1251 88.1562 28.3553C88.8535 26.0699 88.4034 26.2879 91.0866 26.1745C94.9437 26.1135 98.7743 25.8692 102.676 25.6948Z" fill="#8E8E8E"/>
<path d="M299.388 44.9724C299.388 52.6834 294.975 59.2692 288.24 61.7553C285.682 62.7031 282.932 63.0339 280.219 62.7202C277.506 62.4065 274.907 61.4574 272.64 59.9518C270.372 58.4461 268.501 56.4273 267.181 54.0633C265.862 51.6992 265.133 49.058 265.054 46.3593C264.789 37.6364 270.349 29.8905 278.496 28.3465C285.372 27.0381 291.577 28.5821 296.149 34.2956C298.558 37.4009 299.406 41.082 299.388 44.9724Z" fill="#8E8E8E"/>
<path d="M16.1775 25.6861C21.3321 25.6861 25.5334 25.6861 29.7259 25.6861C30.7321 25.6861 31.0234 26.035 30.9527 26.9596C30.6968 29.908 30.7762 32.8563 30.7409 35.8133C30.7409 36.7293 30.3614 37.1218 29.417 37.1392C27.5193 37.1392 25.6128 37.2963 23.7151 37.3224C22.8855 37.3224 22.5589 37.5841 22.4971 38.4477C21.8969 46.2111 21.2438 53.957 20.6259 61.7116C20.5818 62.2786 20.4494 62.5839 19.7433 62.6363C16.4687 62.802 13.203 62.9852 9.92843 63.1858C9.12523 63.2381 9.10757 62.7584 9.10757 62.1914C9.10757 56.6669 9.10757 51.1424 9.10757 45.6179C9.10757 43.3936 9.10757 41.1692 9.10757 38.9449C9.10757 38.2209 8.87809 37.9417 8.12785 37.9941C6.15958 38.1249 4.18248 38.1772 2.22303 38.343C1.3404 38.4215 1.01383 38.2034 1.0403 37.305C1.15211 33.8681 1.23448 30.4284 1.28744 26.9858C1.28744 26.0699 1.71111 25.8431 2.58491 25.7995C7.48353 25.564 12.3115 25.7733 16.1775 25.6861Z" fill="#8E8E8E"/>
<path d="M241.584 25.215C243.517 25.215 245.459 25.2586 247.401 25.215C248.363 25.215 248.575 25.5029 248.478 26.4275C247.719 33.3361 246.907 40.2359 246.651 47.188C246.598 48.6098 246.651 48.636 248.063 48.6447C250.852 48.6447 253.632 48.6447 256.421 48.6447C257.304 48.6447 257.534 48.9588 257.445 49.7525C257.11 53.0324 256.789 56.3151 256.483 59.6007C256.421 60.2811 256.157 60.5428 255.451 60.5951C248.566 61.1068 241.681 61.6477 234.797 62.2176C233.914 62.2961 233.614 62.0954 233.641 61.1097C233.8 54.8642 233.853 48.6098 233.985 42.3555C234.1 37.0084 234.276 31.6613 234.391 26.3141C234.391 25.4418 234.77 25.2412 235.556 25.2586C237.56 25.2412 239.572 25.215 241.584 25.215Z" fill="#8E8E8E"/>
<path d="M210.277 45.0596V28.3814C210.277 27.0468 210.33 27.0032 211.707 26.9334C215.617 26.7328 219.519 26.5496 223.42 26.3054C224.408 26.2443 224.735 26.5234 224.655 27.5004C224.179 32.9697 223.773 38.4389 223.296 43.9082C222.908 48.6883 222.502 53.4597 222.113 58.2399C222.016 59.3477 221.919 60.4555 221.866 61.5633C221.866 62.2699 221.575 62.6013 220.79 62.6362C217.586 62.7758 214.382 62.9677 211.186 63.1771C210.251 63.2381 210.304 62.6799 210.304 62.0518C210.304 56.5622 210.304 51.0726 210.304 45.583L210.277 45.0596Z" fill="#8E8E8E"/>
<path d="M310.147 44.7892C310.333 38.7791 310.368 32.4986 310.394 26.2094C310.394 24.805 310.394 24.7876 311.789 24.8486C314.816 24.9882 317.844 25.1278 320.862 25.2848C322.239 25.3546 322.301 25.468 322.125 26.7851C321.166 34.1473 320.212 41.5152 319.265 48.889C319.08 50.2934 319.097 50.3282 317.65 50.2584C315.47 50.1538 313.289 49.9968 311.109 49.9095C310.403 49.9095 310.103 49.6653 310.13 48.9238C310.183 47.6765 310.147 46.3506 310.147 44.7892Z" fill="#8E8E8E"/>
<path d="M319.071 57.481C319.066 58.1346 318.93 58.7808 318.671 59.3821C318.412 59.9834 318.035 60.5278 317.561 60.9838C317.087 61.4399 316.526 61.7984 315.911 62.0386C315.296 62.2789 314.639 62.396 313.978 62.3833C313.293 62.402 312.612 62.284 311.975 62.0361C311.338 61.7883 310.758 61.4158 310.27 60.9411C309.782 60.4663 309.397 59.8991 309.136 59.2734C308.875 58.6477 308.745 57.9764 308.754 57.2997C308.762 56.6231 308.908 55.9551 309.184 55.3359C309.46 54.7166 309.86 54.1588 310.359 53.6959C310.859 53.233 311.448 52.8746 312.091 52.6422C312.734 52.4097 313.418 52.3081 314.102 52.3433C314.771 52.351 315.433 52.4909 316.047 52.7547C316.662 53.0185 317.217 53.4009 317.679 53.8794C318.142 54.358 318.504 54.9231 318.743 55.5415C318.982 56.16 319.093 56.8194 319.071 57.481Z" fill="#8E8E8E"/>
<path d="M195.175 69.4837C196.879 69.4401 196.879 69.4401 196.879 71.0975C196.938 71.6501 196.865 72.2086 196.667 72.7286C196.557 73.0433 196.351 73.3167 196.078 73.5118C195.804 73.7069 195.477 73.8141 195.14 73.819C194.805 73.79 194.488 73.6545 194.236 73.4329C193.985 73.2112 193.813 72.9153 193.746 72.5891C193.509 71.7498 193.487 70.8653 193.684 70.0158C193.878 69.0476 194.734 69.6233 195.175 69.4837Z" fill="#636363"/>
<path d="M174.69 71.6732C174.739 72.2266 174.676 72.7841 174.504 73.3131C174.403 73.6497 174.193 73.9441 173.906 74.1507C173.619 74.3572 173.271 74.4645 172.915 74.4558C172.563 74.4165 172.233 74.2623 171.979 74.0174C171.725 73.7726 171.561 73.4511 171.512 73.1037C171.384 72.2828 171.384 71.4474 171.512 70.6264C171.512 70.2862 171.733 70.1467 172.059 70.1467L173.004 70.1031C174.654 70.0594 174.654 70.0595 174.69 71.6732Z" fill="#616161"/>
<path d="M52.1889 41.0994C52.1889 39.128 52.1889 37.1479 52.1889 35.1679C52.1889 34.4264 52.436 34.06 53.2569 33.9554C56.0195 33.5803 58.1467 34.7404 58.8528 37.0782C59.0825 37.6746 59.1899 38.3101 59.1688 38.9479C59.1477 39.5857 58.9985 40.213 58.73 40.7934C58.4614 41.3737 58.0788 41.8955 57.6044 42.3284C57.13 42.7613 56.5733 43.0967 55.9666 43.315C54.9529 43.7242 53.8745 43.9545 52.7803 43.9954C52.1624 44.039 51.8976 43.8122 51.8976 43.1667C51.8976 42.5212 51.8976 41.7798 51.8976 41.082L52.1889 41.0994Z" fill="#FEFEFE"/>
<path d="M180.824 36.2669L184.61 30.9023C185.678 29.3846 186.755 27.8842 187.797 26.3577C187.899 26.1386 188.081 25.9658 188.307 25.8736C188.533 25.7814 188.786 25.7768 189.015 25.8605C192.872 26.82 196.729 27.7795 200.604 28.7042C201.663 28.9571 201.063 29.3497 200.745 29.716C197.214 33.842 193.737 37.9853 190.153 42.0677C189.888 42.3037 189.727 42.6329 189.704 42.9849C189.681 43.3369 189.798 43.6839 190.03 43.9518C193.304 49.3513 196.535 54.7682 199.739 60.1851C200.392 61.2842 200.383 61.2929 199.139 61.511C195.608 62.1216 192.122 62.706 188.626 63.3515C188.339 63.4164 188.038 63.3847 187.771 63.2615C187.504 63.1382 187.286 62.9305 187.152 62.6711C184.946 59.6937 182.73 56.7279 180.506 53.7738C180.303 53.4946 180.074 53.2417 179.844 52.9626C179.456 53.294 179.544 53.6953 179.526 54.0529C179.42 56.6174 179.306 59.1907 179.253 61.7552C179.253 62.6275 179.041 62.9939 178.07 63.0113C175.007 63.0637 171.945 63.1945 168.882 63.3515C168.07 63.3515 167.849 63.1422 167.867 62.3746C168.073 54.9775 168.261 47.5805 168.432 40.1835C168.538 35.6651 168.608 31.1466 168.696 26.6369C168.696 25.2063 168.741 25.1714 170.153 25.2499C173.569 25.4244 176.976 25.6686 180.391 25.8082C181.274 25.8082 181.398 26.1833 181.327 26.9509C181.018 30.0213 180.762 33.1005 180.488 36.171L180.824 36.2669Z" fill="#FEFEFE"/>
<path d="M96.4883 40.5848C97.0767 43.1551 97.6445 45.7284 98.1917 48.3045C98.3065 48.8017 98.1211 49.0286 97.6092 49.0198H95.076C94.6171 49.0198 94.4229 48.7756 94.52 48.3481C95.0731 45.7487 95.635 43.1493 96.2058 40.5499L96.4883 40.5848Z" fill="#FEFEFE"/>
<path d="M287.322 45.5307C287.394 47.1206 286.855 48.6786 285.813 49.8921C285.328 50.4946 284.701 50.971 283.987 51.2801C283.273 51.5891 282.494 51.7214 281.716 51.6656C280.939 51.6097 280.187 51.3674 279.526 50.9595C278.865 50.5517 278.315 49.9907 277.922 49.3251C277.4 48.5168 277.053 47.6109 276.901 46.6639C276.749 45.7169 276.796 44.7491 277.04 43.821C277.293 42.5982 277.98 41.5052 278.977 40.739C279.974 39.9729 281.215 39.5841 282.477 39.6427C283.749 39.7747 284.933 40.3487 285.817 41.2624C286.701 42.1761 287.228 43.3702 287.305 44.6322C287.314 45.0073 287.314 45.3562 287.322 45.5307Z" fill="#FEFEFE"/>
</g>
<defs>
<clipPath id="clip0_83_5210">
<rect width="321.561" height="74.1098" fill="white" transform="translate(0.890259 0.81707)"/>
</clipPath>
</defs>
</svg>
