<svg width="61" height="14" viewBox="0 0 61 14" fill="none" xmlns="http://www.w3.org/2000/svg">
<g clip-path="url(#clip0_135_13824)">
<path d="M35.4338 0.0356471C35.6087 0.0592221 35.7685 0.145696 35.8822 0.278327C35.9959 0.410958 36.0555 0.580309 36.0493 0.753588C36.0493 1.46991 36.0493 2.18785 36.0493 2.90418C36.0493 3.04193 35.9932 3.08569 35.8645 3.08569C35.3892 3.08569 35.4569 3.16671 35.4585 2.72266C35.4585 2.1603 35.4585 1.59956 35.4585 1.0372C35.4585 0.653108 35.3744 0.576942 34.9733 0.585045C34.4914 0.59639 34.0112 0.612596 33.531 0.630423C33.2157 0.641767 33.0936 0.763312 33.092 1.07772C33.092 1.70976 33.092 2.34344 33.092 2.97548C33.092 3.13755 33.0491 3.18616 32.8824 3.18616C32.5111 3.18616 32.5144 3.18616 32.5061 2.81666C32.4913 2.15868 32.5061 1.5007 32.5061 0.842726C32.5165 0.64202 32.6025 0.452266 32.7473 0.310312C32.8922 0.168357 33.0856 0.0843319 33.29 0.0745433C33.5244 0.082484 33.7588 0.058486 33.9864 0.00323486H34.4617C34.7026 0.0242873 34.9446 0.0307813 35.1862 0.0226817C35.2689 0.0134447 35.3526 0.017827 35.4338 0.0356471Z" fill="#6403FC"/>
<path d="M35.4339 0.0356471C35.1138 0.0259233 34.792 0.0810254 34.4751 0.00323486H35.424C35.4283 0.0137277 35.4316 0.0245746 35.4339 0.0356471Z" fill="#8C8C8C"/>
<path d="M27.1197 7.92166C27.1197 7.25882 27.1197 6.59435 27.1197 5.92989C27.1197 5.57497 27.1444 5.22005 27.1494 4.86514C27.1494 4.73548 27.1972 4.682 27.3342 4.67876C27.9943 4.66148 28.66 4.63825 29.3311 4.60908C29.506 4.60097 29.5423 4.67876 29.5341 4.82948C29.4862 5.6868 29.445 6.54412 29.3988 7.40143C29.3514 8.2917 29.3019 9.18143 29.2502 10.0706C29.2304 10.4255 29.2057 10.7788 29.1925 11.1338C29.1925 11.2715 29.1314 11.325 28.9928 11.338C28.2171 11.4039 27.4426 11.4746 26.6691 11.5503C26.5223 11.5648 26.4925 11.4725 26.4529 11.3752L25.2647 8.35599C25.2327 8.259 25.1823 8.16883 25.1162 8.0902C25.098 8.35923 25.0782 8.62988 25.0617 8.90052C25.0089 9.74487 24.9544 10.5876 24.9082 11.4336C24.9 11.5778 24.8604 11.6362 24.7003 11.6345C24.0682 11.6264 23.4345 11.6345 22.8008 11.6345C22.6655 11.6345 22.6209 11.5973 22.6259 11.4579C22.6754 9.50124 22.7227 7.54513 22.7678 5.58956C22.7678 5.3254 22.7925 5.06123 22.7925 4.79545C22.7925 4.65607 22.847 4.59773 22.9873 4.59287C23.3041 4.5799 23.6193 4.55884 23.9362 4.54425C24.3042 4.52805 24.6739 4.52804 25.0419 4.49239C25.1341 4.47557 25.2294 4.49317 25.3091 4.54173C25.3887 4.5903 25.4471 4.66633 25.4726 4.75493C25.9677 5.77269 26.4628 6.78235 26.9579 7.79525C26.981 7.84063 27.0074 7.88438 27.0305 7.92976L27.1197 7.92166Z" fill="white"/>
<path d="M9.91192 4.45353C10.7123 4.42111 11.4401 4.5378 12.0854 4.95916C12.4124 5.15681 12.6824 5.4333 12.8699 5.76234C13.0573 6.09139 13.156 6.46206 13.1564 6.8391C13.1713 7.48736 13.0624 8.09995 12.5937 8.60397C12.4479 8.76204 12.2814 8.90046 12.0986 9.01561C11.9633 9.09989 11.9699 9.17768 12.0408 9.29599C12.3791 9.87293 12.701 10.4564 13.0426 11.0333C13.1284 11.1775 13.1267 11.231 12.9386 11.2634C12.3016 11.3753 11.6695 11.5001 11.0374 11.6297C10.8972 11.6573 10.8394 11.6167 10.7932 11.4871C10.5902 10.915 10.3691 10.3526 10.1694 9.77407C10.1633 9.73673 10.1495 9.70101 10.1289 9.66909C10.1082 9.63718 10.0812 9.60974 10.0493 9.58849C10.0175 9.56724 9.98152 9.55261 9.9437 9.54551C9.90589 9.5384 9.86699 9.53897 9.8294 9.54718C9.48614 9.57635 9.47624 9.56339 9.45478 9.89724C9.42508 10.3996 9.40032 10.9037 9.38877 11.4061C9.38877 11.5811 9.32936 11.6394 9.14782 11.6362C8.58176 11.6248 8.01406 11.6248 7.448 11.6362C7.26151 11.6362 7.1955 11.5908 7.20045 11.3979C7.23676 9.97341 7.26151 8.54725 7.29122 7.12109C7.30442 6.50201 7.30937 5.8813 7.33578 5.26222C7.35393 4.78575 7.32093 4.87651 7.74836 4.74038C8.10682 4.6285 8.47545 4.55089 8.84912 4.50863C9.2016 4.46542 9.55677 4.44701 9.91192 4.45353Z" fill="white"/>
<path d="M37.8384 7.84388C37.8384 9.10906 37.8384 10.3748 37.8384 11.641C37.8384 12.1904 37.6436 12.3914 37.0842 12.4092C35.391 12.4643 33.6977 12.5183 32.0045 12.5713C31.7302 12.5994 31.4537 12.5994 31.1794 12.5713C31.056 12.5645 30.9398 12.5127 30.8534 12.426C30.767 12.3394 30.7167 12.2241 30.7123 12.1029C30.701 12.0066 30.6955 11.9098 30.6958 11.8128C30.6958 9.81836 30.6958 7.82228 30.6958 5.82457C30.6958 5.30273 30.7057 4.77926 30.7107 4.2558C30.7156 3.73233 30.9137 3.54596 31.4236 3.52813C32.6877 3.48437 33.9519 3.4471 35.2193 3.40658L36.9571 3.34662H37.0957C37.6436 3.34662 37.8235 3.4941 37.8549 4.03053C37.8813 4.51672 37.8549 5.00291 37.8549 5.4891C37.8433 6.27673 37.8549 7.06598 37.8549 7.85361L37.8384 7.84388Z" fill="#6403FC"/>
<path d="M19.0316 4.62206C19.1966 4.57506 19.2742 4.66096 19.3221 4.82626C19.9349 6.91256 20.5516 8.99616 21.1721 11.0771C21.2216 11.2391 21.1721 11.291 21.007 11.3104C20.2875 11.3963 19.568 11.4887 18.8501 11.5827C18.7296 11.5989 18.6851 11.547 18.6603 11.4433C18.591 11.1743 18.5101 10.9085 18.4441 10.633C18.4411 10.6078 18.4329 10.5835 18.42 10.5615C18.4071 10.5395 18.3898 10.5203 18.3691 10.5052C18.3484 10.49 18.3248 10.4791 18.2996 10.4733C18.2745 10.4674 18.2484 10.4666 18.223 10.4709C17.9606 10.4709 17.6965 10.4709 17.4325 10.4709C17.4074 10.4663 17.3815 10.4669 17.3567 10.4728C17.3318 10.4786 17.3085 10.4895 17.2883 10.5048C17.268 10.5201 17.2513 10.5395 17.2392 10.5615C17.227 10.5836 17.2198 10.608 17.2179 10.633C17.1651 10.8923 17.0991 11.15 17.0529 11.4093C17.0265 11.5406 16.9737 11.594 16.8268 11.5714C16.099 11.4936 15.3729 11.4174 14.6434 11.3574C14.4454 11.3412 14.4388 11.2699 14.4866 11.1127C15.0984 9.11609 15.7084 7.1173 16.3168 5.11636C16.4472 4.69175 16.3631 4.73227 16.8648 4.7112C17.5859 4.69986 18.3022 4.65447 19.0316 4.62206Z" fill="white"/>
<path d="M55.812 8.20367C55.812 9.63631 54.9869 10.8599 53.7277 11.3218C53.2494 11.4979 52.7352 11.5593 52.2279 11.5011C51.7206 11.4428 51.2347 11.2664 50.8108 10.9867C50.3868 10.707 50.0369 10.3319 49.7902 9.89267C49.5435 9.45345 49.4071 8.96275 49.3923 8.46135C49.3428 6.84071 50.3825 5.40159 51.9058 5.11474C53.1913 4.87164 54.3515 5.1585 55.2064 6.22001C55.6569 6.79696 55.8153 7.48087 55.812 8.20367Z" fill="white"/>
<path d="M2.8584 4.62043C3.82218 4.62043 4.60774 4.62043 5.39164 4.62043C5.57977 4.62043 5.63423 4.68525 5.62103 4.85704C5.57317 5.40481 5.58802 5.95259 5.58142 6.50198C5.58142 6.67215 5.51046 6.74508 5.33387 6.74832C4.97906 6.74832 4.62258 6.77749 4.26777 6.78236C4.11264 6.78236 4.05158 6.83098 4.04003 6.99142C3.92781 8.43379 3.80568 9.87291 3.69016 11.3137C3.6819 11.419 3.65715 11.4757 3.52512 11.4854C2.91286 11.5162 2.30224 11.5503 1.68998 11.5875C1.5398 11.5973 1.5365 11.5081 1.5365 11.4028C1.5365 10.3764 1.5365 9.34999 1.5365 8.32358C1.5365 7.91032 1.5365 7.49705 1.5365 7.08379C1.5365 6.94928 1.49359 6.89742 1.35331 6.90714C0.985291 6.93145 0.61562 6.94118 0.24925 6.97197C0.0842187 6.98655 0.0231576 6.94604 0.0281086 6.77911C0.0490125 6.14058 0.0644153 5.50151 0.0743172 4.8619C0.0743172 4.69173 0.153533 4.6496 0.316914 4.6415C1.23284 4.59774 2.13556 4.63663 2.8584 4.62043Z" fill="white"/>
<path d="M45.0041 4.53293C45.3656 4.53293 45.7286 4.54103 46.0917 4.53293C46.2716 4.53293 46.3112 4.58641 46.293 4.7582C46.1511 6.04174 45.9993 7.32366 45.9514 8.61531C45.9415 8.87947 45.9514 8.88433 46.2155 8.88595C46.737 8.88595 47.2568 8.88595 47.7783 8.88595C47.9433 8.88595 47.9863 8.9443 47.9697 9.09178C47.907 9.70114 47.8471 10.311 47.7899 10.9215C47.7783 11.0479 47.7288 11.0965 47.5968 11.1062C46.3095 11.2013 45.0223 11.3018 43.735 11.4077C43.57 11.4223 43.5139 11.385 43.5189 11.2018C43.5486 10.0415 43.5585 8.87947 43.5832 7.71748C43.6047 6.72403 43.6377 5.73058 43.6591 4.73713C43.6591 4.57507 43.7301 4.53779 43.877 4.54103C44.2516 4.53779 44.6279 4.53293 45.0041 4.53293Z" fill="white"/>
<path d="M39.1504 8.21986V5.1212C39.1504 4.87325 39.1603 4.86514 39.4177 4.85218C40.1488 4.8149 40.8783 4.78087 41.6077 4.73549C41.7925 4.72415 41.8536 4.77601 41.8388 4.95752C41.7496 5.97366 41.6737 6.98979 41.5846 8.00593C41.512 8.89404 41.4361 9.78053 41.3635 10.6686C41.3453 10.8745 41.3272 11.0803 41.3173 11.2861C41.3173 11.4174 41.2628 11.479 41.1159 11.4854C40.5169 11.5114 39.9178 11.547 39.3204 11.5859C39.1454 11.5973 39.1553 11.4935 39.1553 11.3769C39.1553 10.3569 39.1553 9.33702 39.1553 8.3171L39.1504 8.21986Z" fill="white"/>
<path d="M57.8239 8.16963C57.8586 7.05301 57.8652 5.88615 57.8701 4.71767C57.8701 4.45675 57.8701 4.4535 58.1309 4.46485C58.6969 4.49078 59.263 4.51671 59.8274 4.54588C60.0849 4.55885 60.0964 4.57991 60.0634 4.82463C59.8841 6.19245 59.7058 7.56135 59.5287 8.93133C59.494 9.19225 59.4973 9.19873 59.2267 9.18576C58.8191 9.16632 58.4114 9.13715 58.0038 9.12094C57.8718 9.12094 57.8157 9.07556 57.8206 8.93781C57.8305 8.70606 57.8239 8.45972 57.8239 8.16963Z" fill="white"/>
<path d="M59.4921 10.5277C59.4913 10.6491 59.4659 10.7691 59.4174 10.8809C59.369 10.9926 59.2984 11.0937 59.2098 11.1784C59.1212 11.2632 59.0164 11.3298 58.9014 11.3744C58.7864 11.4191 58.6635 11.4408 58.5399 11.4385C58.4119 11.4419 58.2846 11.42 58.1654 11.374C58.0463 11.3279 57.9379 11.2587 57.8467 11.1705C57.7554 11.0823 57.6833 10.9769 57.6346 10.8607C57.5858 10.7444 57.5615 10.6197 57.5631 10.494C57.5646 10.3683 57.592 10.2442 57.6436 10.1291C57.6952 10.014 57.7699 9.91041 57.8633 9.82441C57.9567 9.73841 58.0668 9.67182 58.187 9.62864C58.3073 9.58545 58.4352 9.56656 58.563 9.5731C58.6882 9.57454 58.8119 9.60053 58.9268 9.64954C59.0417 9.69855 59.1454 9.7696 59.232 9.85851C59.3185 9.94742 59.3861 10.0524 59.4308 10.1673C59.4755 10.2822 59.4963 10.4047 59.4921 10.5277Z" fill="white"/>
<path d="M36.3268 12.7576C36.6453 12.7495 36.6453 12.7495 36.6453 13.0575C36.6562 13.1601 36.6427 13.2639 36.6057 13.3605C36.585 13.419 36.5465 13.4698 36.4954 13.506C36.4444 13.5423 36.3832 13.5622 36.3201 13.5631C36.2574 13.5577 36.1981 13.5325 36.1511 13.4914C36.1041 13.4502 36.072 13.3952 36.0594 13.3346C36.0151 13.1787 36.0111 13.0143 36.0478 12.8565C36.0842 12.6766 36.2442 12.7836 36.3268 12.7576Z" fill="#636363"/>
<path d="M32.4963 13.1644C32.5056 13.2672 32.4938 13.3708 32.4617 13.4691C32.4428 13.5316 32.4035 13.5863 32.3498 13.6247C32.2961 13.6631 32.231 13.683 32.1646 13.6814C32.0987 13.6741 32.0371 13.6454 31.9896 13.6C31.9421 13.5545 31.9113 13.4947 31.9022 13.4302C31.8783 13.2777 31.8783 13.1225 31.9022 12.9699C31.9022 12.9067 31.9435 12.8808 32.0046 12.8808L32.1811 12.8727C32.4897 12.8646 32.4897 12.8646 32.4963 13.1644Z" fill="#6403FC"/>
<path d="M9.59157 7.48408C9.59157 7.11782 9.59157 6.74994 9.59157 6.38205C9.59157 6.2443 9.63777 6.17623 9.79125 6.15678C10.3078 6.0871 10.7055 6.30264 10.8376 6.73697C10.8805 6.84778 10.9006 6.96586 10.8966 7.08436C10.8927 7.20286 10.8648 7.3194 10.8146 7.42722C10.7644 7.53504 10.6928 7.63198 10.6041 7.71241C10.5154 7.79284 10.4113 7.85515 10.2979 7.89573C10.1084 7.97174 9.90673 8.01453 9.70214 8.02214C9.58662 8.03024 9.53711 7.9881 9.53711 7.86817C9.53711 7.74825 9.53711 7.6105 9.53711 7.48085L9.59157 7.48408Z" fill="#F79D31"/>
<path d="M33.6435 6.58625L34.3515 5.58956C34.5512 5.30757 34.7526 5.02882 34.9473 4.74521C34.9665 4.7045 35.0006 4.67238 35.0428 4.65526C35.085 4.63814 35.1322 4.63727 35.175 4.65283C35.8962 4.8311 36.6174 5.00937 37.3419 5.18116C37.5399 5.22816 37.4277 5.30109 37.3683 5.36915C36.7082 6.13571 36.058 6.90552 35.3879 7.66397C35.3383 7.70783 35.3082 7.76898 35.3038 7.83438C35.2995 7.89978 35.3214 7.96425 35.3648 8.01403C35.9771 9.0172 36.5811 10.0236 37.1802 11.03C37.3023 11.2342 37.3006 11.2358 37.068 11.2764C36.4078 11.3898 35.756 11.4984 35.1024 11.6183C35.0487 11.6304 34.9924 11.6245 34.9425 11.6016C34.8926 11.5787 34.8519 11.5401 34.8268 11.4919C34.4142 10.9387 34 10.3877 33.5841 9.83886C33.5462 9.787 33.5033 9.74 33.4604 9.68814C33.3877 9.74973 33.4043 9.82428 33.401 9.89072C33.3812 10.3672 33.3597 10.8453 33.3498 11.3217C33.3498 11.4838 33.3102 11.5519 33.1286 11.5551C32.556 11.5648 31.9833 11.5891 31.4107 11.6183C31.2588 11.6183 31.2176 11.5794 31.2209 11.4368C31.2594 10.0625 31.2946 8.68821 31.3265 7.31391C31.3463 6.47443 31.3595 5.63494 31.376 4.79707C31.376 4.53128 31.3843 4.5248 31.6483 4.53939C32.287 4.5718 32.924 4.61718 33.5627 4.64311C33.7277 4.64311 33.7508 4.71279 33.7376 4.85541C33.6799 5.42587 33.632 5.99796 33.5808 6.56842L33.6435 6.58625Z" fill="white"/>
<path d="M17.8745 7.38847C17.9846 7.86602 18.0907 8.34411 18.193 8.82274C18.2145 8.91511 18.1798 8.95725 18.0841 8.95563H17.6105C17.5247 8.95563 17.4884 8.91025 17.5065 8.83084C17.6099 8.34789 17.715 7.86494 17.8217 7.38199L17.8745 7.38847Z" fill="#F79D31"/>
<path d="M53.5562 8.30738C53.5696 8.60277 53.4688 8.89223 53.2739 9.11769C53.1832 9.22964 53.066 9.31815 52.9325 9.37556C52.799 9.43298 52.6533 9.45756 52.508 9.44718C52.3626 9.43681 52.2221 9.39178 52.0984 9.31601C51.9748 9.24024 51.8719 9.13601 51.7986 9.01235C51.701 8.86218 51.636 8.69386 51.6076 8.51792C51.5792 8.34197 51.588 8.16217 51.6335 7.98973C51.6809 7.76255 51.8094 7.55948 51.9958 7.41713C52.1822 7.27479 52.4143 7.20255 52.6501 7.21345C52.888 7.23797 53.1093 7.34461 53.2746 7.51436C53.4399 7.68412 53.5385 7.90599 53.5528 8.14045C53.5545 8.21014 53.5545 8.27496 53.5562 8.30738Z" fill="#F79D31"/>
</g>
<defs>
<clipPath id="clip0_135_13824">
<rect width="60.1243" height="13.7689" fill="white"/>
</clipPath>
</defs>
</svg>
