<svg width="16" height="13" viewBox="0 0 16 13" fill="none" xmlns="http://www.w3.org/2000/svg">
<path d="M7.71821 3.91921L7.74903 4.41097L7.23542 4.35075C5.36588 4.11993 3.73261 3.33713 2.34586 2.02243L1.6679 1.3701L1.49327 1.85182C1.12347 2.92566 1.35973 4.05971 2.13015 4.82244C2.54103 5.24395 2.44858 5.30416 1.7398 5.05327C1.49327 4.97298 1.27756 4.91276 1.25701 4.94287C1.18511 5.01312 1.43164 5.92639 1.62681 6.28768C1.89389 6.78947 2.43831 7.28123 3.0341 7.57227L3.53743 7.8031L2.94165 7.81313C2.36641 7.81313 2.34586 7.82317 2.4075 8.03392C2.61294 8.68626 3.42444 9.37873 4.32839 9.67981L4.96527 9.89056L4.41057 10.2117C3.5888 10.6734 2.62321 10.9343 1.65763 10.9544C1.19538 10.9644 0.815308 11.0045 0.815308 11.0347C0.815308 11.135 2.06851 11.697 2.79784 11.9178C4.98581 12.5701 7.58467 12.2891 9.53639 11.1752C10.9231 10.3823 12.3099 8.80669 12.957 7.28123C13.3063 6.46833 13.6555 4.98302 13.6555 4.27047C13.6555 3.80882 13.6863 3.7486 14.2616 3.19663C14.6006 2.87548 14.919 2.52422 14.9806 2.42386C15.0834 2.23318 15.0731 2.23318 14.5492 2.40379C13.6761 2.70487 13.5528 2.66473 13.9842 2.21311C14.3027 1.89196 14.6827 1.30988 14.6827 1.13927C14.6827 1.10916 14.5287 1.15934 14.354 1.24967C14.1691 1.35003 13.7583 1.50056 13.4501 1.59089L12.8954 1.7615L12.3921 1.43031C12.1147 1.24967 11.7244 1.04895 11.5189 0.988734C10.995 0.848231 10.1938 0.868303 9.72129 1.02888C8.43726 1.48049 7.62576 2.64465 7.71821 3.91921Z" fill="white"/>
</svg>
