<svg width="18" height="11" viewBox="0 0 18 11" fill="none" xmlns="http://www.w3.org/2000/svg">
<path d="M9.57151 10.4649C9.57151 10.4649 9.88614 10.4303 10.0473 10.2588C10.1948 10.1017 10.1897 9.80515 10.1897 9.80515C10.1897 9.80515 10.1701 8.42059 10.8189 8.21615C11.4584 8.0151 12.2795 9.5551 13.151 10.1473C13.8092 10.595 14.3089 10.497 14.3089 10.497L16.6375 10.4649C16.6375 10.4649 17.855 10.3906 17.2778 9.4419C17.23 9.36418 16.941 8.73991 15.5469 7.45756C14.0863 6.11523 14.2824 6.33234 16.0406 4.01009C17.1115 2.59596 17.5396 1.73262 17.4057 1.36346C17.2787 1.01035 16.4908 1.10411 16.4908 1.10411L13.8697 1.12016C13.8697 1.12016 13.6753 1.09398 13.5312 1.1793C13.3905 1.26293 13.2993 1.45807 13.2993 1.45807C13.2993 1.45807 12.8849 2.55203 12.3315 3.48296C11.1643 5.44618 10.6979 5.55009 10.5069 5.42844C10.0626 5.14376 10.1735 4.28633 10.1735 3.67725C10.1735 1.77401 10.4651 0.980779 9.60647 0.775502C9.32168 0.707077 9.11193 0.662304 8.38291 0.654702C7.44754 0.645409 6.65628 0.658081 6.20778 0.875184C5.90936 1.01964 5.67914 1.34234 5.81983 1.36092C5.99292 1.38373 6.38514 1.46567 6.59318 1.74613C6.86177 2.10853 6.85239 2.92119 6.85239 2.92119C6.85239 2.92119 7.00672 5.1615 6.49172 5.43943C6.13872 5.63034 5.65441 5.24091 4.61332 3.45931C4.08041 2.54697 3.67796 1.53832 3.67796 1.53832C3.67796 1.53832 3.60037 1.34994 3.46138 1.24857C3.29341 1.12608 3.05893 1.08806 3.05893 1.08806L0.568327 1.10411C0.568327 1.10411 0.194012 1.11425 0.0567343 1.2756C-0.0651954 1.41837 0.047355 1.71488 0.047355 1.71488C0.047355 1.71488 1.99738 6.23519 4.20575 8.51351C6.23081 10.6018 8.52956 10.4649 8.52956 10.4649H9.57151Z" fill="white"/>
</svg>
