<svg width="470" height="354" viewBox="0 0 470 354" fill="none" xmlns="http://www.w3.org/2000/svg">
<path d="M370.525 242.496C312.528 303.745 225.49 323.736 150.5 289.022C124.707 277.069 66.7914 214.724 68.0192 168.041C68.0192 167.159 68.0769 166.261 68.1099 165.362C71.777 74.6347 127.525 27.5976 155.84 11.5063C194.752 -10.5861 251.324 0.0974017 271.003 35.3052C283.792 58.2055 299.153 57.5625 313.17 58.3869C327.188 59.2112 400.909 71.6918 413.055 124.335C424.337 173.284 401.716 209.564 370.525 242.496Z" fill="#DCF4FF" fill-opacity="0.5"/>
<path d="M321.567 258.236H130.275L130.275 123.121C130.275 122.241 130.448 121.369 130.785 120.555C131.121 119.742 131.615 119.003 132.237 118.38C132.859 117.758 133.597 117.264 134.41 116.927C135.223 116.59 136.094 116.416 136.974 116.416L314.861 116.416C315.741 116.416 316.612 116.59 317.425 116.927C318.237 117.264 318.976 117.758 319.598 118.38C320.22 119.003 320.713 119.742 321.05 120.555C321.387 121.369 321.56 122.241 321.56 123.121V258.236H321.567Z" fill="url(#paint0_linear_74_1127)"/>
<path d="M137.038 232.458L314.465 232.458V123.362L137.038 123.362V232.458Z" fill="url(#paint1_linear_74_1127)"/>
<path d="M118.398 123.9H73.2686L73.3464 123.496C73.7026 121.691 74.6723 120.065 76.0908 118.894C77.5092 117.724 79.2889 117.081 81.1274 117.075C81.6741 117.075 82.2194 117.132 82.7543 117.245C83.8248 115.208 85.3959 113.478 87.3193 112.218C89.2428 110.957 91.4553 110.207 93.7483 110.039C96.0413 109.872 98.3392 110.291 100.426 111.258C102.512 112.225 104.318 113.708 105.673 115.567C107.026 115.153 108.452 115.035 109.855 115.22C111.257 115.404 112.604 115.887 113.805 116.637C115.005 117.386 116.031 118.384 116.814 119.564C117.596 120.743 118.117 122.077 118.342 123.475L118.398 123.9ZM74.1032 123.192H117.606C117.176 121.108 116.045 119.236 114.4 117.888C112.756 116.539 110.699 115.798 108.573 115.786C107.587 115.785 106.608 115.943 105.673 116.254L105.432 116.331L105.291 116.126C104.01 114.304 102.28 112.845 100.268 111.892C98.2564 110.939 96.0322 110.524 93.8125 110.688C91.5928 110.852 89.4535 111.59 87.6034 112.828C85.7533 114.066 84.2556 115.764 83.2565 117.755L83.1363 117.995L82.8745 117.932C82.3101 117.79 81.7304 117.719 81.1486 117.719C79.5344 117.721 77.9667 118.26 76.6916 119.251C75.4164 120.241 74.506 121.627 74.1032 123.192Z" fill="#141C5B"/>
<path d="M284.147 68.2583L283.999 68.1804C267.977 59.9959 270.127 44.1438 270.156 43.9881L270.198 43.6978H270.488C280.667 43.6978 283.872 40.4127 283.928 40.3843L284.176 40.1153L284.423 40.3843C284.459 40.3843 287.656 43.6978 297.863 43.6978H298.16L298.203 43.9881C298.203 44.1438 300.374 59.9959 284.36 68.1804L284.147 68.2583ZM270.792 44.3704C270.587 46.4944 269.915 60.1234 284.147 67.5007C298.387 60.1234 297.708 46.5227 297.509 44.3704C288.667 44.3208 285.067 41.8499 284.147 41.064C283.228 41.8499 279.627 44.3208 270.792 44.3704Z" fill="#141C5B"/>
<path d="M149.02 213.186H131.145V215.211H149.02V213.186Z" fill="#1487E3"/>
<path d="M127.41 157.289H98.875V120.764H99.5541V156.61H127.41V157.289Z" fill="#141C5B"/>
<path d="M248.178 133.224H247.499V95.5658H283.808V63.897H284.487V96.2384H248.178V133.224Z" fill="#141C5B"/>
<path d="M365.473 175.173H327.693V174.494H364.801V152.539H365.473V175.173Z" fill="#141C5B"/>
<path d="M358.986 128.891H340.949V110.816H358.986V128.891ZM341.529 128.29H358.385V111.418H341.529V128.29Z" fill="#141C5B"/>
<path d="M403.946 117.443H362.601V113.025H403.946V117.443ZM363.202 116.841H403.345V113.627H363.202V116.841Z" fill="#141C5B"/>
<path d="M403.946 137.996H340.949V133.578H403.968L403.946 137.996ZM341.529 137.395H403.345V134.18H341.529V137.395Z" fill="#141C5B"/>
<path d="M381.063 146.478H340.949V142.06H381.085L381.063 146.478ZM341.529 145.848H380.434V142.662H341.529V145.848Z" fill="#141C5B"/>
<path d="M390.599 125.875H362.601V121.45H390.599V125.875ZM363.202 125.274H389.997V122.059H363.202V125.274Z" fill="#141C5B"/>
<path d="M411.119 156.093H333.755V101.202H411.119V156.093ZM334.356 155.491H410.518V101.803H334.356V155.491Z" fill="#141C5B"/>
<path d="M306.472 76.6197H300.686V75.9471H305.8V70.8283H306.472V76.6197Z" fill="#141C5B"/>
<path d="M267.546 76.6197H261.76V70.8283H262.432V75.9471H267.546V76.6197Z" fill="#141C5B"/>
<path d="M262.439 37.6656H261.76V31.8671H267.546V32.5467H262.439V37.6656Z" fill="#141C5B"/>
<path d="M306.472 37.6585H305.8V32.5467H300.686V31.8741H306.472V37.6585Z" fill="#141C5B"/>
<path d="M306.472 46.3103H305.8V62.1766H306.472V46.3103Z" fill="#141C5B"/>
<path d="M262.439 46.3103H261.76V62.1766H262.439V46.3103Z" fill="#141C5B"/>
<path d="M99.2145 121.103C98.7229 121.105 98.2419 120.96 97.8325 120.688C97.4231 120.415 97.1038 120.027 96.915 119.573C96.7262 119.118 96.6764 118.618 96.772 118.135C96.8676 117.653 97.1042 117.209 97.4518 116.861C97.7995 116.513 98.2425 116.276 98.7248 116.181C99.2071 116.085 99.7069 116.135 100.161 116.324C100.615 116.513 101.003 116.832 101.275 117.242C101.547 117.652 101.692 118.133 101.69 118.625C101.69 119.283 101.429 119.913 100.965 120.378C100.501 120.842 99.8711 121.103 99.2145 121.103ZM99.2145 116.82C98.8578 116.82 98.509 116.926 98.2124 117.124C97.9158 117.323 97.6846 117.605 97.5481 117.934C97.4115 118.264 97.3758 118.627 97.4454 118.978C97.515 119.328 97.6868 119.65 97.9391 119.902C98.1913 120.154 98.5127 120.326 98.8626 120.396C99.2125 120.466 99.5752 120.43 99.9048 120.293C100.234 120.157 100.516 119.925 100.714 119.628C100.913 119.332 101.018 118.982 101.018 118.625C101.018 118.388 100.972 118.154 100.881 117.934C100.79 117.715 100.657 117.516 100.49 117.349C100.322 117.181 100.124 117.048 99.9048 116.957C99.6859 116.867 99.4514 116.82 99.2145 116.82Z" fill="#141C5B"/>
<path d="M284.148 64.2297C283.658 64.2297 283.179 64.0844 282.772 63.8121C282.365 63.5398 282.048 63.1528 281.86 62.7C281.673 62.2472 281.624 61.749 281.719 61.2683C281.815 60.7876 282.051 60.3461 282.397 59.9995C282.743 59.653 283.184 59.417 283.665 59.3214C284.145 59.2257 284.643 59.2748 285.095 59.4624C285.547 59.6499 285.934 59.9675 286.206 60.375C286.478 60.7825 286.623 61.2616 286.623 61.7517C286.623 62.4089 286.363 63.0392 285.898 63.5039C285.434 63.9687 284.804 64.2297 284.148 64.2297ZM284.148 59.9817C283.791 59.9817 283.442 60.0876 283.146 60.286C282.849 60.4844 282.618 60.7664 282.481 61.0962C282.345 61.4261 282.309 61.7891 282.379 62.1394C282.448 62.4896 282.62 62.8113 282.872 63.0637C283.124 63.3162 283.446 63.4882 283.796 63.5578C284.146 63.6275 284.508 63.5918 284.838 63.4551C285.168 63.3185 285.449 63.0871 285.647 62.7902C285.846 62.4933 285.951 62.1442 285.951 61.7871C285.956 61.5471 285.913 61.3085 285.824 61.0854C285.736 60.8622 285.604 60.659 285.436 60.4876C285.268 60.3162 285.067 60.18 284.846 60.0871C284.625 59.9941 284.388 59.9463 284.148 59.9463V59.9817Z" fill="#141C5B"/>
<path d="M365.134 152.992C364.644 152.99 364.166 152.844 363.76 152.571C363.354 152.297 363.038 151.91 362.851 151.457C362.665 151.004 362.617 150.506 362.713 150.026C362.81 149.546 363.046 149.105 363.393 148.759C363.739 148.413 364.18 148.178 364.66 148.083C365.14 147.988 365.638 148.037 366.09 148.225C366.542 148.413 366.928 148.73 367.2 149.138C367.472 149.545 367.617 150.024 367.617 150.514C367.617 150.84 367.552 151.163 367.427 151.464C367.303 151.765 367.12 152.038 366.889 152.268C366.658 152.499 366.385 152.681 366.083 152.805C365.782 152.929 365.459 152.993 365.134 152.992ZM365.134 148.708C364.777 148.708 364.428 148.814 364.132 149.013C363.835 149.211 363.604 149.493 363.467 149.823C363.331 150.153 363.295 150.516 363.365 150.866C363.434 151.216 363.606 151.538 363.858 151.79C364.111 152.043 364.432 152.215 364.782 152.284C365.132 152.354 365.494 152.318 365.824 152.182C366.154 152.045 366.435 151.814 366.634 151.517C366.832 151.22 366.937 150.871 366.937 150.514C366.94 150.274 366.896 150.037 366.806 149.815C366.717 149.593 366.585 149.391 366.417 149.221C366.249 149.05 366.05 148.915 365.829 148.822C365.609 148.729 365.373 148.681 365.134 148.68V148.708Z" fill="#141C5B"/>
<path d="M115.647 52.2433H98.6699V35.2513H115.647V52.2433ZM99.3136 51.5353H114.975V35.8956H99.3136V51.5353Z" fill="#141C5B"/>
<path d="M107.477 39.8604H106.805V47.7971H107.477V39.8604Z" fill="#141C5B"/>
<path d="M111.113 43.4924H103.183V44.165H111.113V43.4924Z" fill="#141C5B"/>
<path d="M374.817 72.7753H350.505V55.4081H374.817V72.7753ZM351.177 72.0673H374.138V56.0807H351.177V72.0673Z" fill="#141C5B"/>
<path d="M362.658 65.929L350.625 56.0028L351.057 55.486L362.658 65.051L374.266 55.486L374.69 56.0028L362.658 65.929Z" fill="#141C5B"/>
<path d="M365.983 62.9818L365.496 63.4447L374.22 72.6493L374.707 72.1864L365.983 62.9818Z" fill="#141C5B"/>
<path d="M359.299 62.9773L350.583 72.1895L351.071 72.652L359.787 63.4398L359.299 62.9773Z" fill="#141C5B"/>
<path d="M158.089 90.2275L157.834 89.562C157.608 89.5343 157.385 89.4845 157.169 89.4133L156.653 89.8948L155.153 88.8257L155.443 88.1814C155.302 88.0019 155.181 87.8072 155.082 87.6008H154.375L154.071 85.7884L154.729 85.5335C154.756 85.3066 154.808 85.0834 154.884 84.868L154.396 84.3511L155.464 82.8501L156.108 83.1404C156.288 83.0003 156.483 82.8793 156.688 82.7793V82.0713L158.499 81.7669L158.754 82.4253C158.98 82.4554 159.202 82.5076 159.418 82.5811L159.935 82.0926L161.434 83.1617L161.144 83.806C161.284 83.9865 161.405 84.181 161.505 84.3865H162.213L162.524 86.2061L161.859 86.4539C161.832 86.6809 161.78 86.9041 161.703 87.1194L162.191 87.6362L161.123 89.1372L160.48 88.8469C160.299 88.987 160.105 89.108 159.899 89.208V89.916L158.089 90.2275ZM157.049 88.8115L157.197 88.8682C157.467 88.9746 157.75 89.0391 158.039 89.0593H158.195L158.414 89.6257L159.404 89.4629V88.854L159.553 88.7903C159.807 88.6667 160.044 88.5121 160.26 88.3301L160.38 88.231L160.932 88.4788L161.519 87.6575L161.102 87.2114L161.159 87.0628C161.264 86.7956 161.329 86.5139 161.35 86.2273V86.0645L161.915 85.8521L161.753 84.8538H161.144L161.081 84.7122C160.96 84.4563 160.806 84.2181 160.621 84.0042L160.522 83.8838L160.77 83.3245L159.949 82.7369L159.503 83.1546L159.355 83.098C159.087 82.996 158.806 82.9316 158.52 82.9068H158.357L158.145 82.3404L157.148 82.5103V83.1121L157.006 83.1829C156.751 83.3003 156.513 83.4528 156.299 83.636L156.179 83.7351L155.627 83.4873L155.04 84.3157L155.457 84.7547L155.401 84.9033C155.294 85.1728 155.23 85.4569 155.21 85.7459V85.9016L154.644 86.1211L154.814 87.1123H155.415L155.478 87.261C155.6 87.516 155.755 87.754 155.938 87.969L156.037 88.0894L155.79 88.6416L156.617 89.2292L157.049 88.8115ZM158.301 87.969C157.985 87.97 157.674 87.8963 157.392 87.7538C157.11 87.6114 156.866 87.4043 156.68 87.1494C156.493 86.8946 156.369 86.5992 156.319 86.2874C156.268 85.9756 156.292 85.6562 156.388 85.3552C156.484 85.0543 156.65 84.7804 156.872 84.5559C157.094 84.3313 157.366 84.1625 157.665 84.0632C157.965 83.964 158.284 83.937 158.596 83.9846C158.908 84.0321 159.204 84.1529 159.461 84.337C159.785 84.5652 160.034 84.8851 160.176 85.2556C160.318 85.6261 160.346 86.0305 160.257 86.4172C160.169 86.804 159.967 87.1554 159.677 87.4268C159.388 87.6981 159.025 87.877 158.633 87.9407C158.524 87.9657 158.413 87.9799 158.301 87.9832V87.969ZM158.301 84.4786C158.084 84.4788 157.869 84.5263 157.672 84.6176C157.475 84.709 157.3 84.8421 157.16 85.0077C157.019 85.1733 156.916 85.3675 156.858 85.5769C156.8 85.7862 156.788 86.0057 156.822 86.2202C156.891 86.6105 157.11 86.9585 157.431 87.1902C157.756 87.4178 158.157 87.5093 158.548 87.4451C158.839 87.3957 159.109 87.2611 159.324 87.0583C159.538 86.8555 159.688 86.5935 159.754 86.3056C159.82 86.0177 159.799 85.7166 159.694 85.4406C159.589 85.1645 159.404 84.9258 159.164 84.7547C158.913 84.5796 158.614 84.488 158.308 84.4927L158.301 84.4786Z" fill="#141C5B"/>
<path d="M144.04 92.3445L143.475 90.8647C142.872 90.7942 142.279 90.6589 141.706 90.4612L140.553 91.5373L137.427 89.3142L138.07 87.8982C137.692 87.4217 137.37 86.904 137.108 86.3548L135.524 86.3052L134.887 82.5174L136.366 81.951C136.433 81.3476 136.568 80.7538 136.769 80.181L135.694 79.027L137.915 75.8976L139.329 76.5419C139.804 76.1613 140.321 75.8381 140.871 75.579L140.921 73.9931L144.705 73.3559L145.271 74.8356C145.874 74.9027 146.467 75.0381 147.04 75.2392L148.193 74.1559L151.319 76.3861L150.676 77.8021C151.056 78.2784 151.381 78.7962 151.645 79.3456L153.222 79.3951L153.859 83.1829L152.38 83.7493C152.313 84.3527 152.178 84.9465 151.977 85.5193L153.059 86.6734L150.831 89.8027L149.416 89.1585C148.94 89.5367 148.423 89.8597 147.874 90.1213L147.825 91.7073L144.04 92.3445ZM141.551 89.6753L141.749 89.7532C142.388 90.002 143.06 90.157 143.743 90.2134H143.956L144.472 91.5657L147.167 91.1055L147.217 89.6895L147.408 89.6045C148.035 89.3226 148.62 88.9558 149.148 88.5142L149.31 88.3797L150.633 88.9673L152.218 86.7371L151.227 85.6822L151.298 85.4839C151.547 84.8419 151.702 84.1669 151.758 83.4803V83.275L153.109 82.7581L152.656 80.0607L151.206 80.0111L151.121 79.8199C150.84 79.1921 150.473 78.6061 150.032 78.0783L149.897 77.9154L150.485 76.5915L148.256 75.0055L147.202 75.9967L147.011 75.9259C146.369 75.6779 145.695 75.5229 145.01 75.4657H144.797L144.281 74.1135L141.586 74.5666L141.536 75.9826L141.345 76.0675C140.717 76.3468 140.131 76.7139 139.605 77.1579L139.443 77.2924L138.127 76.7047L136.542 78.9349L137.533 79.9899L137.455 80.1881C137.206 80.828 137.051 81.5004 136.995 82.1847V82.3971L135.644 82.9139L136.104 85.6114L137.519 85.6609L137.603 85.8521C137.885 86.4799 138.252 87.066 138.693 87.5938L138.827 87.7566L138.24 89.0735L140.468 90.6594L141.551 89.6753ZM144.38 87.2044C143.401 87.2084 142.448 86.8826 141.676 86.2794C140.904 85.6762 140.358 84.8306 140.124 83.8787C139.89 82.9268 139.983 81.9239 140.388 81.0312C140.792 80.1386 141.485 79.4081 142.355 78.9572C143.224 78.5063 144.22 78.3613 145.182 78.5455C146.144 78.7296 147.016 79.2323 147.658 79.9725C148.3 80.7128 148.675 81.6476 148.722 82.6267C148.769 83.6058 148.485 84.5723 147.917 85.3707C147.516 85.9361 146.986 86.3975 146.37 86.7165C145.755 87.0354 145.073 87.2027 144.38 87.2044ZM144.38 79.1403C143.842 79.1387 143.311 79.2549 142.823 79.4807C142.335 79.7064 141.903 80.0363 141.555 80.4471C141.208 80.8579 140.955 81.3398 140.814 81.8588C140.673 82.3779 140.646 82.9217 140.737 83.452C140.923 84.3964 141.47 85.2308 142.262 85.7776C143.053 86.3245 144.027 86.5407 144.975 86.3802C145.924 86.2197 146.772 85.6952 147.34 84.9182C147.908 84.1413 148.15 83.1733 148.016 82.2201C147.869 81.3603 147.424 80.58 146.759 80.0166C146.094 79.4532 145.251 79.1428 144.38 79.1403Z" fill="#141C5B"/>
<path d="M55.7683 95.8915C52.4264 95.8953 49.2198 94.5706 46.8534 92.2087C44.487 89.8468 43.1545 86.6411 43.1489 83.2962H43.8563C43.8563 85.6543 44.5549 87.9594 45.8638 89.9201C47.1727 91.8808 49.0331 93.4089 51.2098 94.3113C53.3864 95.2138 55.7815 95.4499 58.0922 94.9898C60.4029 94.5298 62.5254 93.3943 64.1913 91.7268C65.8572 90.0594 66.9917 87.935 67.4514 85.6222C67.911 83.3094 67.6751 80.9122 66.7735 78.7336C65.8719 76.555 64.3451 74.6929 62.3862 73.3828C60.4273 72.0727 58.1242 71.3735 55.7683 71.3735V70.6655C59.1057 70.6655 62.3065 71.9925 64.6665 74.3546C67.0264 76.7166 68.3522 79.9203 68.3522 83.2608C68.3522 86.6013 67.0264 89.8049 64.6665 92.167C62.3065 94.5291 59.1057 95.8561 55.7683 95.8561V95.8915ZM55.7683 94.1428C53.625 94.1428 51.5298 93.5066 49.7477 92.3148C47.9656 91.1229 46.5766 89.4289 45.7564 87.447C44.9362 85.465 44.7216 83.2842 45.1397 81.1801C45.5578 79.0761 46.59 77.1434 48.1055 75.6265C49.6211 74.1096 51.552 73.0766 53.6541 72.658C55.7563 72.2395 57.9352 72.4543 59.9153 73.2753C61.8955 74.0962 63.588 75.4865 64.7787 77.2702C65.9695 79.0539 66.6051 81.1509 66.6051 83.2962H65.8977C65.9005 81.2819 65.3058 79.312 64.189 77.6363C63.0722 75.9606 61.4836 74.6544 59.6244 73.8832C57.7652 73.1121 55.7192 72.9106 53.7455 73.3045C51.7718 73.6983 49.9594 74.6697 48.5378 76.0955C47.1162 77.5214 46.1495 79.3375 45.7602 81.3138C45.3708 83.29 45.5763 85.3375 46.3507 87.1968C47.125 89.056 48.4334 90.6433 50.1099 91.7576C51.7865 92.8719 53.7558 93.463 55.7683 93.456V94.1428Z" fill="#141C5B"/>
<path d="M54.2263 87.4734L49.6851 82.9281L50.159 82.4466L54.2263 86.5176L61.3707 79.3597L61.8446 79.8412L54.2263 87.4734Z" fill="#141C5B"/>
<path d="M321.56 237.753H225.953H130.346L109.422 316.037H226.575H342.484L321.56 237.753Z" fill="url(#paint2_linear_74_1127)"/>
<path d="M137.575 251.489H149.324C149.43 251.478 149.537 251.492 149.637 251.528C149.736 251.565 149.826 251.623 149.901 251.699C149.975 251.776 150.031 251.868 150.064 251.968C150.098 252.069 150.109 252.176 150.095 252.282L148.957 257.4C148.908 257.564 148.805 257.706 148.665 257.804C148.525 257.901 148.356 257.949 148.186 257.939H136.238C136.131 257.948 136.023 257.934 135.922 257.896C135.822 257.857 135.731 257.797 135.658 257.718C135.584 257.64 135.529 257.545 135.497 257.442C135.466 257.34 135.458 257.231 135.474 257.124L136.811 252.013C136.865 251.854 136.968 251.718 137.106 251.623C137.244 251.529 137.408 251.481 137.575 251.489Z" fill="white"/>
<path d="M154.714 251.489H163.592L162.41 257.939H153.363L154.714 251.489Z" fill="white"/>
<path d="M168.034 251.489H176.918L175.985 257.939L166.938 257.953L168.034 251.489Z" fill="white"/>
<path d="M181.353 251.489H190.238L189.566 257.939H180.512L181.353 251.489Z" fill="white"/>
<path d="M194.68 251.489H203.558L203.14 257.939H194.086L194.68 251.489Z" fill="white"/>
<path d="M208 251.489H216.885L216.715 257.939L207.661 257.953L208 251.489Z" fill="white"/>
<path d="M314.607 251.489H301.287L302.723 257.939H316.297L314.607 251.489Z" fill="white"/>
<path d="M296.845 251.489H287.967L289.149 257.939H298.196L296.845 251.489Z" fill="white"/>
<path d="M283.525 251.489H274.641L275.574 257.939L284.621 257.953L283.525 251.489Z" fill="white"/>
<path d="M270.205 251.489H261.321L261.993 257.939H271.047L270.205 251.489Z" fill="white"/>
<path d="M256.879 251.489H248.001L248.419 257.939H257.473L256.879 251.489Z" fill="white"/>
<path d="M243.559 251.489H234.675L234.845 257.939L243.899 257.953L243.559 251.489Z" fill="white"/>
<path d="M221.327 251.489H230.204L230.353 257.939H221.327V251.489Z" fill="white"/>
<path d="M133.67 262.753H152.232L151.17 269.408H132.263L133.67 262.753Z" fill="white"/>
<path d="M317.507 262.753H294.567L295.876 269.408H319.247L317.507 262.753Z" fill="white"/>
<path d="M289.976 262.753H280.802L281.849 269.408H291.2L289.976 262.753Z" fill="white"/>
<path d="M276.218 262.753H267.037L267.822 269.408H277.173L276.218 262.753Z" fill="white"/>
<path d="M262.453 262.753H253.271L253.794 269.408H263.146L262.453 262.753Z" fill="white"/>
<path d="M248.688 262.753H239.513L239.768 269.408H249.119L248.688 262.753Z" fill="white"/>
<path d="M130.898 274.619H149.869L148.49 281.225H129.165L130.898 274.619Z" fill="white"/>
<path d="M154.616 274.619H164.101L162.977 281.225H153.314L154.616 274.619Z" fill="white"/>
<path d="M168.847 274.619H178.333H239.987L240.256 281.225H167.808L168.847 274.619Z" fill="white"/>
<path d="M244.74 274.619H254.226L254.742 281.225H245.087L244.74 274.619Z" fill="white"/>
<path d="M258.973 274.619H268.458L269.236 281.225H259.574L258.973 274.619Z" fill="white"/>
<path d="M273.198 274.619H282.684L283.723 281.225H274.061L273.198 274.619Z" fill="white"/>
<path d="M287.43 274.619H296.915L298.21 281.225H288.554L287.43 274.619Z" fill="white"/>
<path d="M301.662 274.619H320.633L322.366 281.225H303.041L301.662 274.619Z" fill="white"/>
<path d="M234.944 262.753H225.84V269.408H235.113L234.944 262.753Z" fill="white"/>
<path d="M221.178 262.753H212.004L211.735 269.408H221.086L221.178 262.753Z" fill="white"/>
<path d="M207.413 262.753H198.238L197.715 269.408H207.066L207.413 262.753Z" fill="white"/>
<path d="M193.648 262.753H184.473L183.688 269.408H193.039L193.648 262.753Z" fill="white"/>
<path d="M179.883 262.753H170.708L169.661 269.408H179.012L179.883 262.753Z" fill="white"/>
<path d="M166.117 262.753H156.942L155.634 269.408H164.985L166.117 262.753Z" fill="white"/>
<path d="M138.014 247.432L139.52 241.676H143.828L142.421 247.432H138.014Z" fill="white"/>
<path d="M148.143 241.676H156.766L155.563 247.432H146.785L148.143 241.676Z" fill="white"/>
<path d="M161.081 241.676H169.703L168.727 247.432H159.949L161.081 241.676Z" fill="white"/>
<path d="M174.018 241.676H182.641L181.884 247.432H173.113L174.018 241.676Z" fill="white"/>
<path d="M186.956 241.676H195.579L195.048 247.432H186.277L186.956 241.676Z" fill="white"/>
<path d="M199.894 241.676H208.516L208.212 247.432H199.441L199.894 241.676Z" fill="white"/>
<path d="M212.831 241.676H221.454L221.376 247.432H212.605L212.831 241.676Z" fill="white"/>
<path d="M225.762 241.676H234.392L234.54 247.432H225.762V241.676Z" fill="white"/>
<path d="M238.7 241.676H247.33L247.704 247.432H238.926L238.7 241.676Z" fill="white"/>
<path d="M251.637 241.676H260.267L260.868 247.432H252.09L251.637 241.676Z" fill="white"/>
<path d="M264.575 241.676H273.197L274.032 247.432H265.254L264.575 241.676Z" fill="white"/>
<path d="M277.513 241.676H286.135L287.189 247.432H278.418L277.513 241.676Z" fill="white"/>
<path d="M290.45 241.676H299.073L300.353 247.432H291.582L290.45 241.676Z" fill="white"/>
<path d="M303.388 241.676H312.01L313.517 247.432H304.746L303.388 241.676Z" fill="white"/>
<path d="M336.393 322.14H115.505C113.891 322.138 112.344 321.495 111.203 320.352C110.063 319.209 109.422 317.66 109.422 316.044H342.484C342.484 317.661 341.842 319.211 340.7 320.355C339.558 321.498 338.009 322.14 336.393 322.14Z" fill="url(#paint3_linear_74_1127)"/>
<path d="M253.045 290.74C252.938 290.069 252.593 289.458 252.074 289.02C251.554 288.582 250.895 288.346 250.215 288.354H201.669C200.99 288.346 200.33 288.582 199.811 289.02C199.291 289.458 198.947 290.069 198.84 290.74L195.805 309.148C195.733 309.559 195.753 309.98 195.862 310.382C195.972 310.785 196.169 311.158 196.439 311.475C196.71 311.792 197.047 312.045 197.426 312.217C197.805 312.389 198.218 312.475 198.635 312.469H253.236C253.652 312.475 254.065 312.389 254.445 312.217C254.824 312.045 255.161 311.792 255.431 311.475C255.701 311.158 255.898 310.785 256.008 310.382C256.118 309.98 256.137 309.559 256.065 309.148L253.045 290.74Z" fill="#4D78EB"/>
<path d="M168.784 132.615H149.02V134.64H168.784V132.615Z" fill="#E0E0E0"/>
<path d="M188.583 147.866H174.315V149.891H188.583V147.866Z" fill="#E0E0E0"/>
<path d="M200.283 147.866H190.811V149.891H200.283V147.866Z" fill="#1487E3"/>
<path d="M158.711 186.225H149.239V188.25H158.711V186.225Z" fill="#1487E3"/>
<path d="M225.012 147.866H202.15V149.891H225.012V147.866Z" fill="#E0E0E0"/>
<path d="M163.931 178.543H149.239V180.568H163.931V178.543Z" fill="#E0E0E0"/>
<path d="M178.694 193.85H169.725V195.875H178.694V193.85Z" fill="#E0E0E0"/>
<path d="M167.008 193.85H149.239V195.875H167.008V193.85Z" fill="#1487E3"/>
<path d="M159.043 201.476H149.239V203.5H159.043V201.476Z" fill="#E0E0E0"/>
<path d="M186.666 132.615H172.632V134.64H186.666V132.615Z" fill="#78C2FF"/>
<path d="M186.666 155.491H172.632V157.516H186.666V155.491Z" fill="#1487E3"/>
<path d="M171.613 163.123H165.615V165.148H171.613V163.123Z" fill="#E0E0E0"/>
<path d="M173.084 170.862H159.616V172.887H173.084V170.862Z" fill="#78C2FF"/>
<path d="M193.711 170.862H175.122V172.887H193.711V170.862Z" fill="#1487E3"/>
<path d="M163.273 163.18H149.239V165.205H163.273V163.18Z" fill="#1487E3"/>
<path d="M157.565 170.862H149.239V172.887H157.565V170.862Z" fill="#1487E3"/>
<path d="M182.287 163.18H174.436V165.205H182.287V163.18Z" fill="#FF8761"/>
<path d="M157.332 209.108H149.48V211.133H157.332V209.108Z" fill="#FF8761"/>
<path d="M163.224 147.866H149.19V149.891H163.224V147.866Z" fill="#78C2FF"/>
<path d="M175.631 186.225H161.597V188.25H175.631V186.225Z" fill="#78C2FF"/>
<path d="M175.801 201.476H161.767V203.5H175.801V201.476Z" fill="#78C2FF"/>
<path d="M200.728 201.476H186.694V203.5H200.728V201.476Z" fill="#78C2FF"/>
<path d="M169.194 155.491H149.19V157.516H169.194V155.491Z" fill="#78C2FF"/>
<path d="M256.95 132.615H242.916V134.64H256.95V132.615Z" fill="#78C2FF"/>
<path d="M206.967 209.108H192.933V211.133H206.967V209.108Z" fill="#78C2FF"/>
<path d="M270.708 132.615H261.314V134.64H270.708V132.615Z" fill="#78C2FF"/>
<path d="M302.489 140.241H293.096V142.266H302.489V140.241Z" fill="#78C2FF"/>
<path d="M208.311 132.615H190.436V134.64H208.311V132.615Z" fill="#1487E3"/>
<path d="M277.965 140.241H260.09V142.266H277.965V140.241Z" fill="#1487E3"/>
<path d="M256.044 147.866H238.169V149.891H256.044V147.866Z" fill="#1487E3"/>
<path d="M232.772 155.491H214.897V157.516H232.772V155.491Z" fill="#1487E3"/>
<path d="M271.005 147.866H258.293V149.891H271.005V147.866Z" fill="#78C2FF"/>
<path d="M239.414 132.615H221.539V134.64H239.414V132.615Z" fill="#FF8761"/>
<path d="M211.622 155.491H201.139V157.516H211.622V155.491Z" fill="#FF8761"/>
<path d="M203.416 186.339H192.933V188.363H203.416V186.339Z" fill="#FF8761"/>
<path d="M218.165 132.615H211.622V134.64H218.165V132.615Z" fill="#E0E0E0"/>
<path d="M196.979 155.491H190.436V157.516H196.979V155.491Z" fill="#E0E0E0"/>
<path d="M288.823 140.241H282.28V142.266H288.823V140.241Z" fill="#E0E0E0"/>
<path d="M159.256 140.241H149.02V142.266H159.256V140.241Z" fill="#1487E3"/>
<path d="M184.417 178.6H176.332V180.625H184.417V178.6Z" fill="#1487E3"/>
<path d="M165.07 140.241H161.767V142.266H165.07V140.241Z" fill="#1487E3"/>
<path d="M256.95 140.241H229.631V142.266H256.95V140.241Z" fill="#E0E0E0"/>
<path d="M230.741 201.476H203.416V203.5H230.741V201.476Z" fill="#E0E0E0"/>
<path d="M170.878 140.241H167.503V142.266H170.878V140.241Z" fill="#FF8761"/>
<path d="M227.106 140.241H218.165V142.266H227.106V140.241Z" fill="#1487E3"/>
<path d="M236.047 147.866H227.106V149.891H236.047V147.866Z" fill="#FF8761"/>
<path d="M190.083 209.108H181.142V211.133H190.083V209.108Z" fill="#FF8761"/>
<path d="M215.802 140.241H196.781V142.266H215.802V140.241Z" fill="#1487E3"/>
<path d="M190.188 186.339H179.076V188.363H190.188V186.339Z" fill="#1487E3"/>
<path d="M183.921 201.476H178.361V203.5H183.921V201.476Z" fill="#1487E3"/>
<path d="M194.079 140.241H187.536V142.266H194.079V140.241Z" fill="#78C2FF"/>
<path d="M172.059 147.866H165.516V149.891H172.059V147.866Z" fill="#FF8761"/>
<path d="M173.36 178.6H166.817V180.625H173.36V178.6Z" fill="#FF8761"/>
<path d="M185.046 140.241H173.644V142.266H185.046V140.241Z" fill="#1487E3"/>
<g opacity="0.76">
<path opacity="0.76" d="M340.581 158.026H257.897C256.331 158.026 255.061 159.297 255.061 160.865V218.241C255.061 219.809 256.331 221.08 257.897 221.08H340.581C342.147 221.08 343.417 219.809 343.417 218.241V160.865C343.417 159.297 342.147 158.026 340.581 158.026Z" fill="white"/>
</g>
<path d="M333.882 190.48H319.643C319.041 190.48 318.554 190.968 318.554 191.571V193.773C318.554 194.375 319.041 194.863 319.643 194.863H333.882C334.484 194.863 334.972 194.375 334.972 193.773V191.571C334.972 190.968 334.484 190.48 333.882 190.48Z" fill="#4AAFFF"/>
<path d="M333.882 198.679H319.643C319.041 198.679 318.554 199.167 318.554 199.769V201.971C318.554 202.573 319.041 203.061 319.643 203.061H333.882C334.484 203.061 334.972 202.573 334.972 201.971V199.769C334.972 199.167 334.484 198.679 333.882 198.679Z" fill="#4AAFFF"/>
<path d="M333.882 206.885H319.643C319.041 206.885 318.554 207.373 318.554 207.975V210.177C318.554 210.779 319.041 211.267 319.643 211.267H333.882C334.484 211.267 334.972 210.779 334.972 210.177V207.975C334.972 207.373 334.484 206.885 333.882 206.885Z" fill="#4AAFFF"/>
<path d="M310.617 180.703C309.538 177.684 307.876 174.908 305.725 172.533C303.574 170.157 300.977 168.229 298.081 166.858C295.186 165.488 292.049 164.701 288.85 164.544C285.651 164.386 282.452 164.861 279.437 165.941C276.421 167.021 273.647 168.685 271.274 170.838C268.901 172.99 266.974 175.59 265.605 178.488C264.235 181.386 263.449 184.526 263.292 187.728C263.135 190.93 263.609 194.131 264.688 197.15C264.872 197.667 265.07 198.169 265.289 198.665C267.818 204.466 272.498 209.058 278.344 211.472C284.19 213.886 290.744 213.933 296.623 211.603C302.503 209.273 307.249 204.748 309.86 198.983C312.47 193.219 312.742 186.664 310.617 180.703ZM293.81 206.191C290.314 207.434 286.522 207.583 282.939 206.618C279.356 205.653 276.151 203.62 273.749 200.789C272.59 199.415 271.637 197.879 270.92 196.229C270.757 195.854 270.609 195.479 270.467 195.089C269.249 191.681 269.068 187.988 269.947 184.477C270.825 180.966 272.725 177.794 275.404 175.363C278.084 172.933 281.423 171.352 285 170.82C288.578 170.289 292.232 170.832 295.501 172.379C298.771 173.927 301.508 176.41 303.367 179.514C305.227 182.619 306.124 186.206 305.947 189.821C305.77 193.436 304.526 196.918 302.372 199.825C300.218 202.733 297.251 204.936 293.846 206.155L293.81 206.191Z" fill="#4AAFFF"/>
<path d="M270.212 183.471L264.384 181.652C265.899 176.805 268.885 172.551 272.926 169.481C276.967 166.411 281.863 164.676 286.934 164.518L287.118 170.628C283.316 170.743 279.644 172.043 276.614 174.345C273.584 176.646 271.346 179.837 270.212 183.471Z" fill="#1A598C"/>
<path d="M270.92 196.229L265.261 198.665C265.042 198.169 264.844 197.667 264.66 197.15C262.869 192.156 262.757 186.714 264.342 181.652L270.17 183.471C268.982 187.266 269.064 191.345 270.404 195.089C270.573 195.479 270.722 195.854 270.92 196.229Z" fill="#2273B5"/>
<path d="M269.066 204.746C267.505 202.919 266.222 200.869 265.261 198.665L270.856 196.229C271.573 197.879 272.526 199.415 273.685 200.789L269.066 204.746Z" fill="#3788CC"/>
<defs>
<linearGradient id="paint0_linear_74_1127" x1="124.51" y1="187.323" x2="337.016" y2="187.323" gradientUnits="userSpaceOnUse">
<stop stop-color="#40D5E6"/>
<stop offset="1" stop-color="#5577FF"/>
</linearGradient>
<linearGradient id="paint1_linear_74_1127" x1="137.03" y1="177.906" x2="314.458" y2="177.906" gradientUnits="userSpaceOnUse">
<stop stop-color="#404B61"/>
<stop offset="0.49" stop-color="#3C4860"/>
<stop offset="1" stop-color="#2F3E5C"/>
</linearGradient>
<linearGradient id="paint2_linear_74_1127" x1="225.953" y1="230.185" x2="225.953" y2="348.124" gradientUnits="userSpaceOnUse">
<stop stop-color="#40D5E6"/>
<stop offset="1" stop-color="#5577FF"/>
</linearGradient>
<linearGradient id="paint3_linear_74_1127" x1="1.39346" y1="319.081" x2="234.462" y2="319.081" gradientUnits="userSpaceOnUse">
<stop stop-color="#40D5E6"/>
<stop offset="1" stop-color="#5577FF"/>
</linearGradient>
</defs>
</svg>
