<svg width="15" height="14" viewBox="0 0 15 14" fill="none" xmlns="http://www.w3.org/2000/svg">
<path fill-rule="evenodd" clip-rule="evenodd" d="M7.78239 13.5261H7.7796C6.64812 13.5257 5.53633 13.2418 4.54887 12.7032L0.964966 13.6433L1.92408 10.14C1.33245 9.11474 1.02114 7.95172 1.02165 6.76019C1.02313 3.03265 4.05594 0 7.78233 0C9.59087 0.000780549 11.2883 0.704841 12.5647 1.98274C13.8411 3.26057 14.5437 4.95912 14.543 6.76552C14.5415 10.4922 11.5099 13.5246 7.78239 13.5261ZM4.71498 11.4793L4.92016 11.6011C5.7829 12.1131 6.77186 12.384 7.78017 12.3844H7.78245C10.8796 12.3844 13.4003 9.86357 13.4015 6.76518C13.4021 5.26372 12.8182 3.85196 11.7573 2.78982C10.6964 1.72768 9.28554 1.14246 7.78466 1.14194C4.68516 1.14194 2.16439 3.66248 2.16316 6.76063C2.16272 7.82239 2.4598 8.85642 3.02229 9.75106L3.1559 9.96366L2.58824 12.0372L4.71498 11.4793ZM10.957 8.22104C11.0748 8.27798 11.1543 8.31643 11.1883 8.37314C11.2305 8.44357 11.2305 8.78179 11.0898 9.17645C10.949 9.57102 10.2742 9.93116 9.94957 9.97964C9.65856 10.0232 9.29026 10.0413 8.88561 9.9127C8.64026 9.83486 8.32563 9.73092 7.9226 9.55686C6.33896 8.87305 5.26875 7.33817 5.06648 7.04808C5.05231 7.02776 5.0424 7.01354 5.03687 7.00616L5.03551 7.00434C4.94612 6.88507 4.34711 6.08585 4.34711 5.25869C4.34711 4.48058 4.72933 4.07274 4.90527 3.885C4.91732 3.87214 4.92841 3.86031 4.93834 3.84947C5.09317 3.68035 5.27619 3.63807 5.3888 3.63807C5.5014 3.63807 5.61414 3.63911 5.71256 3.64405C5.7247 3.64466 5.73734 3.64459 5.7504 3.64451C5.84884 3.64393 5.97156 3.64322 6.09263 3.93403C6.13921 4.04595 6.20736 4.21187 6.27925 4.38687C6.4246 4.74075 6.5852 5.13173 6.61346 5.18831C6.6557 5.27287 6.68384 5.37148 6.62754 5.48427C6.61909 5.50118 6.61127 5.51714 6.6038 5.53239C6.56151 5.61873 6.5304 5.68224 6.45862 5.76605C6.4304 5.79901 6.40123 5.83453 6.37206 5.87006C6.31394 5.94083 6.25583 6.0116 6.20523 6.06202C6.12066 6.14625 6.03263 6.23764 6.13117 6.40676C6.2297 6.57588 6.56872 7.12903 7.07091 7.57697C7.61073 8.05847 8.07991 8.26198 8.31772 8.36514C8.36416 8.38528 8.40178 8.4016 8.42938 8.41541C8.59824 8.5 8.69678 8.48584 8.79533 8.37314C8.89387 8.2604 9.21761 7.87986 9.3302 7.71077C9.4428 7.54172 9.55546 7.56988 9.71027 7.62623C9.86514 7.68265 10.6957 8.09127 10.8646 8.17581C10.8976 8.19233 10.9284 8.20722 10.957 8.22104Z" fill="white"/>
</svg>
